<svg width="35" height="35" viewBox="0 0 39 36" fill="none" xmlns="http://www.w3.org/2000/svg">
<path d="M26.3158 4.77778L30.2105 8.55556L38 1M19.5 1H10.3474C7.07548 1 5.43954 1 4.18984 1.61763C3.09058 2.16091 2.19685 3.0278 1.63675 4.09405C1 5.30622 1 6.89304 1 10.0667V25.9333C1 29.107 1 30.6938 1.63675 31.9059C2.19685 32.9722 3.09058 33.8391 4.18984 34.3824C5.43954 35 7.07548 35 10.3474 35H28.2632C30.0742 35 30.9797 35 31.7226 34.8069C33.7386 34.2829 35.3134 32.7555 35.8536 30.8C36.0526 30.0794 36.0526 29.2011 36.0526 27.4444M15.6053 11.3889C15.6053 13.4753 13.8615 15.1667 11.7105 15.1667C9.55952 15.1667 7.81579 13.4753 7.81579 11.3889C7.81579 9.30248 9.55952 7.61111 11.7105 7.61111C13.8615 7.61111 15.6053 9.30248 15.6053 11.3889ZM24.349 17.8454L7.87645 32.3708C6.94992 33.1878 6.48665 33.5963 6.44567 33.9501C6.41016 34.2569 6.53141 34.5611 6.77041 34.7649C7.04615 35 7.67223 35 8.9244 35H27.2037C30.0063 35 31.4076 35 32.5083 34.5433C33.89 33.97 34.9907 32.9023 35.5818 31.5621C36.0526 30.4945 36.0526 29.1353 36.0526 26.4168C36.0526 25.5022 36.0526 25.0449 35.9495 24.619C35.82 24.0837 35.5716 23.5823 35.2216 23.1499C34.9431 22.8057 34.5749 22.52 33.8386 21.9486L28.3913 17.7217C27.6544 17.1498 27.2859 16.8639 26.8801 16.763C26.5225 16.674 26.1461 16.6856 25.7949 16.7962C25.3965 16.9217 25.0473 17.2296 24.349 17.8454Z" stroke="#fff" stroke-width="1.5" stroke-linecap="round" stroke-linejoin="round"/>
</svg>
