<svg width="27" height="28" viewBox="0 0 27 28" fill="none" xmlns="http://www.w3.org/2000/svg">
<path d="M14.2 5.76085C14.2 7.11088 11.2451 8.2053 7.6 8.2053C3.95492 8.2053 1 7.11088 1 5.76085M14.2 5.76085C14.2 4.41082 11.2451 3.31641 7.6 3.31641C3.95492 3.31641 1 4.41082 1 5.76085M14.2 5.76085V7.59418M1 5.76085V20.4275C1 21.7775 3.95492 22.872 7.6 22.872M7.6 13.0942C7.39775 13.0942 7.19762 13.0908 7 13.0842C3.6361 12.9719 1 11.9249 1 10.6497M7.6 17.9831C3.95492 17.9831 1 16.8887 1 15.5386M25 13.7053C25 15.0553 22.0451 16.1497 18.4 16.1497C14.7549 16.1497 11.8 15.0553 11.8 13.7053M25 13.7053C25 12.3553 22.0451 11.2609 18.4 11.2609C14.7549 11.2609 11.8 12.3553 11.8 13.7053M25 13.7053V22.872C25 24.222 22.0451 25.3164 18.4 25.3164C14.7549 25.3164 11.8 24.222 11.8 22.872V13.7053M25 18.2886C25 19.6387 22.0451 20.7331 18.4 20.7331C14.7549 20.7331 11.8 19.6387 11.8 18.2886" stroke="#007BFF" stroke-width="1.5" stroke-linecap="round" stroke-linejoin="round"/>
</svg>
