<svg width="27" height="28" viewBox="0 0 27 28" fill="none" xmlns="http://www.w3.org/2000/svg">
<path d="M25 9.94141H1M1 14.9414H5.25601C5.90424 14.9414 6.22836 14.9414 6.54176 14.9996C6.81994 15.0513 7.09132 15.1368 7.35029 15.2546C7.64205 15.3873 7.91173 15.5746 8.45109 15.9491L9.14892 16.4337C9.68827 16.8083 9.95795 16.9955 10.2497 17.1282C10.5087 17.246 10.7801 17.3316 11.0582 17.3832C11.3716 17.4414 11.6958 17.4414 12.344 17.4414H13.656C14.3042 17.4414 14.6284 17.4414 14.9418 17.3832C15.2199 17.3316 15.4913 17.246 15.7503 17.1282C16.042 16.9955 16.3117 16.8083 16.8511 16.4337L17.5489 15.9491C18.0883 15.5746 18.358 15.3873 18.6497 15.2546C18.9087 15.1368 19.1801 15.0513 19.4582 14.9996C19.7716 14.9414 20.0958 14.9414 20.744 14.9414H25M1 8.31641L1 20.3164C1 21.7165 1 22.4166 1.26158 22.9514C1.49168 23.4218 1.85883 23.8042 2.31042 24.0439C2.82381 24.3164 3.49587 24.3164 4.84 24.3164L21.16 24.3164C22.5041 24.3164 23.1762 24.3164 23.6896 24.0439C24.1412 23.8042 24.5083 23.4218 24.7384 22.9514C25 22.4166 25 21.7165 25 20.3164V8.31641C25 6.91628 25 6.21621 24.7384 5.68143C24.5083 5.21103 24.1412 4.82858 23.6896 4.58889C23.1762 4.31641 22.5041 4.31641 21.16 4.31641L4.84 4.31641C3.49587 4.31641 2.82381 4.31641 2.31042 4.58889C1.85883 4.82857 1.49168 5.21102 1.26158 5.68143C1 6.21621 1 6.91628 1 8.31641Z" stroke="#007BFF" stroke-width="1.5" stroke-linecap="round" stroke-linejoin="round"/>
</svg>
