<svg width="27" height="28" viewBox="0 0 27 28" fill="none" xmlns="http://www.w3.org/2000/svg">
<g clip-path="url(#clip0_5499_1951)">
<path d="M9.4 14.3164L11.8 16.7164L17.2 11.3164M7.40052 4.49884C8.36512 4.42186 9.28086 4.04256 10.0174 3.41491C11.7361 1.95024 14.2639 1.95024 15.9826 3.41491C16.7191 4.04256 17.6349 4.42187 18.5995 4.49884C20.8505 4.67847 22.6379 6.46594 22.8176 8.71693C22.8945 9.68153 23.2739 10.5973 23.9015 11.3338C25.3662 13.0525 25.3662 15.5803 23.9015 17.299C23.2739 18.0355 22.8945 18.9513 22.8176 19.9159C22.6379 22.1669 20.8505 23.9543 18.5995 24.134C17.6349 24.2109 16.7191 24.5903 15.9826 25.2179C14.2639 26.6826 11.7361 26.6826 10.0174 25.2179C9.28086 24.5903 8.36512 24.2109 7.40052 24.134C5.14953 23.9543 3.36206 22.1669 3.18243 19.9159C3.10546 18.9513 2.72615 18.0355 2.0985 17.299C0.633832 15.5803 0.633832 13.0525 2.0985 11.3338C2.72615 10.5973 3.10546 9.68153 3.18243 8.71693C3.36206 6.46594 5.14953 4.67847 7.40052 4.49884Z" stroke="#007BFF" stroke-width="1.5" stroke-linecap="round" stroke-linejoin="round"/>
</g>
<defs>
<clipPath id="clip0_5499_1951">
<rect width="27" height="27" fill="white" transform="translate(0 0.316406)"/>
</clipPath>
</defs>
</svg>
