<svg width="27" height="28" viewBox="0 0 27 28" fill="none" xmlns="http://www.w3.org/2000/svg">
<path d="M15.25 3.61289V8.15649C15.25 8.77254 15.25 9.08057 15.3726 9.31587C15.4805 9.52285 15.6526 9.69113 15.8643 9.79659C16.1049 9.91648 16.4199 9.91648 17.05 9.91648H21.6969M17.5 15.4164H8.5M17.5 19.8164H8.5M10.75 11.0164H8.5M15.25 3.31641H9.4C7.50982 3.31641 6.56473 3.31641 5.84278 3.67608C5.20774 3.99247 4.69143 4.4973 4.36785 5.11824C4 5.82415 4 6.74823 4 8.59641V20.0364C4 21.8846 4 22.8087 4.36785 23.5146C4.69143 24.1355 5.20774 24.6403 5.84278 24.9567C6.56473 25.3164 7.50982 25.3164 9.4 25.3164H16.6C18.4902 25.3164 19.4353 25.3164 20.1572 24.9567C20.7923 24.6403 21.3086 24.1355 21.6321 23.5146C22 22.8087 22 21.8846 22 20.0364V9.91641L15.25 3.31641Z" stroke="#007BFF" stroke-width="1.5" stroke-linecap="round" stroke-linejoin="round"/>
</svg>
