<svg width="49" height="57" viewBox="0 0 49 57" fill="none" xmlns="http://www.w3.org/2000/svg">
<g clip-path="url(#clip0_3307_5617)">
<path d="M24.702 55.7387C24.357 55.7387 24.012 55.6595 23.7008 55.4984L13.6686 50.3052C10.8219 48.8302 8.59503 47.1746 6.85616 45.246C3.0503 41.0282 0.932804 35.6138 0.89915 29.9972L0.781356 11.5113C0.767332 9.3778 2.14441 7.46282 4.20299 6.74162L22.6238 0.319225C23.7176 -0.0714196 24.9376 -0.0768832 26.051 0.300102L44.5418 6.50397C46.6116 7.1951 48.0111 9.09643 48.0223 11.2272L48.1401 29.7268C48.1767 35.3351 46.1321 40.7713 42.3851 45.0358C40.6658 46.9917 38.4586 48.6716 35.6399 50.1742L25.6976 55.4847C25.3891 55.6513 25.0469 55.736 24.702 55.7387Z" fill="white"/>
<path d="M22.5652 34.3461C22.0266 34.3488 21.4882 34.1548 21.0731 33.756L15.7331 28.6203C14.9085 27.8226 14.9001 26.5277 15.7163 25.7246C16.5324 24.9186 17.8647 24.9106 18.6919 25.7054L22.5343 29.3988L31.9157 20.1489C32.7347 19.3431 34.0669 19.3349 34.8914 20.1299C35.7189 20.9276 35.7273 22.2251 34.9112 23.0256L24.0488 33.7369C23.6392 34.1412 23.1036 34.3433 22.5652 34.3461Z" fill="#007BFF"/>
</g>
<defs>
<clipPath id="clip0_3307_5617">
<rect width="48.087" height="56.6739" fill="white" transform="translate(0.0546875 0.0217285)"/>
</clipPath>
</defs>
</svg>
