<svg width="64" height="65" viewBox="0 0 64 65" fill="none" xmlns="http://www.w3.org/2000/svg">
<g clip-path="url(#clip0_3307_5624)">
<path d="M31.459 63.1556C29.0538 63.1556 26.6517 62.2423 24.8156 60.419L22.5323 58.1357C21.6472 57.2536 20.4617 56.7656 19.2044 56.7625H15.9922C10.8001 56.7625 6.57445 52.5368 6.57445 47.3448V44.1295C6.57133 42.8751 6.08338 41.6898 5.19822 40.7983L2.95249 38.5557C-0.725775 34.8994 -0.741413 28.9222 2.91808 25.2408L5.20137 22.9544C6.08338 22.0693 6.57133 20.8838 6.57445 19.6265V16.4174C6.57445 11.2222 10.8001 6.99653 15.9922 6.99653H19.2075C20.4617 6.99653 21.6441 6.50858 22.5354 5.61717L24.7844 3.37457C28.4407 -0.303698 34.4148 -0.322466 38.0993 3.34015L40.3826 5.62344C41.2708 6.50858 42.4531 6.99653 43.7074 6.99653H46.9227C52.1148 6.99653 56.3404 11.2222 56.3404 16.4174V19.6296C56.3437 20.8838 56.8316 22.0693 57.7167 22.9606L59.9624 25.2064C61.7421 26.9767 62.7274 29.335 62.7368 31.8529C62.743 34.3552 61.7797 36.7104 60.0249 38.4901C59.9936 38.5214 59.9655 38.5557 59.9342 38.5839L57.7136 40.8046C56.8316 41.6898 56.3437 42.8751 56.3404 44.1326V47.3448C56.3404 52.5368 52.1148 56.7625 46.9227 56.7625H43.7074C42.4531 56.7656 41.2677 57.2536 40.3795 58.1388L38.1306 60.3845C36.2978 62.2298 33.8768 63.1556 31.459 63.1556Z" fill="white"/>
<path d="M43 44L35.6668 36.6667M38.1111 30.5556C38.1111 35.2807 34.2807 39.1111 29.5556 39.1111C24.8305 39.1111 21 35.2807 21 30.5556C21 25.8305 24.8305 22 29.5556 22C34.2807 22 38.1111 25.8305 38.1111 30.5556Z" stroke="#007BFF" stroke-width="3" stroke-linecap="round" stroke-linejoin="round"/>
</g>
<defs>
<clipPath id="clip0_3307_5624">
<rect width="63.5435" height="63.5435" fill="white" transform="translate(0.183594 0.587158)"/>
</clipPath>
</defs>
</svg>
