<svg width="53" height="53" viewBox="0 0 53 53" fill="none" xmlns="http://www.w3.org/2000/svg">
<path d="M18.5 25.8259L23.5 30.878L34.75 19.5107M46 27.0889C46 39.488 32.6151 48.5059 27.745 51.3767C27.1915 51.703 26.9148 51.8661 26.5242 51.9507C26.2211 52.0164 25.7789 52.0164 25.4758 51.9507C25.0852 51.8661 24.8085 51.703 24.255 51.3767C19.3849 48.5059 6 39.488 6 27.0889V15.0082C6 12.9886 6 11.9788 6.3269 11.1108C6.61569 10.344 7.08496 9.65974 7.69415 9.11727C8.38374 8.5032 9.3195 8.14864 11.191 7.4395L24.5955 2.3604C25.1152 2.16347 25.3751 2.065 25.6425 2.02597C25.8796 1.99134 26.1204 1.99134 26.3575 2.02597C26.6249 2.065 26.8848 2.16347 27.4045 2.3604L40.809 7.4395C42.6805 8.14864 43.6163 8.5032 44.3059 9.11727C44.915 9.65974 45.3843 10.344 45.6731 11.1108C46 11.9788 46 12.9886 46 15.0082V27.0889Z" stroke="#193370" stroke-width="2" stroke-linecap="round" stroke-linejoin="round"/>
</svg>
