<svg width="53" height="53" viewBox="0 0 53 53" fill="none" xmlns="http://www.w3.org/2000/svg">
<path d="M49 52C49.7001 52 50.0501 52 50.3175 51.8638C50.5527 51.7439 50.7439 51.5527 50.8638 51.3175C51 51.0501 51 50.7001 51 50V24C51 23.2999 51 22.9499 50.8638 22.6825C50.7439 22.4473 50.5527 22.2561 50.3175 22.1362C50.0501 22 49.7001 22 49 22L43 22C42.2999 22 41.9499 22 41.6825 22.1362C41.4473 22.2561 41.2561 22.4473 41.1362 22.6825C41 22.9499 41 23.2999 41 24V30C41 30.7001 41 31.0501 40.8638 31.3175C40.7439 31.5527 40.5527 31.7439 40.3175 31.8638C40.0501 32 39.7001 32 39 32H33C32.2999 32 31.9499 32 31.6825 32.1362C31.4473 32.2561 31.2561 32.4473 31.1362 32.6825C31 32.9499 31 33.2999 31 34V40C31 40.7001 31 41.0501 30.8638 41.3175C30.7439 41.5527 30.5527 41.7439 30.3175 41.8638C30.0501 42 29.7001 42 29 42H23C22.2999 42 21.9499 42 21.6825 42.1362C21.4473 42.2561 21.2561 42.4473 21.1362 42.6825C21 42.9499 21 43.2999 21 44V50C21 50.7001 21 51.0501 21.1362 51.3175C21.2561 51.5527 21.4473 51.7439 21.6825 51.8638C21.9499 52 22.2999 52 23 52L49 52Z" stroke="#193370" stroke-width="2" stroke-linecap="round" stroke-linejoin="round"/>
<path d="M21 14C21 13.2999 21 12.9499 21.1362 12.6825C21.2561 12.4473 21.4473 12.2561 21.6825 12.1362C21.9499 12 22.2999 12 23 12H29C29.7001 12 30.0501 12 30.3175 12.1362C30.5527 12.2561 30.7439 12.4473 30.8638 12.6825C31 12.9499 31 13.2999 31 14V20C31 20.7001 31 21.0501 30.8638 21.3175C30.7439 21.5527 30.5527 21.7439 30.3175 21.8638C30.0501 22 29.7001 22 29 22H23C22.2999 22 21.9499 22 21.6825 21.8638C21.4473 21.7439 21.2561 21.5527 21.1362 21.3175C21 21.0501 21 20.7001 21 20V14Z" stroke="#193370" stroke-width="2" stroke-linecap="round" stroke-linejoin="round"/>
<path d="M3.5 29C3.5 28.2999 3.5 27.9499 3.63624 27.6825C3.75608 27.4473 3.94731 27.2561 4.18251 27.1362C4.4499 27 4.79993 27 5.5 27H11.5C12.2001 27 12.5501 27 12.8175 27.1362C13.0527 27.2561 13.2439 27.4473 13.3638 27.6825C13.5 27.9499 13.5 28.2999 13.5 29V35C13.5 35.7001 13.5 36.0501 13.3638 36.3175C13.2439 36.5527 13.0527 36.7439 12.8175 36.8638C12.5501 37 12.2001 37 11.5 37H5.5C4.79993 37 4.4499 37 4.18251 36.8638C3.94731 36.7439 3.75608 36.5527 3.63624 36.3175C3.5 36.0501 3.5 35.7001 3.5 35V29Z" stroke="#193370" stroke-width="2" stroke-linecap="round" stroke-linejoin="round"/>
<path d="M1 4C1 3.29993 1 2.9499 1.13624 2.68251C1.25608 2.44731 1.44731 2.25608 1.68251 2.13624C1.9499 2 2.29993 2 3 2H9C9.70007 2 10.0501 2 10.3175 2.13624C10.5527 2.25608 10.7439 2.44731 10.8638 2.68251C11 2.9499 11 3.29993 11 4V10C11 10.7001 11 11.0501 10.8638 11.3175C10.7439 11.5527 10.5527 11.7439 10.3175 11.8638C10.0501 12 9.70007 12 9 12H3C2.29993 12 1.9499 12 1.68251 11.8638C1.44731 11.7439 1.25608 11.5527 1.13624 11.3175C1 11.0501 1 10.7001 1 10V4Z" stroke="#193370" stroke-width="2" stroke-linecap="round" stroke-linejoin="round"/>
</svg>
