<svg width="27" height="28" viewBox="0 0 27 28" fill="none" xmlns="http://www.w3.org/2000/svg">
<path d="M12.0242 3.31641C12.4943 3.39256 12.9759 3.42927 13.4334 3.552C16.8239 4.46206 18.9773 6.62517 19.7602 10.0446C20.3054 12.4247 19.8008 14.6503 18.4184 16.6698C18.3915 16.7093 18.3652 16.7487 18.2748 16.8577C18.3477 16.8977 18.4348 16.9235 18.4912 16.9799C20.1169 18.6001 21.7366 20.2257 23.3644 21.8436C23.6439 22.1214 23.8986 22.4052 24 22.797V23.2479C23.9852 23.2846 23.9671 23.3208 23.9562 23.3586C23.6718 24.3251 22.519 24.6379 21.7952 23.935C21.1728 23.3301 20.5657 22.7099 19.952 22.0962C18.8452 20.99 17.739 19.8833 16.6322 18.777C16.5894 18.7343 16.544 18.6943 16.516 18.6686C16.0284 18.942 15.5676 19.2373 15.0772 19.4696C10.0637 21.8404 4.10625 18.7595 3.1337 13.3013C2.40168 9.18934 4.73471 5.18858 8.68245 3.79144C9.35474 3.55365 10.0473 3.40626 10.7596 3.35092C10.8127 3.34654 10.8648 3.32846 10.9169 3.31695C11.2861 3.31641 11.6549 3.31641 12.0242 3.31641ZM11.473 18.9485C15.4218 18.9551 18.6167 15.7735 18.6332 11.8182C18.6496 7.86726 15.4558 4.65273 11.4976 4.63684C7.55703 4.62096 4.33473 7.83 4.32103 11.7831C4.30734 15.7263 7.51703 18.9425 11.4724 18.9491L11.473 18.9485Z" fill="#007BFF"/>
</svg>
