<svg width="27" height="28" viewBox="0 0 27 28" fill="none" xmlns="http://www.w3.org/2000/svg">
<path d="M5.99993 15.3164C5.99993 12.0027 8.68622 9.31641 11.9999 9.31641M5.99993 15.3164C5.99993 16.9648 6.66466 18.4579 7.74067 19.5424C7.84445 19.647 7.89633 19.6992 7.92696 19.7495C7.95619 19.7975 7.9732 19.8388 7.98625 19.8935C7.99993 19.9507 7.99993 20.0159 7.99993 20.1462V22.5164C7.99993 22.7964 7.99993 22.9364 8.05443 23.0434C8.10236 23.1375 8.17885 23.214 8.27293 23.2619C8.37989 23.3164 8.5199 23.3164 8.79993 23.3164H10.6999C10.98 23.3164 11.12 23.3164 11.2269 23.2619C11.321 23.214 11.3975 23.1375 11.4454 23.0434C11.4999 22.9364 11.4999 22.7964 11.4999 22.5164V22.1164C11.4999 21.8364 11.4999 21.6964 11.5544 21.5894C11.6024 21.4953 11.6789 21.4188 11.7729 21.3709C11.8799 21.3164 12.0199 21.3164 12.2999 21.3164H13.6999C13.98 21.3164 14.12 21.3164 14.2269 21.3709C14.321 21.4188 14.3975 21.4953 14.4454 21.5894C14.4999 21.6964 14.4999 21.8364 14.4999 22.1164V22.5164C14.4999 22.7964 14.4999 22.9364 14.5544 23.0434C14.6024 23.1375 14.6789 23.214 14.7729 23.2619C14.8799 23.3164 15.0199 23.3164 15.2999 23.3164H17.2C17.48 23.3164 17.62 23.3164 17.727 23.2619C17.8211 23.214 17.8976 23.1375 17.9455 23.0434C18 22.9364 18 22.7964 18 22.5164V21.5407C18 21.3387 18 21.2376 18.0288 21.1565C18.0563 21.0788 18.0911 21.0244 18.15 20.9666C18.2114 20.9064 18.3155 20.8581 18.5237 20.7614C19.5059 20.3054 20.344 19.5915 20.9511 18.7066C21.0579 18.551 21.1112 18.4732 21.1683 18.4272C21.2228 18.3832 21.2717 18.3575 21.3387 18.3374C21.4089 18.3164 21.4922 18.3164 21.6587 18.3164H22.2C22.48 18.3164 22.62 18.3164 22.727 18.2619C22.8211 18.214 22.8976 18.1375 22.9455 18.0434C23 17.9364 23 17.7964 23 17.5164V14.1022C23 13.8356 23 13.7023 22.9505 13.5994C22.9013 13.4974 22.819 13.4151 22.717 13.3659C22.6141 13.3164 22.4808 13.3164 22.2143 13.3164C22.0213 13.3164 21.9248 13.3164 21.8471 13.2902C21.7633 13.262 21.7045 13.2244 21.6437 13.1602C21.5874 13.1006 21.5413 13.001 21.4493 12.8019C21.1538 12.1626 20.7492 11.5842 20.2593 11.0904C20.1555 10.9859 20.1036 10.9336 20.073 10.8833C20.0437 10.8353 20.0267 10.794 20.0137 10.7393C20 10.6821 20 10.6169 20 10.4866V9.37698C20 9.01694 20 8.83692 19.925 8.71591C19.8593 8.60991 19.7564 8.53228 19.6365 8.49825C19.4995 8.4594 19.3264 8.50885 18.9802 8.60776L16.6077 9.28563C16.5673 9.29715 16.5472 9.30291 16.5267 9.30695C16.5085 9.31054 16.4901 9.31312 16.4716 9.31466C16.4508 9.31641 16.4297 9.31641 16.3874 9.31641H11.9999M5.99993 15.3164H5C3.89543 15.3164 3 14.421 3 13.3164C3 12.5761 3.4022 11.9298 4 11.584M11.9999 9.31641H15.9646C15.9879 9.1531 16 8.98617 16 8.81641C16 6.88341 14.433 5.31641 12.5 5.31641C10.567 5.31641 9 6.88341 9 8.81641C9 9.23361 9.073 9.63376 9.20692 10.0048C10.0411 9.56521 10.9914 9.31641 11.9999 9.31641Z" stroke="#007BFF" stroke-width="1.5" stroke-linecap="round" stroke-linejoin="round"/>
</svg>
