<svg width="27" height="28" viewBox="0 0 27 28" fill="none" xmlns="http://www.w3.org/2000/svg">
<path d="M3 14.3164L12.6422 19.1661C12.7734 19.2321 12.839 19.2651 12.9078 19.2781C12.9687 19.2896 13.0313 19.2896 13.0922 19.2781C13.161 19.2651 13.2266 19.2321 13.3578 19.1661L23 14.3164M3 19.3461L12.6422 24.1958C12.7734 24.2618 12.839 24.2948 12.9078 24.3078C12.9687 24.3193 13.0313 24.3193 13.0922 24.3078C13.161 24.2948 13.2266 24.2618 13.3578 24.1958L23 19.3461M3 9.28672L12.6422 4.43699C12.7734 4.37101 12.839 4.33802 12.9078 4.32503C12.9687 4.31353 13.0313 4.31353 13.0922 4.32503C13.161 4.33802 13.2266 4.37101 13.3578 4.43699L23 9.28672L13.3578 14.1365C13.2266 14.2024 13.161 14.2354 13.0922 14.2484C13.0313 14.2599 12.9687 14.2599 12.9078 14.2484C12.839 14.2354 12.7734 14.2024 12.6422 14.1365L3 9.28672Z" stroke="#007BFF" stroke-width="1.5" stroke-linecap="round" stroke-linejoin="round"/>
</svg>
