<svg width="27" height="28" viewBox="0 0 27 28" fill="none" xmlns="http://www.w3.org/2000/svg">
<path d="M13 17.3164C14.6569 17.3164 16 15.9733 16 14.3164C16 12.6596 14.6569 11.3164 13 11.3164C11.3431 11.3164 10 12.6596 10 14.3164C10 15.9733 11.3431 17.3164 13 17.3164Z" stroke="#007BFF" stroke-width="1.5" stroke-linecap="round" stroke-linejoin="round"/>
<path d="M19.7273 17.0437C19.6063 17.3179 19.5702 17.622 19.6236 17.9169C19.6771 18.2118 19.8177 18.484 20.0273 18.6982L20.0818 18.7528C20.2509 18.9216 20.385 19.1222 20.4765 19.3429C20.568 19.5636 20.6151 19.8002 20.6151 20.0391C20.6151 20.2781 20.568 20.5147 20.4765 20.7354C20.385 20.9561 20.2509 21.1566 20.0818 21.3255C19.913 21.4945 19.7124 21.6287 19.4917 21.7202C19.271 21.8117 19.0344 21.8587 18.7955 21.8587C18.5565 21.8587 18.3199 21.8117 18.0992 21.7202C17.8785 21.6287 17.678 21.4945 17.5091 21.3255L17.4545 21.271C17.2403 21.0614 16.9682 20.9208 16.6733 20.8673C16.3784 20.8138 16.0742 20.8499 15.8 20.971C15.5311 21.0862 15.3018 21.2775 15.1403 21.5214C14.9788 21.7653 14.8921 22.0511 14.8909 22.3437V22.4982C14.8909 22.9804 14.6994 23.4429 14.3584 23.7839C14.0174 24.1248 13.5549 24.3164 13.0727 24.3164C12.5905 24.3164 12.1281 24.1248 11.7871 23.7839C11.4461 23.4429 11.2545 22.9804 11.2545 22.4982V22.4164C11.2475 22.1155 11.1501 21.8237 10.975 21.5789C10.7999 21.334 10.5552 21.1476 10.2727 21.0437C9.99853 20.9227 9.69437 20.8866 9.39947 20.94C9.10456 20.9935 8.83244 21.1341 8.61818 21.3437L8.56364 21.3982C8.39478 21.5673 8.19425 21.7014 7.97353 21.7929C7.7528 21.8844 7.51621 21.9315 7.27727 21.9315C7.03834 21.9315 6.80174 21.8844 6.58102 21.7929C6.36029 21.7014 6.15977 21.5673 5.99091 21.3982C5.82186 21.2294 5.68775 21.0288 5.59626 20.8081C5.50476 20.5874 5.45766 20.3508 5.45766 20.1119C5.45766 19.8729 5.50476 19.6363 5.59626 19.4156C5.68775 19.1949 5.82186 18.9944 5.99091 18.8255L6.04545 18.771C6.25503 18.5567 6.39562 18.2846 6.4491 17.9897C6.50257 17.6948 6.46647 17.3906 6.34545 17.1164C6.23022 16.8475 6.03887 16.6182 5.79497 16.4567C5.55107 16.2952 5.26526 16.2085 4.97273 16.2073H4.81818C4.33597 16.2073 3.87351 16.0158 3.53253 15.6748C3.19156 15.3338 3 14.8713 3 14.3891C3 13.9069 3.19156 13.4445 3.53253 13.1035C3.87351 12.7625 4.33597 12.571 4.81818 12.571H4.9C5.2009 12.5639 5.49273 12.4665 5.73754 12.2914C5.98236 12.1163 6.16883 11.8716 6.27273 11.5891C6.39374 11.3149 6.42984 11.0108 6.37637 10.7159C6.3229 10.421 6.18231 10.1488 5.97273 9.93459L5.91818 9.88004C5.74913 9.71118 5.61503 9.51066 5.52353 9.28993C5.43203 9.06921 5.38493 8.83262 5.38493 8.59368C5.38493 8.35474 5.43203 8.11815 5.52353 7.89742C5.61503 7.6767 5.74913 7.47618 5.91818 7.30732C6.08704 7.13827 6.28757 7.00416 6.50829 6.91266C6.72901 6.82116 6.96561 6.77407 7.20455 6.77407C7.44348 6.77407 7.68008 6.82116 7.9008 6.91266C8.12152 7.00416 8.32205 7.13827 8.49091 7.30732L8.54545 7.36186C8.75971 7.57144 9.03183 7.71203 9.32674 7.7655C9.62164 7.81897 9.9258 7.78287 10.2 7.66186H10.2727C10.5416 7.54662 10.7709 7.35528 10.9324 7.11137C11.094 6.86747 11.1807 6.58167 11.1818 6.28913V6.13459C11.1818 5.65238 11.3734 5.18991 11.7144 4.84894C12.0553 4.50796 12.5178 4.31641 13 4.31641C13.4822 4.31641 13.9447 4.50796 14.2856 4.84894C14.6266 5.18991 14.8182 5.65238 14.8182 6.13459V6.21641C14.8193 6.50894 14.906 6.79475 15.0676 7.03865C15.2291 7.28255 15.4584 7.47389 15.7273 7.58913C16.0015 7.71015 16.3056 7.74625 16.6005 7.69277C16.8954 7.6393 17.1676 7.49871 17.3818 7.28913L17.4364 7.23459C17.6052 7.06554 17.8057 6.93143 18.0265 6.83993C18.2472 6.74844 18.4838 6.70134 18.7227 6.70134C18.9617 6.70134 19.1983 6.74844 19.419 6.83993C19.6397 6.93143 19.8402 7.06554 20.0091 7.23459C20.1781 7.40345 20.3122 7.60397 20.4037 7.8247C20.4952 8.04542 20.5423 8.28201 20.5423 8.52095C20.5423 8.75989 20.4952 8.99648 20.4037 9.21721C20.3122 9.43793 20.1781 9.63846 20.0091 9.80732L19.9545 9.86186C19.745 10.0761 19.6044 10.3482 19.5509 10.6431C19.4974 10.938 19.5335 11.2422 19.6545 11.5164V11.5891C19.7698 11.858 19.9611 12.0873 20.205 12.2489C20.4489 12.4104 20.7347 12.4971 21.0273 12.4982H21.1818C21.664 12.4982 22.1265 12.6898 22.4675 13.0308C22.8084 13.3717 23 13.8342 23 14.3164C23 14.7986 22.8084 15.2611 22.4675 15.6021C22.1265 15.943 21.664 16.1346 21.1818 16.1346H21.1C20.8075 16.1358 20.5217 16.2224 20.2778 16.384C20.0339 16.5455 19.8425 16.7748 19.7273 17.0437Z" stroke="#007BFF" stroke-width="1.5" stroke-linecap="round" stroke-linejoin="round"/>
</svg>
