<svg width="27" height="28" viewBox="0 0 27 28" fill="none" xmlns="http://www.w3.org/2000/svg">
<path d="M18 10.3167V6.81738C18 5.98564 18 5.56977 17.8248 5.3142C17.6717 5.0909 17.4346 4.93922 17.1678 4.8938C16.8623 4.84182 16.4847 5.0161 15.7295 5.36464L6.85901 9.45871C6.18551 9.76957 5.84875 9.92499 5.60211 10.166C5.38406 10.3791 5.21762 10.6393 5.1155 10.9266C5 11.2515 5 11.6224 5 12.3642V17.3167M18.5 16.8167H18.51M5 13.5167L5 20.1167C5 21.2368 5 21.7969 5.21799 22.2247C5.40973 22.601 5.71569 22.907 6.09202 23.0987C6.51984 23.3167 7.07989 23.3167 8.2 23.3167H19.8C20.9201 23.3167 21.4802 23.3167 21.908 23.0987C22.2843 22.907 22.5903 22.601 22.782 22.2247C23 21.7969 23 21.2368 23 20.1167V13.5167C23 12.3966 23 11.8366 22.782 11.4087C22.5903 11.0324 22.2843 10.7265 21.908 10.5347C21.4802 10.3167 20.9201 10.3167 19.8 10.3167L8.2 10.3167C7.0799 10.3167 6.51984 10.3167 6.09202 10.5347C5.7157 10.7265 5.40973 11.0324 5.21799 11.4087C5 11.8366 5 12.3966 5 13.5167ZM19 16.8167C19 17.0929 18.7761 17.3167 18.5 17.3167C18.2239 17.3167 18 17.0929 18 16.8167C18 16.5406 18.2239 16.3167 18.5 16.3167C18.7761 16.3167 19 16.5406 19 16.8167Z" stroke="#007BFF" stroke-width="1.5" stroke-linecap="round" stroke-linejoin="round"/>
</svg>
