<svg width="27" height="28" viewBox="0 0 27 28" fill="none" xmlns="http://www.w3.org/2000/svg">
<path d="M12 6.81641H19.3C20.4201 6.81641 20.9802 6.81641 21.408 7.03439C21.7843 7.22614 22.0903 7.5321 22.282 7.90843C22.5 8.33625 22.5 8.8963 22.5 10.0164V11.3164C22.5 12.2483 22.5 12.7142 22.3478 13.0818C22.1448 13.5718 21.7554 13.9612 21.2654 14.1642C20.8978 14.3164 20.4319 14.3164 19.5 14.3164M14 21.8164H6.7C5.5799 21.8164 5.01984 21.8164 4.59202 21.5984C4.21569 21.4067 3.90973 21.1007 3.71799 20.7244C3.5 20.2966 3.5 19.7365 3.5 18.6164V17.3164C3.5 16.3845 3.5 15.9186 3.65224 15.551C3.85523 15.061 4.24458 14.6716 4.73463 14.4686C5.10218 14.3164 5.56812 14.3164 6.5 14.3164M11.3 16.8164H14.7C14.98 16.8164 15.12 16.8164 15.227 16.7619C15.3211 16.714 15.3976 16.6375 15.4455 16.5434C15.5 16.4364 15.5 16.2964 15.5 16.0164V12.6164C15.5 12.3364 15.5 12.1964 15.4455 12.0894C15.3976 11.9953 15.3211 11.9188 15.227 11.8709C15.12 11.8164 14.98 11.8164 14.7 11.8164H11.3C11.02 11.8164 10.88 11.8164 10.773 11.8709C10.6789 11.9188 10.6024 11.9953 10.5545 12.0894C10.5 12.1964 10.5 12.3364 10.5 12.6164V16.0164C10.5 16.2964 10.5 16.4364 10.5545 16.5434C10.6024 16.6375 10.6789 16.714 10.773 16.7619C10.88 16.8164 11.02 16.8164 11.3 16.8164ZM18.8 24.3164H22.2C22.48 24.3164 22.62 24.3164 22.727 24.2619C22.8211 24.214 22.8976 24.1375 22.9455 24.0434C23 23.9364 23 23.7964 23 23.5164V20.1164C23 19.8364 23 19.6964 22.9455 19.5894C22.8976 19.4953 22.8211 19.4188 22.727 19.3709C22.62 19.3164 22.48 19.3164 22.2 19.3164H18.8C18.52 19.3164 18.38 19.3164 18.273 19.3709C18.1789 19.4188 18.1024 19.4953 18.0545 19.5894C18 19.6964 18 19.8364 18 20.1164V23.5164C18 23.7964 18 23.9364 18.0545 24.0434C18.1024 24.1375 18.1789 24.214 18.273 24.2619C18.38 24.3164 18.52 24.3164 18.8 24.3164ZM3.8 9.31641H7.2C7.48003 9.31641 7.62004 9.31641 7.727 9.26191C7.82108 9.21397 7.89757 9.13748 7.9455 9.0434C8 8.93645 8 8.79643 8 8.51641V5.11641C8 4.83638 8 4.69637 7.9455 4.58941C7.89757 4.49533 7.82108 4.41884 7.727 4.3709C7.62004 4.31641 7.48003 4.31641 7.2 4.31641H3.8C3.51997 4.31641 3.37996 4.31641 3.273 4.3709C3.17892 4.41884 3.10243 4.49533 3.0545 4.58941C3 4.69637 3 4.83638 3 5.11641V8.51641C3 8.79643 3 8.93645 3.0545 9.0434C3.10243 9.13748 3.17892 9.21397 3.273 9.26191C3.37996 9.31641 3.51997 9.31641 3.8 9.31641Z" stroke="#007BFF" stroke-width="1.5" stroke-linecap="round" stroke-linejoin="round"/>
</svg>
