<svg width="27" height="28" viewBox="0 0 27 28" fill="none" xmlns="http://www.w3.org/2000/svg">
<path d="M10 12.8168L12 14.8168L16.5 10.3168M21 13.3168C21 18.2252 15.646 21.7952 13.698 22.9316C13.4766 23.0608 13.3659 23.1254 13.2097 23.1589C13.0884 23.1849 12.9116 23.1849 12.7903 23.1589C12.6341 23.1254 12.5234 23.0608 12.302 22.9316C10.354 21.7952 5 18.2252 5 13.3168V8.53437C5 7.73485 5 7.3351 5.13076 6.99147C5.24627 6.68791 5.43398 6.41704 5.67766 6.2023C5.9535 5.9592 6.3278 5.81884 7.0764 5.53811L12.4382 3.52744C12.6461 3.44948 12.75 3.4105 12.857 3.39505C12.9518 3.38134 13.0482 3.38134 13.143 3.39505C13.25 3.4105 13.3539 3.44948 13.5618 3.52744L18.9236 5.53811C19.6722 5.81884 20.0465 5.9592 20.3223 6.2023C20.566 6.41704 20.7537 6.68791 20.8692 6.99147C21 7.3351 21 7.73485 21 8.53437V13.3168Z" stroke="#007BFF" stroke-width="1.5" stroke-linecap="round" stroke-linejoin="round"/>
</svg>
