<svg width="63" height="74" viewBox="0 0 63 74" fill="none" xmlns="http://www.w3.org/2000/svg">
<path d="M23.5213 56.7988C24.3815 59.7289 26.6808 60.9422 29.321 59.7423C32.0288 58.5102 34.6392 57.0586 37.2524 55.631C41.4669 53.3249 45.6544 50.9706 50.18 49.2886C52.2116 48.5333 54.2837 47.8449 56.464 47.8101C57.7787 47.7887 59.1312 47.9788 60.408 48.3002C61.8201 48.6565 62.6587 49.6957 62.821 51.1688C62.9833 52.658 62.3909 53.8043 61.1276 54.6105C58.6389 56.2015 56.1448 57.7871 53.6534 59.3727C47.7157 63.1519 41.7699 66.915 35.8403 70.7103C31.477 73.5039 26.743 74.4467 21.6006 73.8092C16.2067 73.1396 10.7938 72.6227 5.38897 72.0388C4.10946 71.8995 2.82994 71.7522 1.54773 71.6076C0.522493 71.4897 0.160009 71.1013 0.157304 70.0568C0.149188 67.1989 0.154599 64.3384 0.154599 61.4806C0.154599 59.0299 0.151894 56.5791 0.154599 54.1284C0.154599 52.8321 0.592825 52.4142 1.87504 52.4705C5.28888 52.6231 8.0535 51.4366 10.0958 48.6565C11.5566 46.6691 13.3474 44.9924 15.8739 44.5987C17.5538 44.3362 19.3257 44.3389 21.0163 44.5425C24.7115 44.9871 28.3742 44.7648 32.045 44.4032C33.0162 44.3068 34.0035 44.138 34.9666 44.213C37.6608 44.4219 39.3001 46.5164 39.0459 49.2618C38.8565 51.3054 37.7528 52.7705 36.0838 53.8659C33.4679 55.5828 30.4977 56.1452 27.4464 56.4318C26.1479 56.555 24.8495 56.6755 23.5186 56.7988H23.5213ZM21.2923 58.2424C21.1543 58.4245 21.0813 58.5263 21.0028 58.6254C20.4753 59.2923 19.7774 59.4423 19.1958 59.0191C18.6034 58.5879 18.5141 57.8969 19.0092 57.1898C20.0263 55.7408 21.4573 54.8301 23.1642 54.4605C24.4626 54.1766 25.8125 54.1123 27.1434 53.9757C29.5888 53.724 31.9991 53.3436 34.1929 52.1544C35.137 51.6429 35.9566 50.9947 36.3651 49.9608C37.182 47.8958 36.1243 46.4629 33.9089 46.6316C33.7547 46.6423 33.6032 46.6691 33.449 46.6878C28.9342 47.2289 24.4194 47.5396 19.8856 46.8298C16.6314 46.3182 13.9939 47.328 12.1057 50.0706C11.9759 50.2608 11.8244 50.4349 11.681 50.617C10.0607 52.6981 7.95341 54.0373 5.36192 54.5998C4.49088 54.79 3.59819 54.8784 2.69469 55.0176V69.2613C3.66312 69.3738 4.58285 69.489 5.50529 69.5881C10.9858 70.1853 16.4745 70.7237 21.9469 71.3879C26.4779 71.937 30.6519 71.1228 34.4986 68.6694C41.4723 64.2206 48.4542 59.7852 55.4334 55.3417C56.8644 54.4311 58.317 53.5525 59.7047 52.5803C60.0401 52.3446 60.3431 51.7795 60.3079 51.3991C60.2782 51.0697 59.7832 50.5929 59.4234 50.5233C58.4279 50.3251 57.3837 50.1617 56.3774 50.2394C53.8076 50.4403 51.3676 51.2598 49.0845 52.3848C44.5913 54.5998 40.182 56.9728 35.724 59.2602C33.7817 60.2566 31.8692 61.3333 29.8458 62.1341C26.8458 63.3233 23.9514 62.3644 22.2228 59.8334C21.8955 59.3539 21.6304 58.8343 21.2842 58.2451L21.2923 58.2424Z" fill="white"/>
<path d="M31.0588 41.1084C19.0714 41.0211 10.1257 31.2239 10.4386 19.877C10.7488 8.57104 20.2767 -0.380417 31.8261 0.012454C43.2204 0.399868 52.0246 10.1425 51.5212 21.4758C51.0451 32.1788 42.2164 41.0538 31.0588 41.1111V41.1084ZM31.0235 38.5984C41.0411 38.5438 49.0862 30.4436 49.0399 20.4636C48.9937 10.4672 40.8724 2.42152 30.882 2.47608C20.9569 2.52792 12.8873 10.6745 12.9226 20.6054C12.958 30.5254 21.1337 38.6529 31.0235 38.5984Z" fill="white"/>
<path d="M41.264 18.9203C41.1586 19.081 40.9884 19.4533 40.7155 19.7265C39.6833 20.7604 38.6323 21.7754 37.5542 22.7637C37.2056 23.0851 37.1219 23.4012 37.2056 23.8404C37.4515 25.1421 37.665 26.4518 37.9 27.7562C38.0189 28.4204 38.1702 29.0953 37.5029 29.5747C36.8706 30.0274 36.287 29.7274 35.706 29.4167C34.5064 28.7766 33.2878 28.1686 32.0962 27.5151C31.6882 27.2901 31.364 27.2901 30.9587 27.5097C29.6726 28.2088 28.3648 28.8623 27.0733 29.5506C26.5302 29.8399 25.9952 29.9336 25.4872 29.5346C25.009 29.1596 24.9657 28.6534 25.0765 28.0802C25.3494 26.6527 25.6007 25.2198 25.806 23.7815C25.8466 23.4923 25.7277 23.0771 25.525 22.8709C24.4875 21.8076 23.4067 20.7818 22.3259 19.764C21.8828 19.3462 21.5991 18.8882 21.8044 18.2749C22.0125 17.6562 22.534 17.474 23.1311 17.3937C24.5848 17.1955 26.0384 17.0053 27.4813 16.7536C27.7731 16.7027 28.1297 16.4509 28.2702 16.1938C28.9619 14.9136 29.6023 13.6065 30.2373 12.2968C30.4994 11.7558 30.8371 11.3166 31.4856 11.3058C32.1719 11.2951 32.5204 11.7531 32.7933 12.3209C33.404 13.5851 34.0633 14.8279 34.6631 16.0947C34.8711 16.5339 35.1278 16.7375 35.6358 16.7964C37.0922 16.9598 38.5404 17.1901 39.9914 17.4098C40.8479 17.5383 41.2721 17.9749 41.264 18.9203ZM25.779 19.5149C26.4518 20.2167 27.0273 20.905 27.6974 21.4862C28.3891 22.0835 28.5485 22.7557 28.3648 23.6047C28.1784 24.4672 28.0568 25.343 27.8839 26.3527C28.9052 25.8224 29.7968 25.3805 30.6669 24.9011C31.237 24.5877 31.7693 24.577 32.3448 24.8877C33.2175 25.3617 34.1092 25.8037 35.1332 26.334C34.9657 25.3082 34.863 24.4082 34.6604 23.5271C34.4767 22.7209 34.6496 22.1102 35.2791 21.5451C35.9681 20.9291 36.5815 20.2247 37.2732 19.5096C36.2816 19.3623 35.3494 19.1828 34.4064 19.0918C33.6526 19.0194 33.1878 18.6632 32.8798 17.9963C32.4772 17.1285 32.026 16.2822 31.5342 15.3046C31.0452 16.2768 30.5885 17.1259 30.1859 18.0017C29.8779 18.6739 29.4159 19.0168 28.6593 19.0891C27.7028 19.1801 26.7544 19.3649 25.779 19.5123V19.5149Z" fill="white"/>
</svg>
