<svg width="75" height="73" viewBox="0 0 75 73" fill="none" xmlns="http://www.w3.org/2000/svg">
<g clip-path="url(#clip0_4452_11421)">
<path d="M75.0001 46.2275C74.6603 47.4821 73.8288 48.387 72.9393 49.2808C66.544 55.6817 60.1736 62.1049 53.7728 68.5003C53.4137 68.8583 52.9137 69.147 52.4275 69.2858C49.4992 70.1213 46.5516 70.8846 43.6233 71.7202C43.1343 71.8589 42.6647 72.1643 42.2669 72.4918C41.5348 73.0969 40.8055 73.1858 40.2419 72.6306C39.6812 72.0755 39.7557 71.3204 40.3276 70.5904C40.6757 70.1491 40.9934 69.63 41.1453 69.0943C41.9962 66.1075 42.7862 63.1014 43.6233 60.1119C43.7172 59.7788 43.9078 59.429 44.1509 59.1848C50.7976 52.4841 57.4553 45.7917 64.1185 39.1048C66.0274 37.1868 68.3259 37.1923 70.2513 39.0937C71.3646 40.1929 72.5166 41.2616 73.5471 42.4358C74.141 43.1131 74.525 43.9735 75.0029 44.7535V46.2247L75.0001 46.2275ZM46.9853 60.2479C48.8196 62.1077 50.6871 63.9952 52.491 65.8272C57.0243 61.2721 61.577 56.6977 66.0247 52.2287C64.1986 50.3911 62.3284 48.5092 60.5024 46.6688C56.0215 51.1711 51.4855 55.7289 46.9853 60.2479ZM68.2236 50.1885C69.4198 48.9894 70.6547 47.7736 71.8591 46.5273C72.4669 45.8999 72.489 45.1866 71.8923 44.5648C70.6602 43.2768 69.3977 42.0166 68.1131 40.7786C67.5496 40.2374 66.87 40.204 66.3341 40.7259C65.044 41.9805 63.8091 43.2935 62.5964 44.537C64.45 46.3996 66.3037 48.2621 68.2209 50.1885H68.2236ZM45.5902 63.0015C45.0791 64.9001 44.5708 66.7932 44.0266 68.8111C46.0626 68.2504 47.9384 67.7314 49.792 67.2206C48.3721 65.7939 47.0019 64.4171 45.5902 63.0015Z" fill="white"/>
<path d="M2.67154 36.3186C2.67154 42.8444 2.67154 49.3675 2.67154 55.8933C2.67154 59.4046 3.69368 62.5635 6.01973 65.2227C8.82646 68.4259 12.3818 69.9776 16.6306 69.9665C22.0258 69.9526 27.4211 69.9637 32.8163 69.9637C34.123 69.9637 34.7887 70.4078 34.8136 71.2877C34.8412 72.1954 34.1478 72.6784 32.8108 72.6784C27.4653 72.6784 22.117 72.7284 16.7715 72.6673C9.72428 72.5868 4.57216 69.378 1.46155 62.9909C0.420074 60.8397 0.00845638 58.5247 0.00845638 56.1403C0.00569385 42.9443 -0.0108813 29.7483 0.0139814 16.5523C0.0305566 8.62469 5.18544 2.15715 12.8901 0.386203C14.0918 0.111402 15.3599 0.0253529 16.5947 0.0225771C29.656 -0.00240479 42.7145 -0.00518056 55.7757 0.0114741C63.7622 0.0225771 70.2431 5.22992 71.9448 13.016C72.21 14.2262 72.3095 15.4947 72.3177 16.7383C72.3592 21.743 72.3371 26.7449 72.3316 31.7496C72.3316 32.0411 72.3067 32.3409 72.2404 32.6212C72.0829 33.2846 71.6188 33.6122 70.9613 33.6011C70.3039 33.59 69.848 33.2486 69.7182 32.5796C69.6519 32.2465 69.6409 31.8995 69.6409 31.5581C69.6215 26.237 69.6878 20.913 69.5746 15.5919C69.4558 9.93486 65.1987 4.65256 59.7317 3.25357C58.4443 2.92326 57.0879 2.70952 55.7619 2.70675C42.7034 2.66789 29.6421 2.67066 16.5809 2.68732C10.4646 2.69564 5.38435 6.2403 3.45333 11.9889C2.93398 13.5378 2.72126 15.2532 2.69916 16.8937C2.61629 23.3668 2.66601 29.8427 2.66601 36.3186H2.67154Z" fill="white"/>
<path d="M48.195 16.1575C52.0018 16.1575 55.8058 16.1575 59.6125 16.1575C59.9275 16.1575 60.2534 16.1464 60.5601 16.213C61.143 16.3379 61.4938 16.721 61.5656 17.3233C61.6402 17.9562 61.3888 18.4447 60.8087 18.6834C60.5048 18.8083 60.1429 18.8361 59.8087 18.8361C52.0763 18.8444 44.3412 18.8444 36.6089 18.8361C36.2968 18.8361 35.9652 18.8083 35.6779 18.7001C35.0868 18.4753 34.8077 18.0006 34.8685 17.3677C34.9265 16.7348 35.2912 16.3351 35.9072 16.2074C36.1918 16.1492 36.4901 16.1575 36.783 16.1575C40.5897 16.1547 44.3937 16.1575 48.2005 16.1575H48.195Z" fill="white"/>
<path d="M48.2478 34.9965C52.0297 34.9965 55.8116 34.9965 59.5907 34.9965C59.9084 34.9965 60.2316 34.9881 60.5383 35.0492C61.1599 35.1713 61.5162 35.5822 61.5715 36.215C61.624 36.8451 61.3532 37.3281 60.7593 37.5419C60.4471 37.6529 60.0908 37.6751 59.7537 37.6779C52.0684 37.6862 44.3858 37.6834 36.7004 37.6779C36.3882 37.6779 36.0595 37.6612 35.7639 37.5696C35.1257 37.3725 34.8108 36.8951 34.8661 36.2289C34.9186 35.5655 35.2998 35.1519 35.9573 35.0381C36.2446 34.9909 36.5402 34.9965 36.833 34.9965C40.6398 34.9965 44.4438 34.9965 48.2505 34.9965H48.2478Z" fill="white"/>
<path d="M17.3074 58.7132C18.7826 56.9866 20.2108 55.3212 21.6363 53.6502C22.8905 52.1818 24.1392 50.7106 25.3961 49.2422C25.5536 49.059 25.7221 48.8731 25.9155 48.7315C26.4569 48.3318 27.1255 48.3623 27.5868 48.8148C28.0592 49.2811 28.1448 49.8307 27.8354 50.4219C27.736 50.6135 27.5951 50.7911 27.4542 50.9577C24.6033 54.308 21.7496 57.6584 18.8931 61.0032C17.9621 62.0913 17.4069 62.1551 16.2853 61.3085C14.5311 59.9872 12.7769 58.6632 11.0226 57.3392C10.8486 57.2059 10.669 57.0755 10.5143 56.92C10.0005 56.4037 9.93697 55.6515 10.3486 55.1241C10.774 54.5773 11.495 54.4246 12.1166 54.8382C12.926 55.3822 13.6913 55.9929 14.4731 56.5786C15.3902 57.267 16.3046 57.9554 17.3074 58.7132Z" fill="white"/>
<path d="M17.3155 19.6939C19.9731 16.5795 22.556 13.5512 25.1418 10.52C25.349 10.2785 25.5451 10.0259 25.7799 9.81498C26.3407 9.31256 27.0479 9.30701 27.57 9.77334C28.0563 10.2091 28.1668 10.9225 27.7717 11.5054C27.4568 11.969 27.0728 12.3853 26.7109 12.8128C24.1114 15.8634 21.509 18.914 18.9067 21.9618C17.9537 23.0804 17.426 23.1387 16.2464 22.2532C14.4895 20.9319 12.7297 19.6162 10.9866 18.2811C10.6827 18.0479 10.3678 17.7676 10.2048 17.4372C9.93404 16.8849 10.0556 16.3269 10.5418 15.9133C11.0529 15.4803 11.6302 15.472 12.1634 15.8412C12.9645 16.3963 13.7325 17.0014 14.5143 17.5871C15.4287 18.2728 16.3403 18.9611 17.3155 19.6912V19.6939Z" fill="white"/>
<path d="M17.335 38.5109C19.661 35.7851 21.9429 33.1093 24.2275 30.4306C24.6557 29.9282 25.0756 29.4175 25.5148 28.9262C26.1834 28.1767 26.9431 28.0657 27.5619 28.6042C28.1641 29.1288 28.1696 29.9421 27.5315 30.6916C24.8408 33.8587 22.139 37.0148 19.44 40.1764C19.1389 40.5289 18.8516 40.8981 18.5256 41.2256C17.9565 41.7919 17.3184 41.8724 16.6803 41.4005C14.6774 39.921 12.6884 38.4249 10.7104 36.9093C10.0115 36.3736 9.88718 35.5769 10.3264 34.9718C10.7878 34.3389 11.5917 34.2418 12.3348 34.7914C13.8873 35.935 15.4178 37.1091 16.9593 38.2694C17.0532 38.3416 17.1582 38.3999 17.335 38.5109Z" fill="white"/>
</g>
<defs>
<clipPath id="clip0_4452_11421">
<rect width="75" height="73" fill="white"/>
</clipPath>
</defs>
</svg>
