<svg width="69" height="74" viewBox="0 0 69 74" fill="none" xmlns="http://www.w3.org/2000/svg">
<g clip-path="url(#clip0_4457_11506)">
<path d="M26.2096 56.4349C31.6175 53.1071 36.9439 49.8291 42.1513 46.6248C41.784 46.1787 41.4128 45.7824 41.1031 45.3422C40.1164 43.9442 40.2276 42.3988 41.5537 41.2756C42.3518 40.6005 43.3306 40.1285 44.2716 39.6466C44.6646 39.4454 44.8215 39.2542 44.8096 38.8201C44.7818 37.8522 44.8016 36.8844 44.8016 35.8269C44.0591 35.6397 43.3286 35.4505 42.594 35.2732C36.4873 33.7975 30.3806 32.3238 24.27 30.8601C24.0337 30.8043 23.6823 30.7745 23.5295 30.9059C21.6494 32.509 19.4041 33.1145 17.0257 33.3315C14.4489 33.5665 11.8998 33.3634 9.55517 32.2063C8.5407 31.7065 7.55799 30.9756 6.81352 30.1252C5.56677 28.7033 5.70177 26.8134 6.91675 25.3536C7.7327 24.3738 8.79878 23.7564 9.95421 23.2785C10.2937 23.1391 10.6411 23.0236 11.0203 22.8841C11.0203 20.1817 11.0203 17.5011 11.0203 14.8186C11.0203 13.4843 11.3717 13.1238 12.674 13.1238C14.5561 13.1238 16.4381 13.1218 18.3221 13.1238C19.5728 13.1238 19.9361 13.5002 19.9381 14.7827C19.9381 15.8482 19.9381 16.9136 19.9381 18.0767C21.443 17.7521 22.8823 17.4474 24.3196 17.1307C31.4706 15.5554 38.6175 13.9722 45.7704 12.4129C46.2469 12.3093 46.4018 12.1579 46.4137 11.6541C46.4494 10.2023 47.309 9.22049 48.4545 8.47169C49.0104 8.10724 49.6199 7.82843 50.2591 7.47992C50.2591 5.5422 50.2572 3.55668 50.2591 1.56916C50.2611 0.396172 50.6502 0.00185593 51.8136 -0.00013557C53.7711 -0.00411856 55.7266 -0.00611006 57.684 -0.00013557C58.7541 0.00384742 59.171 0.418079 59.175 1.48353C59.1809 3.32168 59.1889 5.16182 59.167 6.99997C59.1611 7.40823 59.302 7.5795 59.6634 7.77068C60.4019 8.15902 61.1682 8.56131 61.7777 9.11892C63.5009 10.6902 63.4632 12.8609 61.7459 14.4641C60.4872 15.6391 58.9268 16.1947 57.2691 16.4695C54.2892 16.9674 51.361 16.8758 48.7503 15.1492C47.8987 14.5856 47.1701 14.5258 46.2231 14.7369C37.6785 16.6468 29.126 18.5208 20.5694 20.3749C20.0195 20.4943 19.9739 20.7274 19.9183 21.2093C19.7833 22.3783 20.0572 23.0972 21.3278 23.4497C22.5011 23.7743 23.4679 24.5729 24.2223 25.5727C24.8814 26.4449 25.0641 27.4506 24.9787 28.5559C31.5797 30.1531 38.1331 31.7363 44.8413 33.3594C44.5237 31.82 45.5481 31.4615 46.5923 31.0791C47.6604 30.6888 48.7007 30.2208 49.7668 29.8245C50.1599 29.6791 50.2849 29.474 50.271 29.0618C50.2393 28.1437 50.2552 27.2236 50.2631 26.3035C50.271 25.3018 50.6681 24.8736 51.6409 24.8677C53.6956 24.8557 55.7524 24.8557 57.8091 24.8677C58.7521 24.8736 59.1651 25.2958 59.177 26.2378C59.1889 27.1818 59.2028 28.1278 59.169 29.0697C59.1551 29.4879 59.2981 29.6771 59.6832 29.8245C61.0014 30.3264 62.2938 30.89 63.614 31.3858C64.3466 31.6627 64.6523 32.1506 64.6464 32.9153C64.6325 34.853 64.6583 36.7928 64.6305 38.7305C64.6226 39.2264 64.7734 39.4534 65.234 39.6645C66.0599 40.0429 66.9016 40.4531 67.6104 41.0107C69.4706 42.4705 69.4547 44.5456 67.6183 46.0592C66.1036 47.3059 64.2791 47.8953 62.409 48.2877C56.749 49.4766 51.1068 49.4627 45.5024 47.8854C45.1788 47.7938 44.7123 47.8615 44.4224 48.0387C38.5024 51.6513 32.6022 55.2957 26.688 58.9183C26.3009 59.1553 26.154 59.4102 26.1699 59.8662C26.2056 60.8839 26.2155 61.9055 26.1659 62.9212C26.1401 63.4449 26.3545 63.6242 26.7952 63.8273C27.6886 64.2395 28.6058 64.6617 29.386 65.2512C31.4805 66.8365 31.4586 69.1366 29.386 70.7517C27.6827 72.0801 25.6696 72.7094 23.597 73.1276C17.3831 74.3783 11.193 74.3703 5.09824 72.4804C3.86738 72.098 2.65041 71.4906 1.60417 70.7378C-0.555802 69.1844 -0.522052 66.8046 1.61807 65.2134C2.3824 64.6458 3.26981 64.2176 4.15127 63.8412C4.65354 63.6262 4.79847 63.3832 4.79053 62.8654C4.76273 60.7046 4.7945 58.5419 4.77067 56.3791C4.76273 55.6024 5.06052 55.1265 5.7911 54.8496C7.20263 54.3159 8.58438 53.7045 9.99987 53.1867C10.5875 52.9717 10.7682 52.659 10.7364 52.0536C10.6848 51.0618 10.7126 50.0661 10.7265 49.0723C10.7404 48.1841 11.1752 47.7281 12.0467 47.7221C14.3258 47.7081 16.6049 47.7101 18.882 47.7221C19.7932 47.7261 20.222 48.1821 20.2319 49.1201C20.2439 50.1895 20.2558 51.257 20.224 52.3264C20.2121 52.7407 20.3451 52.9378 20.7322 53.0832C22.1418 53.6189 23.5315 54.2124 24.943 54.7461C25.7014 55.0309 26.2433 55.4411 26.2056 56.4309L26.2096 56.4349ZM13.1584 50.1398V66.7747H17.8179V50.1398H13.1584ZM56.7629 27.3053H52.6772V42.3092H56.7629V27.3053ZM4.7806 66.004C3.98054 66.5517 3.33731 66.948 2.74769 67.412C2.29107 67.7705 2.28313 68.2644 2.74372 68.6129C3.33135 69.055 3.95076 69.4911 4.61979 69.7819C7.33564 70.9688 10.2302 71.3552 13.1545 71.5105C17.2064 71.7256 21.2305 71.5304 25.1157 70.2399C26.1758 69.8874 27.1804 69.3039 28.1234 68.6905C28.7488 68.2843 28.7229 67.8262 28.1492 67.3463C27.5933 66.8823 26.9501 66.5278 26.1838 66.0199C26.1838 66.7449 26.1878 67.2328 26.1838 67.7187C26.1719 68.7782 25.757 69.1904 24.6829 69.1944C22.4793 69.2004 20.2756 69.1944 18.072 69.1944C14.1352 69.1944 10.1984 69.1964 6.26161 69.1944C5.19949 69.1944 4.79251 68.7722 4.78259 67.6988C4.77862 67.2288 4.78259 66.7568 4.78259 66.002L4.7806 66.004ZM13.4463 15.5395V26.6023H17.5181V15.5395H13.4463ZM44.8036 41.9348C44.2259 42.2873 43.7852 42.5083 43.398 42.8011C42.6635 43.3567 42.6218 43.8367 43.402 44.3007C44.3073 44.8384 45.2821 45.3104 46.2866 45.6191C50.0328 46.7662 53.8882 46.8837 57.7615 46.5989C60.2133 46.4177 62.6293 46.0074 64.8926 44.9917C65.5755 44.6851 66.5522 44.4023 66.5364 43.5658C66.5225 42.7075 65.5239 42.4605 64.833 42.0941C64.8012 42.0762 64.7417 42.112 64.6365 42.1359C64.6365 42.5681 64.6583 43.0142 64.6325 43.4563C64.5828 44.2947 64.1441 44.7368 63.3043 44.7368C57.5828 44.7448 51.8612 44.7448 46.1417 44.7368C45.2999 44.7368 44.8572 44.3007 44.8076 43.4643C44.7818 43.0202 44.8036 42.5741 44.8036 41.9368V41.9348ZM10.7007 55.471C9.67826 55.8792 8.70746 56.3014 7.71086 56.6519C7.25027 56.8153 7.14109 57.0582 7.14704 57.5202C7.17086 59.7308 7.15895 61.9434 7.15895 64.1559C7.15895 65.0182 7.15895 65.8805 7.15895 66.7648H10.7007V55.471ZM23.8034 66.7966C23.8034 63.5525 23.8054 60.378 23.7935 57.2016C23.7935 57.0662 23.6804 56.8551 23.5672 56.8073C22.4852 56.3512 21.3933 55.9211 20.2955 55.4809V66.7966H23.8015H23.8034ZM11.0223 25.5428C10.9588 25.489 10.8932 25.4333 10.8297 25.3795C10.1448 25.8734 9.39635 26.3035 8.79084 26.8811C8.14563 27.4964 8.16548 28.2174 8.82062 28.8527C9.309 29.3246 9.89068 29.7687 10.5121 30.0257C13.8493 31.4018 17.2143 31.4058 20.5397 29.9818C21.1571 29.717 21.7288 29.2589 22.2053 28.775C22.7929 28.1756 22.7552 27.5542 22.2172 26.903C21.6355 26.2 20.8672 25.7877 19.9421 25.4492C19.9421 26.2438 19.95 26.9348 19.9421 27.6259C19.9282 28.5599 19.5093 29.0279 18.5921 29.0379C16.5116 29.0598 14.431 29.0598 12.3504 29.0379C11.469 29.0279 11.0461 28.5619 11.0282 27.6757C11.0143 26.9647 11.0263 26.2538 11.0263 25.5428H11.0223ZM56.751 10.1187V2.44741H52.6772V10.1187H56.751ZM50.2353 32.2043C49.3658 32.5529 48.5538 32.9054 47.72 33.2001C47.3011 33.3475 47.1641 33.5645 47.1681 34.0086C47.1899 36.5916 47.178 39.1726 47.18 41.7556C47.18 41.9448 47.2177 42.132 47.2356 42.3012H50.2353V32.2043ZM59.2325 32.2163V42.2992H62.2621C62.2621 39.4156 62.268 36.5896 62.2462 33.7617C62.2462 33.5984 62.0576 33.3594 61.8988 33.2897C61.0411 32.9173 60.1636 32.5867 59.2325 32.2163ZM50.2631 10.1445C49.8978 10.3975 49.6239 10.5508 49.3916 10.752C48.5756 11.4629 48.5637 12.1002 49.4174 12.7793C49.8561 13.1278 50.3624 13.4245 50.8845 13.6277C52.9492 14.4322 55.0774 14.5079 57.2294 14.0399C58.3293 13.8009 59.3795 13.4345 60.2014 12.622C60.8228 12.0086 60.8188 11.5027 60.1954 10.8933C59.9254 10.6305 59.5939 10.4293 59.175 10.1127C59.175 10.6424 59.1928 10.9889 59.171 11.3315C59.1273 12.0803 58.6926 12.5244 57.9382 12.5304C55.7861 12.5463 53.6321 12.5463 51.4801 12.5304C50.7296 12.5244 50.3048 12.0743 50.2651 11.3136C50.2472 10.973 50.2611 10.6325 50.2611 10.1426L50.2631 10.1445Z" fill="white"/>
</g>
<defs>
<clipPath id="clip0_4457_11506">
<rect width="69" height="74" fill="white"/>
</clipPath>
</defs>
</svg>
