<svg width="26" height="26" viewBox="0 0 26 26" fill="none" xmlns="http://www.w3.org/2000/svg">
<path d="M13.3554 0.201046C14.0448 0.596279 14.4081 1.2922 14.6177 2.03212C14.9839 3.40349 14.8569 4.92269 14.1546 6.16387C13.982 6.41995 13.7616 6.68246 13.4768 6.81219C13.3388 6.89529 13.3388 6.89529 13.3266 7.06131C13.3279 7.12434 13.3293 7.18736 13.3306 7.2523C13.331 7.2859 13.3314 7.3195 13.3317 7.35411C13.3331 7.46127 13.3363 7.56829 13.3396 7.67541C13.3408 7.74811 13.342 7.82081 13.343 7.89351C13.3458 8.07159 13.3502 8.24958 13.3554 8.42761C13.3935 8.37342 13.3935 8.37342 13.4324 8.31814C13.6389 8.02843 13.8472 7.75649 14.1013 7.5072C14.1317 7.47721 14.1622 7.44722 14.1936 7.41632C14.9171 6.72017 15.8724 6.16062 16.8943 6.12341C17.2401 6.13502 17.5473 6.19881 17.8242 6.41223C18.097 6.77881 18.1025 7.24335 18.0464 7.68176C17.9023 8.4943 17.4915 9.17939 16.9609 9.7987C16.9271 9.83988 16.8934 9.88105 16.8585 9.92347C16.2015 10.6962 15.2373 11.3741 14.2187 11.5253C14.1003 11.5299 13.9818 11.5319 13.8632 11.5316C13.7721 11.5318 13.7721 11.5318 13.6792 11.532C13.5078 11.5253 13.5078 11.5253 13.2539 11.4745C13.2539 11.9437 13.2539 12.4129 13.2539 12.8964C13.4165 12.8959 13.4165 12.8959 13.5825 12.8953C14.6025 12.8922 15.6226 12.89 16.6426 12.8885C17.167 12.8877 17.6915 12.8866 18.2159 12.8849C18.6729 12.8833 19.13 12.8824 19.587 12.882C19.829 12.8818 20.0711 12.8814 20.3132 12.8802C20.5409 12.8792 20.7686 12.8789 20.9963 12.8791C21.08 12.8791 21.1637 12.8788 21.2474 12.8782C21.3614 12.8774 21.4754 12.8776 21.5895 12.878C21.6534 12.8779 21.7173 12.8778 21.7831 12.8776C21.9375 12.8964 21.9375 12.8964 22.0342 12.9545C22.1147 13.0908 22.109 13.1973 22.1092 13.3552C22.1096 13.4193 22.11 13.4833 22.1105 13.5494C22.1102 13.6205 22.1098 13.6917 22.1095 13.7628C22.1097 13.8376 22.11 13.9125 22.1103 13.9873C22.111 14.1906 22.1108 14.3939 22.1103 14.5973C22.1099 14.8099 22.1102 15.0225 22.1105 15.2351C22.1108 15.5921 22.1104 15.9492 22.1097 16.3062C22.1088 16.7193 22.1091 17.1323 22.11 17.5454C22.1106 17.8997 22.1107 18.2541 22.1103 18.6085C22.1101 18.8202 22.1101 19.032 22.1106 19.2438C22.111 19.4428 22.1107 19.6419 22.1098 19.841C22.1096 19.9141 22.1097 19.9873 22.11 20.0604C22.1104 20.1601 22.1098 20.2597 22.1092 20.3594C22.1091 20.4152 22.109 20.4711 22.109 20.5286C22.0898 20.6659 22.0898 20.6659 22.0261 20.7601C21.9153 20.8328 21.8507 20.837 21.7187 20.8366C21.674 20.8368 21.6294 20.837 21.5834 20.8372C21.5345 20.8366 21.4857 20.8361 21.4354 20.8355C21.3838 20.8355 21.3323 20.8356 21.2792 20.8356C21.1086 20.8355 20.938 20.8343 20.7673 20.8331C20.6491 20.8328 20.5309 20.8326 20.4128 20.8325C20.1014 20.8319 19.7901 20.8304 19.4788 20.8287C19.1612 20.8271 18.8437 20.8264 18.5261 20.8257C17.9028 20.824 17.2795 20.8214 16.6562 20.8182C16.6567 20.8921 16.6567 20.8921 16.6572 20.9675C16.6603 21.4329 16.6626 21.8983 16.6641 22.3637C16.6649 22.603 16.666 22.8422 16.6677 23.0815C16.6694 23.3126 16.6703 23.5438 16.6707 23.7749C16.671 23.8628 16.6715 23.9508 16.6723 24.0387C16.6824 25.1582 16.6824 25.1582 16.2932 25.5606C15.9716 25.8406 15.6031 25.8752 15.1933 25.8711C15.1139 25.8715 15.1139 25.8715 15.0329 25.8719C14.8593 25.8725 14.6857 25.8717 14.5121 25.8708C14.3908 25.8708 14.2694 25.8708 14.1481 25.871C13.8943 25.8711 13.6406 25.8704 13.3868 25.8693C13.0621 25.8678 12.7374 25.868 12.4127 25.8686C12.1623 25.869 11.912 25.8686 11.6616 25.8679C11.5419 25.8677 11.4222 25.8677 11.3024 25.8679C11.135 25.868 10.9676 25.8672 10.8001 25.8661C10.7264 25.8664 10.7264 25.8664 10.6513 25.8668C10.3102 25.8631 10.0242 25.8167 9.73945 25.6131C9.71255 25.5851 9.68565 25.5571 9.65793 25.5282C9.63037 25.5007 9.60281 25.4732 9.57442 25.4449C9.36824 25.163 9.32143 24.903 9.32642 24.5597C9.32639 24.4987 9.32639 24.4987 9.32636 24.4365C9.32646 24.3032 9.32764 24.17 9.32884 24.0367C9.32912 23.9438 9.32934 23.851 9.32949 23.7581C9.33007 23.5146 9.33157 23.2711 9.33326 23.0276C9.33482 22.7787 9.33551 22.5299 9.33628 22.2811C9.33791 21.7934 9.34051 21.3058 9.34372 20.8182C9.24403 20.8189 9.24403 20.8189 9.14232 20.8196C8.51687 20.8237 7.89143 20.8268 7.26598 20.8288C6.9444 20.8298 6.62284 20.8313 6.30127 20.8336C5.99111 20.8358 5.68095 20.837 5.37078 20.8375C5.25227 20.8379 5.13377 20.8386 5.01526 20.8397C4.84964 20.8412 4.68407 20.8414 4.51844 20.8413C4.46913 20.842 4.41982 20.8428 4.36902 20.8435C4.32394 20.8432 4.27887 20.8429 4.23243 20.8427C4.19325 20.8428 4.15407 20.843 4.1137 20.8432C4.01169 20.8182 4.01169 20.8182 3.92293 20.7344C3.8422 20.5829 3.84018 20.4782 3.84 20.3067C3.83957 20.2435 3.83914 20.1803 3.8387 20.1151C3.83899 20.0452 3.8393 19.9753 3.83963 19.9054C3.83942 19.8316 3.83915 19.7579 3.83882 19.6841C3.83813 19.4839 3.8384 19.2838 3.83888 19.0836C3.83926 18.8741 3.83891 18.6647 3.83867 18.4552C3.83839 18.1034 3.83876 17.7517 3.83948 17.3999C3.84031 16.9932 3.84004 16.5865 3.8392 16.1797C3.83851 15.8306 3.83841 15.4814 3.83881 15.1323C3.83905 14.9237 3.83908 14.7152 3.83858 14.5066C3.83814 14.3105 3.83844 14.1145 3.83932 13.9184C3.83953 13.8464 3.83947 13.7745 3.83913 13.7025C3.83872 13.6043 3.83933 13.5061 3.84 13.4079C3.84005 13.3529 3.84011 13.2979 3.84017 13.2413C3.86262 13.0753 3.88475 13.0065 4.01169 12.8964C4.16525 12.8714 4.16525 12.8714 4.35774 12.8719C4.39312 12.8718 4.42851 12.8716 4.46496 12.8714C4.58381 12.8711 4.7026 12.8722 4.82145 12.8733C4.90652 12.8734 4.99159 12.8733 5.07667 12.8732C5.3079 12.8731 5.53912 12.8743 5.77035 12.8758C6.01189 12.877 6.25344 12.8772 6.49499 12.8774C6.95252 12.878 7.41004 12.8797 7.86756 12.8817C8.38838 12.884 8.90921 12.8851 9.43003 12.8861C10.5015 12.8883 11.573 12.8919 12.6445 12.8964C12.6445 12.4271 12.6445 11.9579 12.6445 11.4745C12.5942 11.4912 12.544 11.508 12.4922 11.5253C11.4488 11.6132 10.5495 11.195 9.75969 10.5479C8.90875 9.82487 8.09375 8.85962 7.92184 7.71667C7.89112 7.30731 7.86279 6.86567 8.07419 6.49792C8.34649 6.20028 8.65338 6.14133 9.03903 6.12341C9.97716 6.14796 10.8384 6.5928 11.5273 7.20886C11.5687 7.24368 11.6102 7.27851 11.6529 7.31439C11.992 7.6058 12.3911 7.97162 12.5937 8.37683C12.6567 8.09048 12.6675 7.80905 12.6762 7.51672C12.6798 7.46229 12.6834 7.40786 12.6871 7.35178C12.6909 7.19055 12.6882 7.05959 12.6445 6.90417C12.5378 6.79484 12.4367 6.72961 12.3015 6.65917C11.841 6.41815 11.583 5.76749 11.4091 5.30159C11.0032 3.96737 11.0569 2.43395 11.6924 1.18176C12.0138 0.613604 12.6229 -0.157682 13.3554 0.201046ZM12.5693 1.02862C11.9132 1.71116 11.762 2.79733 11.7735 3.70277C11.8211 4.65308 12.0477 5.56611 12.7461 6.24401C12.8847 6.35835 12.8847 6.35835 13.019 6.33923C13.4085 6.20941 13.5986 5.84597 13.7813 5.50213C14.2877 4.4498 14.3247 3.11658 13.9597 2.01231C13.7637 1.5098 13.499 1.07363 13.0507 0.759639C12.8577 0.759639 12.709 0.906275 12.5693 1.02862ZM8.582 6.90417C8.39984 7.40068 8.60522 7.94238 8.8127 8.39567C9.00221 8.76385 9.22675 9.07918 9.49606 9.39245C9.52041 9.42354 9.54476 9.45464 9.56985 9.48667C10.1163 10.1729 11.0512 10.8009 11.9336 10.9159C12.1715 10.9361 12.3796 10.9311 12.5937 10.8143C12.7373 10.5272 12.6774 10.0781 12.5985 9.77351C12.5365 9.60808 12.4673 9.44999 12.3906 9.29089C12.3691 9.24402 12.3477 9.19715 12.3255 9.14886C12.1215 8.73853 11.8321 8.40975 11.5273 8.07214C11.4976 8.03817 11.4679 8.00419 11.4373 7.96919C10.8408 7.32586 9.94066 6.79388 9.05708 6.74429C8.87513 6.75575 8.74123 6.81843 8.582 6.90417ZM14.4218 8.07214C14.2178 8.29573 14.0371 8.53562 13.8632 8.78308C13.8325 8.82635 13.8017 8.86961 13.77 8.9142C13.4317 9.43194 13.2337 10.0421 13.3047 10.662C13.3386 10.8193 13.3386 10.8193 13.457 10.8746C14.0509 11.0355 14.6542 10.7785 15.178 10.5041C16.2225 9.86899 16.9428 8.97226 17.3862 7.84362C17.4431 7.52495 17.4705 7.16327 17.3672 6.85339C16.3006 6.47103 15.1414 7.35565 14.4218 8.07214ZM4.5195 13.5057C4.5195 15.7178 4.5195 17.9298 4.5195 20.2089C6.11149 20.2089 7.70348 20.2089 9.34372 20.2089C9.36048 19.9407 9.37723 19.6726 9.3945 19.3964C9.5244 19.0266 9.73547 18.7917 10.0896 18.6188C10.3466 18.5654 10.6055 18.5492 10.8672 18.5331C10.9244 18.3125 10.9323 18.1434 10.8672 17.9237C10.6072 17.6131 10.238 17.384 9.90191 17.1632C9.80075 17.0604 9.80075 17.0604 9.7827 16.9069C9.78551 16.8507 9.78833 16.7946 9.79123 16.7367C9.79081 16.5608 9.79081 16.5608 9.74997 16.4003C9.62971 16.291 9.51324 16.2325 9.36673 16.1634C9.17511 16.0591 9.12572 15.9361 9.03903 15.7401C9.02227 15.7066 9.00551 15.6731 8.98825 15.6385C8.95448 15.2477 8.947 14.8948 9.19137 14.5721C9.43473 14.3288 9.70827 14.2097 10.0483 14.1945C10.3499 14.205 10.6209 14.2878 10.8469 14.494C11.071 14.7521 11.1658 14.9917 11.1718 15.3339C11.1425 15.6505 11.049 15.9231 10.8164 16.1464C10.6695 16.2437 10.5185 16.325 10.3593 16.4003C10.3266 16.5637 10.3266 16.5637 10.3593 16.7557C10.4715 16.8913 10.608 16.9891 10.7497 17.0922C11.4067 17.59 11.4067 17.59 11.4498 17.7704C11.462 17.887 11.4661 18.0001 11.467 18.1173C11.4702 18.2545 11.4733 18.3917 11.4765 18.5331C11.8787 18.5331 12.2809 18.5331 12.6953 18.5331C12.6953 17.8292 12.6953 17.1254 12.6953 16.4003C12.5445 16.3165 12.3936 16.2327 12.2382 16.1464C12.0018 15.9162 11.8984 15.6319 11.8637 15.3085C11.9044 14.9291 12.0467 14.6202 12.3398 14.369C12.6178 14.2004 12.9363 14.1669 13.2539 14.2167C13.5914 14.3228 13.8028 14.4707 13.9729 14.782C14.1033 15.0718 14.1202 15.3976 14.0334 15.704C13.8817 16.04 13.6286 16.2383 13.3047 16.4003C13.3047 17.1041 13.3047 17.8079 13.3047 18.5331C13.7068 18.5331 14.109 18.5331 14.5234 18.5331C14.5402 18.1979 14.5569 17.8628 14.5742 17.5175C14.6412 17.4839 14.7082 17.4504 14.7773 17.4159C14.8357 17.3747 14.893 17.3317 14.9491 17.2873C14.9801 17.2629 15.011 17.2385 15.0429 17.2134C15.0747 17.188 15.1064 17.1627 15.1391 17.1366C15.1713 17.1113 15.2034 17.0859 15.2365 17.0598C15.4967 16.8718 15.4967 16.8718 15.6247 16.5907C15.6104 16.4008 15.6104 16.4008 15.4948 16.3181C15.4132 16.2664 15.3308 16.216 15.2476 16.1668C15.018 16.0244 14.9146 15.8364 14.8281 15.5878C14.7766 15.2348 14.8258 14.9429 14.9991 14.6314C15.1654 14.4106 15.3831 14.3025 15.6406 14.2167C15.9626 14.1869 16.2742 14.1948 16.5547 14.369C16.8612 14.6375 16.9849 14.8939 17.0307 15.2989C16.9988 15.6129 16.9076 15.9297 16.6626 16.1432C16.5039 16.2479 16.5039 16.2479 16.3436 16.3066C16.2959 16.3375 16.2483 16.3684 16.1992 16.4003C16.1725 16.541 16.1632 16.6443 16.1674 16.7843C16.1699 16.915 16.1639 17.031 16.1484 17.162C16.0579 17.2152 16.0579 17.2152 15.9453 17.2635C15.406 17.595 15.406 17.595 15.0796 18.1028C15.0818 18.2543 15.0948 18.3867 15.1328 18.5331C15.1825 18.5369 15.2321 18.5407 15.2833 18.5446C15.6973 18.5861 16.0465 18.6268 16.3515 18.9393C16.6236 19.3357 16.6188 19.7224 16.6562 20.2089C18.2482 20.2089 19.8402 20.2089 21.4804 20.2089C21.4804 17.9968 21.4804 15.7848 21.4804 13.5057C15.8833 13.5057 10.2862 13.5057 4.5195 13.5057ZM9.64841 14.9784C9.52132 15.169 9.53657 15.2588 9.56688 15.4781C9.59261 15.6011 9.59261 15.6011 9.71188 15.7147C9.85519 15.7929 9.94235 15.8377 10.1054 15.8417C10.3113 15.7634 10.4622 15.6867 10.5625 15.4862C10.5964 15.257 10.5794 15.1584 10.4577 14.9593C10.1648 14.6976 9.93918 14.7349 9.64841 14.9784ZM12.6445 14.9276C12.6141 14.9475 12.5838 14.9674 12.5525 14.9879C12.4495 15.1451 12.4566 15.3085 12.4922 15.4862C12.5846 15.6704 12.699 15.7739 12.8952 15.8448C13.0906 15.8409 13.1931 15.7975 13.3554 15.6893C13.4874 15.5361 13.5078 15.461 13.5078 15.2577C13.4466 15.0435 13.3801 14.9598 13.2031 14.826C12.9613 14.7454 12.8455 14.7755 12.6445 14.9276ZM15.4882 14.9784C15.3812 15.1134 15.3867 15.1809 15.3899 15.3561C15.447 15.573 15.515 15.6546 15.6914 15.7909C15.8425 15.8476 15.919 15.8481 16.0754 15.8099C16.235 15.7199 16.3092 15.6449 16.4023 15.4862C16.4335 15.3434 16.4352 15.2226 16.4023 15.08C16.2739 14.897 16.1871 14.838 15.9738 14.7721C15.7482 14.776 15.6578 14.8325 15.4882 14.9784ZM10.0115 19.3995C9.92559 19.619 9.93146 19.8237 9.93257 20.0575C9.93223 20.1086 9.93188 20.1596 9.93152 20.2122C9.93059 20.3808 9.93079 20.5494 9.93107 20.7181C9.93084 20.8354 9.93057 20.9527 9.93027 21.07C9.92981 21.3158 9.92994 21.5617 9.93044 21.8075C9.93103 22.1225 9.93 22.4374 9.92852 22.7523C9.92758 22.9946 9.9276 23.2368 9.92789 23.4791C9.9279 23.5952 9.92759 23.7113 9.92696 23.8274C9.9262 23.9898 9.92674 24.1522 9.92762 24.3146C9.92712 24.3625 9.92663 24.4104 9.92613 24.4597C9.92929 24.7412 9.95783 24.918 10.1562 25.1346C10.3823 25.2783 10.6502 25.2512 10.9096 25.251C10.9597 25.2513 11.0097 25.2516 11.0613 25.252C11.2266 25.253 11.3919 25.2532 11.5573 25.2533C11.6723 25.2536 11.7873 25.2539 11.9024 25.2543C12.1434 25.2549 12.3845 25.2551 12.6255 25.255C12.9343 25.255 13.2431 25.2564 13.5519 25.2581C13.7895 25.2593 14.027 25.2595 14.2646 25.2594C14.3784 25.2595 14.4923 25.26 14.6061 25.2608C14.7653 25.2618 14.9245 25.2615 15.0838 25.2609C15.1307 25.2614 15.1777 25.262 15.226 25.2626C15.5052 25.2599 15.6821 25.2324 15.8945 25.0331C16.0585 24.754 16.0685 24.5093 16.0657 24.1907C16.0659 24.1432 16.0661 24.0957 16.0663 24.0467C16.0667 23.8904 16.066 23.7342 16.0653 23.5779C16.0653 23.4688 16.0653 23.3597 16.0654 23.2506C16.0654 23.0224 16.0648 22.7941 16.0639 22.5658C16.0628 22.2736 16.0627 21.9815 16.0631 21.6893C16.0632 21.4642 16.0629 21.239 16.0624 21.0139C16.0622 20.9062 16.0622 20.7985 16.0622 20.6908C16.0623 20.5401 16.0616 20.3894 16.0608 20.2387C16.0609 20.1945 16.061 20.1503 16.0612 20.1047C16.059 19.8497 16.0346 19.6363 15.9453 19.3964C15.7529 19.2089 15.5942 19.1364 15.328 19.1353C15.2637 19.1349 15.2637 19.1349 15.198 19.1344C15.151 19.1344 15.1041 19.1343 15.0558 19.1343C15.0062 19.134 14.9566 19.1338 14.9056 19.1335C14.7414 19.1328 14.5771 19.1324 14.4129 19.1321C14.2989 19.1318 14.1848 19.1316 14.0708 19.1313C13.8315 19.1307 13.5922 19.1304 13.353 19.1303C13.0465 19.13 12.7399 19.1288 12.4334 19.1273C12.1978 19.1264 11.9622 19.1261 11.7265 19.126C11.6135 19.1259 11.5005 19.1255 11.3875 19.1248C11.2294 19.1239 11.0713 19.124 10.9131 19.1243C10.8665 19.1239 10.8199 19.1234 10.7718 19.1229C10.4612 19.125 10.2298 19.1562 10.0115 19.3995Z" fill="black"/>
<path d="M11.949 20.5032C11.9918 20.5022 12.0346 20.5011 12.0787 20.5001C12.3865 20.4981 12.6056 20.5391 12.8403 20.7556C12.8646 20.7854 12.8889 20.8153 12.9139 20.846C12.9513 20.8908 12.9513 20.8908 12.9895 20.9365C13.1003 21.0954 13.1079 21.2365 13.1093 21.424C13.1098 21.4744 13.1103 21.5247 13.1108 21.5766C13.111 21.6308 13.1112 21.6851 13.1115 21.741C13.1117 21.7968 13.112 21.8526 13.1123 21.9101C13.1128 22.028 13.1131 22.146 13.1133 22.264C13.1138 22.4449 13.1154 22.6258 13.117 22.8066C13.1173 22.9212 13.1176 23.0357 13.1178 23.1502C13.1184 23.2045 13.1191 23.2588 13.1197 23.3147C13.1195 23.365 13.1194 23.4153 13.1192 23.4672C13.1195 23.5337 13.1195 23.5337 13.1198 23.6015C13.097 23.7403 13.0614 23.7851 12.9488 23.8675C12.69 23.8998 12.69 23.8998 12.5593 23.8077C12.4656 23.6794 12.4744 23.5915 12.4769 23.4337C12.4776 23.3519 12.4776 23.3519 12.4784 23.2685C12.4797 23.2117 12.4809 23.1548 12.4822 23.0963C12.4833 23.0101 12.4833 23.0101 12.4843 22.9222C12.4861 22.7803 12.4889 22.6383 12.4918 22.4964C12.1399 22.4964 11.7879 22.4964 11.4254 22.4964C11.4271 22.5784 11.4289 22.6603 11.4307 22.7448C11.4321 22.8524 11.4335 22.96 11.4349 23.0677C11.4368 23.1487 11.4368 23.1487 11.4387 23.2313C11.4395 23.3094 11.4395 23.3094 11.4402 23.389C11.4414 23.4608 11.4414 23.4608 11.4427 23.5341C11.4221 23.6887 11.382 23.7572 11.273 23.8675C11.1142 23.8907 11.0163 23.9027 10.8839 23.8055C10.7945 23.6866 10.7964 23.6138 10.7955 23.4658C10.7948 23.4151 10.7942 23.3644 10.7935 23.3121C10.7937 23.2574 10.7938 23.2026 10.794 23.1462C10.7937 23.0898 10.7934 23.0334 10.7932 22.9753C10.7928 22.8557 10.7929 22.7362 10.7933 22.6167C10.7938 22.4343 10.7923 22.2521 10.7907 22.0697C10.7906 21.9535 10.7906 21.8374 10.7908 21.7212C10.7902 21.6669 10.7897 21.6125 10.7891 21.5565C10.7921 21.2324 10.8244 21.0326 11.0191 20.7698C11.3324 20.5269 11.5689 20.5055 11.949 20.5032ZM11.4254 21.2777C11.4008 21.4284 11.4008 21.4284 11.4127 21.5919C11.4169 21.6893 11.421 21.7867 11.4254 21.887C11.7773 21.887 12.1292 21.887 12.4918 21.887C12.496 21.799 12.5001 21.7111 12.5045 21.6204C12.5068 21.5709 12.5092 21.5214 12.5116 21.4705C12.502 21.3244 12.502 21.3244 12.41 21.21C12.2514 21.0994 12.1506 21.0998 11.9586 21.1031C11.9015 21.1032 11.8444 21.1032 11.7856 21.1033C11.6132 21.1274 11.5393 21.146 11.4254 21.2777Z" fill="black"/>
<path d="M14.2915 20.493C14.3545 20.492 14.4175 20.491 14.4824 20.49C14.5732 20.49 14.5732 20.49 14.6658 20.4901C14.7212 20.49 14.7766 20.4899 14.8337 20.4898C15.0138 20.5211 15.0754 20.5729 15.1833 20.7184C15.1758 20.9062 15.1652 20.9905 15.031 21.1246C14.8969 21.1246 14.7629 21.1246 14.6248 21.1246C14.6248 21.8285 14.6248 22.5323 14.6248 23.2574C14.7588 23.2574 14.8929 23.2574 15.031 23.2574C15.1357 23.34 15.1357 23.34 15.1833 23.4606C15.1722 23.6471 15.1646 23.7333 15.031 23.8668C14.796 23.8903 14.5593 23.8833 14.3232 23.8827C14.2241 23.8839 14.2241 23.8839 14.123 23.8852C14.0282 23.8852 14.0282 23.8852 13.9315 23.8853C13.8733 23.8854 13.8152 23.8856 13.7553 23.8857C13.6091 23.8668 13.6091 23.8668 13.514 23.8008C13.4179 23.6558 13.4385 23.5267 13.4568 23.359C13.6091 23.2574 13.6091 23.2574 14.0154 23.2574C14.0154 22.5536 14.0154 21.8498 14.0154 21.1246C13.8646 21.1246 13.7137 21.1246 13.5583 21.1246C13.4568 21.0231 13.4568 21.0231 13.4409 20.8485C13.4568 20.6676 13.4568 20.6676 13.5147 20.5815C13.7263 20.433 14.0428 20.4916 14.2915 20.493Z" fill="black"/>
</svg>
