<svg width="64" height="50" viewBox="0 0 64 50" fill="none" xmlns="http://www.w3.org/2000/svg">
<path fill-rule="evenodd" clip-rule="evenodd" d="M30.9375 2.29104C33.6789 1.991 35.2622 3.20127 35.6875 5.92185C35.5356 7.86208 34.5356 9.07239 32.6875 9.55266C32.7084 11.6398 32.6875 13.7265 32.625 15.8127C32.1666 16.3135 31.7084 16.3135 31.25 15.8127C31.1875 13.7265 31.1666 11.6398 31.1875 9.55266C29.3379 9.06751 28.3379 7.8572 28.1875 5.92185C28.3559 4.12758 29.2725 2.91732 30.9375 2.29104ZM31.3125 3.91865C32.8594 3.73241 33.7761 4.40016 34.0625 5.92185C33.6003 7.82277 32.4753 8.38617 30.6875 7.61206C29.6941 6.67493 29.59 5.65248 30.375 4.54465C30.6783 4.30021 30.9908 4.09155 31.3125 3.91865Z" fill="white"/>
<path fill-rule="evenodd" clip-rule="evenodd" d="M10.9376 7.92538C13.1996 7.66947 14.6996 8.60848 15.4376 10.7424C17.146 10.7841 18.8543 10.8259 20.5626 10.8676C20.6771 10.9144 20.7814 10.977 20.8751 11.0554C21.081 14.091 21.1226 17.1375 21.0001 20.195C20.5461 20.9745 20.0461 21.0162 19.5001 20.3202C19.4376 17.6914 19.4168 15.0622 19.4376 12.4326C18.1036 12.4117 16.7703 12.4326 15.4376 12.4952C14.3298 15.1332 12.4548 15.8844 9.81263 14.7488C7.98619 13.281 7.63203 11.5074 8.75013 9.42779C9.35508 8.72003 10.0843 8.21923 10.9376 7.92538ZM11.1876 9.55299C13.2691 9.52982 14.0816 10.5314 13.6251 12.5578C12.5491 13.9479 11.3824 14.0313 10.1251 12.8082C9.40144 11.3666 9.75562 10.2815 11.1876 9.55299Z" fill="white"/>
<path fill-rule="evenodd" clip-rule="evenodd" d="M51.1877 7.92539C53.868 7.68927 55.4097 8.89958 55.8127 11.5562C55.5161 14.1695 54.0578 15.4007 51.4377 15.2496C49.8811 14.9425 48.8811 14.0244 48.4377 12.4952C47.1051 12.4326 45.7717 12.4117 44.4377 12.4326C44.4586 15.0622 44.4377 17.6914 44.3752 20.3202C43.8292 21.0162 43.3292 20.9745 42.8752 20.195C42.7527 17.1375 42.7943 14.091 43.0002 11.0554C43.094 10.977 43.1982 10.9144 43.3127 10.8676C45.0211 10.8259 46.7293 10.7841 48.4377 10.7424C48.8773 9.3215 49.794 8.3825 51.1877 7.92539ZM51.4377 9.553C52.9852 9.41403 53.9018 10.1026 54.1877 11.6188C53.7066 13.5222 52.5816 14.0647 50.8127 13.2464C49.9948 12.4203 49.8491 11.4813 50.3752 10.4294C50.6803 10.0596 51.0346 9.76747 51.4377 9.553Z" fill="white"/>
<path fill-rule="evenodd" clip-rule="evenodd" d="M4.43706 16.5638C6.73958 16.2343 8.28125 17.1524 9.06206 19.3182C10.4769 19.4224 11.8936 19.485 13.3121 19.506C13.3746 19.5686 13.4371 19.6312 13.4996 19.6938C13.6852 23.731 13.7477 27.7791 13.6871 31.8383C14.1888 31.8175 14.6888 31.8384 15.1871 31.9009C15.7159 32.4615 15.6743 32.9623 15.0621 33.4033C14.2287 33.4868 13.3954 33.4868 12.5621 33.4033C12.3329 33.3407 12.1871 33.1945 12.1246 32.9651C12.0621 29.0006 12.0412 25.0359 12.0621 21.071C11.0586 21.0296 10.0586 21.0713 9.06206 21.1962C8.21977 23.3122 6.6781 24.1677 4.43706 23.7628C2.33956 22.9642 1.4854 21.441 1.87456 19.193C2.33523 17.918 3.1894 17.0416 4.43706 16.5638ZM4.81206 18.1914C6.3598 18.0055 7.27647 18.6732 7.56206 20.1946C7.3954 21.4466 6.68706 22.1561 5.43706 22.323C3.89882 22.0384 3.253 21.1204 3.49956 19.5686C3.75537 18.9163 4.19287 18.4572 4.81206 18.1914Z" fill="white"/>
<path fill-rule="evenodd" clip-rule="evenodd" d="M57.438 16.564C59.4771 16.2392 60.9563 16.9904 61.8755 18.8176C62.5365 21.7518 61.3906 23.4629 58.438 23.9508C56.6504 23.7871 55.4421 22.8688 54.813 21.1964C53.8165 21.0715 52.8165 21.0298 51.813 21.0712C51.8339 25.0361 51.813 29.0008 51.7505 32.9652C51.688 33.1947 51.5421 33.3408 51.313 33.4034C50.4796 33.4869 49.6464 33.4869 48.813 33.4034C48.2008 32.9625 48.1591 32.4617 48.688 31.901C49.1863 31.8386 49.6863 31.8177 50.188 31.8384C50.1671 27.8736 50.188 23.9089 50.2505 19.9444C50.3086 19.7652 50.4129 19.6193 50.563 19.5062C51.9815 19.4852 53.3981 19.4226 54.813 19.3184C54.9914 18.6604 55.3039 18.0762 55.7505 17.5656C56.2734 17.1479 56.8359 16.814 57.438 16.564ZM57.813 18.1916C59.7105 18.0679 60.5648 18.9443 60.3755 20.8208C59.685 22.2619 58.6225 22.6166 57.188 21.885C56.1975 20.9456 56.0934 19.9231 56.8755 18.8176C57.1788 18.5732 57.4913 18.3645 57.813 18.1916Z" fill="white"/>
<path fill-rule="evenodd" clip-rule="evenodd" d="M30.0625 18.1916C31.3133 18.1708 32.5633 18.1916 33.8125 18.2542C34.6932 18.3432 35.2139 18.8233 35.375 19.694C35.3962 20.6566 35.4587 21.6165 35.5625 22.5736C36.1343 22.8079 36.6968 23.0583 37.25 23.3248C37.8959 22.6779 38.5417 22.0311 39.1875 21.3842C39.8735 21.0193 40.5819 20.9776 41.3125 21.259C42.4253 22.2897 43.4462 23.3957 44.375 24.5768C44.5052 25.1953 44.4218 25.7795 44.125 26.3296C43.4565 26.9783 42.8107 27.6461 42.1875 28.3329C42.4857 28.8466 42.7148 29.389 42.875 29.9605C44.0204 30.0319 45.1663 30.1362 46.3125 30.2735C46.8584 30.5933 47.1709 31.0732 47.25 31.7133C47.3334 32.9236 47.3334 34.1338 47.25 35.3441C47.1194 36.2679 46.5987 36.8313 45.6875 37.0343C44.7709 37.076 43.8542 37.1178 42.9375 37.1595C42.7002 37.7259 42.4502 38.2893 42.1875 38.8497C42.8107 39.5364 43.4565 40.2042 44.125 40.8529C44.5417 41.6041 44.5417 42.3553 44.125 43.1065C43.1375 44.1793 42.075 45.1602 40.9375 46.0487C40.32 46.179 39.7368 46.0955 39.1875 45.7983C38.5399 45.1287 37.8732 44.4818 37.1875 43.8577C36.6612 44.1239 36.1195 44.3534 35.5625 44.5463C35.4604 45.5171 35.3979 46.4979 35.375 47.4885C35.2063 48.0751 34.8522 48.5133 34.3125 48.8031C32.634 48.9235 30.9674 48.8819 29.3125 48.6779C28.8914 48.3818 28.6205 47.9853 28.5 47.4885C28.4584 46.5286 28.4167 45.5688 28.375 44.6089C27.8095 44.3711 27.247 44.1207 26.6875 43.8577C26.0019 44.4818 25.3352 45.1287 24.6875 45.7983C23.9375 46.2156 23.1875 46.2156 22.4375 45.7983C21.3664 44.8092 20.3872 43.745 19.5 42.6057C19.3699 41.9872 19.4533 41.403 19.75 40.8529C20.4185 40.2042 21.0644 39.5364 21.6875 38.8497C21.4218 38.3225 21.1927 37.78 21 37.2221C19.8982 37.1461 18.794 37.0418 17.6875 36.9091C17.0339 36.5888 16.6798 36.0671 16.625 35.3441C16.5417 34.1756 16.5417 33.007 16.625 31.8385C16.66 30.9518 17.0975 30.3884 17.9375 30.1483C18.9375 30.1066 19.9375 30.0647 20.9375 30.0231C21.135 29.4394 21.385 28.876 21.6875 28.3329C21.0644 27.6461 20.4185 26.9783 19.75 26.3296C19.3334 25.5784 19.3334 24.8272 19.75 24.076C20.7375 23.0032 21.8 22.0224 22.9375 21.1338C23.555 21.0035 24.1383 21.087 24.6875 21.3842C25.3334 22.0311 25.9792 22.6779 26.625 23.3248C27.1644 23.0445 27.7269 22.815 28.3125 22.6362C28.3843 21.5307 28.4884 20.4248 28.625 19.3184C28.9114 18.6859 29.3905 18.3103 30.0625 18.1916ZM30.1875 19.8192C31.3549 19.7984 32.5217 19.8192 33.6875 19.8818C33.7898 20.9363 33.8523 22.0005 33.875 23.0744C34.0625 23.5961 34.4167 23.9508 34.9375 24.1386C35.5725 24.3645 36.1975 24.6149 36.8125 24.8898C37.3977 24.9731 37.9393 24.8479 38.4375 24.5142C39.0209 23.9299 39.6042 23.3457 40.1875 22.7614C41.1429 23.4455 42.0179 24.2593 42.8125 25.2028C42.1894 25.8896 41.5435 26.5574 40.875 27.2061C40.6055 27.6771 40.5222 28.1779 40.625 28.7085C40.934 29.5116 41.2673 30.3045 41.625 31.0873C41.869 31.387 42.1815 31.5748 42.5625 31.6507C43.5932 31.6736 44.614 31.7362 45.625 31.8385C45.7084 32.9653 45.7084 34.0921 45.625 35.2189C45.5625 35.2815 45.5 35.3441 45.4375 35.4067C44.4375 35.4484 43.4375 35.4902 42.4375 35.5319C42.1123 35.6424 41.8414 35.8302 41.625 36.0953C41.2917 36.8465 40.9584 37.5977 40.625 38.3489C40.5328 38.8198 40.5744 39.2789 40.75 39.7261C41.3709 40.4734 42.0377 41.1828 42.75 41.8545C42.067 42.8114 41.2545 43.6878 40.3125 44.4837C39.6269 43.8596 38.9602 43.2127 38.3125 42.5431C37.8007 42.2651 37.259 42.1816 36.6875 42.2927C35.9934 42.6195 35.2852 42.9116 34.5625 43.1691C34.2368 43.4117 34.0077 43.7247 33.875 44.1081C33.8125 45.1506 33.7918 46.1939 33.8125 47.2381C32.6035 47.2589 31.3952 47.2381 30.1875 47.1755C30.0854 46.1629 30.0229 45.1404 30 44.1081C29.8674 43.7247 29.6383 43.4117 29.3125 43.1691C28.5899 42.9116 27.8817 42.6195 27.1875 42.2927C26.616 42.1816 26.0744 42.2651 25.5625 42.5431C24.9375 43.1691 24.3125 43.7951 23.6875 44.4211C22.7322 43.737 21.8572 42.9232 21.0625 41.9797C21.644 41.3347 22.2482 40.7087 22.875 40.1017C23.2637 39.5777 23.3887 38.9934 23.25 38.3489C22.9238 37.6536 22.6322 36.9443 22.375 36.2205C22.1328 35.8942 21.8203 35.6647 21.4375 35.5319C20.4375 35.4902 19.4375 35.4484 18.4375 35.4067C18.375 35.3441 18.3125 35.2815 18.25 35.2189C18.1494 34.0861 18.1702 32.9593 18.3125 31.8385C19.3099 31.7343 20.3099 31.6717 21.3125 31.6507C21.9968 31.4661 22.4343 31.0279 22.625 30.3361C22.8334 29.7936 23.0417 29.2509 23.25 28.7085C23.3529 28.1779 23.2695 27.6771 23 27.2061C22.375 26.58 21.75 25.954 21.125 25.328C21.808 24.3711 22.6205 23.4947 23.5625 22.6988C24.2065 23.2813 24.8315 23.8864 25.4375 24.5142C25.9358 24.8479 26.4774 24.9731 27.0625 24.8898C27.8644 24.5803 28.656 24.2466 29.4375 23.8882C29.7022 23.6715 29.8897 23.4002 30 23.0744C30.0244 21.9797 30.0869 20.8946 30.1875 19.8192Z" fill="white"/>
<path fill-rule="evenodd" clip-rule="evenodd" d="M31.0637 26.7051C34.3747 26.5158 36.7705 27.893 38.2512 30.8368C39.4274 34.243 38.6149 37.06 35.8137 39.2878C32.4193 41.1406 29.3568 40.7024 26.6262 37.9732C24.5943 35.1254 24.5525 32.2458 26.5012 29.3344C27.7067 27.8862 29.2275 27.0098 31.0637 26.7051ZM31.3137 28.3327C28.5709 28.9733 27.0292 30.7052 26.6887 33.5286C27.0337 36.6911 28.7837 38.4648 31.9387 38.8496C35.0937 38.4648 36.8437 36.6911 37.1887 33.5286C36.6959 30.1345 34.7375 28.4026 31.3137 28.3327Z" fill="white"/>
</svg>
