<svg width="40" height="40" viewBox="0 0 40 40" fill="none" xmlns="http://www.w3.org/2000/svg">
<path fill-rule="evenodd" clip-rule="evenodd" d="M16.9147 0.586065C20.1703 0.319429 22.6833 1.54338 24.4538 4.25794C25.4773 6.27454 25.7117 8.38388 25.1569 10.5861C24.7008 12.8669 23.594 14.7549 21.8366 16.2501C20.119 17.4306 18.244 17.7691 16.2116 17.2658C14.068 16.5546 12.5446 15.1614 11.6413 13.0861C10.6719 10.9352 10.3594 8.6956 10.7038 6.36731C11.5879 3.15212 13.6582 1.22503 16.9147 0.586065Z" fill="#1868D0"/>
<path fill-rule="evenodd" clip-rule="evenodd" d="M11.2891 18.0078C15.7423 17.9948 20.1954 18.0078 24.6484 18.0469C27.7751 18.4823 30.0277 20.1099 31.4063 22.9297C31.8552 23.957 32.0505 25.0248 31.9922 26.1328C31.3281 24.9088 30.6641 23.6849 30 22.4609C28.5649 20.9649 27.0805 20.9128 25.5469 22.3047C24.8009 23.601 24.0848 24.9162 23.3984 26.25C21.9928 26.5103 20.5866 26.7708 19.1797 27.0313C17.6595 27.6626 17.0214 28.7954 17.2656 30.4297C17.3591 30.7987 17.5153 31.1373 17.7344 31.4453C18.6695 32.4587 19.6331 33.4483 20.625 34.4141C20.6226 35.1216 20.5575 35.8247 20.4297 36.5234C16.1067 36.5365 11.7838 36.5234 7.46094 36.4844C5.57292 36.0547 4.41406 34.8959 3.98438 33.0078C3.93229 30.3516 3.93229 27.6953 3.98438 25.0391C4.52281 22.0483 6.17646 19.9259 8.94531 18.6719C9.71563 18.3755 10.4969 18.1541 11.2891 18.0078Z" fill="#1868D0"/>
<path fill-rule="evenodd" clip-rule="evenodd" d="M27.617 23.5547C27.8416 23.5643 28.0369 23.6424 28.203 23.7891C28.9674 25.305 29.7617 26.8024 30.5858 28.2812C32.1689 28.5929 33.7575 28.8793 35.3514 29.1406C35.8877 29.2095 36.083 29.5089 35.9374 30.0391C34.7655 31.263 33.5936 32.487 32.4217 33.7109C32.5806 35.4087 32.8019 37.1014 33.0858 38.7891C32.9662 39.3003 32.6537 39.4696 32.1483 39.2969C30.6826 38.538 29.1982 37.8218 27.6952 37.1484C26.2277 37.8431 24.7693 38.5593 23.3202 39.2969C23.1118 39.349 22.9035 39.349 22.6952 39.2969C22.552 39.2578 22.4608 39.1666 22.4217 39.0234C22.6155 37.2506 22.8238 35.4798 23.0467 33.7109C21.9292 32.5152 20.7834 31.3434 19.6092 30.1953C19.3327 29.7987 19.3979 29.4732 19.8045 29.2188C21.5076 28.9263 23.2002 28.6008 24.8827 28.2422C25.6708 26.7962 26.439 25.3379 27.1874 23.8672C27.3045 23.7134 27.4477 23.6092 27.617 23.5547Z" fill="#1868D0"/>
</svg>
