<svg width="50" height="50" viewBox="0 0 50 50" fill="none" xmlns="http://www.w3.org/2000/svg">
<path fill-rule="evenodd" clip-rule="evenodd" d="M6.34766 0C7.19401 0 8.04036 0 8.88672 0C12.5526 0.834072 14.6686 3.11271 15.2344 6.83594C16.0488 6.81969 16.8626 6.83597 17.6758 6.88477C19.0725 7.10285 20.0328 7.86783 20.5566 9.17969C20.7 12.072 20.7488 14.969 20.7031 17.8711C23.5677 17.8711 26.4323 17.8711 29.2969 17.8711C29.2512 14.969 29.3 12.072 29.4434 9.17969C29.9672 7.86783 30.9275 7.10285 32.3242 6.88477C33.1374 6.83597 33.9512 6.81969 34.7656 6.83594C34.8279 5.49302 35.2836 4.30487 36.1328 3.27148C36.7951 3.09748 37.1857 3.34162 37.3047 4.00391C37.1201 4.47086 36.9085 4.92659 36.6699 5.37109C36.142 6.7305 36.1094 8.09769 36.5723 9.47266C37.173 8.72569 37.9055 8.13976 38.7695 7.71484C38.5142 6.17329 38.9373 4.85493 40.0391 3.75977C41.956 2.53031 43.6975 2.7419 45.2637 4.39453C45.8973 5.39806 46.0926 6.47228 45.8496 7.61719C46.7197 8.11809 47.501 8.73657 48.1934 9.47266C48.9493 5.98789 47.7286 3.46511 44.5312 1.9043C42.6087 1.28271 40.7532 1.46175 38.9648 2.44141C38.3025 2.32247 38.0584 1.93185 38.2324 1.26953C38.5484 0.940343 38.9228 0.696202 39.3555 0.537109C39.9444 0.325426 40.5304 0.146389 41.1133 0C41.9597 0 42.806 0 43.6523 0C47.1028 0.78125 49.2188 2.89714 50 6.34766C50 7.19401 50 8.04036 50 8.88672C49.0506 12.8948 46.5115 15.0433 42.3828 15.332C38.5582 15.1373 36.068 13.2167 34.9121 9.57031C34.813 9.18553 34.7642 8.7949 34.7656 8.39844C33.8801 8.3612 33.0012 8.41003 32.1289 8.54492C31.5996 8.71957 31.2253 9.06137 31.0059 9.57031C30.8618 12.3311 30.813 15.0979 30.8594 17.8711C33.0081 17.8548 35.1565 17.8711 37.3047 17.9199C38.518 18.0916 39.3155 18.759 39.6973 19.9219C39.7624 23.3073 39.7624 26.6927 39.6973 30.0781C39.3155 31.241 38.518 31.9084 37.3047 32.0801C35.1565 32.1289 33.0081 32.1452 30.8594 32.1289C30.813 34.9021 30.8618 37.6689 31.0059 40.4297C31.2253 40.9387 31.5996 41.2805 32.1289 41.4551C33.0012 41.5899 33.8801 41.6388 34.7656 41.6016C35.1177 38.4423 36.7778 36.2775 39.7461 35.1074C41.8486 34.4312 43.8994 34.5613 45.8984 35.498C46.2645 35.8142 46.3459 36.1885 46.1426 36.6211C45.9688 36.8422 45.7409 36.9724 45.459 37.0117C42.1109 35.5293 39.344 36.2455 37.1582 39.1602C36.205 40.7422 36.0097 42.4023 36.5723 44.1406C37.2591 43.3883 38.0566 42.7861 38.9648 42.334C38.4707 39.9698 39.3821 38.4398 41.6992 37.7441C44.2549 37.5738 45.6871 38.762 45.9961 41.3086C45.9399 41.6372 45.8748 41.9627 45.8008 42.2852C46.2239 42.5618 46.6472 42.8386 47.0703 43.1152C47.4325 43.4579 47.7905 43.7997 48.1445 44.1406C48.7495 42.2142 48.4729 40.4237 47.3145 38.7695C47.1561 37.8623 47.5304 37.5205 48.4375 37.7441C49.2649 38.7313 49.7857 39.8543 50 41.1133C50 41.9597 50 42.806 50 43.6523C49.207 47.1471 47.0586 49.263 43.5547 50C42.7409 50 41.9271 50 41.1133 50C37.4474 49.1659 35.3314 46.8873 34.7656 43.1641C33.9512 43.1803 33.1374 43.1641 32.3242 43.1152C30.9586 42.8561 29.9982 42.0911 29.4434 40.8203C29.3 37.928 29.2512 35.031 29.2969 32.1289C26.4323 32.1289 23.5677 32.1289 20.7031 32.1289C20.7488 35.031 20.7 37.928 20.5566 40.8203C20.0018 42.0911 19.0414 42.8561 17.6758 43.1152C16.8626 43.1641 16.0488 43.1803 15.2344 43.1641C14.6686 46.8873 12.5526 49.1659 8.88672 50C8.07292 50 7.25911 50 6.44531 50C2.94138 49.263 0.792935 47.1471 0 43.6523C0 42.806 0 41.9597 0 41.1133C0.949384 37.1052 3.48845 34.9567 7.61719 34.668C11.4405 34.8623 13.9308 36.7828 15.0879 40.4297C15.187 40.8145 15.2358 41.2051 15.2344 41.6016C16.1199 41.6388 16.9988 41.5899 17.8711 41.4551C18.4004 41.2805 18.7747 40.9387 18.9941 40.4297C19.1382 37.6689 19.187 34.9021 19.1406 32.1289C16.9919 32.1452 14.8435 32.1289 12.6953 32.0801C11.482 31.9084 10.6845 31.241 10.3027 30.0781C10.2376 28.5808 10.2376 27.0833 10.3027 25.5859C10.5481 25.2234 10.8899 25.1096 11.3281 25.2441C11.5071 25.293 11.6211 25.4069 11.6699 25.5859C11.7951 26.979 11.8603 28.3788 11.8652 29.7852C12.0596 30.1748 12.3688 30.4189 12.793 30.5176C20.931 30.5827 29.069 30.5827 37.207 30.5176C37.6312 30.4189 37.9404 30.1748 38.1348 29.7852C38.1999 26.595 38.1999 23.405 38.1348 20.2148C37.9404 19.8252 37.6312 19.5811 37.207 19.4824C29.069 19.4173 20.931 19.4173 12.793 19.4824C12.3688 19.5811 12.0596 19.8252 11.8652 20.2148C11.8572 21.1336 11.7921 22.045 11.6699 22.9492C11.2142 23.47 10.7585 23.47 10.3027 22.9492C10.2376 21.9401 10.2376 20.931 10.3027 19.9219C10.6845 18.759 11.482 18.0916 12.6953 17.9199C14.8435 17.8711 16.9919 17.8548 19.1406 17.8711C19.187 15.0979 19.1382 12.3311 18.9941 9.57031C18.7747 9.06137 18.4004 8.71957 17.8711 8.54492C16.9988 8.41003 16.1199 8.3612 15.2344 8.39844C14.7799 11.8322 12.8918 14.062 9.57031 15.0879C5.9473 15.8063 3.099 14.6508 1.02539 11.6211C0.554911 10.7454 0.213114 9.83398 0 8.88672C0 8.04036 0 7.19401 0 6.34766C0.78125 2.89714 2.89714 0.78125 6.34766 0ZM7.51953 1.46484C11.2829 1.81031 13.3663 3.86109 13.7695 7.61719C13.7606 8.2568 13.6467 8.87528 13.4277 9.47266C12.827 8.72569 12.0945 8.13976 11.2305 7.71484C11.4618 6.18155 11.0387 4.86319 9.96094 3.75977C8.04409 2.53031 6.30255 2.7419 4.73633 4.39453C4.09596 5.39597 3.90064 6.47019 4.15039 7.61719C3.28031 8.11809 2.49906 8.73657 1.80664 9.47266C1.04439 5.83752 2.36275 3.28218 5.76172 1.80664C6.35309 1.64787 6.93902 1.53394 7.51953 1.46484ZM7.42188 4.49219C8.76213 4.53044 9.51083 5.21403 9.66797 6.54297C9.41011 8.12022 8.49864 8.75499 6.93359 8.44727C5.61613 7.71637 5.30688 6.69098 6.00586 5.37109C6.37224 4.88779 6.84424 4.59482 7.42188 4.49219ZM42.0898 4.49219C43.9237 4.68103 44.6235 5.65759 44.1895 7.42188C43.5227 8.50428 42.5949 8.81353 41.4062 8.34961C40.2114 7.46722 40.0324 6.40928 40.8691 5.17578C41.2343 4.85532 41.6411 4.62746 42.0898 4.49219ZM10.2539 8.98438C11.229 9.48675 12.0428 10.1866 12.6953 11.084C10.7803 13.5234 8.33882 14.2721 5.37109 13.3301C4.24996 12.8266 3.33851 12.0779 2.63672 11.084C3.18951 10.173 3.95449 9.50578 4.93164 9.08203C6.49649 10.3633 8.14037 10.4771 9.86328 9.42383C10.0138 9.28992 10.144 9.14344 10.2539 8.98438ZM39.6484 8.98438C41.4198 10.507 43.2265 10.5396 45.0684 9.08203C46.0455 9.50578 46.8104 10.173 47.3633 11.084C45.6963 13.3436 43.4827 14.1574 40.7227 13.5254C39.311 13.0899 38.1717 12.2761 37.3047 11.084C37.9545 10.2218 38.7357 9.52195 39.6484 8.98438ZM6.93359 36.2305C10.3915 36.1905 12.6213 37.8182 13.623 41.1133C13.8514 42.148 13.7862 43.1572 13.4277 44.1406C12.7409 43.3883 11.9434 42.7861 11.0352 42.334C11.5139 40.3291 10.8303 38.8643 8.98438 37.9395C7.3806 37.4137 5.99713 37.7555 4.83398 38.9648C4.11039 39.9787 3.89881 41.0854 4.19922 42.2852C3.77604 42.5618 3.35286 42.8386 2.92969 43.1152C2.5186 43.4579 2.14426 43.8322 1.80664 44.2383C1.01227 40.7657 2.20043 38.243 5.37109 36.6699C5.89592 36.4902 6.41675 36.3438 6.93359 36.2305ZM7.22656 39.2578C8.86723 39.2545 9.66476 40.0684 9.61914 41.6992C9.0058 43.2386 7.94786 43.6455 6.44531 42.9199C5.33522 41.8721 5.30268 40.7979 6.34766 39.6973C6.63452 39.5214 6.92749 39.3749 7.22656 39.2578ZM41.8945 39.2578C43.3815 39.1543 44.2278 39.8379 44.4336 41.3086C44.0206 43.0287 42.979 43.5983 41.3086 43.0176C40.0437 41.9144 40.011 40.7751 41.2109 39.5996C41.4478 39.4812 41.6757 39.3673 41.8945 39.2578ZM4.88281 43.75C5.35301 44.1321 5.87384 44.4413 6.44531 44.6777C7.92748 45.1001 9.22956 44.7908 10.3516 43.75C11.3138 44.2237 12.095 44.9073 12.6953 45.8008C10.9081 48.1271 8.59688 48.9247 5.76172 48.1934C4.44837 47.7485 3.4067 46.951 2.63672 45.8008C3.23357 44.9432 3.98228 44.2596 4.88281 43.75ZM39.5508 43.75C39.9902 44.0408 40.446 44.3175 40.918 44.5801C42.4612 45.1233 43.8284 44.8467 45.0195 43.75C45.9817 44.2237 46.763 44.9073 47.3633 45.8008C45.7005 48.0096 43.5195 48.8396 40.8203 48.291C39.3559 47.8686 38.184 47.0385 37.3047 45.8008C37.9041 44.9403 38.6528 44.2567 39.5508 43.75Z" fill="white"/>
<path fill-rule="evenodd" clip-rule="evenodd" d="M16.601 21.0938C17.6901 20.9512 18.6992 21.1629 19.6283 21.7286C20.0462 22.2201 20.0136 22.6759 19.5306 23.0958C19.3028 23.1609 19.0749 23.1609 18.847 23.0958C17.2792 22.2517 16.0585 22.5935 15.1849 24.1212C14.7775 25.6665 15.3146 26.7244 16.7963 27.295C17.1869 27.3601 17.5775 27.3601 17.9681 27.295C18.4439 27.0123 18.9159 26.7356 19.3842 26.4649C20.1207 26.6679 20.316 27.1236 19.9701 27.8321C19.0385 28.7694 17.9155 29.1112 16.601 28.8575C14.2727 28.1915 13.2473 26.6453 13.5248 24.2188C13.9168 22.5411 14.9422 21.4994 16.601 21.0938Z" fill="white"/>
<path fill-rule="evenodd" clip-rule="evenodd" d="M22.168 21.0937C23.08 21.0775 23.9915 21.0937 24.9024 21.1426C26.5012 21.7524 27.0383 22.8755 26.5137 24.5117C26.1924 25.1583 25.6878 25.5977 25 25.8301C25.5255 26.4739 26.0626 27.1087 26.6114 27.7343C26.8878 28.4182 26.66 28.8089 25.9278 28.9062C25.7357 28.9021 25.5566 28.8533 25.3906 28.7597C24.7598 27.9659 24.0924 27.2009 23.3887 26.4648C23.3819 27.1913 23.3167 27.9074 23.1934 28.6133C22.7092 29.0249 22.2534 28.9923 21.8262 28.5156C21.7611 26.1718 21.7611 23.8281 21.8262 21.4843C21.9606 21.3667 22.0744 21.2365 22.168 21.0937ZM23.3399 22.6562C23.7643 22.64 24.1874 22.6563 24.6094 22.7051C25.3906 23.2259 25.3906 23.7467 24.6094 24.2676C24.1874 24.3163 23.7643 24.3326 23.3399 24.3164C23.3399 23.763 23.3399 23.2096 23.3399 22.6562Z" fill="white"/>
<path fill-rule="evenodd" clip-rule="evenodd" d="M29.9805 21.0936C30.4042 21.0298 30.7786 21.1274 31.1035 21.3866C31.5336 22.7583 31.973 24.1255 32.4219 25.4882C32.8434 24.1606 33.2503 22.8261 33.6426 21.4843C34.1365 21.0074 34.6573 20.9749 35.2051 21.3866C35.6699 23.4587 36.0931 25.5421 36.4746 27.6366C36.6439 28.6891 36.237 29.0472 35.2539 28.7108C35.148 28.5971 35.0667 28.4669 35.0098 28.3202C34.7819 27.1483 34.554 25.9765 34.3262 24.8046C33.9681 26.0416 33.6101 27.2785 33.252 28.5155C32.758 28.9924 32.2372 29.0249 31.6895 28.6132C31.2795 27.3506 30.8889 26.081 30.5176 24.8046C30.2942 26.0843 30.0338 27.3538 29.7363 28.6132C29.3132 29.0038 28.8899 29.0038 28.4668 28.6132C28.3732 28.4473 28.3244 28.2682 28.3203 28.0761C28.7011 25.873 29.1079 23.6758 29.541 21.4843C29.6774 21.331 29.8239 21.2007 29.9805 21.0936Z" fill="white"/>
</svg>
