<svg width="50" height="50" viewBox="0 0 50 50" fill="none" xmlns="http://www.w3.org/2000/svg">
<path fill-rule="evenodd" clip-rule="evenodd" d="M8.43271 0.00626615C9.57092 -0.0104507 10.7087 0.00628021 11.8459 0.0564608C12.1923 0.548299 12.4599 1.08372 12.6491 1.66269C13.237 1.83077 13.8059 2.04829 14.3557 2.31522C14.7233 2.16494 15.0913 2.01435 15.46 1.86347C15.7746 1.78415 16.0758 1.81761 16.3635 1.96386C17.016 2.61639 17.6685 3.26892 18.3211 3.92145C18.3814 4.08577 18.4316 4.25308 18.4716 4.4234C18.3118 4.92684 18.111 5.41206 17.8693 5.87905C18.1617 6.3878 18.396 6.9232 18.572 7.48527C19.0066 7.7695 19.4751 8.00374 19.9775 8.188C20.0981 8.2786 20.1818 8.39573 20.2285 8.53936C20.2954 9.57669 20.2954 10.6141 20.2285 11.6514C20.1699 11.8022 20.0863 11.936 19.9775 12.053C19.5281 12.2639 19.0764 12.4647 18.6222 12.6553C18.4265 13.2478 18.1755 13.8166 17.8693 14.3619C18.0808 14.7516 18.2649 15.1531 18.4215 15.5666C18.4923 15.8147 18.4589 16.049 18.3211 16.2693C17.5986 17.0254 16.8456 17.7449 16.0623 18.4277C15.4535 18.3978 14.8846 18.2137 14.3557 17.8756C13.8104 18.1818 13.2416 18.4327 12.6491 18.6285C12.4584 19.0827 12.2576 19.5344 12.0467 19.9838C11.9298 20.0926 11.796 20.1762 11.6452 20.2347C10.6078 20.3017 9.57042 20.3017 8.5331 20.2347C8.38946 20.188 8.27234 20.1043 8.18174 19.9838C7.9879 19.5528 7.80386 19.1178 7.62959 18.6787C7.03054 18.44 6.44494 18.1723 5.87278 17.8756C5.4058 18.1173 4.92058 18.3181 4.41713 18.4779C4.24681 18.4379 4.0795 18.3877 3.91519 18.3273C3.19255 17.6383 2.50656 16.9189 1.8572 16.169C1.79027 15.9347 1.79027 15.7004 1.8572 15.4662C2.00809 15.0976 2.15867 14.7296 2.30896 14.3619C2.05525 13.8018 1.821 13.2329 1.60623 12.6553C1.17208 12.4718 0.737059 12.2877 0.301168 12.1032C0.217511 12.0196 0.133852 11.9358 0.0501949 11.8522C-0.0167316 10.7145 -0.0167316 9.57669 0.0501949 8.43897C0.167316 8.32185 0.284437 8.20474 0.401558 8.08761C0.841685 7.94136 1.25998 7.75732 1.65643 7.53547C1.85426 6.97538 2.07178 6.42324 2.30896 5.87905C2.19984 5.5102 2.04926 5.15884 1.8572 4.82496C1.79027 4.55725 1.79027 4.28955 1.8572 4.02184C2.57666 3.30238 3.29612 2.58293 4.01558 1.86347C4.28328 1.79654 4.55098 1.79654 4.81869 1.86347C5.15258 2.05552 5.50394 2.20611 5.87278 2.31522C6.41697 2.07804 6.96911 1.86053 7.5292 1.66269C7.75105 1.26624 7.9351 0.847951 8.08135 0.407824C8.21944 0.286847 8.33657 0.152995 8.43271 0.00626615ZM9.4366 1.71289C9.90512 1.71289 10.3735 1.71289 10.8421 1.71289C10.936 2.21217 11.1368 2.66392 11.4444 3.06814C12.4201 3.36529 13.357 3.75013 14.2553 4.22262C14.7004 4.08378 15.1355 3.91647 15.5604 3.72067C15.9102 4.02024 16.2448 4.33814 16.5642 4.67437C16.2486 5.15206 16.098 5.67074 16.1125 6.23041C16.5784 7.05948 16.9465 7.92953 17.2168 8.84053C17.6082 9.08861 18.0265 9.28939 18.4716 9.44287C18.5713 9.90667 18.6049 10.3751 18.572 10.8483C18.0118 10.9361 17.5266 11.1704 17.1164 11.551C16.8182 12.481 16.4669 13.3845 16.0623 14.2616C16.1595 14.7401 16.3268 15.1919 16.5642 15.6168C16.2463 15.9347 15.9285 16.2526 15.6105 16.5705C15.1856 16.3331 14.7339 16.1657 14.2553 16.0686C13.3919 16.5073 12.4884 16.8586 11.5448 17.1227C11.1641 17.5328 10.9298 18.018 10.8421 18.5783C10.3688 18.6111 9.9004 18.5776 9.4366 18.4779C9.28313 18.0328 9.08235 17.6145 8.83427 17.223C7.92326 16.9528 7.05322 16.5847 6.22414 16.1188C5.66447 16.1043 5.14579 16.2549 4.66811 16.5705C4.33187 16.2511 4.01397 15.9165 3.71441 15.5666C3.91021 15.1418 4.07752 14.7067 4.21635 14.2616C3.74951 13.361 3.36469 12.4239 3.06188 11.4507C2.65766 11.1431 2.20591 10.9423 1.70662 10.8483C1.68998 10.3786 1.7067 9.91018 1.75681 9.44287C2.24947 9.3137 2.68448 9.07945 3.06188 8.74014C3.36288 7.76986 3.74772 6.83288 4.21635 5.92924C4.03006 5.46018 3.87948 4.99169 3.7646 4.52379C4.03709 4.21749 4.33826 3.94978 4.66811 3.72067C5.0902 3.92819 5.52522 4.0955 5.97317 4.22262C6.78487 3.77509 7.63818 3.42373 8.5331 3.16853C8.71239 3.08978 8.86298 2.97265 8.98485 2.81717C9.16562 2.45829 9.31621 2.09019 9.4366 1.71289Z" fill="white"/>
<path fill-rule="evenodd" clip-rule="evenodd" d="M9.03742 4.92538C12.1598 4.60193 14.2178 5.90699 15.2114 8.84057C15.6968 12.0036 14.4419 14.1286 11.4468 15.2153C8.09134 15.7382 5.93297 14.383 4.97165 11.1495C4.63672 7.9712 5.99198 5.89649 9.03742 4.92538ZM9.33859 6.632C7.28336 7.32604 6.39658 8.76495 6.67827 10.9487C7.43853 13.0609 8.92764 13.9142 11.1456 13.5087C13.1274 12.7078 13.9138 11.2521 13.5048 9.14173C12.751 7.26682 11.3622 6.43025 9.33859 6.632Z" fill="white"/>
<path fill-rule="evenodd" clip-rule="evenodd" d="M24.5968 4.92537C31.6667 4.6053 37.6063 7.01465 42.416 12.1534C46.201 16.5501 48.0415 21.6699 47.9374 27.513C48.1921 27.2247 48.4765 26.9737 48.7907 26.7601C49.8865 26.6186 50.2379 27.0704 49.8448 28.1153C49.0919 28.8682 48.3389 29.6212 47.586 30.3741C47.2179 30.5749 46.8499 30.5749 46.4817 30.3741C45.6954 29.5877 44.9089 28.8013 44.1226 28.0149C43.8514 27.0033 44.2362 26.5851 45.2771 26.7601C45.5913 26.9737 45.8757 27.2247 46.1304 27.513C46.1875 19.6443 42.9248 13.6041 36.3424 9.39269C33.1991 7.55319 29.8025 6.63296 26.1529 6.63199C24.3129 6.70381 22.4893 6.88786 20.6817 7.18413C20.0686 6.72655 20.0351 6.22461 20.5813 5.67829C21.9097 5.30653 23.2483 5.05556 24.5968 4.92537Z" fill="white"/>
<path fill-rule="evenodd" clip-rule="evenodd" d="M20.1781 16.3696C24.8297 16.3528 29.481 16.3696 34.1322 16.4198C35.375 16.6252 36.1279 17.3446 36.391 18.5781C36.458 21.891 36.458 25.2038 36.391 28.5167C36.1612 29.6167 35.5087 30.3361 34.4334 30.6751C31.6225 30.7085 28.8116 30.742 26.0007 30.7754C24.8266 31.9161 23.6887 33.0873 22.5875 34.2891C21.8772 34.5948 21.4255 34.3773 21.2322 33.6365C21.182 32.6667 21.1654 31.6962 21.182 30.7253C19.389 30.9264 18.3014 30.1568 17.9194 28.4163C17.8524 25.1704 17.8524 21.9244 17.9194 18.6785C18.1563 17.3877 18.9092 16.618 20.1781 16.3696ZM20.3789 18.0762C25.0028 18.0275 29.6207 18.0777 34.2326 18.2268C34.4645 18.3911 34.6151 18.6087 34.6844 18.8793C34.7513 22.0248 34.7513 25.1704 34.6844 28.3159C34.6008 28.6673 34.3832 28.8848 34.0319 28.9684C31.154 29.0019 28.2762 29.0354 25.3984 29.0688C25.298 29.1023 25.1976 29.1358 25.0972 29.1692C24.3746 29.8583 23.6885 30.5777 23.0392 31.3276C23.0209 30.6854 22.9541 30.0496 22.8384 29.4202C22.7548 29.3366 22.6711 29.2528 22.5875 29.1692C21.8283 29.042 21.0586 28.9751 20.2785 28.9684C19.9516 28.8091 19.7341 28.5581 19.626 28.2155C19.559 25.1369 19.559 22.0583 19.626 18.9797C19.7186 18.5366 19.9696 18.2354 20.3789 18.0762Z" fill="white"/>
<path fill-rule="evenodd" clip-rule="evenodd" d="M24.4957 19.1805C25.2972 19.1289 25.682 19.497 25.6502 20.2848C25.512 20.5111 25.3614 20.7285 25.1985 20.9374C26.972 20.9708 28.7455 21.0043 30.5191 21.0377C32.415 21.6325 33.2348 22.9208 32.9786 24.9027C32.6352 26.1496 31.8489 26.9695 30.6195 27.3623C28.5692 27.4603 26.528 27.4268 24.4957 27.2619C24.2062 26.7682 24.2396 26.2997 24.5961 25.8564C26.497 25.7263 28.4044 25.6595 30.3183 25.6557C31.2314 25.1929 31.5159 24.4734 31.1716 23.4973C31.021 23.2129 30.8035 22.9953 30.5191 22.8448C29.5892 22.7317 28.6523 22.6815 27.7082 22.6942C26.8717 22.7109 26.035 22.7276 25.1985 22.7444C25.7245 23.1576 25.8081 23.6428 25.4494 24.2C24.9853 24.4786 24.5336 24.4619 24.0942 24.1498C23.542 23.5977 22.9899 23.0455 22.4378 22.4934C22.1497 22.1161 22.1163 21.7146 22.3374 21.2887C23.0463 20.5629 23.7658 19.8602 24.4957 19.1805Z" fill="white"/>
<path fill-rule="evenodd" clip-rule="evenodd" d="M5.92273 19.8831C6.39682 19.7881 6.78164 19.9219 7.07721 20.2847C7.68393 21.2976 8.23607 22.3349 8.73363 23.3968C8.36402 24.2865 7.81188 24.4204 7.07721 23.7983C6.90989 23.4971 6.74258 23.196 6.57526 22.8948C5.38603 31.1039 8.04635 37.7462 14.5562 42.8221C19.1427 45.968 24.1956 47.1392 29.715 46.3357C30.3908 46.7144 30.4912 47.2163 30.0162 47.8416C21.1151 49.17 13.9372 46.2754 8.48266 39.1579C5.04654 34.0912 3.84187 28.5364 4.86864 22.4933C4.50937 22.7873 4.10781 22.9881 3.66397 23.0956C2.94869 23.0054 2.68099 22.6039 2.86085 21.8909C2.90756 21.7473 2.99122 21.6302 3.11183 21.5396C4.07166 21.0101 5.00864 20.458 5.92273 19.8831Z" fill="white"/>
<path fill-rule="evenodd" clip-rule="evenodd" d="M37.8359 29.3146C38.9072 29.2979 39.9781 29.3146 41.0483 29.3648C41.192 29.4115 41.309 29.4952 41.3997 29.6158C41.5935 30.0468 41.7775 30.4818 41.9518 30.9209C42.5508 31.1596 43.1365 31.4272 43.7086 31.724C44.1756 31.4822 44.6608 31.2815 45.1643 31.1216C45.3761 31.1773 45.5769 31.261 45.7666 31.3726C46.4558 32.0283 47.1083 32.7142 47.7242 33.4306C47.7912 33.6648 47.7912 33.8991 47.7242 34.1333C47.5733 34.502 47.4227 34.87 47.2725 35.2376C47.5391 35.7863 47.7565 36.3551 47.925 36.9442C48.367 37.1474 48.8188 37.3315 49.2802 37.4964C49.4008 37.587 49.4845 37.7041 49.5312 37.8477C49.5982 38.952 49.5982 40.0563 49.5312 41.1606C49.4141 41.2777 49.297 41.3948 49.1799 41.5119C48.7397 41.6582 48.3214 41.8422 47.925 42.0641C47.7214 42.6219 47.5039 43.174 47.2725 43.7205C47.3816 44.0893 47.5322 44.4407 47.7242 44.7746C47.8035 45.0892 47.7701 45.3904 47.6238 45.6781C46.9347 46.4007 46.2154 47.0868 45.4655 47.7361C45.2312 47.803 44.9969 47.803 44.7627 47.7361C44.4196 47.5659 44.0682 47.4153 43.7086 47.2843C43.1644 47.5216 42.6123 47.739 42.0522 47.9369C41.8304 48.3333 41.6463 48.7516 41.5001 49.1917C41.3829 49.3089 41.2659 49.4259 41.1487 49.5431C40.011 49.6101 38.8732 49.6101 37.7355 49.5431C37.6518 49.4595 37.5681 49.3757 37.4845 49.2921C37.3 48.8562 37.1159 48.4212 36.9324 47.9871C36.3548 47.7723 35.7859 47.538 35.2257 47.2843C34.8581 47.4346 34.4901 47.5852 34.1214 47.7361C33.8068 47.8154 33.5057 47.782 33.2179 47.6357C32.5654 46.9832 31.9129 46.3306 31.2604 45.6781C31.1349 45.4194 31.1013 45.1518 31.16 44.875C31.325 44.4798 31.509 44.095 31.7121 43.7205C31.4197 43.2117 31.1855 42.6764 31.0094 42.1143C30.5748 41.8301 30.1063 41.5958 29.6039 41.4116C29.4834 41.3209 29.3996 41.2039 29.353 41.0602C29.286 39.9893 29.286 38.9186 29.353 37.8477C29.4366 37.7473 29.5203 37.647 29.6039 37.5466C30.0533 37.3356 30.505 37.1349 30.9592 36.9442C31.1439 36.3576 31.3949 35.8054 31.7121 35.2878C31.5151 34.8769 31.331 34.4587 31.16 34.0329C31.0891 33.7849 31.1225 33.5506 31.2604 33.3302C31.9829 32.5742 32.7358 31.8547 33.5191 31.1718C34.1279 31.2018 34.6968 31.3859 35.2257 31.724C35.771 31.4178 36.3399 31.1668 36.9324 30.9711C37.1187 30.3466 37.4198 29.7945 37.8359 29.3146ZM38.7394 31.0213C39.2126 30.9884 39.681 31.022 40.1448 31.1216C40.2943 31.6225 40.5285 32.0742 40.8475 32.4769C41.739 32.6737 42.5755 33.0083 43.3573 33.4808C43.9169 33.4953 44.4357 33.3447 44.9133 33.029C45.2495 33.3485 45.5674 33.6831 45.867 34.0329C45.6858 34.4455 45.5185 34.8639 45.3651 35.2878C45.8181 36.2111 46.2029 37.1648 46.5195 38.1489C46.9238 38.4565 47.3756 38.6573 47.8748 38.7512C47.8915 39.221 47.8747 39.6894 47.8246 40.1567C47.3744 40.2901 46.956 40.4909 46.5697 40.759C46.2554 41.753 45.8539 42.7067 45.3651 43.6201C45.5398 44.1102 45.6904 44.5955 45.8168 45.0758C45.5444 45.3821 45.2432 45.6498 44.9133 45.8789C44.4912 45.6714 44.0562 45.504 43.6082 45.3769C42.6931 45.8661 41.7394 46.2677 40.7471 46.5816C40.4935 46.9552 40.2927 47.3567 40.1448 47.7863C39.681 47.886 39.2126 47.9195 38.7394 47.8867C38.6454 47.3874 38.4446 46.9357 38.137 46.5314C37.172 46.2435 36.2518 45.8587 35.3763 45.3769C34.912 45.4998 34.4603 45.6672 34.0211 45.8789C33.6712 45.5793 33.3366 45.2614 33.0172 44.9252C33.3328 44.4475 33.4834 43.9288 33.4689 43.3692C33.003 42.54 32.6349 41.6701 32.3646 40.759C31.9732 40.511 31.5549 40.3102 31.1098 40.1567C31.0101 39.6929 30.9766 39.2245 31.0094 38.7512C31.5697 38.6635 32.0548 38.4292 32.465 38.0485C32.729 37.1049 33.0804 36.2014 33.5191 35.338C33.4219 34.8594 33.2546 34.4077 33.0172 33.9827C33.3351 33.6648 33.6529 33.347 33.9709 33.029C34.3851 33.253 34.8201 33.4203 35.2759 33.531C36.1593 33.1024 37.0795 32.7511 38.0366 32.4769C38.4173 32.0667 38.6516 31.5815 38.7394 31.0213Z" fill="white"/>
<path fill-rule="evenodd" clip-rule="evenodd" d="M38.9528 34.6405C42.0459 34.487 44.0035 35.8924 44.8256 38.8568C45.1929 41.5525 44.1724 43.5101 41.7637 44.7296C39.0747 45.6343 36.8829 44.9483 35.1882 42.6716C33.8105 39.8554 34.3291 37.4627 36.7442 35.4938C37.4439 35.0772 38.18 34.7928 38.9528 34.6405ZM39.1536 36.3471C37.768 36.6817 36.8143 37.5183 36.2925 38.8568C35.8866 41.074 36.7399 42.5632 38.8524 43.3242C41.0193 43.6215 42.4414 42.7348 43.119 40.6638C43.284 37.8672 41.9622 36.4282 39.1536 36.3471Z" fill="white"/>
</svg>
