<svg width="40" height="40" viewBox="0 0 40 40" fill="none" xmlns="http://www.w3.org/2000/svg">
<path fill-rule="evenodd" clip-rule="evenodd" d="M35.5084 2.38293C36.7384 2.31124 37.4155 2.88415 37.5397 4.10168C37.0872 11.4356 34.3919 17.7898 29.4537 23.1642C25.7143 27.113 21.3393 30.1339 16.3287 32.2267C16.0085 32.202 15.709 32.1108 15.4303 31.9532C12.9716 29.5726 10.5366 27.1638 8.12562 24.7267C7.70316 24.2115 7.59899 23.6386 7.81312 23.0079C10.0066 18.2629 12.9884 14.0832 16.7584 10.4689C22.0548 5.59888 28.3048 2.90357 35.5084 2.38293ZM26.4459 8.47668C29.8152 8.65559 31.4689 10.4264 31.4069 13.7892C30.8739 16.275 29.3374 17.6291 26.7975 17.8517C24.3616 17.6552 22.8251 16.3792 22.1881 14.0236C21.897 11.3622 23.0038 9.57832 25.5084 8.672C25.8338 8.61692 26.1463 8.55176 26.4459 8.47668Z" fill="#1868D0"/>
<path fill-rule="evenodd" clip-rule="evenodd" d="M11.133 9.33575C12.3893 9.26153 13.5872 9.48294 14.7267 9.99982C12.0974 12.654 9.8579 15.5966 8.00798 18.8279C6.2773 18.3728 4.55855 17.852 2.85173 17.2654C2.38952 16.9464 2.29837 16.5427 2.57829 16.0545C4.45678 14.0709 6.47501 12.2611 8.63298 10.6248C9.40829 10.068 10.2416 9.63833 11.133 9.33575Z" fill="#1868D0"/>
<path fill-rule="evenodd" clip-rule="evenodd" d="M26.1337 10.664C28.3586 10.532 29.3873 11.5736 29.2197 13.789C28.679 15.2121 27.6504 15.798 26.1337 15.5468C24.7905 15.1142 24.1785 14.1897 24.2978 12.7733C24.5084 11.7166 25.1204 11.0135 26.1337 10.664Z" fill="#1868D0"/>
<path fill-rule="evenodd" clip-rule="evenodd" d="M29.8828 25.1953C30.5252 26.4202 30.7205 27.7222 30.4688 29.1016C30.2971 29.6271 30.0627 30.122 29.7656 30.5859C28.0034 33.0004 26.0373 35.253 23.8672 37.3437C23.379 37.6237 22.9753 37.5325 22.6562 37.0703C22.0697 35.3635 21.5489 33.6448 21.0938 31.9141C24.3269 30.0745 27.2566 27.8349 29.8828 25.1953Z" fill="#1868D0"/>
<path fill-rule="evenodd" clip-rule="evenodd" d="M5.97656 28.3203C7.86188 30.1666 9.73688 32.0285 11.6016 33.9062C9.2282 35.2289 6.67609 35.919 3.94531 35.9766C4.01347 33.2556 4.69055 30.7035 5.97656 28.3203Z" fill="#1868D0"/>
</svg>
