<svg width="40" height="41" viewBox="0 0 40 41" fill="none" xmlns="http://www.w3.org/2000/svg">
<path d="M38.9516 36.8995H37.5849V33.4827C37.5849 33.1068 37.2773 32.7993 36.9015 32.7993H24.0133C22.8653 32.7993 21.8061 33.3665 21.1705 34.3232L19.8175 36.3528L18.4644 34.3232C17.8289 33.3733 16.7697 32.7993 15.6216 32.7993H2.73344C2.3576 32.7993 2.05008 33.1068 2.05008 33.4827V36.8995H0.683361C0.307512 36.8995 0 37.207 0 37.5828V40.3163C0 40.6921 0.307512 40.9997 0.683361 40.9997H17.084C18.2047 40.9997 19.1956 40.4461 19.8175 39.6124C20.4393 40.453 21.4302 40.9997 22.5509 40.9997H38.9516C39.3274 40.9997 39.6349 40.6921 39.6349 40.3163V37.5828C39.6349 37.207 39.3274 36.8995 38.9516 36.8995ZM22.3049 35.0817C22.6876 34.5077 23.3231 34.166 24.0133 34.166H36.2181V36.8995H21.0954L22.3117 35.0817H22.3049ZM3.41681 34.166H15.6216C16.3118 34.166 16.9474 34.5077 17.33 35.0817L18.5464 36.8995H3.41681V34.166ZM17.084 39.6329H1.36672V38.2662H19.0179C18.7378 39.0589 17.9792 39.6329 17.084 39.6329ZM38.2682 39.6329H22.5509C21.6625 39.6329 20.8972 39.0589 20.617 38.2662H38.2682V39.6329Z" fill="white"/>
<path d="M10.937 20.4991H13.9848L16.1101 23.6836C16.4928 24.2576 17.1283 24.5993 17.8185 24.5993H21.823C22.5063 24.5993 23.1487 24.2576 23.5314 23.6836L25.6566 20.4991H28.7044C29.4561 20.4991 30.0711 19.8841 30.0711 19.1324V12.7908C30.0711 12.2031 29.6953 11.6838 29.1349 11.4924L27.1532 10.8296C26.0598 2.5404 20.3401 0.148631 20.0736 0.0461269C19.9096 -0.0153756 19.7319 -0.0153756 19.5679 0.0461269C19.3014 0.155465 13.5748 2.5404 12.4883 10.8296L10.5065 11.4924C9.94616 11.6769 9.57031 12.2031 9.57031 12.7908V19.1324C9.57031 19.8841 10.1853 20.4991 10.937 20.4991ZM22.3902 22.9251C22.2603 23.1164 22.0485 23.2326 21.823 23.2326H17.8185C17.593 23.2326 17.3743 23.1164 17.2513 22.9251L15.6317 20.4991H24.0097L22.3902 22.9251ZM28.7044 12.7908V19.1324H26.709C27.119 17.4103 27.3377 15.5858 27.3377 13.6655C27.3377 13.2008 27.3172 12.7566 27.2967 12.3193L28.7044 12.7908ZM19.8207 1.43335C21.0303 2.03471 25.971 5.03466 25.971 13.6655C25.971 15.5653 25.7455 17.4445 25.315 19.1324H14.3265C13.896 17.4513 13.6705 15.5721 13.6705 13.6655C13.6705 5.02783 18.618 2.03471 19.8207 1.43335ZM10.937 12.7908L12.3448 12.3193C12.3174 12.7566 12.3038 13.2008 12.3038 13.6655C12.3038 15.5858 12.5224 17.4172 12.9324 19.1324H10.937V12.7908Z" fill="white"/>
<path d="M19.8189 15.7155C22.0808 15.7155 23.9191 13.8772 23.9191 11.6153C23.9191 9.35338 22.0808 7.51514 19.8189 7.51514C17.557 7.51514 15.7188 9.35338 15.7188 11.6153C15.7188 13.8772 17.557 15.7155 19.8189 15.7155ZM19.8189 8.88186C21.3291 8.88186 22.5524 10.1051 22.5524 11.6153C22.5524 13.1255 21.3291 14.3487 19.8189 14.3487C18.3087 14.3487 17.0855 13.1255 17.0855 11.6153C17.0855 10.1051 18.3087 8.88186 19.8189 8.88186Z" fill="white"/>
<path d="M19.1328 26.6492V30.7493C19.1328 31.1252 19.4403 31.4327 19.8162 31.4327C20.192 31.4327 20.4995 31.1252 20.4995 30.7493V26.6492C20.4995 26.2733 20.192 25.9658 19.8162 25.9658C19.4403 25.9658 19.1328 26.2733 19.1328 26.6492Z" fill="white"/>
<path d="M22.171 26.0822C21.8566 26.294 21.7746 26.7177 21.9796 27.0321L24.7131 31.1322C24.8429 31.3304 25.0616 31.4397 25.2803 31.4397C25.4101 31.4397 25.54 31.4056 25.6561 31.3236C25.9705 31.1117 26.0525 30.688 25.8475 30.3737L23.114 26.2735C22.9022 25.9592 22.4785 25.8772 22.1641 26.0822H22.171Z" fill="white"/>
<path d="M16.5208 26.2736L13.7873 30.3738C13.5755 30.6881 13.6643 31.1118 13.9787 31.3236C14.0949 31.3988 14.2247 31.4398 14.3545 31.4398C14.5732 31.4398 14.7919 31.3305 14.9217 31.1323L17.6552 27.0321C17.867 26.7178 17.7782 26.2941 17.4638 26.0823C17.1495 25.8704 16.7258 25.9593 16.5139 26.2736H16.5208Z" fill="white"/>
</svg>
