<svg width="412" height="252" viewBox="0 0 412 252" fill="none" xmlns="http://www.w3.org/2000/svg">
<g clip-path="url(#clip0_16205_11794)">
<foreignObject x="-11.706" y="-11.7002" width="385.31" height="274.671"><div xmlns="http://www.w3.org/1999/xhtml" style="backdrop-filter:blur(5.57px);clip-path:url(#bgblur_1_16205_11794_clip_path);height:100%;width:100%"></div></foreignObject><rect data-figma-bg-blur-radius="11.1435" x="-0.0078125" y="0.000976562" width="361.909" height="251.269" rx="17.8296" fill="url(#paint0_linear_16205_11794)" fill-opacity="0.4" stroke="url(#paint1_linear_16205_11794)" stroke-width="1.11435"/>
<path d="M-0.0078125 31.8057L345.357 31.8057" stroke="white" stroke-opacity="0.1" stroke-width="0.742901"/>
<g filter="url(#filter1_d_16205_11794)">
<circle cx="22.2423" cy="16.3097" r="4.42203" fill="white" fill-opacity="0.2" shape-rendering="crispEdges"/>
</g>
<g filter="url(#filter2_d_16205_11794)">
<circle cx="36.3986" cy="16.3097" r="4.42203" fill="white" fill-opacity="0.2" shape-rendering="crispEdges"/>
</g>
<g filter="url(#filter3_d_16205_11794)">
<circle cx="50.5392" cy="16.3097" r="4.42203" fill="white" fill-opacity="0.2" shape-rendering="crispEdges"/>
</g>
<foreignObject x="74.6846" y="-2.08687" width="279.764" height="36.7636"><div xmlns="http://www.w3.org/1999/xhtml" style="backdrop-filter:blur(5.57px);clip-path:url(#bgblur_2_16205_11794_clip_path);height:100%;width:100%"></div></foreignObject><rect data-figma-bg-blur-radius="11.1435" x="85.8281" y="9.05664" width="257.473" height="14.4764" rx="7.23819" fill="white" fill-opacity="0.2"/>
<path d="M76.0877 20.6281C76.151 20.6281 76.254 20.6044 76.353 20.5489C78.6062 19.2857 79.3784 18.7511 79.3784 17.3057V14.2763C79.3784 13.8605 79.2002 13.7298 78.8636 13.5872C78.3963 13.3932 76.8876 12.8507 76.4203 12.6883C76.3134 12.6527 76.1985 12.6289 76.0877 12.6289C75.9768 12.6289 75.8619 12.6606 75.759 12.6883C75.2917 12.8229 73.779 13.3972 73.3117 13.5872C72.979 13.7258 72.7969 13.8605 72.7969 14.2763V17.3057C72.7969 18.7511 73.573 19.2817 75.8223 20.5489C75.9253 20.6044 76.0243 20.6281 76.0877 20.6281ZM76.2461 13.3021C76.844 13.5397 78.0043 13.9595 78.6181 14.1694C78.725 14.209 78.7488 14.2644 78.7488 14.399V17.1592C78.7488 18.3828 78.1627 18.7036 76.3332 19.8163C76.2183 19.8876 76.155 19.9074 76.0916 19.9114V13.2665C76.1312 13.2665 76.1827 13.2783 76.2461 13.3021Z" fill="white"/>
<foreignObject x="7.0518" y="33.4317" width="352.139" height="148.438"><div xmlns="http://www.w3.org/1999/xhtml" style="backdrop-filter:blur(5.57px);clip-path:url(#bgblur_3_16205_11794_clip_path);height:100%;width:100%"></div></foreignObject><rect data-figma-bg-blur-radius="11.1435" x="18.1953" y="44.5752" width="329.855" height="126.151" rx="8.91481" fill="white" fill-opacity="0.25"/>
<foreignObject x="7.0518" y="168.498" width="352.139" height="36.7636"><div xmlns="http://www.w3.org/1999/xhtml" style="backdrop-filter:blur(5.57px);clip-path:url(#bgblur_4_16205_11794_clip_path);height:100%;width:100%"></div></foreignObject><rect data-figma-bg-blur-radius="11.1435" x="18.1953" y="179.642" width="329.855" height="14.4764" rx="7.23819" fill="white" fill-opacity="0.25"/>
<foreignObject x="7.0518" y="191.89" width="269.42" height="31.5937"><div xmlns="http://www.w3.org/1999/xhtml" style="backdrop-filter:blur(5.57px);clip-path:url(#bgblur_5_16205_11794_clip_path);height:100%;width:100%"></div></foreignObject><rect data-figma-bg-blur-radius="11.1435" x="18.1953" y="203.033" width="247.132" height="9.30624" rx="4.65312" fill="white" fill-opacity="0.25"/>
<foreignObject x="7.0518" y="207.139" width="236.334" height="30.5595"><div xmlns="http://www.w3.org/1999/xhtml" style="backdrop-filter:blur(5.57px);clip-path:url(#bgblur_6_16205_11794_clip_path);height:100%;width:100%"></div></foreignObject><rect data-figma-bg-blur-radius="11.1435" x="18.1953" y="218.282" width="214.044" height="8.27222" rx="4.13611" fill="white" fill-opacity="0.25"/>
<foreignObject x="7.0518" y="221.355" width="206.342" height="31.5937"><div xmlns="http://www.w3.org/1999/xhtml" style="backdrop-filter:blur(5.57px);clip-path:url(#bgblur_7_16205_11794_clip_path);height:100%;width:100%"></div></foreignObject><rect data-figma-bg-blur-radius="11.1435" x="18.1953" y="232.498" width="184.057" height="9.30624" rx="4.65312" fill="white" fill-opacity="0.25"/>
</g>
<g clip-path="url(#clip8_16205_11794)">
<foreignObject x="250.297" y="64.2998" width="173.406" height="276.9"><div xmlns="http://www.w3.org/1999/xhtml" style="backdrop-filter:blur(5.63px);clip-path:url(#bgblur_9_16205_11794_clip_path);height:100%;width:100%"></div></foreignObject><rect data-figma-bg-blur-radius="11.25" x="262" y="76" width="150" height="253.5" rx="18" fill="url(#paint2_linear_16205_11794)" fill-opacity="0.4" stroke="url(#paint3_linear_16205_11794)" stroke-width="0.9"/>
<foreignObject x="262.75" y="108.25" width="148.5" height="72"><div xmlns="http://www.w3.org/1999/xhtml" style="backdrop-filter:blur(5.63px);clip-path:url(#bgblur_10_16205_11794_clip_path);height:100%;width:100%"></div></foreignObject><rect data-figma-bg-blur-radius="11.25" x="274" y="119.5" width="126" height="49.5" rx="9" fill="white" fill-opacity="0.25"/>
<foreignObject x="262.75" y="165.25" width="49.5" height="33"><div xmlns="http://www.w3.org/1999/xhtml" style="backdrop-filter:blur(5.63px);clip-path:url(#bgblur_11_16205_11794_clip_path);height:100%;width:100%"></div></foreignObject><rect data-figma-bg-blur-radius="11.25" x="274" y="176.5" width="27" height="10.5" rx="5.25" fill="white" fill-opacity="0.25"/>
<foreignObject x="294.25" y="165.25" width="49.5" height="33"><div xmlns="http://www.w3.org/1999/xhtml" style="backdrop-filter:blur(5.63px);clip-path:url(#bgblur_12_16205_11794_clip_path);height:100%;width:100%"></div></foreignObject><rect data-figma-bg-blur-radius="11.25" x="305.5" y="176.5" width="27" height="10.5" rx="5.25" fill="white" fill-opacity="0.25"/>
<foreignObject x="325.75" y="165.25" width="49.5" height="33"><div xmlns="http://www.w3.org/1999/xhtml" style="backdrop-filter:blur(5.63px);clip-path:url(#bgblur_13_16205_11794_clip_path);height:100%;width:100%"></div></foreignObject><rect data-figma-bg-blur-radius="11.25" x="337" y="176.5" width="27" height="10.5" rx="5.25" fill="white" fill-opacity="0.25"/>
<foreignObject x="357.25" y="165.25" width="49.5" height="33"><div xmlns="http://www.w3.org/1999/xhtml" style="backdrop-filter:blur(5.63px);clip-path:url(#bgblur_14_16205_11794_clip_path);height:100%;width:100%"></div></foreignObject><rect data-figma-bg-blur-radius="11.25" x="368.5" y="176.5" width="27" height="10.5" rx="5.25" fill="white" fill-opacity="0.25"/>
<foreignObject x="388.75" y="165.25" width="49.5" height="33"><div xmlns="http://www.w3.org/1999/xhtml" style="backdrop-filter:blur(5.63px);clip-path:url(#bgblur_15_16205_11794_clip_path);height:100%;width:100%"></div></foreignObject><rect data-figma-bg-blur-radius="11.25" x="400" y="176.5" width="27" height="10.5" rx="5.25" fill="white" fill-opacity="0.25"/>
<g filter="url(#filter17_d_16205_11794)">
<circle cx="283.75" cy="97.75" r="9.75" fill="white" fill-opacity="0.2" shape-rendering="crispEdges"/>
</g>
<foreignObject x="294.102" y="87.4773" width="44.5454" height="14.5454"><div xmlns="http://www.w3.org/1999/xhtml" style="backdrop-filter:blur(2.32px);clip-path:url(#bgblur_16_16205_11794_clip_path);height:100%;width:100%"></div></foreignObject><rect data-figma-bg-blur-radius="4.64768" x="298.75" y="92.125" width="35.25" height="5.25" rx="2.625" fill="white" fill-opacity="0.25"/>
<foreignObject x="294.102" y="95.7273" width="80.5454" height="12.2954"><div xmlns="http://www.w3.org/1999/xhtml" style="backdrop-filter:blur(2.32px);clip-path:url(#bgblur_17_16205_11794_clip_path);height:100%;width:100%"></div></foreignObject><rect data-figma-bg-blur-radius="4.64768" x="298.75" y="100.375" width="71.25" height="3" rx="1.5" fill="white" fill-opacity="0.25"/>
<foreignObject x="269.352" y="197.352" width="44.5454" height="14.5454"><div xmlns="http://www.w3.org/1999/xhtml" style="backdrop-filter:blur(2.32px);clip-path:url(#bgblur_18_16205_11794_clip_path);height:100%;width:100%"></div></foreignObject><rect data-figma-bg-blur-radius="4.64768" x="274" y="202" width="35.25" height="5.25" rx="2.625" fill="white" fill-opacity="0.25"/>
<foreignObject x="269.352" y="205.602" width="80.5454" height="12.2954"><div xmlns="http://www.w3.org/1999/xhtml" style="backdrop-filter:blur(2.32px);clip-path:url(#bgblur_19_16205_11794_clip_path);height:100%;width:100%"></div></foreignObject><rect data-figma-bg-blur-radius="4.64768" x="274" y="210.25" width="71.25" height="3" rx="1.5" fill="white" fill-opacity="0.25"/>
<foreignObject x="262.75" y="208.75" width="81" height="72"><div xmlns="http://www.w3.org/1999/xhtml" style="backdrop-filter:blur(5.63px);clip-path:url(#bgblur_20_16205_11794_clip_path);height:100%;width:100%"></div></foreignObject><rect data-figma-bg-blur-radius="11.25" x="274" y="220" width="58.5" height="49.5" rx="9" fill="white" fill-opacity="0.25"/>
<foreignObject x="330.25" y="208.75" width="81" height="72"><div xmlns="http://www.w3.org/1999/xhtml" style="backdrop-filter:blur(5.63px);clip-path:url(#bgblur_21_16205_11794_clip_path);height:100%;width:100%"></div></foreignObject><rect data-figma-bg-blur-radius="11.25" x="341.5" y="220" width="58.5" height="49.5" rx="9" fill="white" fill-opacity="0.25"/>
<mask id="mask0_16205_11794" style="mask-type:alpha" maskUnits="userSpaceOnUse" x="274" y="87" width="20" height="21">
<circle cx="283.75" cy="97.749" r="9.75" fill="white"/>
</mask>
<g mask="url(#mask0_16205_11794)">
<path d="M274.375 105.937C274.375 105.734 274.44 105.536 274.56 105.372L274.739 105.129C279.236 99.0134 288.352 98.9482 292.935 104.999V104.999C293.058 105.161 293.125 105.359 293.125 105.563V106.054C293.125 107.376 292.053 108.448 290.731 108.448H276.501C275.327 108.448 274.375 107.496 274.375 106.322V105.937Z" fill="white"/>
<circle cx="283.75" cy="95.499" r="3" fill="white"/>
</g>
</g>
<defs>
<clipPath id="bgblur_1_16205_11794_clip_path" transform="translate(11.706 11.7002)"><rect x="-0.0078125" y="0.000976562" width="361.909" height="251.269" rx="17.8296"/>
</clipPath><filter id="filter1_d_16205_11794" x="17.8203" y="11.8877" width="9.06485" height="9.06485" filterUnits="userSpaceOnUse" color-interpolation-filters="sRGB">
<feFlood flood-opacity="0" result="BackgroundImageFix"/>
<feColorMatrix in="SourceAlpha" type="matrix" values="0 0 0 0 0 0 0 0 0 0 0 0 0 0 0 0 0 0 127 0" result="hardAlpha"/>
<feOffset dx="0.221101" dy="0.221101"/>
<feComposite in2="hardAlpha" operator="out"/>
<feColorMatrix type="matrix" values="0 0 0 0 1 0 0 0 0 1 0 0 0 0 1 0 0 0 1 0"/>
<feBlend mode="normal" in2="BackgroundImageFix" result="effect1_dropShadow_16205_11794"/>
<feBlend mode="normal" in="SourceGraphic" in2="effect1_dropShadow_16205_11794" result="shape"/>
</filter>
<filter id="filter2_d_16205_11794" x="31.9766" y="11.8877" width="9.06485" height="9.06485" filterUnits="userSpaceOnUse" color-interpolation-filters="sRGB">
<feFlood flood-opacity="0" result="BackgroundImageFix"/>
<feColorMatrix in="SourceAlpha" type="matrix" values="0 0 0 0 0 0 0 0 0 0 0 0 0 0 0 0 0 0 127 0" result="hardAlpha"/>
<feOffset dx="0.221101" dy="0.221101"/>
<feComposite in2="hardAlpha" operator="out"/>
<feColorMatrix type="matrix" values="0 0 0 0 1 0 0 0 0 1 0 0 0 0 1 0 0 0 1 0"/>
<feBlend mode="normal" in2="BackgroundImageFix" result="effect1_dropShadow_16205_11794"/>
<feBlend mode="normal" in="SourceGraphic" in2="effect1_dropShadow_16205_11794" result="shape"/>
</filter>
<filter id="filter3_d_16205_11794" x="46.1172" y="11.8877" width="9.06485" height="9.06485" filterUnits="userSpaceOnUse" color-interpolation-filters="sRGB">
<feFlood flood-opacity="0" result="BackgroundImageFix"/>
<feColorMatrix in="SourceAlpha" type="matrix" values="0 0 0 0 0 0 0 0 0 0 0 0 0 0 0 0 0 0 127 0" result="hardAlpha"/>
<feOffset dx="0.221101" dy="0.221101"/>
<feComposite in2="hardAlpha" operator="out"/>
<feColorMatrix type="matrix" values="0 0 0 0 1 0 0 0 0 1 0 0 0 0 1 0 0 0 1 0"/>
<feBlend mode="normal" in2="BackgroundImageFix" result="effect1_dropShadow_16205_11794"/>
<feBlend mode="normal" in="SourceGraphic" in2="effect1_dropShadow_16205_11794" result="shape"/>
</filter>
<clipPath id="bgblur_2_16205_11794_clip_path" transform="translate(-74.6846 2.08687)"><rect x="85.8281" y="9.05664" width="257.473" height="14.4764" rx="7.23819"/>
</clipPath><clipPath id="bgblur_3_16205_11794_clip_path" transform="translate(-7.0518 -33.4317)"><rect x="18.1953" y="44.5752" width="329.855" height="126.151" rx="8.91481"/>
</clipPath><clipPath id="bgblur_4_16205_11794_clip_path" transform="translate(-7.0518 -168.498)"><rect x="18.1953" y="179.642" width="329.855" height="14.4764" rx="7.23819"/>
</clipPath><clipPath id="bgblur_5_16205_11794_clip_path" transform="translate(-7.0518 -191.89)"><rect x="18.1953" y="203.033" width="247.132" height="9.30624" rx="4.65312"/>
</clipPath><clipPath id="bgblur_6_16205_11794_clip_path" transform="translate(-7.0518 -207.139)"><rect x="18.1953" y="218.282" width="214.044" height="8.27222" rx="4.13611"/>
</clipPath><clipPath id="bgblur_7_16205_11794_clip_path" transform="translate(-7.0518 -221.355)"><rect x="18.1953" y="232.498" width="184.057" height="9.30624" rx="4.65312"/>
</clipPath><clipPath id="bgblur_9_16205_11794_clip_path" transform="translate(-250.297 -64.2998)"><rect x="262" y="76" width="150" height="253.5" rx="18"/>
</clipPath><clipPath id="bgblur_10_16205_11794_clip_path" transform="translate(-262.75 -108.25)"><rect x="274" y="119.5" width="126" height="49.5" rx="9"/>
</clipPath><clipPath id="bgblur_11_16205_11794_clip_path" transform="translate(-262.75 -165.25)"><rect x="274" y="176.5" width="27" height="10.5" rx="5.25"/>
</clipPath><clipPath id="bgblur_12_16205_11794_clip_path" transform="translate(-294.25 -165.25)"><rect x="305.5" y="176.5" width="27" height="10.5" rx="5.25"/>
</clipPath><clipPath id="bgblur_13_16205_11794_clip_path" transform="translate(-325.75 -165.25)"><rect x="337" y="176.5" width="27" height="10.5" rx="5.25"/>
</clipPath><clipPath id="bgblur_14_16205_11794_clip_path" transform="translate(-357.25 -165.25)"><rect x="368.5" y="176.5" width="27" height="10.5" rx="5.25"/>
</clipPath><clipPath id="bgblur_15_16205_11794_clip_path" transform="translate(-388.75 -165.25)"><rect x="400" y="176.5" width="27" height="10.5" rx="5.25"/>
</clipPath><filter id="filter17_d_16205_11794" x="259.487" y="73.4875" width="49.5" height="49.5" filterUnits="userSpaceOnUse" color-interpolation-filters="sRGB">
<feFlood flood-opacity="0" result="BackgroundImageFix"/>
<feColorMatrix in="SourceAlpha" type="matrix" values="0 0 0 0 0 0 0 0 0 0 0 0 0 0 0 0 0 0 127 0" result="hardAlpha"/>
<feOffset dx="0.4875" dy="0.4875"/>
<feGaussianBlur stdDeviation="7.5"/>
<feComposite in2="hardAlpha" operator="out"/>
<feColorMatrix type="matrix" values="0 0 0 0 1 0 0 0 0 1 0 0 0 0 1 0 0 0 0.1 0"/>
<feBlend mode="normal" in2="BackgroundImageFix" result="effect1_dropShadow_16205_11794"/>
<feBlend mode="normal" in="SourceGraphic" in2="effect1_dropShadow_16205_11794" result="shape"/>
</filter>
<clipPath id="bgblur_16_16205_11794_clip_path" transform="translate(-294.102 -87.4773)"><rect x="298.75" y="92.125" width="35.25" height="5.25" rx="2.625"/>
</clipPath><clipPath id="bgblur_17_16205_11794_clip_path" transform="translate(-294.102 -95.7273)"><rect x="298.75" y="100.375" width="71.25" height="3" rx="1.5"/>
</clipPath><clipPath id="bgblur_18_16205_11794_clip_path" transform="translate(-269.352 -197.352)"><rect x="274" y="202" width="35.25" height="5.25" rx="2.625"/>
</clipPath><clipPath id="bgblur_19_16205_11794_clip_path" transform="translate(-269.352 -205.602)"><rect x="274" y="210.25" width="71.25" height="3" rx="1.5"/>
</clipPath><clipPath id="bgblur_20_16205_11794_clip_path" transform="translate(-262.75 -208.75)"><rect x="274" y="220" width="58.5" height="49.5" rx="9"/>
</clipPath><clipPath id="bgblur_21_16205_11794_clip_path" transform="translate(-330.25 -208.75)"><rect x="341.5" y="220" width="58.5" height="49.5" rx="9"/>
</clipPath><linearGradient id="paint0_linear_16205_11794" x1="7.04237" y1="7.06326" x2="229.757" y2="241.748" gradientUnits="userSpaceOnUse">
<stop stop-color="white"/>
<stop offset="0.575256" stop-color="white" stop-opacity="0.111467"/>
<stop offset="1" stop-color="white" stop-opacity="0"/>
</linearGradient>
<linearGradient id="paint1_linear_16205_11794" x1="5.08399" y1="7.43496" x2="84.125" y2="129.49" gradientUnits="userSpaceOnUse">
<stop stop-color="white"/>
<stop offset="1" stop-color="white" stop-opacity="0"/>
</linearGradient>
<linearGradient id="paint2_linear_16205_11794" x1="262" y1="76" x2="393.25" y2="299.5" gradientUnits="userSpaceOnUse">
<stop stop-color="white"/>
<stop offset="1" stop-color="white" stop-opacity="0"/>
</linearGradient>
<linearGradient id="paint3_linear_16205_11794" x1="266.875" y1="81.625" x2="353.5" y2="129.625" gradientUnits="userSpaceOnUse">
<stop stop-color="white"/>
<stop offset="1" stop-color="white" stop-opacity="0"/>
</linearGradient>
<clipPath id="clip0_16205_11794">
<rect width="361.909" height="251.269" fill="white"/>
</clipPath>
<clipPath id="clip8_16205_11794">
<rect width="150" height="175.5" fill="white" transform="translate(262 76)"/>
</clipPath>
</defs>
</svg>
