<svg width="40" height="40" viewBox="0 0 40 40" fill="none" xmlns="http://www.w3.org/2000/svg">
<g clip-path="url(#clip0_661_8129)">
<path fill-rule="evenodd" clip-rule="evenodd" d="M18.3991 -0.0390625C19.4407 -0.0390625 20.4824 -0.0390625 21.5241 -0.0390625C28.0017 0.929828 32.3637 4.49753 34.61 10.6641C36.2601 16.8907 34.7887 22.2423 30.196 26.7188C25.5136 30.5853 20.2792 31.5489 14.4928 29.6094C9.83518 27.7121 6.74922 24.3658 5.23502 19.5703C3.69145 13.3077 5.26696 7.98211 9.96159 3.59375C12.4148 1.55613 15.2273 0.345197 18.3991 -0.0390625ZM19.8835 3.24219C20.0064 3.27634 20.0976 3.35446 20.1569 3.47656C21.3418 5.65104 22.5267 7.82555 23.7116 10C26.2958 10.5116 28.8739 11.0324 31.446 11.5625C29.6491 13.4635 27.8522 15.3646 26.0553 17.2656C26.4486 19.852 26.7611 22.443 26.9928 25.0391C24.6491 23.9193 22.3053 22.7995 19.9616 21.6797C17.6178 22.7995 15.2741 23.9193 12.9303 25.0391C13.1621 22.443 13.4746 19.852 13.8678 17.2656C12.071 15.3646 10.2741 13.4635 8.47721 11.5625C11.0492 11.0324 13.6274 10.5116 16.2116 10C17.4673 7.7619 18.6912 5.5093 19.8835 3.24219Z" fill="#1868D0"/>
<path fill-rule="evenodd" clip-rule="evenodd" d="M19.8828 7.92974C19.9606 7.92302 20.0257 7.94912 20.0781 8.00787C20.7943 9.33599 21.5104 10.6641 22.2266 11.9922C23.8103 12.3403 25.3988 12.6788 26.9922 13.0079C25.9258 14.1655 24.845 15.3113 23.75 16.4454C23.8938 18.0124 24.0891 19.5749 24.3359 21.1329C24.2969 21.1589 24.2578 21.185 24.2188 21.211C22.813 20.5276 21.3938 19.8766 19.9609 19.2579C18.5624 19.8529 17.1822 20.4909 15.8203 21.1719C15.7316 21.2304 15.6535 21.2175 15.5859 21.1329C15.8327 19.5749 16.028 18.0124 16.1719 16.4454C15.0769 15.3113 13.9961 14.1655 12.9297 13.0079C14.5261 12.6942 16.1146 12.3556 17.6953 11.9922C18.4255 10.636 19.1546 9.28177 19.8828 7.92974Z" fill="#1868D0"/>
<path fill-rule="evenodd" clip-rule="evenodd" d="M9.25781 29.2578C10.1865 29.9245 11.163 30.5234 12.1875 31.0547C12.2516 31.933 12.2385 32.8055 12.1484 33.6719C11.245 34.177 10.2815 34.5025 9.25781 34.6484C9.25781 32.8516 9.25781 31.0547 9.25781 29.2578Z" fill="#1868D0"/>
<path fill-rule="evenodd" clip-rule="evenodd" d="M30.5868 29.2578C30.6648 31.0412 30.6908 32.838 30.6649 34.6484C29.6413 34.5025 28.6777 34.177 27.7743 33.6719C27.6842 32.8055 27.6712 31.933 27.7352 31.0547C28.7501 30.5417 29.7006 29.9427 30.5868 29.2578Z" fill="#1868D0"/>
<path fill-rule="evenodd" clip-rule="evenodd" d="M25.4287 39.9609C25.2465 39.9609 25.0641 39.9609 24.8818 39.9609C22.9412 39.4455 21.3006 38.4299 19.96 36.9141C18.6193 38.4299 16.9787 39.4455 15.0381 39.9609C14.8558 39.9609 14.6735 39.9609 14.4912 39.9609C14.4782 37.3045 14.4912 34.6483 14.5303 31.9922C18.1504 33.138 21.7701 33.138 25.3897 31.9922C25.4287 34.6483 25.4418 37.3045 25.4287 39.9609Z" fill="#1868D0"/>
</g>
<defs>
<clipPath id="clip0_661_8129">
<rect width="40" height="40" fill="white"/>
</clipPath>
</defs>
</svg>
