<svg width="39" height="39" viewBox="0 0 39 39" fill="none" xmlns="http://www.w3.org/2000/svg">
<path fill-rule="evenodd" clip-rule="evenodd" d="M1.35653 5.69405C0.573127 5.47192 0 4.75296 0 3.90007C0 2.87081 0.835968 2.03485 1.86524 2.03485C2.8945 2.03485 3.73047 2.87081 3.73047 3.90007C3.73047 4.75296 3.15734 5.47362 2.37394 5.69405V12.0391C2.37394 12.507 2.75377 12.8869 3.22176 12.8869H7.07599C9.37024 8.59013 13.8282 5.61943 18.9913 5.43451V3.6592C18.2079 3.43707 17.6348 2.7181 17.6348 1.86521C17.6348 0.835959 18.4707 0 19.5 0C20.5293 0 21.3652 0.835959 21.3652 1.86521C21.3652 2.7181 20.7921 3.43877 20.0087 3.6592V5.43451C25.1722 5.61764 29.6298 8.58839 31.924 12.8869H35.7782C36.2462 12.8869 36.6261 12.507 36.6261 12.0391V5.69405C35.8427 5.47192 35.2695 4.75296 35.2695 3.90007C35.2695 2.87081 36.1055 2.03485 37.1348 2.03485C38.164 2.03485 39 2.87081 39 3.90007C39 4.75296 38.4269 5.47362 37.6435 5.69405V12.0391C37.6435 13.07 36.8092 13.9043 35.7782 13.9043H32.4157C33.0974 15.4727 33.501 17.1887 33.5654 18.9913H35.3407C35.5612 18.2079 36.2818 17.6348 37.1347 17.6348C38.164 17.6348 39 18.4707 39 19.5C39 20.5293 38.164 21.3652 37.1347 21.3652C36.2818 21.3652 35.5611 20.7921 35.3407 20.0087H33.5654C33.5009 21.8111 33.0974 23.5272 32.4157 25.0957H35.7782C36.8092 25.0957 37.6435 25.93 37.6435 26.9609V33.306C38.4269 33.5264 39 34.247 39 35.0999C39 36.1292 38.164 36.9651 37.1348 36.9651C36.1055 36.9651 35.2695 36.1292 35.2695 35.0999C35.2695 34.247 35.8427 33.5264 36.6261 33.306V26.9609C36.6261 26.493 36.2462 26.1131 35.7782 26.1131H31.924C29.6298 30.4099 25.1718 33.3806 20.0087 33.5655V35.3408C20.7921 35.5612 21.3652 36.2819 21.3652 37.1348C21.3652 38.164 20.5293 39 19.5 39C18.4707 39 17.6348 38.164 17.6348 37.1348C17.6348 36.2819 18.2079 35.5612 18.9913 35.3408V33.5655C13.8278 33.3824 9.37015 30.4116 7.07599 26.1131H3.22176C2.75377 26.1131 2.37394 26.493 2.37394 26.9609V33.306C3.15734 33.5264 3.73047 34.247 3.73047 35.0999C3.73047 36.1292 2.8945 36.9651 1.86524 36.9651C0.835968 36.9651 0 36.1292 0 35.0999C0 34.247 0.573127 33.5264 1.35653 33.306V26.9609C1.35653 25.93 2.1908 25.0957 3.22176 25.0957H6.58426C5.90261 23.5273 5.49903 21.8113 5.43462 20.0087H3.65928C3.43715 20.7921 2.71818 21.3652 1.86528 21.3652C0.836011 21.3652 4.32608e-05 20.5293 4.32608e-05 19.5C4.32608e-05 18.4707 0.836011 17.6348 1.86528 17.6348C2.71818 17.6348 3.43885 18.2079 3.65928 18.9913H5.43462C5.49905 17.1889 5.90261 15.4728 6.58426 13.9043H3.22176C2.1908 13.9043 1.35653 13.07 1.35653 12.0391V5.69405ZM1.86524 4.74788C2.33323 4.74788 2.71305 4.36806 2.71305 3.90007C2.71305 3.43208 2.33323 3.05226 1.86524 3.05226C1.39724 3.05226 1.01742 3.43208 1.01742 3.90007C1.01742 4.36806 1.39724 4.74788 1.86524 4.74788ZM19.5001 6.4435C12.2933 6.4435 6.44357 12.2936 6.44357 19.4999C6.44357 26.7061 12.2938 32.5562 19.5001 32.5562C26.7064 32.5562 32.5566 26.7061 32.5566 19.4999C32.5566 12.2936 26.7064 6.4435 19.5001 6.4435ZM19.5001 2.71307C19.9681 2.71307 20.3479 2.33324 20.3479 1.86526C20.3479 1.39727 19.9681 1.01745 19.5001 1.01745C19.0321 1.01745 18.6523 1.39727 18.6523 1.86526C18.6523 2.33324 19.0321 2.71307 19.5001 2.71307ZM37.1349 4.74783C37.6029 4.74783 37.9828 4.36801 37.9828 3.90003C37.9828 3.43204 37.6029 3.05222 37.1349 3.05222C36.6669 3.05222 36.2871 3.43204 36.2871 3.90003C36.2871 4.36801 36.6669 4.74783 37.1349 4.74783ZM36.2871 19.4997C36.2871 19.9677 36.6669 20.3475 37.1349 20.3475C37.6029 20.3475 37.9828 19.9677 37.9828 19.4997C37.9828 19.0318 37.6029 18.6519 37.1349 18.6519C36.6669 18.6519 36.2871 19.0318 36.2871 19.4997ZM37.1349 34.2516C36.6669 34.2516 36.2871 34.6315 36.2871 35.0995C36.2871 35.5674 36.6669 35.9473 37.1349 35.9473C37.6029 35.9473 37.9828 35.5674 37.9828 35.0995C37.9828 34.6315 37.6029 34.2516 37.1349 34.2516ZM19.5001 36.2864C19.0321 36.2864 18.6523 36.6662 18.6523 37.1342C18.6523 37.6022 19.0321 37.982 19.5001 37.982C19.9681 37.982 20.3479 37.6022 20.3479 37.1342C20.3479 36.6662 19.9681 36.2864 19.5001 36.2864ZM1.86524 34.2516C1.39724 34.2516 1.01742 34.6315 1.01742 35.0995C1.01742 35.5674 1.39724 35.9473 1.86524 35.9473C2.33323 35.9473 2.71305 35.5674 2.71305 35.0995C2.71305 34.6315 2.33323 34.2516 1.86524 34.2516ZM2.71305 19.4997C2.71305 19.0318 2.33323 18.6519 1.86524 18.6519C1.39724 18.6519 1.01742 19.0318 1.01742 19.4997C1.01742 19.9677 1.39724 20.3475 1.86524 20.3475C2.33323 20.3475 2.71305 19.9677 2.71305 19.4997ZM19.5001 8.1389C25.7705 8.1389 30.8611 13.2294 30.8611 19.4997C30.8611 25.7701 25.7705 30.8606 19.5001 30.8606C13.2297 30.8606 8.13916 25.7701 8.13916 19.4997C8.13916 13.2294 13.2297 8.1389 19.5001 8.1389ZM19.5001 9.1563C13.791 9.1563 9.15667 13.7906 9.15667 19.4997C9.15667 25.2087 13.791 29.843 19.5001 29.843C25.2093 29.843 29.8436 25.2087 29.8436 19.4997C29.8436 13.7906 25.2093 9.1563 19.5001 9.1563ZM18.9914 25.4344H18.6523C17.7977 25.4344 16.9787 25.0953 16.3733 24.4917C16.0427 24.161 15.7917 23.7659 15.6323 23.3369C15.534 23.0741 15.6696 22.7808 15.9308 22.6824C16.1936 22.5841 16.4869 22.718 16.5853 22.9808C16.6938 23.2759 16.8668 23.5455 17.0923 23.771C17.506 24.1847 18.0656 24.417 18.6506 24.417H20.1767C20.7617 24.417 21.3229 24.1847 21.735 23.771C22.1487 23.3573 22.381 22.7977 22.381 22.2127C22.381 21.6277 22.1487 21.0665 21.735 20.6544C21.3212 20.2407 20.7617 20.0084 20.1767 20.0084H18.8202C17.9655 20.0084 17.1465 19.6693 16.5412 19.0656C15.9375 18.462 15.5984 17.6413 15.5984 16.7867C15.5984 15.932 15.9375 15.1131 16.5412 14.5077C17.1448 13.9041 17.9655 13.5649 18.8202 13.5649H18.9897V11.3606C18.9897 11.0791 19.2169 10.8519 19.4984 10.8519C19.7799 10.8519 20.0071 11.0791 20.0071 11.3606V13.5649H20.3463C21.2009 13.5649 22.0199 13.9041 22.6252 14.5077C22.9559 14.8384 23.2068 15.2335 23.3662 15.6625C23.4646 15.9253 23.3289 16.2186 23.0661 16.317C22.8033 16.4153 22.5099 16.2814 22.4116 16.0186C22.303 15.7235 22.1301 15.4539 21.9046 15.2284C21.4908 14.8147 20.9312 14.5824 20.3463 14.5824H18.8202C18.2352 14.5824 17.6739 14.8147 17.2619 15.2284C16.8481 15.6421 16.6158 16.2017 16.6158 16.7867C16.6158 17.3716 16.8481 17.9329 17.2619 18.3449C17.6756 18.7587 18.2352 18.991 18.8202 18.991H20.1767C21.0313 18.991 21.8503 19.3301 22.4557 19.9338C23.0593 20.5374 23.3985 21.3581 23.3985 22.2127C23.3985 23.0673 23.0593 23.8863 22.4557 24.4917C21.852 25.0953 21.0313 25.4344 20.1767 25.4344H20.0071V27.6388C20.0071 27.9202 19.7799 28.1475 19.4984 28.1475C19.217 28.1475 18.9897 27.9203 18.9897 27.6388V25.4344H18.9914Z" fill="white"/>
</svg>
