<svg width="62" height="50" viewBox="0 0 62 50" fill="none" xmlns="http://www.w3.org/2000/svg">
<path fill-rule="evenodd" clip-rule="evenodd" d="M61.8721 33.4574C61.8721 34.7061 61.8721 35.9549 61.8721 37.2036C60.7584 43.5752 57.0927 47.7041 50.8753 49.5901C45.7189 50.7079 41.167 49.5397 37.2199 46.0856C26.7871 46.0453 16.3542 46.005 5.92135 45.9647C2.73108 45.2919 0.757306 43.3786 0 40.2247C0 39.3385 0 38.4522 0 37.5661C0.227093 36.7868 0.529203 36.0215 0.906329 35.2701C7.05961 24.6959 13.1824 14.1018 19.2746 3.48813C21.5118 0.258444 24.5127 -0.728452 28.2775 0.527454C29.2785 0.964547 30.1445 1.58891 30.8756 2.40053C34.6474 8.75535 38.3734 15.14 42.0537 21.5543C49.1028 19.4869 54.8833 21.3197 59.3948 27.0527C60.6872 29.018 61.5129 31.1529 61.8721 33.4574ZM24.6521 2.038C26.6463 1.87745 28.2777 2.56224 29.5463 4.09235C33.096 10.2451 36.6609 16.3881 40.241 22.521C39.7373 22.7929 39.254 23.095 38.7909 23.4274C38.6727 23.3697 38.572 23.2892 38.4888 23.1857C35.0154 17.0035 31.4505 10.8808 27.7941 4.81741C26.017 3.43542 24.3452 3.55626 22.7791 5.17994C16.4325 16.101 10.1485 27.0574 3.92743 38.0495C3.61089 40.0563 4.39637 41.4058 6.28388 42.0977C15.6291 42.138 24.9744 42.1783 34.3197 42.2186C34.6346 42.8149 34.9971 43.3789 35.4072 43.9104C25.6591 43.991 15.9111 43.991 6.16304 43.9104C3.59923 43.2406 2.22967 41.589 2.05435 38.9558C2.02827 38.3103 2.12897 37.6859 2.35646 37.0827C8.55977 26.2874 14.7631 15.4919 20.9664 4.69657C21.8315 3.28887 23.0602 2.40269 24.6521 2.038ZM25.1355 5.90501C25.8421 5.82524 26.3455 6.10721 26.6461 6.75091C30.0846 12.8027 33.569 18.8247 37.0991 24.8171C32.9418 29.1807 31.6931 34.2764 33.3529 40.1038C24.4507 40.124 15.5485 40.1038 6.64641 40.0434C5.97877 39.6907 5.75723 39.1469 5.98177 38.412C12.1754 27.7572 18.3384 17.0827 24.4709 6.38838C24.6898 6.2099 24.9114 6.04876 25.1355 5.90501ZM25.0147 15.8142C26.3536 15.7439 26.9176 16.3885 26.7065 17.7477C26.5568 20.8893 26.4157 24.0312 26.2835 27.1735C26.375 28.2935 25.9117 28.6761 24.8938 28.3215C24.8182 28.2309 24.7578 28.1301 24.7126 28.0194C24.5121 24.5161 24.3308 21.0116 24.1688 17.506C24.0854 16.7442 24.3673 16.1802 25.0147 15.8142ZM45.679 22.8231C50.9902 22.468 55.1191 24.482 58.0655 28.8653C61.0535 34.6436 60.3083 39.9003 55.8299 44.6355C51.1948 48.4564 46.1998 48.98 40.8452 46.2064C35.8163 42.8047 33.903 38.1119 35.1051 32.1281C36.8098 26.9382 40.3343 23.8365 45.679 22.8231ZM25.1355 33.3366C26.4476 33.4262 26.8706 34.0707 26.4044 35.2701C26.0358 35.7087 25.5726 35.8498 25.0147 35.693C24.347 35.3403 24.1255 34.7965 24.35 34.0616C24.5306 33.7216 24.7923 33.4799 25.1355 33.3366Z" fill="white"/>
<path fill-rule="evenodd" clip-rule="evenodd" d="M24.6531 13.7599C27.3634 13.5902 28.7329 14.8591 28.7618 17.5665C28.6189 21.2143 28.4377 24.8596 28.218 28.5028C27.4894 30.3069 26.1802 30.9313 24.2905 30.3759C22.9002 29.5554 22.3161 28.3268 22.5383 26.6902C22.3614 23.2665 22.2406 19.8427 22.1758 16.4184C22.4912 15.0362 23.3169 14.1501 24.6531 13.7599ZM25.0156 15.8142C24.3683 16.1803 24.0863 16.7442 24.1697 17.506C24.3318 21.0116 24.513 24.5161 24.7135 28.0195C24.7587 28.1301 24.8191 28.2309 24.8948 28.3216C25.9126 28.6761 26.376 28.2935 26.2845 27.1735C26.4167 24.0312 26.5577 20.8893 26.7074 17.7477C26.9185 16.3885 26.3546 15.7439 25.0156 15.8142Z" fill="white"/>
<path fill-rule="evenodd" clip-rule="evenodd" d="M44.1064 25.965C44.5914 25.945 45.0748 25.9651 45.5565 26.0254C46.1706 26.2789 46.7547 26.581 47.3087 26.9318C48.5436 25.8841 49.893 25.7028 51.357 26.388C51.7911 26.741 52.1334 27.1639 52.3842 27.6568C52.7068 28.9669 53.0895 30.2559 53.5322 31.5238C54.8129 31.8096 56.0213 32.2728 57.1575 32.9135C58.7161 34.5778 58.4744 35.9473 56.4324 37.0222C53.4935 38.1062 50.4522 38.6098 47.3087 38.5328C44.3572 38.5793 41.477 38.1564 38.6684 37.2639C37.6137 36.9337 36.8685 36.269 36.4328 35.27C36.2756 34.1946 36.6583 33.3689 37.5808 32.7927C38.7322 32.2079 39.9206 31.7447 41.1457 31.403C41.5112 30.021 41.914 28.6515 42.3541 27.2943C42.7788 26.63 43.3629 26.187 44.1064 25.965ZM44.4689 28.0194C44.1856 28.322 44.0044 28.6845 43.9251 29.107C43.5545 30.4807 43.1718 31.8502 42.7771 33.2157C43.1552 33.3996 43.5581 33.5002 43.9855 33.5178C46.5735 33.7958 49.1515 33.7354 51.7195 33.3365C51.3458 31.5913 50.8624 29.8794 50.2694 28.2006C50.0041 28.0347 49.7221 27.9945 49.4235 28.0798C48.0102 29.1218 46.6003 29.1218 45.194 28.0798C44.9555 28.02 44.7138 27.9998 44.4689 28.0194ZM40.2394 33.8199C39.7734 34.0504 39.29 34.2719 38.7892 34.4845C38.6857 34.5678 38.6052 34.6684 38.5475 34.7866C38.931 35.0388 39.3337 35.2605 39.756 35.4513C44.4868 36.7245 49.24 36.805 54.0156 35.693C54.7807 35.5317 55.4656 35.2096 56.0699 34.7262C55.4728 34.3271 54.8283 34.0249 54.1364 33.8199C53.9707 34.4891 53.5679 34.9523 52.928 35.2096C49.1814 35.9323 45.4353 35.9323 41.6895 35.2096C41.023 34.9846 40.6605 34.5214 40.6019 33.8199C40.481 33.8199 40.3602 33.8199 40.2394 33.8199Z" fill="white"/>
<path fill-rule="evenodd" clip-rule="evenodd" d="M24.8924 31.2822C27.1707 31.2446 28.4597 32.3522 28.7594 34.6054C28.3743 36.9334 27.0047 37.9808 24.6507 37.7473C22.7489 37.0528 21.9634 35.7034 22.2943 33.6991C22.7234 32.4032 23.5895 31.5976 24.8924 31.2822ZM25.1341 33.3365C24.7909 33.4798 24.5291 33.7215 24.3486 34.0616C24.1241 34.7964 24.3456 35.3402 25.0132 35.693C25.5712 35.8497 26.0344 35.7087 26.4029 35.27C26.8692 34.0706 26.4462 33.4262 25.1341 33.3365Z" fill="white"/>
<path fill-rule="evenodd" clip-rule="evenodd" d="M41.0879 38.6538C42.6627 38.7952 44.2337 38.9765 45.8008 39.1976C46.2324 39.3872 46.595 39.6691 46.8884 40.0435C47.1703 40.1241 47.4524 40.1241 47.7343 40.0435C47.943 39.6335 48.2653 39.3516 48.701 39.1976C50.1495 39.003 51.5996 38.8218 53.0514 38.6538C54.0108 38.707 54.6351 39.1904 54.9245 40.1039C55.1704 42.958 53.8814 44.529 51.0575 44.8168C49.2534 44.8119 48.1054 43.9458 47.6134 42.2187C47.375 42.1589 47.1333 42.1387 46.8884 42.1583C46.624 43.6512 45.7377 44.5173 44.2298 44.7564C40.8498 44.8803 39.3393 43.2489 39.6982 39.8622C39.9633 39.2183 40.4265 38.8155 41.0879 38.6538ZM52.8097 40.7082C51.7477 40.9067 50.6602 41.0275 49.5469 41.0707C49.5265 42.1241 50.0301 42.6881 51.0575 42.7625C52.3859 42.6655 52.97 41.9806 52.8097 40.7082ZM41.6921 40.829C41.6537 41.6187 41.9759 42.2029 42.6588 42.5812C44.1217 43.0972 44.887 42.5937 44.9549 41.0707C43.8673 40.9901 42.7797 40.9096 41.6921 40.829Z" fill="white"/>
</svg>
