<svg width="46" height="50" viewBox="0 0 46 50" fill="none" xmlns="http://www.w3.org/2000/svg">
<path fill-rule="evenodd" clip-rule="evenodd" d="M18.4922 0.0433724C26.5893 -0.409089 32.9205 2.67851 37.4862 9.30616C40.102 13.4348 41.1254 17.9274 40.5564 22.784C42.0344 25.3065 43.5782 27.787 45.1878 30.2255C45.4465 31.2898 45.1169 32.105 44.1991 32.6713C42.7513 33.0233 41.2942 33.3355 39.8279 33.608C39.7706 34.9083 39.6839 36.2092 39.5677 37.5108C39.4737 37.6358 39.3524 37.7226 39.2034 37.771C38.4055 37.9445 37.6076 38.1179 36.8097 38.2914C37.6319 38.6234 38.4645 38.9356 39.3075 39.2281C39.5435 39.3902 39.6649 39.6157 39.6718 39.9046C39.7683 41.3675 39.7337 42.8245 39.5677 44.2758C39.0246 45.6675 38.0012 46.396 36.4974 46.4614C33.8499 46.1204 31.248 45.5653 28.6917 44.7962C28.4208 45.1652 28.23 45.5815 28.1193 46.0451C27.8102 47.1713 27.602 48.3161 27.4948 49.4796C27.4131 49.6655 27.2918 49.8216 27.1306 49.9479C20.5738 50.0174 14.017 50.0174 7.46016 49.9479C7.19806 49.7533 7.05928 49.4931 7.04386 49.1674C8.64653 43.8898 8.00479 38.8941 5.11844 34.1804C3.72978 32.3762 2.55024 30.4334 1.57985 28.3521C-1.3302 20.5924 -0.220064 13.4804 4.91029 7.01648C8.56524 2.99472 13.0926 0.670359 18.4922 0.0433724ZM18.5963 1.81267C26.756 1.44181 32.8445 4.77225 36.8617 11.804C38.6787 15.4549 39.3378 19.3057 38.8392 23.3565C40.2006 25.8376 41.6924 28.2314 43.3144 30.5377C43.4194 30.6964 43.4715 30.8699 43.4705 31.0581C41.7326 31.4023 39.9979 31.7665 38.2667 32.1509C38.1417 32.2449 38.0549 32.3662 38.0065 32.5152C37.9545 33.7636 37.9371 35.0125 37.9545 36.2619C36.2895 36.5845 34.6243 36.9141 32.9588 37.2506C32.2394 37.5708 32.0832 38.0739 32.4905 38.7597C34.28 39.4256 36.084 40.0501 37.9025 40.6331C37.9719 41.6392 37.9719 42.6452 37.9025 43.6513C37.6469 44.3236 37.1612 44.6705 36.4454 44.6921C33.8228 44.2923 31.2381 43.7199 28.6917 42.9748C28.103 42.796 27.6346 42.9521 27.2867 43.4432C26.4785 44.976 26.0102 46.6066 25.8817 48.3348C23.141 48.3348 20.4003 48.3348 17.6596 48.3348C17.6423 44.2757 17.6596 40.2167 17.7117 36.1578C19.3769 34.4926 21.0421 32.8274 22.7073 31.1622C22.7247 28.7677 22.7768 26.3739 22.8634 23.9809C24.6558 23.1708 25.263 21.8178 24.6848 19.9219C23.6052 18.0618 22.0961 17.6281 20.1575 18.621C18.7665 19.8768 18.541 21.3166 19.481 22.9401C19.8467 23.4275 20.315 23.7744 20.886 23.9809C21.0074 26.131 21.0247 28.2819 20.938 30.4336C19.8626 31.5091 18.7871 32.5846 17.7117 33.66C17.6596 27.1033 17.6423 20.5465 17.6596 13.9896C19.2696 13.3741 19.9461 12.1945 19.6891 10.451C19.0128 8.52546 17.6772 7.81428 15.6822 8.31743C14.2521 8.93919 13.6102 10.032 13.7568 11.5958C13.9793 12.8411 14.6904 13.6391 15.8903 13.9896C15.8903 25.438 15.8903 36.8864 15.8903 48.3348C14.9883 48.3348 14.0864 48.3348 13.1844 48.3348C13.2017 40.4943 13.1844 32.6539 13.1323 24.8135C12.2161 23.7932 11.2621 22.8044 10.2702 21.8473C11.0299 19.3953 10.1452 17.9209 7.61628 17.4241C5.76074 17.6145 4.73733 18.6378 4.54603 20.4944C4.63926 22.0019 5.40248 22.9732 6.8357 23.4085C7.35608 23.4779 7.87647 23.4779 8.39685 23.4085C8.60698 23.3617 8.79775 23.275 8.96927 23.1483C9.80188 23.9809 10.6345 24.8135 11.4671 25.6461C11.5191 33.2089 11.5365 40.7718 11.5191 48.3348C10.7205 48.352 9.9225 48.3348 9.12538 48.2827C10.1942 43.7712 9.7259 39.4173 7.72035 35.2211C6.62969 33.1954 5.41547 31.2526 4.07768 29.3929C0.924973 23.3047 0.959672 17.2336 4.18176 11.1795C7.48691 5.77024 12.2918 2.64795 18.5963 1.81267Z" fill="white"/>
</svg>
