<svg width="36" height="41" viewBox="0 0 36 41" fill="none" xmlns="http://www.w3.org/2000/svg">
<path d="M15.3698 23.4763H20.5485C20.9801 23.4763 21.3678 23.1307 21.3678 22.657V18.2556H25.7692C26.2008 18.2556 26.5885 17.91 26.5885 17.4363V12.2576C26.5885 11.8261 26.2429 11.4384 25.7692 11.4384L21.3678 11.4367V7.07708C21.3678 6.64552 21.0222 6.25781 20.5485 6.25781H15.3698C14.9383 6.25781 14.5506 6.60339 14.5506 7.07708V11.4785L10.1474 11.4802C9.71584 11.4802 9.32812 11.8258 9.32812 12.2995V17.4782C9.32812 17.9097 9.67371 18.2974 10.1474 18.2974H14.5488L14.5505 22.657C14.5505 23.0886 14.9383 23.4763 15.3698 23.4763ZM10.9684 16.659V13.0767H15.3698C15.8014 13.0767 16.1891 12.7311 16.1891 12.2574V7.85427H19.7714V12.2557C19.7714 12.6873 20.1169 13.075 20.5906 13.075H24.9921V16.6573L20.5483 16.6589C20.1168 16.6589 19.7291 17.0045 19.7291 17.4782V21.8797H16.1468V17.4782C16.1468 17.0466 15.8012 16.6589 15.3275 16.6589L10.9684 16.659Z" fill="white"/>
<path d="M2.94289 13.5504H3.11484C3.50257 13.5504 3.80602 13.2908 3.89199 12.903C5.31647 6.38738 11.2285 1.59667 17.9616 1.59667C24.6948 1.59667 30.6066 6.3438 32.0312 12.903C32.1172 13.3346 32.5487 13.6363 32.9803 13.5065C33.4119 13.4205 33.6715 12.989 33.5838 12.5574C32.0312 5.30858 25.4282 0 17.9619 0C10.4955 0 3.89225 5.30858 2.29592 12.601C2.20995 13.0326 2.5117 13.4641 2.94326 13.5501L2.94289 13.5504Z" fill="white"/>
<path d="M35.2661 15.9241C34.7907 15.4487 34.1872 15.2329 33.4539 15.2329C32.5048 15.2767 31.6838 15.9241 31.382 16.8293L29.2681 23.1728C28.8366 22.871 28.319 22.7412 27.7577 22.7851C27.0665 22.8289 26.4191 23.1306 25.9876 23.6482L21.5844 28.6551C20.6353 29.734 20.0301 31.1585 19.9442 32.6251L19.4688 40.1333C19.4688 40.3491 19.5126 40.5648 19.6845 40.7368C19.8565 40.9087 20.0301 40.9964 20.288 40.9964H27.4087C27.7964 40.9964 28.142 40.7368 28.1859 40.3491L28.7472 37.3282L32.8909 34.3511C34.0557 33.5318 34.789 32.2372 34.9188 30.8127L35.9539 17.6942C35.9556 17.0469 35.7398 16.3995 35.2661 15.9241ZM33.2802 30.6846C33.1942 31.6337 32.7188 32.4968 31.9417 33.0582L27.5402 36.2089C27.3683 36.3387 27.2385 36.5107 27.2385 36.7264L26.7631 39.4017H21.1528L21.5844 32.7566C21.6704 31.6339 22.1019 30.5988 22.8352 29.7796L27.2807 24.7308C27.4526 24.515 27.6684 24.429 27.928 24.3852C28.1438 24.3852 28.3596 24.429 28.5315 24.5572C28.7035 24.687 28.7911 24.8168 28.8771 24.9887V25.0325C28.9631 25.3343 28.9209 25.636 28.7052 25.8957L25.0369 30.4253C24.7773 30.7709 24.8211 31.2884 25.1667 31.548C25.5123 31.8076 26.0298 31.7638 26.2895 31.4182L29.8717 26.8869C30.3471 26.3255 30.5191 25.5483 30.3892 24.815L32.8926 17.3487C32.9786 17.0469 33.2382 16.8733 33.5838 16.8312C33.7996 16.8312 33.9715 16.9171 34.1452 17.0469C34.275 17.1767 34.361 17.3925 34.361 17.6083L33.2802 30.6846Z" fill="white"/>
<path d="M14.3768 28.655L9.93136 23.6062C9.45596 23.0886 8.85247 22.7869 8.16129 22.7431C7.64376 22.6992 7.12624 22.8729 6.65084 23.1308L4.5369 16.7873C4.23515 15.8804 3.41416 15.233 2.42296 15.1909C1.77563 15.1909 1.12829 15.4067 0.652889 15.8821C0.177486 16.3575 -0.0382925 17.0048 0.00555365 17.6522L1.0406 30.7706C1.1704 32.1951 1.90371 33.4898 3.06857 34.3091L7.21221 37.2861L7.77358 40.307C7.85955 40.6947 8.1613 40.9543 8.55072 40.9543H15.6714C15.8872 40.9543 16.103 40.8684 16.2749 40.6947C16.4468 40.5228 16.4907 40.307 16.4907 40.0912L16.0153 32.583C15.8872 31.1585 15.3259 29.7777 14.3768 28.655ZM9.19814 39.4016L8.72274 36.7263C8.67891 36.5105 8.55079 36.3385 8.42099 36.2088L4.01954 33.058C3.24239 32.4967 2.76872 31.6336 2.68102 30.6845L1.64598 17.6079C1.64598 17.3921 1.68981 17.2201 1.86176 17.0465C1.99156 16.9167 2.20734 16.8307 2.42313 16.8307C2.72488 16.8307 2.98449 17.0465 3.07046 17.3483L5.48787 24.8146C5.35807 25.5479 5.5317 26.3251 6.00539 26.8864L9.62978 31.4178C9.88939 31.7634 10.4069 31.8055 10.7525 31.5476C11.0981 31.288 11.1402 30.7704 10.8823 30.4248L7.25793 25.8935C7.08598 25.6777 6.99833 25.3321 7.08598 25.0304V24.9866C7.12981 24.8146 7.25793 24.641 7.43157 24.555C7.60352 24.4252 7.81929 24.383 8.03506 24.383C8.29466 24.383 8.51046 24.5129 8.68239 24.6848L13.1279 29.7336C13.8612 30.5529 14.2927 31.6317 14.3787 32.7106L14.8102 39.3557L9.19827 39.3574L9.19814 39.4016Z" fill="white"/>
</svg>
