<svg width="25" height="25" viewBox="0 0 25 25" fill="none" xmlns="http://www.w3.org/2000/svg">
<g clip-path="url(#clip0_19780_8126)">
<path d="M12.3391 1.08892C13.4317 1.94771 14.1313 3.08083 14.404 4.44295C14.4134 4.4889 14.4227 4.53484 14.4323 4.58218C14.4602 4.79043 14.4657 4.99598 14.4681 5.20589C14.4695 5.24718 14.471 5.28847 14.4724 5.33101C14.4755 5.63099 14.4755 5.63099 14.3665 5.78839C14.2524 5.86228 14.1966 5.88548 14.0622 5.88338C14.0139 5.88413 14.0139 5.88413 13.9646 5.8849C13.8197 5.84643 13.7631 5.78115 13.6716 5.66365C13.6274 5.51602 13.6274 5.51602 13.5984 5.35237C13.5467 5.09795 13.4885 4.93836 13.3298 4.73592C13.3298 4.70369 13.3298 4.67146 13.3298 4.63826C13.3036 4.62517 13.2775 4.61208 13.2505 4.59859C13.1663 4.55652 13.0836 4.51169 13.0018 4.46526C12.7279 4.34366 12.4517 4.35664 12.158 4.39412C12.0359 4.44659 11.9425 4.50326 11.8383 4.58485C11.7673 4.63826 11.7673 4.63826 11.6697 4.63826C11.4989 4.96666 11.3966 5.27345 11.3202 5.63561C11.279 5.76131 11.279 5.76131 11.1326 5.85896C10.7864 5.89193 10.7864 5.89193 10.6365 5.78076C10.5231 5.63294 10.5038 5.51718 10.4734 5.33406C10.3857 4.88423 10.2461 4.52457 9.86303 4.24763C9.71801 4.18318 9.57299 4.11873 9.42358 4.05232C9.40746 5.95369 9.39135 7.85506 9.37475 9.81404C9.73139 9.89492 9.73139 9.89492 9.90052 9.79646C9.94058 9.7633 9.98064 9.73014 10.0219 9.69598C10.0675 9.65982 10.1131 9.62367 10.16 9.58642C10.2305 9.5299 10.2305 9.5299 10.3025 9.47224C10.399 9.40346 10.4961 9.33549 10.5937 9.26835C10.6658 9.21836 10.6658 9.21836 10.7394 9.16735C10.7875 9.13403 10.8357 9.1007 10.8854 9.06636C10.9835 8.99843 11.0816 8.93046 11.1797 8.86246C11.2223 8.83299 11.2649 8.80351 11.3088 8.77314C11.3847 8.7197 11.4594 8.66439 11.5324 8.60703C11.6208 8.54451 11.6208 8.54451 11.7185 8.54451C11.7084 8.49013 11.6984 8.43574 11.688 8.37971C11.6479 8.04116 11.7004 7.73634 11.8986 7.45503C12.176 7.12165 12.4716 6.95839 12.9087 6.91792C13.3038 6.95198 13.6301 7.09469 13.9158 7.37263C14.1654 7.70602 14.1902 8.04299 14.1599 8.44685C14.0992 8.74312 13.9465 8.98004 13.7205 9.17927C13.3961 9.38548 13.0775 9.46179 12.6951 9.42342C12.5917 9.39002 12.4961 9.35123 12.3983 9.30421C12.2699 9.26689 12.189 9.29142 12.0603 9.32576C11.9537 9.38364 11.9537 9.38364 11.852 9.45946C11.813 9.48718 11.7739 9.5149 11.7336 9.54346C11.6924 9.57333 11.6511 9.60321 11.6086 9.63399C11.5659 9.66436 11.5232 9.69474 11.4792 9.72604C11.3471 9.8201 11.2154 9.91467 11.0837 10.0094C10.9638 10.0954 10.8437 10.1813 10.7235 10.2669C10.6514 10.3182 10.5796 10.3698 10.5079 10.4216C10.2646 10.5953 10.2646 10.5953 10.156 10.5953C10.1602 10.6608 10.1602 10.6608 10.1646 10.7277C10.1796 11.1299 10.161 11.4398 9.91186 11.7672C9.64411 12.036 9.36797 12.1426 8.99023 12.173C8.62252 12.1616 8.31155 12.0339 8.05639 11.7672C7.76228 11.4093 7.78609 11.0364 7.81225 10.5953C7.77864 10.584 7.74503 10.5728 7.7104 10.5611C7.53681 10.4837 7.39481 10.3771 7.24462 10.2626C6.9471 10.0407 6.64628 9.82421 6.3413 9.61262C6.30199 9.58488 6.26267 9.55713 6.22217 9.52855C6.18482 9.50279 6.14747 9.47704 6.10899 9.4505C6.07606 9.42758 6.04313 9.40466 6.00921 9.38105C5.89285 9.31751 5.7952 9.29247 5.66381 9.27693C5.5821 9.30865 5.50075 9.34129 5.41967 9.37459C5.25488 9.38756 5.25488 9.38756 5.07787 9.38679C5.01946 9.38705 4.96105 9.3873 4.90087 9.38756C4.73608 9.37459 4.73608 9.37459 4.6079 9.32194C4.46235 9.26545 4.397 9.28423 4.2478 9.32576C4.14124 9.38364 4.14124 9.38364 4.03951 9.45946C4.00045 9.48718 3.96139 9.5149 3.92114 9.54346C3.87989 9.57333 3.83864 9.60321 3.79614 9.63399C3.75344 9.66436 3.71074 9.69474 3.66675 9.72604C3.53463 9.8201 3.4029 9.91467 3.27123 10.0094C3.15127 10.0954 3.03123 10.1813 2.91098 10.2669C2.83894 10.3182 2.76705 10.3698 2.69536 10.4216C2.45209 10.5953 2.45209 10.5953 2.3435 10.5953C2.34577 10.6436 2.34803 10.692 2.35037 10.7418C2.36461 11.1677 2.35866 11.4841 2.06369 11.8124C1.79251 12.0738 1.51865 12.1851 1.14721 12.2249C0.711672 12.1783 0.34996 12.0066 0.0636459 11.6701C-0.0359037 11.441 -0.0272471 11.2178 -0.0277161 10.9707C-0.0295099 10.9215 -0.0313038 10.8723 -0.033152 10.8216C-0.0349853 10.5089 0.0118193 10.326 0.21559 10.0861C0.479953 9.82313 0.775662 9.71569 1.14416 9.70113C1.33928 9.70445 1.4887 9.75145 1.66372 9.83559C1.79317 9.87322 1.87185 9.8496 2.0017 9.81404C2.125 9.74504 2.125 9.74504 2.24718 9.65554C2.29362 9.6229 2.34006 9.59027 2.38791 9.55664C2.4367 9.52174 2.48549 9.48684 2.53576 9.45088C2.58572 9.41566 2.63567 9.38045 2.68714 9.34416C2.90806 9.18816 3.12794 9.03077 3.34715 8.87238C3.37875 8.84959 3.41035 8.8268 3.44291 8.80332C3.50002 8.76198 3.55696 8.72039 3.61369 8.67851C3.79773 8.54451 3.79773 8.54451 3.906 8.54451C3.9009 8.4737 3.9009 8.4737 3.8957 8.40146C3.87765 7.96737 3.89909 7.66596 4.19897 7.32381C4.45096 7.08102 4.7241 6.99479 5.07177 6.96675C5.38624 6.9765 5.70715 7.0742 5.93961 7.29367C6.2624 7.67989 6.28145 8.0557 6.24975 8.54451C6.28368 8.55615 6.3176 8.5678 6.35256 8.57979C6.51876 8.65314 6.65701 8.75138 6.80212 8.85884C6.86241 8.90271 6.92275 8.94651 6.98313 8.99026C7.01464 9.01311 7.04615 9.03597 7.07861 9.05952C7.24824 9.18121 7.42033 9.29929 7.59252 9.41731C7.62464 9.43937 7.65676 9.46143 7.68986 9.48415C7.75092 9.526 7.81218 9.56754 7.87367 9.60876C7.95361 9.66402 8.03034 9.72385 8.10674 9.7839C8.275 9.89429 8.275 9.89429 8.5935 9.81404C8.5935 7.89656 8.5935 5.97908 8.5935 4.00349C8.08022 4.26014 7.79632 4.41046 7.56811 4.93123C7.5232 5.12191 7.48992 5.30761 7.46244 5.50153C7.41702 5.68193 7.37521 5.74984 7.22631 5.85896C7.12866 5.8849 7.12866 5.8849 7.031 5.88338C6.98266 5.88413 6.98266 5.88413 6.93334 5.8849C6.78849 5.84643 6.73189 5.78115 6.64038 5.66365C6.59612 5.51602 6.59612 5.51602 6.56713 5.35237C6.51545 5.09795 6.45725 4.93836 6.29858 4.73592C6.29858 4.70369 6.29858 4.67146 6.29858 4.63826C6.2593 4.61862 6.2593 4.61862 6.21923 4.59859C6.1351 4.55652 6.05232 4.51169 5.97051 4.46526C5.69666 4.34366 5.42048 4.35664 5.1267 4.39412C5.00462 4.44659 4.91129 4.50326 4.80703 4.58485C4.73608 4.63826 4.73608 4.63826 4.63842 4.63826C4.46765 4.96666 4.36534 5.27345 4.289 5.63561C4.2478 5.76131 4.2478 5.76131 4.10131 5.85896C3.75933 5.89153 3.75933 5.89153 3.60216 5.78629C3.47901 5.61226 3.48616 5.45104 3.49096 5.24556C3.49162 5.20458 3.49228 5.16361 3.49296 5.12139C3.54008 3.653 4.25544 2.32988 5.30981 1.33321C7.2866 -0.366083 10.2597 -0.503173 12.3391 1.08892ZM8.32495 1.31184C7.95414 1.92686 7.61694 2.7859 7.61694 3.51521C7.74383 3.46593 7.86716 3.41457 7.98944 3.35461C8.58495 3.08343 9.24714 3.0736 9.86303 3.28938C10.0296 3.35784 10.1912 3.43286 10.3513 3.51521C10.2906 2.65069 9.96514 1.5371 9.32897 0.918167C8.87308 0.64835 8.58371 0.931912 8.32495 1.31184ZM7.00048 1.25081C6.96523 1.26872 6.92997 1.28663 6.89365 1.30508C6.00726 1.76183 5.12162 2.52153 4.77403 3.48546C4.76151 3.5275 4.74898 3.56955 4.73608 3.61287C4.77561 3.60513 4.81513 3.59739 4.85586 3.58941C5.38279 3.51223 5.91993 3.49878 6.39623 3.75935C6.45521 3.78789 6.51421 3.81638 6.57324 3.8448C6.61151 3.86494 6.64977 3.88509 6.6892 3.90584C6.77859 3.81645 6.76522 3.68769 6.78194 3.56758C6.90518 2.68584 7.17354 1.8921 7.51928 1.07381C7.31934 1.07381 7.17468 1.16195 7.00048 1.25081ZM10.449 1.07381C10.4625 1.10638 10.476 1.13896 10.4899 1.17252C10.8504 2.05055 11.1234 2.91175 11.2302 3.85701C11.3986 3.85701 11.4705 3.81616 11.6178 3.73799C11.8372 3.62185 12.0123 3.55796 12.2613 3.55756C12.299 3.55749 12.3367 3.55743 12.3756 3.55737C12.4145 3.55755 12.4535 3.55774 12.4936 3.55794C12.5322 3.55775 12.5708 3.55756 12.6106 3.55737C12.8232 3.55772 13.0228 3.57045 13.2322 3.61287C13.0087 2.7638 12.2096 1.95029 11.4744 1.51326C11.3403 1.43948 11.2049 1.36886 11.0685 1.29964C11.0352 1.28273 11.0019 1.26582 10.9676 1.2484C10.7946 1.16347 10.6381 1.10708 10.449 1.07381ZM4.81542 7.94026C4.7123 8.09099 4.7062 8.16991 4.73608 8.3492C4.80932 8.47127 4.80932 8.47127 4.93139 8.54451C5.11067 8.57439 5.1896 8.56829 5.34033 8.46516C5.44345 8.31444 5.44955 8.23551 5.41967 8.05623C5.34643 7.93416 5.34643 7.93416 5.22436 7.86092C5.04508 7.83104 4.96615 7.83713 4.81542 7.94026ZM12.6279 7.94026C12.5248 8.09099 12.5187 8.16991 12.5486 8.3492C12.6218 8.47127 12.6218 8.47127 12.7439 8.54451C12.9232 8.57439 13.0021 8.56829 13.1528 8.46516C13.256 8.31444 13.2621 8.23551 13.2322 8.05623C13.1589 7.93416 13.1589 7.93416 13.0369 7.86092C12.8576 7.83104 12.7786 7.83713 12.6279 7.94026ZM0.909174 10.6746C0.806045 10.8254 0.799947 10.9043 0.829828 11.0836C0.90307 11.2056 0.90307 11.2056 1.02514 11.2789C1.20442 11.3088 1.28335 11.3027 1.43408 11.1995C1.5372 11.0488 1.5433 10.9699 1.51342 10.7906C1.44018 10.6685 1.44018 10.6685 1.31811 10.5953C1.13883 10.5654 1.0599 10.5715 0.909174 10.6746ZM8.72167 10.6746C8.61855 10.8254 8.61245 10.9043 8.64233 11.0836C8.71557 11.2056 8.71557 11.2056 8.83764 11.2789C9.01692 11.3088 9.09585 11.3027 9.24658 11.1995C9.3497 11.0488 9.3558 10.9699 9.32592 10.7906C9.25268 10.6685 9.25268 10.6685 9.13061 10.5953C8.95133 10.5654 8.8724 10.5715 8.72167 10.6746Z" fill="black"/>
<path d="M14.643 9.76809C14.7775 9.82422 14.8535 9.90119 14.9561 10.0047C14.9971 10.0458 15.0382 10.0868 15.0805 10.1291C15.1463 10.1961 15.1463 10.1961 15.2134 10.2643C15.2812 10.3325 15.2812 10.3325 15.3505 10.402C15.4705 10.5227 15.5902 10.6438 15.7098 10.765C15.8319 10.8886 15.9545 11.0118 16.077 11.1351C16.3172 11.3769 16.557 11.6192 16.7965 11.8617C17.0335 11.7686 17.2619 11.66 17.4903 11.5476C18.1425 11.2359 19.0033 11.2027 19.6956 11.407C19.7882 11.4422 19.8799 11.4797 19.9703 11.5199C20.0129 11.5376 20.0555 11.5553 20.0994 11.5735C20.7313 11.8599 21.2182 12.3515 21.548 12.9542C21.5719 12.9973 21.5719 12.9973 21.5962 13.0412C21.8293 13.4891 21.9011 13.9428 21.8959 14.4435C21.8955 14.4949 21.8951 14.5464 21.8947 14.5994C21.8816 15.2054 21.709 15.6566 21.3958 16.1695C21.3225 16.2973 21.3225 16.2973 21.3717 16.3997C21.4414 16.5104 21.5168 16.5925 21.6105 16.6838C21.6643 16.7366 21.6643 16.7366 21.7191 16.7905C21.7578 16.828 21.7966 16.8656 21.8364 16.9044C21.918 16.9847 21.9996 17.0651 22.0811 17.1455C22.2099 17.2718 22.3387 17.3979 22.4679 17.5238C22.5925 17.6454 22.7165 17.7677 22.8405 17.8901C22.8792 17.9275 22.9179 17.9649 22.9578 18.0034C22.9936 18.0389 23.0295 18.0744 23.0664 18.111C23.098 18.1419 23.1296 18.1727 23.1621 18.2045C23.3717 18.4741 23.3859 18.8469 23.4372 19.1747C23.4464 19.2323 23.4557 19.2899 23.4652 19.3492C23.4903 19.5066 23.5152 19.6639 23.5399 19.8213C23.5554 19.9198 23.5709 20.0183 23.5865 20.1167C23.6352 20.4252 23.6837 20.7337 23.7319 21.0422C23.7875 21.3977 23.8437 21.7531 23.9005 22.1083C23.9444 22.3835 23.9878 22.6588 24.0307 22.9341C24.0564 23.0984 24.0822 23.2625 24.1087 23.4266C24.138 23.6097 24.1664 23.7928 24.1946 23.976C24.2035 24.0301 24.2124 24.0841 24.2215 24.1397C24.2639 24.422 24.287 24.6345 24.1695 24.8988C23.9915 25.0175 23.9075 25.009 23.6953 25.0095C23.6618 25.0098 23.6283 25.01 23.5938 25.0102C23.4814 25.0108 23.3689 25.0107 23.2565 25.0107C23.1759 25.011 23.0954 25.0113 23.0149 25.0117C22.796 25.0125 22.5771 25.0128 22.3581 25.0128C22.1755 25.0129 21.9929 25.0133 21.8103 25.0136C21.3795 25.0144 20.9487 25.0146 20.5179 25.0146C20.0732 25.0145 19.6286 25.0156 19.1839 25.0171C18.8023 25.0184 18.4208 25.0189 18.0392 25.0188C17.8112 25.0188 17.5832 25.0191 17.3553 25.0201C17.1409 25.0211 16.9265 25.0211 16.7121 25.0204C16.6334 25.0203 16.5547 25.0205 16.4759 25.0211C16.3685 25.0218 16.2612 25.0214 16.1538 25.0206C16.0636 25.0207 16.0636 25.0207 15.9716 25.0208C15.7909 24.9918 15.7331 24.9461 15.6246 24.8012C15.6011 24.6665 15.6011 24.6665 15.6024 24.5101C15.6024 24.4514 15.6024 24.3928 15.6025 24.3324C15.6035 24.2693 15.6045 24.2062 15.6055 24.1412C15.6059 24.0758 15.6062 24.0104 15.6063 23.945C15.6071 23.7732 15.609 23.6015 15.6112 23.4297C15.6132 23.2542 15.6141 23.0788 15.615 22.9034C15.6171 22.5594 15.6205 22.2154 15.6246 21.8715C15.5967 21.8719 15.5688 21.8723 15.5401 21.8728C15.2486 21.8771 14.9571 21.8801 14.6655 21.8822C14.5569 21.8832 14.4483 21.8845 14.3396 21.8862C14.183 21.8886 14.0264 21.8897 13.8698 21.8906C13.7975 21.8921 13.7975 21.8921 13.7238 21.8936C13.3636 21.8937 13.1029 21.8198 12.8296 21.5802C12.7901 21.5326 12.7901 21.5326 12.7498 21.4839C12.7228 21.4522 12.6957 21.4206 12.6678 21.388C12.5382 21.1999 12.4873 21.0304 12.4885 20.803C12.4885 20.7571 12.4885 20.7112 12.4885 20.6638C12.489 20.6149 12.4895 20.566 12.49 20.5155C12.4902 20.465 12.4903 20.4144 12.4905 20.3622C12.491 20.201 12.4922 20.0399 12.4935 19.8787C12.494 19.7692 12.4944 19.6598 12.4948 19.5503C12.4959 19.2824 12.4975 19.0144 12.4996 18.7465C12.4676 18.7475 12.4356 18.7485 12.4027 18.7496C12.256 18.7537 12.1092 18.7562 11.9625 18.7587C11.9122 18.7603 11.8619 18.762 11.8101 18.7636C11.4288 18.7685 11.171 18.7134 10.8764 18.4552C10.837 18.4076 10.837 18.4076 10.7967 18.3589C10.7696 18.3272 10.7426 18.2956 10.7147 18.263C10.4857 17.9307 10.5001 17.5232 10.5465 17.1352C10.6426 16.7864 10.8699 16.5416 11.1137 16.2833C11.2295 16.1592 11.3369 16.0312 11.4437 15.8992C11.6316 15.6671 11.8232 15.4384 12.0165 15.2109C12.08 15.1362 12.1433 15.0615 12.2066 14.9867C12.2741 14.9194 12.2741 14.9194 12.343 14.8507C12.4896 14.6372 12.4809 14.4765 12.4782 14.2238C12.5118 12.6102 13.1622 11.1679 14.2757 10.0124C14.3001 9.98643 14.3245 9.96052 14.3497 9.93382C14.5231 9.76035 14.5231 9.76035 14.643 9.76809ZM14.5992 10.934C13.6569 11.9223 13.2993 13.2965 13.278 14.6281C13.269 15.0387 13.1158 15.2288 12.8414 15.5238C12.7519 15.6277 12.664 15.733 12.5759 15.8382C12.5297 15.8925 12.4836 15.9468 12.4374 16.001C12.281 16.1855 12.128 16.3726 11.976 16.5607C11.8956 16.6584 11.8142 16.7541 11.7307 16.8491C11.6971 16.8878 11.6971 16.8878 11.6628 16.9273C11.5998 16.9998 11.5363 17.0718 11.4727 17.1437C11.3669 17.2954 11.3373 17.3912 11.3277 17.5746C11.3872 17.7465 11.4215 17.8411 11.5868 17.9241C11.7201 17.9658 11.8221 17.9771 11.9612 17.9763C12.0081 17.9763 12.055 17.9763 12.1033 17.9763C12.1533 17.9758 12.2033 17.9753 12.2549 17.9748C12.3065 17.9746 12.3582 17.9745 12.4115 17.9744C12.5761 17.9738 12.7408 17.9726 12.9055 17.9713C13.0173 17.9708 13.1291 17.9704 13.2409 17.97C13.5146 17.9689 13.7883 17.9672 14.0621 17.9652C14.0621 18.223 14.0621 18.4809 14.0621 18.7465C13.8043 18.7465 13.5465 18.7465 13.2808 18.7465C13.2808 19.0043 13.2808 19.2621 13.2808 19.5277C13.9254 19.5277 14.5699 19.5277 15.234 19.5277C15.234 19.7855 15.234 20.0434 15.234 20.309C14.5894 20.309 13.9449 20.309 13.2808 20.309C13.2685 20.6902 13.2685 20.6902 13.4273 20.9926C13.5987 21.0787 13.7394 21.1026 13.9299 21.1035C13.9803 21.104 14.0306 21.1045 14.0825 21.105C14.1632 21.1051 14.1632 21.1051 14.2456 21.1053C14.3598 21.1065 14.4741 21.1078 14.5883 21.109C14.7682 21.1104 14.9482 21.1116 15.1281 21.1125C15.3019 21.1136 15.4756 21.1155 15.6494 21.1175C15.7304 21.1175 15.7304 21.1175 15.8131 21.1175C15.8881 21.1185 15.8881 21.1185 15.9647 21.1195C16.0087 21.1197 16.0528 21.12 16.0982 21.1202C16.2105 21.1391 16.2105 21.1391 16.357 21.2855C16.3731 22.2523 16.3892 23.2191 16.4058 24.2152C18.6939 24.2152 20.982 24.2152 23.3394 24.2152C23.2632 23.5544 23.2632 23.5544 23.1695 22.8966C23.163 22.8546 23.1564 22.8126 23.1497 22.7693C23.1287 22.6341 23.1074 22.4989 23.0861 22.3638C23.0712 22.2682 23.0562 22.1727 23.0413 22.0771C23.0102 21.8787 22.979 21.6803 22.9477 21.4819C22.9077 21.2281 22.8681 20.9742 22.8285 20.7203C22.7979 20.5238 22.767 20.3273 22.736 20.1308C22.7213 20.0372 22.7067 19.9435 22.6921 19.8499C22.6718 19.7194 22.6512 19.5889 22.6305 19.4585C22.6246 19.4202 22.6187 19.3819 22.6126 19.3425C22.5636 19.0372 22.5158 18.7779 22.2912 18.5511C22.2566 18.5158 22.2221 18.4804 22.1865 18.444C22.1491 18.4069 22.1118 18.3698 22.0733 18.3316C22.0349 18.2929 21.9965 18.2542 21.9569 18.2143C21.8758 18.1329 21.7945 18.0517 21.7129 17.9707C21.5877 17.8462 21.4638 17.7206 21.34 17.5949C21.261 17.5159 21.182 17.437 21.1029 17.3581C21.0657 17.3203 21.0286 17.2826 20.9903 17.2436C20.9555 17.2094 20.9206 17.1751 20.8847 17.1398C20.8542 17.1094 20.8237 17.0789 20.7923 17.0476C20.7065 16.9777 20.7065 16.9777 20.603 16.999C20.459 17.057 20.3242 17.1296 20.187 17.2023C19.4555 17.5715 18.564 17.6832 17.7658 17.4359C16.9787 17.1157 16.2804 16.6298 15.9271 15.8249C15.6227 15.0651 15.513 14.1548 15.8022 13.3704C15.9062 13.1493 16.0248 12.9383 16.1522 12.7298C16.2259 12.6014 16.2259 12.6014 16.1744 12.4978C16.113 12.399 16.0503 12.3242 15.9681 12.2422C15.9389 12.2129 15.9098 12.1836 15.8797 12.1534C15.8483 12.1223 15.8169 12.0913 15.7846 12.0593C15.7523 12.0271 15.7201 11.9948 15.6869 11.9616C15.6188 11.8937 15.5506 11.8259 15.4823 11.7582C15.3774 11.6542 15.2728 11.5497 15.1682 11.4452C15.1021 11.3793 15.036 11.3134 14.9698 11.2476C14.9226 11.2004 14.9226 11.2004 14.8744 11.1523C14.7551 11.0046 14.7551 11.0046 14.5992 10.934ZM16.9719 12.939C16.5118 13.4983 16.4023 14.0793 16.4443 14.7848C16.5029 15.3756 16.8413 15.8505 17.2573 16.2524C17.8246 16.7125 18.4847 16.8076 19.189 16.7445C19.7834 16.6286 20.2754 16.2834 20.6539 15.8168C21.0311 15.1977 21.1496 14.549 21.0109 13.8381C20.8379 13.277 20.4759 12.7642 19.9703 12.456C18.9181 11.9142 17.797 12.0672 16.9719 12.939Z" fill="black"/>
<path d="M19.5259 13.0246C19.9333 13.2676 20.1867 13.6039 20.3124 14.0626C20.3612 14.6046 20.3295 15.0751 19.9829 15.5183C19.7066 15.8141 19.3625 15.9958 18.9582 16.0322C18.4343 16.0439 18.0025 15.9828 17.604 15.6106C17.243 15.2091 17.159 14.7836 17.1722 14.2574C17.1953 13.8479 17.3718 13.5058 17.6757 13.2325C18.2001 12.8382 18.9241 12.7359 19.5259 13.0246ZM18.0969 14.0443C17.9892 14.2678 17.9786 14.4535 18.0175 14.6974C18.1313 14.9337 18.2695 15.0719 18.5058 15.1857C18.7497 15.2246 18.9354 15.2139 19.1589 15.1063C19.3339 14.948 19.4626 14.8212 19.5011 14.5803C19.5136 14.3028 19.4793 14.1286 19.2871 13.9161C19.0746 13.7239 18.9004 13.6896 18.6229 13.7021C18.382 13.7406 18.2552 13.8693 18.0969 14.0443Z" fill="black"/>
<path d="M23.9253 10.9375C24.0518 11.0538 24.1401 11.1792 24.2304 11.3251C24.2569 11.3668 24.2833 11.4085 24.3106 11.4515C24.3647 11.5723 24.3647 11.5723 24.3687 11.6755C24.2828 11.8253 24.151 11.8598 23.9955 11.9263C23.937 11.9517 23.8785 11.9771 23.8183 12.0033C23.7504 12.0317 23.7504 12.0317 23.6811 12.0605C23.5705 11.9561 23.4835 11.8492 23.4004 11.7218C23.3785 11.6891 23.3566 11.6565 23.334 11.6228C23.2905 11.5234 23.2905 11.5234 23.2896 11.4264C23.3675 11.2725 23.4913 11.2116 23.6354 11.1206C23.6893 11.0861 23.7432 11.0516 23.7988 11.0161C23.8405 10.9902 23.8823 10.9642 23.9253 10.9375Z" fill="black"/>
<path d="M21.4844 8.83984C21.7519 8.91531 21.9782 9.04275 22.2168 9.18164C22.19 9.39077 22.118 9.51618 21.994 9.68518C21.9627 9.7283 21.9315 9.77141 21.8992 9.81583C21.8751 9.84825 21.851 9.88066 21.8262 9.91406C21.6518 9.88188 21.5245 9.80848 21.3745 9.7157C21.331 9.68895 21.2874 9.6622 21.2425 9.63464C21.2095 9.61405 21.1766 9.59347 21.1426 9.57227C21.218 9.30472 21.3455 9.0784 21.4844 8.83984Z" fill="black"/>
<path d="M17.5783 8.30078C17.6266 8.57471 17.675 8.84863 17.7248 9.13086C17.1633 9.27734 17.1633 9.27734 16.9435 9.27734C16.9092 9.18504 16.8758 9.0924 16.8428 8.99963C16.8241 8.94808 16.8054 8.89653 16.7862 8.84342C16.7471 8.68685 16.7519 8.60016 16.7971 8.44727C16.8814 8.42246 16.9658 8.39814 17.0503 8.37402C17.0974 8.36043 17.1444 8.34683 17.1928 8.33282C17.3342 8.30078 17.3342 8.30078 17.5783 8.30078Z" fill="black"/>
<path d="M23.584 16.8477C23.7863 16.8769 23.9347 16.9456 24.1119 17.046C24.1596 17.0728 24.2072 17.0995 24.2563 17.1271C24.2923 17.1477 24.3282 17.1682 24.3652 17.1895C24.2926 17.4728 24.1411 17.6863 23.9746 17.9219C23.7977 17.8572 23.6506 17.7782 23.4955 17.6716C23.4569 17.6453 23.4183 17.619 23.3786 17.5919C23.3497 17.5719 23.3208 17.5519 23.291 17.5312C23.3247 17.3658 23.388 17.2295 23.465 17.0796C23.4983 17.0143 23.4983 17.0143 23.5323 16.9476C23.5494 16.9146 23.5664 16.8816 23.584 16.8477Z" fill="black"/>
<path d="M24.707 12.4023C24.7411 12.512 24.7746 12.6219 24.8077 12.7319C24.8264 12.7931 24.8451 12.8543 24.8643 12.9173C24.9023 13.0859 24.9023 13.0859 24.8535 13.2812C24.4667 13.3538 24.4667 13.3538 24.0722 13.4277C23.9153 12.885 23.9153 12.885 23.9257 12.6465C24.0376 12.6056 24.1495 12.5649 24.2614 12.5244C24.2932 12.5128 24.325 12.5011 24.3577 12.4891C24.5983 12.4023 24.5983 12.4023 24.707 12.4023Z" fill="black"/>
<path d="M15.9758 8.83594C16.1151 8.91801 16.1568 9.03148 16.2262 9.17506C16.2652 9.25343 16.2652 9.25343 16.305 9.33337C16.3574 9.47414 16.3574 9.47414 16.3086 9.62062C16.2039 9.70073 16.2039 9.70073 16.0736 9.77931C16.031 9.80575 15.9884 9.83218 15.9445 9.85942C15.8203 9.91359 15.8203 9.91359 15.7183 9.91397C15.5783 9.8401 15.524 9.73599 15.4419 9.60231C15.4119 9.5546 15.382 9.50689 15.3511 9.45773C15.2832 9.32765 15.2832 9.32765 15.2832 9.18117C15.4045 9.09038 15.4045 9.09038 15.564 8.99806C15.6421 8.95161 15.6421 8.95161 15.7219 8.90422C15.8691 8.83937 15.8691 8.83937 15.9758 8.83594Z" fill="black"/>
<path d="M24.0723 15.4805C24.4832 15.553 24.4832 15.553 24.9023 15.627C24.8474 16.0664 24.8474 16.0664 24.7772 16.2617C24.7641 16.299 24.7509 16.3362 24.7374 16.3746C24.7274 16.4018 24.7173 16.429 24.707 16.457C24.4157 16.4322 24.1876 16.3405 23.9258 16.2129C23.9575 15.959 24.0094 15.7319 24.0723 15.4805Z" fill="black"/>
<path d="M22.8027 9.76562C22.9987 9.7922 23.0949 9.88871 23.233 10.025C23.2726 10.0631 23.3122 10.1012 23.353 10.1404C23.4375 10.2539 23.4375 10.2539 23.4413 10.3514C23.3656 10.4921 23.2622 10.5772 23.1415 10.6812C23.0966 10.7202 23.0517 10.7592 23.0055 10.7994C22.9708 10.8289 22.9361 10.8583 22.9004 10.8887C22.8785 10.8698 22.8567 10.8509 22.8342 10.8315C22.6635 10.6844 22.4915 10.5399 22.3145 10.4004C22.3885 10.2306 22.4891 10.1096 22.6135 9.97314C22.6489 9.93412 22.6843 9.8951 22.7207 9.85489C22.7613 9.8107 22.7613 9.8107 22.8027 9.76562Z" fill="black"/>
<path d="M19.9707 8.30078C20.0556 8.31076 20.14 8.3247 20.224 8.34045C20.293 8.35301 20.293 8.35301 20.3634 8.36582C20.5118 8.39934 20.6565 8.44799 20.8008 8.49609C20.7202 8.75391 20.6396 9.01172 20.5566 9.27734C20.2764 9.24231 20.0425 9.20242 19.7754 9.13086C19.7986 9.00162 19.822 8.87244 19.8456 8.74329C19.8522 8.70643 19.8587 8.66958 19.8655 8.63161C19.9163 8.35514 19.9163 8.35514 19.9707 8.30078Z" fill="black"/>
<path d="M25 14.0125C25 14.2864 25 14.5603 25 14.8425C24.7422 14.8425 24.4844 14.8425 24.2188 14.8425C24.2188 14.5847 24.2188 14.3269 24.2188 14.0613C24.4951 14.0218 24.7252 14.0082 25 14.0125Z" fill="black"/>
<path d="M18.4076 8.20312C18.6815 8.20312 18.9555 8.20312 19.2377 8.20312C19.2216 8.46094 19.2055 8.71875 19.1889 8.98437C19.069 8.98538 18.9492 8.98639 18.8257 8.98743C18.7879 8.98787 18.7501 8.98832 18.7112 8.98877C18.6262 8.98912 18.5413 8.98683 18.4564 8.98437C18.4076 8.93555 18.4076 8.93555 18.4028 8.77056C18.4031 8.70247 18.4037 8.63437 18.4045 8.56628C18.4056 8.44644 18.4066 8.3266 18.4076 8.20312Z" fill="black"/>
</g>
<defs>
<clipPath id="clip0_19780_8126">
<rect width="25" height="25" fill="white"/>
</clipPath>
</defs>
</svg>
