<?xml version="1.0" encoding="UTF-8"?>
<svg version="1.1" xmlns="http://www.w3.org/2000/svg" width="512" height="512">
<path d="M0 0 C3.82109938 3.73070778 6.06749172 7.01605553 8 12 C8.61530075 12.00586624 9.2306015 12.01173248 9.86454773 12.01777649 C16.27254944 12.0817438 22.68005048 12.16617237 29.08764648 12.26245117 C31.47852983 12.29569167 33.86949148 12.32372629 36.26049805 12.34643555 C39.69874419 12.37999683 43.13627329 12.43231524 46.57421875 12.48828125 C47.64210129 12.49467117 48.70998383 12.5010611 49.81022644 12.50764465 C59.18293471 12.69304718 59.18293471 12.69304718 63 16 C65.49461205 19.74191808 65.26772156 22.63092763 65.22705078 26.9597168 C65.22734283 27.76970123 65.22763489 28.57968567 65.22793579 29.41421509 C65.22654196 32.09265845 65.21097832 34.77082396 65.1953125 37.44921875 C65.19158256 39.30581002 65.1887355 41.16240325 65.18673706 43.01899719 C65.17909913 47.90660024 65.15944925 52.79408452 65.1373291 57.68164062 C65.11327804 63.54533687 65.10409045 69.40907281 65.09242249 75.27280426 C65.07302496 84.18195213 65.0347035 93.09083935 65 102 C78.2 102 91.4 102 105 102 C104.96519531 96.13863281 104.93039063 90.27726562 104.89453125 84.23828125 C104.8792019 80.52407857 104.86475998 76.80991492 104.85351562 73.09570312 C104.83558503 67.20084529 104.81437723 61.30612731 104.77368164 55.41137695 C104.74107588 50.65867264 104.72314436 45.90611831 104.71536827 41.15331078 C104.70982696 39.34042182 104.69900612 37.52754103 104.68280983 35.71471596 C104.6610193 33.17462068 104.65803374 30.63514447 104.65942383 28.0949707 C104.648638 27.34618652 104.63785217 26.59740234 104.6267395 25.82592773 C104.65313657 21.36559636 105.27538828 18.55980799 108 15 C110.54229606 13.07136161 111.78345018 12.99097709 115 13.125 C118.59309106 14.17298489 119.75883943 15.01042362 122 18 C122.37407324 20.854035 122.50724398 23.31566763 122.45410156 26.16503906 C122.45468567 26.9849231 122.45526978 27.80480713 122.45587158 28.64953613 C122.4530883 31.35533211 122.42198549 34.06002185 122.390625 36.765625 C122.38316346 38.6432027 122.37747012 40.52078819 122.37347412 42.39837646 C122.35821091 47.33709258 122.31892313 52.2753372 122.2746582 57.21386719 C122.23372035 62.25449241 122.21546628 67.29519391 122.1953125 72.3359375 C122.15242944 82.22419869 122.08207392 92.11198635 122 102 C133.22 102 144.44 102 156 102 C155.97905273 99.47633789 155.95810547 96.95267578 155.93652344 94.35253906 C155.87027347 86.01860397 155.82607262 77.6846573 155.79275131 69.35052872 C155.77186786 64.2970208 155.74353629 59.24378245 155.69824219 54.19042969 C155.65481161 49.31452532 155.6308686 44.4388804 155.62049103 39.56279755 C155.61309465 37.70161606 155.59865134 35.84044892 155.57707977 33.97937775 C155.54808256 31.37428496 155.54404241 28.77026702 155.54589844 26.16503906 C155.53151733 25.39395813 155.51713623 24.6228772 155.50231934 23.82843018 C155.52929455 20.33410274 155.71512257 18.37860187 157.8447876 15.54827881 C160.65742518 13.52771362 162.54060426 13.07059991 166 13 C168.7352765 14.18114212 170.41470595 15.16113826 172.12643433 17.61444092 C173.38215689 21.04360539 173.26148095 24.37886353 173.22705078 27.98144531 C173.22734283 28.7818222 173.22763489 29.5821991 173.22793579 30.40682983 C173.22654455 33.04737256 173.21099308 35.68763168 173.1953125 38.328125 C173.19158164 40.16086676 173.18873501 41.99361051 173.18673706 43.82635498 C173.17910637 48.64654054 173.15946269 53.46660529 173.1373291 58.28674316 C173.11325847 64.07203678 173.104087 69.85737082 173.09242249 75.6427002 C173.073038 84.42855079 173.03471149 93.21413636 173 102 C186.2 102 199.4 102 213 102 C212.95359375 96.06644531 212.9071875 90.13289063 212.859375 84.01953125 C212.83893601 80.25974812 212.81968023 76.50003352 212.8046875 72.74023438 C212.78077909 66.77288583 212.7525002 60.80578287 212.69824219 54.83862305 C212.65477015 50.02755226 212.63085984 45.21674483 212.62049103 40.40549278 C212.6131021 38.57025697 212.5986732 36.73503553 212.57707977 34.89991188 C212.54802743 32.32854732 212.54404471 29.75826995 212.54589844 27.18676758 C212.53151733 26.42863266 212.51713623 25.67049774 212.50231934 24.88938904 C212.53069853 21.24952311 212.89624689 19.16621704 214.84088135 16.05082703 C218.04034856 13.01183062 220.69564686 12.86934628 224.93041992 12.79467773 C225.93123093 12.77473251 226.93204193 12.75478729 227.96318054 12.73423767 C229.04138565 12.71752518 230.11959076 12.70081268 231.23046875 12.68359375 C232.33602615 12.66281265 233.44158356 12.64203156 234.5806427 12.62062073 C238.1161979 12.55517668 241.65182806 12.49626397 245.1875 12.4375 C247.58269008 12.3943099 249.97787255 12.35069546 252.37304688 12.30664062 C258.24861842 12.19950052 264.12426472 12.09772443 270 12 C270.27012405 11.44769714 270.54024811 10.89539429 270.81855774 10.32635498 C271.17532089 9.60345276 271.53208405 8.88055054 271.8996582 8.13574219 C272.42859428 7.0597879 272.42859428 7.0597879 272.96821594 5.96209717 C276.14814534 -0.08503104 281.43220565 -3.8272364 287.68359375 -6.28125 C296.67262802 -9.07042758 305.25350226 -8.07574337 313.6875 -3.9375 C321.11499542 0.55843528 325.50641899 7.24873339 327.5625 15.6015625 C329.14122059 24.25633429 327.3820883 31.94827318 322.45703125 39.3046875 C317.92279715 44.80387302 312.18819265 49.71179343 305 51 C294.38204948 51.806594 286.73736939 50.83705163 278.25 44.3125 C274.47478551 40.87168679 272.02345427 36.66233704 270 32 C270 31.34 270 30.68 270 30 C256.8 30 243.6 30 230 30 C230 53.76 230 77.52 230 102 C238.25 102 246.5 102 255 102 C264.40134092 106.17837374 270.96060829 109.89033037 276 119 C278 125 278 125 278 143 C301.76 143 325.52 143 350 143 C350.020625 134.688125 350.04125 126.37625 350.0625 117.8125 C350.10709351 113.88694214 350.10709351 113.88694214 350.15258789 109.88208008 C350.13782379 107.80286893 350.11973821 105.72367756 350.09765625 103.64453125 C350.12210815 102.56892944 350.14656006 101.49332764 350.17175293 100.38513184 C350.11500327 97.32885906 349.9970922 94.89106771 349 92 C346.25515028 89.57627528 343.36092672 88.36526271 340 87 C333.67174758 81.62634837 330.46773099 75.69307615 329.65234375 67.51171875 C329.32107892 59.06021866 330.27724136 53.04991508 335 46 C335.598125 45.071875 336.19625 44.14375 336.8125 43.1875 C343.15462015 36.84537985 350.09572921 34.39550571 358.875 33.6875 C367.95048095 34.00718426 375.78126151 37.35483372 382 44 C388.18487431 52.48029158 389.13993633 60.72882107 388 71 C386.81143619 77.99554697 382.30196077 83.45790156 377 88 C375.63287781 88.74169998 374.2473183 89.45007561 372.84838867 90.12988281 C372.12777756 90.48238098 371.40716644 90.83487915 370.66471863 91.19805908 C370.11536148 91.46269958 369.56600433 91.72734009 369 92 C368.98786972 93.11087227 368.98786972 93.11087227 368.97549438 94.2441864 C368.8974638 101.23294683 368.81014775 108.22151569 368.71247292 115.21002483 C368.66258616 118.80265652 368.61625577 122.39525989 368.578125 125.98803711 C368.54117546 129.45707204 368.4947899 132.92586559 368.44193649 136.39469337 C368.41446103 138.35823796 368.39668845 140.32191057 368.37905884 142.28556824 C368.35918915 143.4864357 368.33931946 144.68730316 368.31884766 145.92456055 C368.30552399 146.97935104 368.29220032 148.03414154 368.2784729 149.12089539 C367.89425964 153.09323939 367.07828206 155.80383243 364.38531494 158.79121399 C360.92870612 160.5428906 357.62041808 160.39352689 353.83496094 160.34057617 C352.60513489 160.34123329 352.60513489 160.34123329 351.35046387 160.34190369 C348.64485731 160.33981637 345.9398731 160.3164882 343.234375 160.29296875 C341.35679462 160.28737259 339.47920986 160.28310259 337.60162354 160.28010559 C332.66300332 160.26865841 327.72464833 160.23919225 322.78613281 160.20599365 C316.85903403 160.16989059 310.93184649 160.15613102 305.00466919 160.13863373 C296.0029284 160.10955488 287.00176943 160.05206679 278 160 C278 173.53 278 187.06 278 201 C284.08953125 200.95359375 290.1790625 200.9071875 296.453125 200.859375 C300.30861077 200.83893929 304.16402987 200.81968375 308.01953125 200.8046875 C314.14060313 200.78076645 320.26143591 200.75245364 326.38232422 200.69824219 C331.31658296 200.65481345 336.25058535 200.63086898 341.18502045 200.62049103 C343.06853014 200.61309432 344.95202564 200.59865039 346.83542633 200.57707977 C349.47164848 200.54808508 352.10680838 200.54404231 354.74316406 200.54589844 C355.52359573 200.53151733 356.3040274 200.51713623 357.10810852 200.50231934 C360.64614148 200.52931307 362.60676824 200.69917961 365.4574585 202.87994385 C367.30987059 205.42588355 367.92480326 206.84173703 368 210 C365.72289157 215.63855422 365.72289157 215.63855422 363 217 C360.31470138 217.09312908 357.65555582 217.12578322 354.97021484 217.11352539 C354.14086929 217.11367142 353.31152374 217.11381744 352.45704651 217.1139679 C349.70831715 217.11326971 346.95965506 217.10548171 344.2109375 217.09765625 C342.30807533 217.09579174 340.40521268 217.09436799 338.50234985 217.09336853 C333.48818644 217.08954599 328.47405189 217.07971793 323.4598999 217.06866455 C318.34566641 217.05844479 313.23142826 217.0538697 308.1171875 217.04882812 C298.07811027 217.03809544 288.03906204 217.02050076 278 217 C278 228.22 278 239.44 278 251 C280.55395508 250.97905273 283.10791016 250.95810547 285.73925781 250.93652344 C294.17297857 250.87027517 302.60671077 250.82607329 311.04062271 250.79275131 C316.1546631 250.77186736 321.26843713 250.74353484 326.38232422 250.69824219 C331.31658296 250.65481345 336.25058535 250.63086898 341.18502045 250.62049103 C343.06853014 250.61309432 344.95202564 250.59865039 346.83542633 250.57707977 C349.47164848 250.54808508 352.10680838 250.54404231 354.74316406 250.54589844 C355.52359573 250.53151733 356.3040274 250.51713623 357.10810852 250.50231934 C360.64614148 250.52931307 362.60676824 250.69917961 365.4574585 252.87994385 C367.30987059 255.42588355 367.92480326 256.84173703 368 260 C366.88034606 263.0053869 366.03670842 265.25142784 363.39129639 267.16159058 C359.92874611 268.37559098 356.55000557 268.26125338 352.92675781 268.22705078 C352.11662735 268.22734283 351.30649689 268.22763489 350.47181702 268.22793579 C347.79881006 268.22654443 345.12608316 268.21099238 342.453125 268.1953125 C340.59796297 268.19158168 338.74279898 268.18873503 336.88763428 268.18673706 C332.00826565 268.17910604 327.12901635 268.15946207 322.24969482 268.1373291 C316.39348313 268.11325938 310.53723151 268.10408716 304.6809845 268.09242249 C295.78724004 268.0730374 286.89375735 268.03471111 278 268 C278 281.2 278 294.4 278 308 C286.90033203 307.94779297 286.90033203 307.94779297 295.98046875 307.89453125 C299.74024422 307.87920204 303.49998114 307.86476013 307.25976562 307.85351562 C313.22705084 307.83558451 319.1941979 307.81437528 325.16137695 307.77368164 C329.97243577 307.7410777 334.78334644 307.72314474 339.59450722 307.71536827 C341.42972457 307.70982663 343.26493386 307.69900517 345.10008812 307.68280983 C347.67131426 307.66102175 350.24192877 307.65803364 352.81323242 307.65942383 C353.57136734 307.648638 354.32950226 307.63785217 355.11061096 307.6267395 C359.5715379 307.65282512 362.55386494 308.07912441 366 311 C368.0923441 314.70996025 368.24447344 317.95966409 368.22705078 322.16723633 C368.22689972 323.38812454 368.22674866 324.60901276 368.22659302 325.86689758 C368.21627045 327.17539169 368.20594788 328.4838858 368.1953125 329.83203125 C368.19157922 331.19251802 368.18873373 332.5530075 368.18673706 333.91349792 C368.17912538 337.48261017 368.15949834 341.05155791 368.1373291 344.62060547 C368.11681735 348.26722997 368.10772398 351.91388123 368.09765625 355.56054688 C368.07624991 362.70709827 368.04214397 369.85353836 368 377 C369.17369141 377.21148682 369.17369141 377.21148682 370.37109375 377.42724609 C376.70211594 378.80657169 381.38801884 383.95213876 384.9921875 389.09375 C389.07910561 396.82404472 389.42991517 406.32096191 387.3125 414.73046875 C383.80357458 423.22499237 378.6060802 428.17907131 370.3671875 432.0546875 C361.94036139 435.41985568 353.86251718 434.6216219 345.54296875 431.25390625 C338.18369281 427.62513885 334.39050559 422.35543568 331 415 C328.71715863 408.15147589 328.83052899 398.7020923 331.625 392 C335.34918357 385.06125799 339.87195617 380.36228483 347 377 C347.99 377 348.98 377 350 377 C350 359.84 350 342.68 350 325 C326.24 325 302.48 325 278 325 C278 330.94 278 336.88 278 343 C275.13443818 352.39904278 269.28595792 359.04815156 260.89453125 364.08984375 C251.49990288 368.60313944 239.49130842 366 230 366 C230 392.4 230 418.8 230 446 C249.305 445.505 249.305 445.505 269 445 C270.32 441.7 271.64 438.4 273 435 C277.19441216 428.8248932 282.47188498 425.39793237 289.3125 422.6875 C299.33909647 420.81813456 307.62680967 421.78474956 316.2265625 427.47265625 C322.85544657 432.72362621 326.65525246 439.67343192 328 448 C328.67763916 456.63989927 326.27197576 464.47306197 320.80078125 471.1796875 C314.4124651 477.63729124 307.20250516 480.96282723 298.125 481.3125 C289.61428891 481.09328471 281.98250175 478.18921421 276 472 C275.7101825 471.36880249 275.42036499 470.73760498 275.12176514 470.08728027 C273.96948671 467.66416808 272.89254178 465.91259562 271 464 C267.18720602 462.84002674 263.48965814 462.99922655 259.53125 463.10546875 C258.41818481 463.10170731 257.30511963 463.09794586 256.1583252 463.09407043 C252.60429959 463.08776378 249.05360048 463.13483804 245.5 463.1875 C241.94707609 463.21370576 238.39469574 463.22853878 234.8416748 463.22737122 C232.63235734 463.22940015 230.42297265 463.24868249 228.21398926 463.28715515 C218.81340483 463.34355979 218.81340483 463.34355979 215 460 C212.397299 456.0959485 212.73421118 452.83199201 212.77294922 448.3059082 C212.77265717 447.4178952 212.77236511 446.5298822 212.77206421 445.61495972 C212.77345868 442.67680118 212.78902543 439.73889554 212.8046875 436.80078125 C212.80841721 434.76482787 212.81126438 432.72887269 212.81326294 430.69291687 C212.82090267 425.33184868 212.84055413 419.97088869 212.8626709 414.60986328 C212.88671707 408.17882269 212.89590869 401.74774595 212.90757751 395.31667328 C212.92697828 385.54437357 212.96529856 375.77231133 213 366 C199.8 366 186.6 366 173 366 C173.03480469 372.43886719 173.06960938 378.87773437 173.10546875 385.51171875 C173.12079708 389.59050386 173.13523894 393.66925346 173.14648438 397.74804688 C173.16441883 404.22232436 173.18563713 410.69647458 173.22631836 417.1706543 C173.25891073 422.39019478 173.27685285 427.60959878 173.28463173 432.82923317 C173.29017543 434.82074952 173.30100088 436.81225839 173.31719017 438.80371666 C173.33896267 441.59286017 173.34196698 444.38143949 173.34057617 447.1706543 C173.35675491 448.40603943 173.35675491 448.40603943 173.3732605 449.66638184 C173.3483474 454.28260592 172.95313885 457.22675395 170 461 C167.45770394 462.92863839 166.21654982 463.00902291 163 462.875 C159.38104584 461.8194717 158.23417518 461.03596266 156 458 C155.42253573 455.03330739 155.49466241 452.11425454 155.54589844 449.10058594 C155.54531433 448.20267334 155.54473022 447.30476074 155.54412842 446.37963867 C155.54691332 443.41415641 155.57802466 440.44968149 155.609375 437.484375 C155.61683594 435.42743479 155.62252956 433.37048746 155.62652588 431.3135376 C155.64179372 425.90137078 155.68108574 420.48963379 155.7253418 415.07763672 C155.76626951 409.55442113 155.78453157 404.03113604 155.8046875 398.5078125 C155.84757876 387.67165583 155.91793831 376.83593091 156 366 C144.78 366 133.56 366 122 366 C122.02094727 368.76600586 122.04189453 371.53201172 122.06347656 374.38183594 C122.12971396 383.51405586 122.17392239 392.64628631 122.20724869 401.77868271 C122.22813586 407.31645143 122.25647443 412.85397433 122.30175781 418.39160156 C122.3451748 423.73434113 122.36912859 429.07684405 122.37950897 434.4197464 C122.38690777 436.4595538 122.40135568 438.49934804 122.42292023 440.53905487 C122.45189887 443.39318473 122.4559583 446.24633297 122.45410156 449.10058594 C122.46848267 449.94647278 122.48286377 450.79235962 122.49768066 451.66387939 C122.45735831 457.38079208 122.45735831 457.38079208 120.1552124 460.49761963 C117.33748574 462.46183309 115.43294426 462.92993991 112 463 C109.28801922 461.82891739 107.6029153 460.83955028 105.87356567 458.43145752 C104.55725575 454.76767842 104.73953848 451.1276777 104.77294922 447.28417969 C104.77265717 446.40577423 104.77236511 445.52736877 104.77206421 444.62234497 C104.77345633 441.72208745 104.78901206 438.82208758 104.8046875 435.921875 C104.80841805 433.90977112 104.81126482 431.89766543 104.81326294 429.88555908 C104.8208961 424.59190854 104.84054193 419.29836789 104.8626709 414.00476074 C104.88673482 407.65212271 104.89591182 401.29944792 104.90757751 394.94677734 C104.92696645 385.29777515 104.96529132 375.64901405 105 366 C91.8 366 78.6 366 65 366 C65.04640625 372.51105469 65.0928125 379.02210938 65.140625 385.73046875 C65.16106266 389.85483365 65.18031837 393.97913613 65.1953125 398.10351562 C65.2192259 404.65027835 65.24751847 411.19681734 65.30175781 417.7434082 C65.34521239 423.02131413 65.36913655 428.29898015 65.37950897 433.57705116 C65.386901 435.59091278 65.40133586 437.60476123 65.42292023 439.61852074 C65.45194883 442.43892183 65.4559562 445.25833103 65.45410156 448.07885742 C65.46848267 448.91179825 65.48286377 449.74473907 65.49768066 450.60292053 C65.46950153 454.56208935 65.28025297 456.54403489 63.15911865 459.99507141 C59.94676054 462.97802402 57.28095556 463.13106627 53.06958008 463.20532227 C52.06876907 463.22526749 51.06795807 463.24521271 50.03681946 463.26576233 C48.95861435 463.28247482 47.88040924 463.29918732 46.76953125 463.31640625 C45.66397385 463.33718735 44.55841644 463.35796844 43.4193573 463.37937927 C39.8838021 463.44482332 36.34817194 463.50373603 32.8125 463.5625 C30.41730992 463.6056901 28.02212745 463.64930454 25.62695312 463.69335938 C19.75138158 463.80049948 13.87573528 463.90227557 8 464 C7.73576736 464.54935715 7.47153473 465.09871429 7.19929504 465.66471863 C6.84711411 466.38532974 6.49493317 467.10594086 6.13208008 467.84838867 C5.61198112 468.91992439 5.61198112 468.91992439 5.08137512 470.0131073 C1.61700028 476.3784665 -5.1992391 480.9354833 -12 483 C-21.15175235 485.02609152 -29.87790318 483.45410551 -37.89453125 478.6015625 C-44.80435656 473.34548017 -48.47584847 466.44462332 -50 458 C-50.99390501 450.6227051 -49.40014171 443.33432861 -45.04296875 437.28125 C-39.02941627 430.31495411 -33.27542106 425.47671318 -23.86328125 424.76171875 C-13.5293408 424.54571779 -6.30033644 426.1730908 1.42578125 433.21484375 C4.40257557 436.59051373 8 441.35539645 8 446 C21.2 446 34.4 446 48 446 C48 419.6 48 393.2 48 366 C39.75 366 31.5 366 23 366 C12.33963331 361.73585332 6.39853597 358.16806383 1.69140625 347.76171875 C-1.59003725 339.40052656 0 337.62996977 0 325 C-23.76 325 -47.52 325 -72 325 C-72 342.16 -72 359.32 -72 377 C-70.35 377.33 -68.7 377.66 -67 378 C-60.47374307 381.68337986 -55.66123962 386.81744634 -52.8984375 393.7734375 C-50.57670691 402.11147868 -50.88448365 410.70625709 -54.5625 418.5625 C-59.19676854 426.59163968 -64.37372999 430.4467227 -73.17578125 433.3046875 C-81.76437893 435.41916936 -89.12450797 433.88330713 -97 430 C-103.74430698 425.82132393 -107.52645653 419.42063042 -110 412 C-110.79702145 401.10301824 -110.06717401 392.94847897 -103.1875 384.1875 C-100.15127206 380.87385022 -97.05926215 378.9147463 -93 377 C-92.01 377 -91.02 377 -90 377 C-90.00444122 376.24689041 -90.00888245 375.49378082 -90.01345825 374.71784973 C-90.0535754 367.61152177 -90.08400494 360.50523321 -90.10362434 353.39882374 C-90.11405004 349.74556957 -90.12818695 346.09240919 -90.15087891 342.43920898 C-90.17265076 338.91195952 -90.18457776 335.38480012 -90.18975449 331.85748863 C-90.19523412 329.86059471 -90.21084016 327.86373689 -90.22659302 325.86689758 C-90.22674408 324.64600937 -90.22689514 323.42512115 -90.22705078 322.16723633 C-90.231492 321.09468094 -90.23593323 320.02212555 -90.24050903 318.91706848 C-89.98215786 315.7835975 -89.54557161 313.74047144 -88 311 C-83.94521685 307.56324638 -79.90128979 307.5870371 -74.81323242 307.65942383 C-74.00295593 307.65898575 -73.19267944 307.65854767 -72.35784912 307.65809631 C-69.69014052 307.66017976 -67.02306703 307.68348955 -64.35546875 307.70703125 C-62.50173791 307.71262879 -60.64800262 307.71689814 -58.79426575 307.71989441 C-53.9230619 307.73133073 -49.05212779 307.76078752 -44.18103027 307.79400635 C-38.33233464 307.83013885 -32.48354864 307.84387416 -26.63477325 307.86136627 C-17.75632808 307.89042555 -8.8784744 307.94792118 0 308 C0 294.8 0 281.6 0 268 C-5.93355469 268.03480469 -11.86710937 268.06960938 -17.98046875 268.10546875 C-21.74024422 268.12079796 -25.49998114 268.13523987 -29.25976562 268.14648438 C-35.22705084 268.16441549 -41.1941979 268.18562472 -47.16137695 268.22631836 C-51.97243577 268.2589223 -56.78334644 268.27685526 -61.59450722 268.28463173 C-63.42972457 268.29017337 -65.26493386 268.30099483 -67.10008812 268.31719017 C-69.67131426 268.33897825 -72.24192877 268.34196636 -74.81323242 268.34057617 C-75.9504348 268.35675491 -75.9504348 268.35675491 -77.11061096 268.3732605 C-81.57498631 268.34715472 -84.49567865 267.8372596 -88 265 C-89.88461324 260.83814576 -90.35136967 258.94869812 -88.75 254.625 C-87 252 -87 252 -85 251 C-82.31470138 250.90687092 -79.65555582 250.87421678 -76.97021484 250.88647461 C-76.14086929 250.88632858 -75.31152374 250.88618256 -74.45704651 250.8860321 C-71.70831715 250.88673029 -68.95965506 250.89451829 -66.2109375 250.90234375 C-64.30807533 250.90420826 -62.40521268 250.90563201 -60.50234985 250.90663147 C-55.48818644 250.91045401 -50.47405189 250.92028207 -45.4598999 250.93133545 C-40.34566641 250.94155521 -35.23142826 250.9461303 -30.1171875 250.95117188 C-20.07811027 250.96190456 -10.03906204 250.97949924 0 251 C0 239.78 0 228.56 0 217 C-2.55395508 217.02094727 -5.10791016 217.04189453 -7.73925781 217.06347656 C-16.17297857 217.12972483 -24.60671077 217.17392671 -33.04062271 217.20724869 C-38.1546631 217.22813264 -43.26843713 217.25646516 -48.38232422 217.30175781 C-53.31658296 217.34518655 -58.25058535 217.36913102 -63.18502045 217.37950897 C-65.06853014 217.38690568 -66.95202564 217.40134961 -68.83542633 217.42292023 C-71.47164848 217.45191492 -74.10680838 217.45595769 -76.74316406 217.45410156 C-77.52359573 217.46848267 -78.3040274 217.48286377 -79.10810852 217.49768066 C-82.64614148 217.47068693 -84.60676824 217.30082039 -87.4574585 215.12005615 C-89.30987059 212.57411645 -89.92480326 211.15826297 -90 208 C-87.72289157 202.36144578 -87.72289157 202.36144578 -85 201 C-82.31470138 200.90687092 -79.65555582 200.87421678 -76.97021484 200.88647461 C-76.14086929 200.88632858 -75.31152374 200.88618256 -74.45704651 200.8860321 C-71.70831715 200.88673029 -68.95965506 200.89451829 -66.2109375 200.90234375 C-64.30807533 200.90420826 -62.40521268 200.90563201 -60.50234985 200.90663147 C-55.48818644 200.91045401 -50.47405189 200.92028207 -45.4598999 200.93133545 C-39.44686479 200.94335129 -33.43382004 200.94795306 -27.42077637 200.95378876 C-18.28049749 200.96349395 -9.14028197 200.98265235 0 201 C0 187.47 0 173.94 0 160 C-6.00574219 160.04640625 -12.01148437 160.0928125 -18.19921875 160.140625 C-22.00457458 160.16106381 -25.80986272 160.18031958 -29.61523438 160.1953125 C-35.65500956 160.21922159 -41.69454212 160.24750233 -47.73413086 160.30175781 C-52.60355602 160.34522748 -57.47272099 160.36913967 -62.34232521 160.37950897 C-64.1998892 160.38689832 -66.057439 160.40132803 -67.9148922 160.42292023 C-70.51738604 160.45196935 -73.11880559 160.45595541 -75.72143555 160.45410156 C-76.4889212 160.46848267 -77.25640686 160.48286377 -78.04714966 160.49768066 C-81.66616148 160.46979674 -83.82944769 160.1026451 -86.95491028 158.22161865 C-90.44538764 154.42984877 -90.13163788 151.04862422 -90.20532227 146.03808594 C-90.22526749 144.83714294 -90.24521271 143.63619995 -90.26576233 142.39886475 C-90.28247482 141.10708313 -90.29918732 139.81530151 -90.31640625 138.484375 C-90.33698963 137.14487079 -90.35798646 135.80537287 -90.37937927 134.46588135 C-90.43445709 130.94784659 -90.48392906 127.4297546 -90.53222656 123.91162109 C-90.58254625 120.31863336 -90.63817756 116.72572827 -90.69335938 113.1328125 C-90.800766 106.08861345 -90.90224949 99.0443402 -91 92 C-91.54935715 91.73576736 -92.09871429 91.47153473 -92.66471863 91.19929504 C-93.38532974 90.84711411 -94.10594086 90.49493317 -94.84838867 90.13208008 C-95.56274582 89.78534744 -96.27710297 89.43861481 -97.0131073 89.08137512 C-99.627366 87.65855328 -101.38069668 85.93927074 -103.3125 83.6875 C-103.94800781 82.96949219 -104.58351563 82.25148438 -105.23828125 81.51171875 C-110.70084232 73.72363279 -111.3488406 65.18560445 -110 56 C-107.45674196 47.46467188 -102.8164772 41.30472657 -95 37 C-86.2506861 33.22897788 -78.44676641 32.97937376 -69.453125 35.97265625 C-61.20406326 39.42727924 -56.91719527 45.12494653 -53 53 C-50.73225055 59.80324836 -50.82522358 69.25807764 -53.5625 75.9375 C-57.98037406 84.15319562 -62.54688581 87.77344291 -71 92 C-71.33 108.83 -71.66 125.66 -72 143 C-48.24 143 -24.48 143 0 143 C0 137.06 0 131.12 0 125 C2.77104256 115.91098042 8.61028331 108.64111987 17 104 C23 102 23 102 48 102 C48 78.24 48 54.48 48 30 C34.8 30 21.6 30 8 30 C7.01 32.97 7.01 32.97 6 36 C1.49261104 43.71698482 -4.39243447 48.6066769 -13 51 C-22.69356932 51.98773337 -31.41235698 51.38474764 -39.25 45.234375 C-46.27841181 38.67107868 -49.60343986 31.84926206 -50.25 22.3125 C-50.05865646 13.0584305 -46.58405567 5.4689945 -40 -1 C-27.7048147 -10.35255283 -11.69902121 -10.14687384 0 0 Z M-31 15 C-33.0850635 19.25923227 -33.22377057 22.16086038 -32 26.75 C-29.66741305 30.54045379 -28.0238261 32.10196882 -24 34 C-19.90544992 34.64992858 -17.64032197 34.83593331 -13.96875 32.96484375 C-10.34996977 30.30266731 -8.5796841 27.97815381 -7.875 23.5 C-7.73321054 19.28885289 -8.51111963 16.48443252 -11 13 C-14.60053992 9.82305301 -18.12802597 9.40762104 -22.78125 9.59375 C-26.67219884 10.30617725 -28.47748436 12.04681096 -31 15 Z M287.1875 15.25 C285.66892674 18.76669597 285.59281517 21.19960827 286 25 C287.808121 29.09206332 290.16345973 31.69807584 294 34 C298.77771974 34.60669457 300.96532773 34.48805296 305.3125 32.4375 C308.63051021 29.42814191 309.8445633 27.33288762 311 23 C310.86570535 18.29073438 309.48996594 15.57361866 306.4375 12 C299.47171274 7.94717832 292.34584966 8.84653145 287.1875 15.25 Z M-91.375 56.125 C-93.66641555 60.1790429 -94.00056993 63.45477534 -93 68 C-91.11737722 71.82207946 -88.85911369 74.36724902 -84.7734375 75.7578125 C-81.10247157 76.33485397 -78.65823842 76.26329537 -75.1875 74.875 C-71.16311002 71.42552288 -69.18852586 69.48464116 -68.5 64.0625 C-68.74165395 59.79328023 -70.14517999 57.23045422 -73 54 C-80.07807416 49.57620365 -85.25732005 50.65128636 -91.375 56.125 Z M351 54 C347.7148767 57.71737637 346.19412646 60.90349217 346.49609375 65.96875 C347.48833855 69.96849649 349.66745579 72.64001461 353 75 C357.24059846 76.45073105 360.65018038 76.53992785 364.8125 74.875 C369.27201441 71.15571644 369.27201441 71.15571644 371.421875 65.88671875 C371.67047279 61.77794977 371.37346104 58.86905729 368.8125 55.5625 C362.94932469 50.22049583 357.79290527 49.75443421 351 54 Z M20 123 C16.63969921 127.75395174 16.57017895 132.08618538 16.61231995 137.69152832 C16.60693441 138.55405102 16.60154887 139.41657372 16.59600013 140.30523348 C16.58171923 143.18866114 16.5888246 146.07162982 16.59594727 148.95507812 C16.59024382 151.02502308 16.58327967 153.09496489 16.57514954 155.16490173 C16.55720154 160.78258406 16.55838947 166.40011033 16.56409192 172.01781273 C16.56718097 176.70737411 16.56109457 181.3969054 16.55505317 186.0864625 C16.54100455 197.14832466 16.54257245 208.21010959 16.55395508 219.27197266 C16.56544069 230.6862072 16.55135383 242.1002069 16.5245586 253.5144105 C16.50241427 263.31413634 16.49576126 273.11378841 16.50163502 282.9135375 C16.50500832 288.76663938 16.50256444 294.61959066 16.48538399 300.47267151 C16.46993689 305.97537168 16.47384575 311.47772333 16.49268913 316.98040962 C16.49638099 319.00004064 16.49324924 321.01969736 16.48280334 323.03930473 C16.46963287 325.79609725 16.48110585 328.55172927 16.49879456 331.30847168 C16.48918955 332.107892 16.47958454 332.90731233 16.46968848 333.73095751 C16.53818784 338.91845869 17.49614603 341.93842185 21 346 C25.35752328 349.70163748 29.69190631 349.42572791 35.14073181 349.38768005 C36.06365337 349.39306559 36.98657494 349.39845113 37.93746382 349.40399987 C41.03127997 349.41831202 44.12467023 349.41116761 47.21850586 349.40405273 C49.43608444 349.40975458 51.65366008 349.41671812 53.87123108 349.42485046 C59.89598131 349.44281723 65.92058618 349.44160686 71.94535518 349.43590808 C76.97287027 349.43282137 82.00035723 349.4389029 87.02786833 349.44494683 C99.56527237 349.45980582 112.1026061 349.4561688 124.64000512 349.44408352 C135.5253298 349.43415111 146.41048451 349.44709179 157.29578298 349.47101771 C168.47632335 349.49540718 179.6568021 349.50461719 190.83737284 349.49836498 C197.11302438 349.49499071 203.38853546 349.49744187 209.6641674 349.51461601 C215.56492248 349.53005897 221.46535248 349.52615877 227.36609459 349.50731087 C229.53246752 349.5036177 231.69886439 349.50675454 233.8652153 349.51719666 C236.82128196 349.53035811 239.7762648 349.51890162 242.73228455 349.50120544 C243.59075121 349.51081045 244.44921788 349.52041546 245.33369869 349.53031152 C250.67703249 349.46443995 253.82918732 348.64776664 258 345 C261.49034352 340.82329543 261.42682902 336.65734711 261.38768005 331.43545532 C261.39306559 330.57449261 261.39845113 329.7135299 261.40399987 328.82647741 C261.41830434 325.94227824 261.41116954 323.05853641 261.40405273 320.17431641 C261.40975503 318.10614146 261.41671875 316.03796967 261.42485046 313.96980286 C261.44281344 308.35199422 261.44160744 302.73434152 261.43590808 297.11651278 C261.43282045 292.42709582 261.43890401 287.737709 261.44494683 283.04829633 C261.45900106 271.9849716 261.45742356 260.92172408 261.44604492 249.85839844 C261.4345654 238.44477263 261.44863467 227.03138184 261.4754414 215.617787 C261.49759406 205.81891494 261.50423666 196.02011666 261.49836498 186.22122133 C261.49499287 180.3686316 261.49742736 174.51619249 261.51461601 168.66362381 C261.5300758 163.15929235 261.52614007 157.65530909 261.50731087 152.15099144 C261.5036222 150.1317813 261.50674152 148.11254543 261.51719666 146.09335899 C261.53038924 143.33467492 261.51887433 140.57714647 261.50120544 137.81851196 C261.51081045 137.02132236 261.52041546 136.22413276 261.53031152 135.4027859 C261.45704193 129.83456362 260.36162194 126.49857638 257 122 C252.14320912 118.5279814 247.56645696 118.57166812 241.82167053 118.61231995 C240.90676722 118.60693441 239.9918639 118.60154887 239.04923624 118.59600013 C235.98849724 118.5817111 232.92819015 118.58882669 229.86743164 118.59594727 C227.67103223 118.59024421 225.47463578 118.58328021 223.27824402 118.57514954 C217.31546687 118.55719618 211.35283671 118.55839062 205.39004064 118.56409192 C200.4122761 118.56718054 195.43453993 118.56109497 190.45677942 118.55505317 C178.042701 118.54019912 165.62868797 118.54382749 153.21461271 118.55591648 C142.43995745 118.56584868 131.66547391 118.55290773 120.89084513 118.52898229 C109.8198761 118.50458455 98.74897626 118.49538468 87.67797941 118.50163502 C81.46546755 118.50500754 75.25309758 118.50256973 69.04060555 118.48538399 C63.1989289 118.46992953 57.35758043 118.47385406 51.51591682 118.49268913 C49.37253889 118.49637909 47.22913672 118.49325476 45.0857811 118.48280334 C42.15857924 118.46961997 39.23246806 118.48111787 36.30531311 118.49879456 C35.4582233 118.48918955 34.61113349 118.47958454 33.73837429 118.46968848 C28.03137496 118.54054096 24.59907906 119.52961048 20 123 Z M-91.875 397.6875 C-93.68841481 401.41507488 -93.758111 404.94972177 -93 409 C-91.31356024 412.16542066 -88.98972868 414.2976119 -86.0625 416.375 C-83.15227888 417.25688519 -81.03383286 417.36405994 -78 417 C-74.23884031 414.93504958 -70.90349712 412.91274408 -69 409 C-68.34254511 405.17945656 -68.12343059 401.64530686 -69.984375 398.15234375 C-73.18459509 394.13231419 -75.86818607 392.27806269 -80.875 391.625 C-85.62013395 392.19441607 -88.39871108 394.55883998 -91.875 397.6875 Z M348.125 397.6875 C346.31158519 401.41507488 346.241889 404.94972177 347 409 C348.68643976 412.16542066 351.01027132 414.2976119 353.9375 416.375 C356.84772112 417.25688519 358.96616714 417.36405994 362 417 C365.76115969 414.93504958 369.09650288 412.91274408 371 409 C371.65745489 405.17945656 371.87656941 401.64530686 370.015625 398.15234375 C366.81540491 394.13231419 364.13181393 392.27806269 359.125 391.625 C354.37986605 392.19441607 351.60128892 394.55883998 348.125 397.6875 Z M287.125 445.3125 C285.64882757 448.83891192 285.53381105 451.20389 286 455 C287.84003757 458.68007515 289.42585301 460.60447652 292.8125 462.9375 C296.80019639 464.26673213 298.96000155 464.15428527 303 463 C306.22325545 461.08227364 308.51720416 458.81865382 310.4375 455.5625 C311.36636726 451.33099359 310.54144002 448.22536426 308.8125 444.3125 C305.86575808 440.55286376 302.66851503 439.24332511 298 438.5625 C293.1452418 439.27048557 290.17752296 441.54772169 287.125 445.3125 Z M-30 446 C-32.37338028 449.85674295 -33.37373483 452.69247981 -32.5625 457.125 C-31.1499349 461.49884616 -29.00869916 463.66766595 -25 466 C-20.70052988 466.78722692 -17.18727416 466.46458554 -13.125 464.875 C-9.82419 461.96252059 -8.21113091 459.26559706 -7.796875 454.8203125 C-7.94736045 450.35089456 -8.81373881 447.58218189 -12.0625 444.4375 C-14.71235855 442.48811636 -16.77199725 441.57116459 -20.0625 441.375 C-24.53701287 442.08524014 -26.64943983 442.96111985 -30 446 Z " fill="#000000" transform="translate(117,18)"/>
<path d="M0 0 C1.83804703 -0.00639748 1.83804703 -0.00639748 3.71322632 -0.01292419 C5.07339481 -0.01257467 6.43356327 -0.01211314 7.79373169 -0.0115509 C9.22446785 -0.01454268 10.65520321 -0.01794526 12.0859375 -0.02172852 C15.97440562 -0.03057107 19.86285174 -0.03290674 23.75132895 -0.0335443 C26.99684924 -0.03449345 30.24236441 -0.03817184 33.48788273 -0.0417164 C41.14517357 -0.04986203 48.80245264 -0.05230054 56.45974731 -0.05158997 C64.35943273 -0.05098922 72.25904985 -0.06154013 80.15871799 -0.07733363 C86.94012011 -0.09040846 93.72149991 -0.09577388 100.50291455 -0.09513456 C104.55350019 -0.09487954 108.60402515 -0.09773272 112.65459824 -0.10831261 C116.46473315 -0.11799255 120.27474937 -0.11807351 124.08488846 -0.11079597 C125.4824923 -0.10974998 126.88010353 -0.1121139 128.2776947 -0.11815643 C130.1872307 -0.12587693 132.09680713 -0.1200319 134.00634766 -0.11352539 C135.07449644 -0.11407016 136.14264523 -0.11461493 137.24316216 -0.1151762 C140.29396069 0.14783431 142.42035929 0.71728032 145.13015747 2.13371277 C147.40684979 5.54875124 147.38279487 6.75753509 147.39085388 10.76904297 C147.39793869 11.94247757 147.4050235 13.11591217 147.412323 14.3249054 C147.40984558 15.61379669 147.40736816 16.90268799 147.40481567 18.2306366 C147.40916255 19.60063963 147.41434562 20.97064023 147.42030334 22.34063721 C147.4337099 26.0639115 147.43427 29.78708439 147.43174005 33.51037812 C147.43067107 36.61911706 147.43555202 39.72783543 147.44034547 42.83656996 C147.4514472 50.17269373 147.45187487 57.5087663 147.4458313 64.84489441 C147.43979521 72.40946208 147.45209163 79.97384358 147.47340137 87.53837949 C147.4910274 94.03445808 147.497017 100.53047747 147.49376363 107.02657908 C147.49195161 110.90563718 147.49457839 114.78456259 147.50847816 118.66359901 C147.52106762 122.31374555 147.51910204 125.96360257 147.50606728 129.61374474 C147.50257933 131.58781567 147.51387236 133.56189548 147.52563477 135.53593445 C147.51862045 136.71782852 147.51160614 137.8997226 147.50437927 139.11743164 C147.50454701 140.14041257 147.50471476 141.1633935 147.50488758 142.21737385 C146.85655247 147.263045 144.89306611 150.40397407 141.25515747 153.88371277 C136.68462887 157.17449336 133.19019404 158.38148901 127.57148743 158.40113831 C125.91251686 158.41393326 125.91251686 158.41393326 124.22003174 158.42698669 C123.01627899 158.42608032 121.81252625 158.42517395 120.57229614 158.42424011 C119.29694504 158.43095734 118.02159393 158.43767456 116.70759583 158.44459534 C113.21571131 158.46223251 109.72392487 158.46694978 106.23200011 158.46822691 C104.04774127 158.46965052 101.86350721 158.47392412 99.67925453 158.47922134 C92.05146329 158.49771503 84.42374187 158.50589291 76.79592896 158.50431824 C69.69823147 158.50311745 62.60083837 158.52420893 55.50321788 158.55580556 C49.39941872 158.58200459 43.29571875 158.592684 37.19186383 158.59140742 C33.55081143 158.59089879 29.91002957 158.59652657 26.26903343 158.61776352 C22.2045467 158.64082401 18.14073672 158.63160297 14.07620239 158.61955261 C12.87852234 158.63079163 11.68084229 158.64203064 10.4468689 158.65361023 C3.10332085 158.59833147 -2.936847 157.89417987 -8.4205904 152.65099144 C-12.21215939 148.33166162 -12.9936741 145.07990409 -13.01701355 139.48492432 C-13.02774651 137.72043694 -13.02774651 137.72043694 -13.03869629 135.92030334 C-13.04272964 133.98225327 -13.04272964 133.98225327 -13.04684448 132.00505066 C-13.05311029 130.63180367 -13.05975719 129.25855838 -13.0667572 127.88531494 C-13.08777948 123.37567827 -13.09815527 118.86604132 -13.10812378 114.35636902 C-13.11217149 112.80403055 -13.11628842 111.25169227 -13.12047386 109.69935417 C-13.13951852 102.4089977 -13.1537532 95.11865134 -13.16208583 87.82827479 C-13.17186741 79.40918103 -13.19821372 70.99034955 -13.23858672 62.57134825 C-13.26871843 56.06511969 -13.28355174 49.55896646 -13.28686684 43.05266947 C-13.28921999 39.16578338 -13.29821486 35.27917774 -13.32332802 31.39236641 C-13.3465637 27.7372623 -13.35086054 24.08262419 -13.34056664 20.42746544 C-13.33983324 18.44582006 -13.35895441 16.46419858 -13.37863159 14.48265076 C-13.37168777 13.30350601 -13.36474396 12.12436127 -13.35758972 10.90948486 C-13.35997808 9.88466035 -13.36236643 8.85983583 -13.36482716 7.80395603 C-12.73498497 4.4062104 -11.55103282 3.24871048 -8.86984253 1.13371277 C-5.66416272 0.06515283 -3.37015194 0.00529125 0 0 Z M4.13015747 17.13371277 C4.13015747 58.05371277 4.13015747 98.97371277 4.13015747 141.13371277 C45.71015747 141.13371277 87.29015747 141.13371277 130.13015747 141.13371277 C130.13015747 100.21371277 130.13015747 59.29371277 130.13015747 17.13371277 C120.23015747 17.13371277 110.33015747 17.13371277 100.13015747 17.13371277 C100.09277466 20.67347839 100.05539185 24.21324402 100.01687622 27.86027527 C99.97064013 31.29572157 99.9194139 34.73105982 99.8677063 38.16642761 C99.83449101 40.55047518 99.80644855 42.93460074 99.78372192 45.31877136 C99.75011429 48.74961016 99.69779341 52.1797364 99.64187622 55.61027527 C99.6354863 56.67299652 99.62909637 57.73571777 99.62251282 58.8306427 C99.51510395 64.26010502 99.37752993 68.53921471 96.13015747 73.13371277 C93.15575771 74.12517936 91.18439866 74.26590002 88.07962036 74.27897644 C87.05167862 74.28535629 86.02373688 74.29173615 84.96464539 74.29830933 C83.85524094 74.29942215 82.74583649 74.30053497 81.60281372 74.30168152 C79.89211952 74.30667412 79.89211952 74.30667412 78.14686584 74.31176758 C75.73350427 74.31683309 73.32013568 74.31917602 70.9067688 74.3190155 C67.2109323 74.32120196 63.51539426 74.33936183 59.8196106 74.35832214 C57.47651266 74.36125611 55.1334133 74.36324088 52.79031372 74.36418152 C51.12924339 74.37495979 51.12924339 74.37495979 49.43461609 74.38595581 C47.88797523 74.38134087 47.88797523 74.38134087 46.31008911 74.37663269 C44.95132408 74.37877022 44.95132408 74.37877022 43.56510925 74.38095093 C40.85829002 74.10610811 39.34119994 73.72617206 37.13015747 72.13371277 C35.310318 68.72702764 34.86943315 65.8026951 34.81130981 61.97624207 C34.79144012 60.97558212 34.77157043 59.97492218 34.75109863 58.94393921 C34.73954742 57.87605667 34.72799622 56.80817413 34.71609497 55.70793152 C34.69672882 54.60520401 34.67736267 53.5024765 34.65740967 52.36633301 C34.59772824 48.85137111 34.55127373 45.33637626 34.50515747 41.82121277 C34.46696722 39.43513094 34.42791487 37.04906274 34.38796997 34.66300964 C34.29041682 28.81998243 34.21075587 22.97709685 34.13015747 17.13371277 C24.23015747 17.13371277 14.33015747 17.13371277 4.13015747 17.13371277 Z M52.13015747 17.13371277 C52.13015747 30.66371277 52.13015747 44.19371277 52.13015747 58.13371277 C62.03015747 58.13371277 71.93015747 58.13371277 82.13015747 58.13371277 C82.13015747 44.60371277 82.13015747 31.07371277 82.13015747 17.13371277 C72.23015747 17.13371277 62.33015747 17.13371277 52.13015747 17.13371277 Z " fill="#000000" transform="translate(188.86984252929688,172.8662872314453)"/>
</svg>
