<svg width="24" height="24" viewBox="0 0 24 24" fill="none" xmlns="http://www.w3.org/2000/svg">
<path d="M2.69113 0.970954C2.75996 0.970813 2.82878 0.97063 2.8976 0.970411C3.08611 0.96993 3.27462 0.970031 3.46313 0.970232C3.66668 0.970348 3.87022 0.969925 4.07377 0.969574C4.4723 0.968977 4.87083 0.968892 5.26936 0.969002C5.59334 0.969086 5.91731 0.969004 6.24128 0.968804C6.31047 0.968762 6.31047 0.968762 6.38106 0.96872C6.47478 0.968663 6.56849 0.968606 6.6622 0.968549C7.54083 0.968039 8.41946 0.96814 9.29809 0.968426C10.1016 0.968669 10.9052 0.968141 11.7087 0.96725C12.5341 0.966341 13.3594 0.965954 14.1848 0.966131C14.6481 0.96622 15.1114 0.966104 15.5746 0.965441C15.969 0.964882 16.3634 0.964817 16.7577 0.965384C16.9589 0.96566 17.16 0.965712 17.3611 0.96515C17.5454 0.96464 17.7297 0.964786 17.914 0.965443C17.9805 0.965567 18.047 0.965456 18.1135 0.965081C18.6719 0.962144 19.1617 1.0251 19.5938 1.40505C19.9782 1.8507 20.0372 2.31701 20.0343 2.88875C20.0345 2.94947 20.0346 3.01019 20.0348 3.07275C20.035 3.20067 20.0347 3.32858 20.034 3.45651C20.0332 3.6192 20.0337 3.78186 20.0345 3.94455C20.0351 4.10141 20.0347 4.25826 20.0343 4.41512C20.0346 4.4729 20.0349 4.53067 20.0352 4.5902C20.0311 5.10194 19.9551 5.52495 19.5938 5.90505C19.1527 6.31539 18.6922 6.34777 18.109 6.3451C18.0394 6.34529 17.9698 6.34555 17.9002 6.34586C17.7098 6.34654 17.5193 6.34634 17.3288 6.34599C17.1231 6.34577 16.9174 6.34636 16.7117 6.34684C16.309 6.34764 15.9063 6.34768 15.5036 6.34744C15.1762 6.34725 14.8488 6.34732 14.5214 6.34757C14.4748 6.3476 14.4281 6.34764 14.3801 6.34767C14.2854 6.34775 14.1906 6.34782 14.0959 6.34789C13.2079 6.34853 12.3199 6.34828 11.4318 6.34774C10.6199 6.34728 9.80788 6.34788 8.9959 6.349C8.16167 6.35015 7.32744 6.3506 6.49321 6.35029C6.02504 6.35012 5.55689 6.35023 5.08872 6.35105C4.69018 6.35174 4.29164 6.35177 3.8931 6.35095C3.68987 6.35055 3.48665 6.35045 3.28342 6.35117C3.09714 6.35182 2.91089 6.35159 2.72462 6.35069C2.65746 6.35051 2.59031 6.35065 2.52315 6.35114C1.95645 6.35498 1.49454 6.27264 1.07561 5.87172C0.815039 5.56511 0.698212 5.22897 0.695617 4.83185C0.695166 4.77613 0.694716 4.72041 0.694252 4.663C0.694053 4.60289 0.693854 4.54278 0.693648 4.48085C0.69345 4.43467 0.69345 4.43467 0.693247 4.38755C0.692545 4.22441 0.692112 4.06127 0.691909 3.89812C0.691653 3.73075 0.690529 3.5634 0.689191 3.39603C0.688312 3.26637 0.688074 3.13672 0.688002 3.00706C0.687794 2.91572 0.686923 2.82439 0.686035 2.73305C0.687259 2.24068 0.751989 1.83794 1.07414 1.45394C1.54121 0.996489 2.07143 0.969145 2.69113 0.970954ZM1.57329 2.06423C1.47288 2.253 1.44698 2.38767 1.44487 2.59858C1.44427 2.651 1.44367 2.70342 1.44305 2.75744C1.4427 2.81412 1.44236 2.87081 1.442 2.92922C1.44162 2.98755 1.44124 3.04588 1.44085 3.10597C1.4402 3.22954 1.43969 3.35311 1.43933 3.47668C1.43892 3.60308 1.43794 3.72946 1.43645 3.85585C1.43445 4.03819 1.43369 4.2205 1.43321 4.40285C1.43239 4.45916 1.43157 4.51547 1.43072 4.57349C1.43154 4.88789 1.44944 5.08862 1.64067 5.34255C1.85435 5.5406 2.00606 5.58274 2.29267 5.58322C2.37998 5.58353 2.37998 5.58353 2.46906 5.58385C2.534 5.58384 2.59895 5.58384 2.66389 5.58382C2.73261 5.58398 2.80133 5.58415 2.87005 5.58434C3.05937 5.58482 3.24868 5.58499 3.43799 5.58511C3.64199 5.5853 3.84598 5.58575 4.04997 5.58615C4.54283 5.58708 5.03568 5.58755 5.52854 5.58797C5.76053 5.58818 5.99253 5.58843 6.22452 5.58867C6.99553 5.58947 7.76655 5.59015 8.53756 5.59049C8.73768 5.59058 8.9378 5.59067 9.13792 5.59076C9.21253 5.59079 9.21253 5.59079 9.28865 5.59083C10.0947 5.59122 10.9008 5.59241 11.7068 5.59393C12.5341 5.59548 13.3613 5.59632 14.1885 5.59647C14.6531 5.59657 15.1177 5.59699 15.5823 5.59818C15.9779 5.5992 16.3735 5.59958 16.7691 5.59912C16.971 5.59891 17.1729 5.599 17.3747 5.59991C17.5596 5.60073 17.7444 5.60069 17.9292 5.59996C17.9961 5.59985 18.0629 5.60005 18.1297 5.60061C18.6146 5.60737 18.6146 5.60737 19.0313 5.38942C19.2056 5.16464 19.2711 4.99792 19.274 4.71657C19.2746 4.66524 19.2752 4.6139 19.2758 4.56101C19.2761 4.5055 19.2765 4.44998 19.2768 4.39278C19.2772 4.33561 19.2776 4.27843 19.278 4.21952C19.2786 4.09835 19.2791 3.97719 19.2795 3.85602C19.2803 3.67125 19.2824 3.48651 19.2844 3.30175C19.2849 3.18398 19.2853 3.06621 19.2856 2.94845C19.2869 2.86588 19.2869 2.86588 19.2881 2.78165C19.2873 2.45664 19.2561 2.24251 19.0782 1.96755C18.8458 1.7826 18.6734 1.72737 18.3809 1.72688C18.323 1.72667 18.2652 1.72647 18.2056 1.72625C18.141 1.72625 18.0765 1.72626 18.0119 1.72628C17.9436 1.72612 17.8753 1.72595 17.807 1.72575C17.6189 1.72528 17.4307 1.72511 17.2426 1.72499C17.0398 1.7248 16.8371 1.72435 16.6343 1.72394C16.1445 1.72302 15.6546 1.72255 15.1647 1.72213C14.9341 1.72192 14.7035 1.72167 14.4729 1.72143C13.7064 1.72063 12.94 1.71995 12.1735 1.71961C11.9746 1.71952 11.7756 1.71943 11.5767 1.71934C11.5272 1.71932 11.4778 1.71929 11.4268 1.71927C10.6256 1.71888 9.82446 1.71769 9.02328 1.71617C8.20098 1.71462 7.37868 1.71378 6.55637 1.71363C6.09458 1.71352 5.63279 1.71311 5.17099 1.71192C4.77774 1.7109 4.38449 1.71052 3.99123 1.71098C3.79059 1.71119 3.58995 1.7111 3.3893 1.71019C3.20554 1.70937 3.0218 1.70941 2.83804 1.71014C2.77163 1.71025 2.70523 1.71005 2.63883 1.70949C2.2099 1.70613 1.85886 1.70543 1.57329 2.06423Z" fill="black"/>
<path d="M2.50085 14.1016C2.53903 14.1015 2.5772 14.1014 2.61653 14.1012C2.74377 14.1008 2.871 14.1007 2.99824 14.1007C3.08973 14.1004 3.18122 14.1002 3.27272 14.1C3.52074 14.0993 3.76876 14.099 4.01679 14.0988C4.17176 14.0987 4.32674 14.0985 4.48172 14.0983C4.96672 14.0977 5.45172 14.0972 5.93671 14.097C6.49645 14.0968 7.05619 14.096 7.61592 14.0946C8.04881 14.0936 8.4817 14.0931 8.91459 14.0931C9.17308 14.093 9.43156 14.0928 9.69004 14.0919C9.93301 14.0911 10.176 14.091 10.4189 14.0915C10.5081 14.0915 10.5973 14.0913 10.6864 14.0908C10.8081 14.0902 10.9298 14.0905 11.0515 14.091C11.1044 14.0904 11.1044 14.0904 11.1584 14.0898C11.3791 14.0919 11.5314 14.1312 11.7185 14.2488C11.791 14.3938 11.7792 14.5111 11.7654 14.6707C11.6945 14.7736 11.6945 14.7736 11.5779 14.8582C11.4452 14.8765 11.3307 14.8833 11.1981 14.8816C11.1595 14.8818 11.1209 14.8821 11.0811 14.8824C10.9516 14.883 10.8221 14.8823 10.6926 14.8816C10.5998 14.8818 10.5071 14.882 10.4143 14.8824C10.2144 14.8829 10.0145 14.8829 9.81454 14.8824C9.4984 14.8817 9.18227 14.8823 8.86613 14.8832C8.25196 14.8846 7.63778 14.8847 7.02361 14.8846C6.24234 14.8845 5.46108 14.885 4.67981 14.8869C4.36558 14.8876 4.05137 14.8876 3.73714 14.887C3.54154 14.8868 3.34593 14.8871 3.15033 14.8876C3.05968 14.8877 2.96904 14.8876 2.8784 14.8872C2.75453 14.8867 2.63069 14.8871 2.50682 14.8877C2.47107 14.8873 2.43531 14.887 2.39846 14.8866C2.15869 14.8889 1.99665 14.9406 1.78103 15.0457C1.73463 15.0612 1.68822 15.0767 1.64041 15.0926C1.58491 15.204 1.58491 15.204 1.54666 15.327C1.53119 15.3734 1.51572 15.4198 1.49978 15.4676C1.49495 15.5531 1.49282 15.6387 1.49223 15.7244C1.49178 15.7769 1.49133 15.8295 1.49086 15.8837C1.49057 15.9689 1.49057 15.9689 1.49026 16.0559C1.48986 16.1436 1.48986 16.1436 1.48945 16.233C1.48901 16.3568 1.48868 16.4805 1.48852 16.6043C1.48832 16.731 1.48766 16.8577 1.4866 16.9844C1.48517 17.1671 1.48468 17.3498 1.4844 17.5325C1.48382 17.589 1.48324 17.6456 1.48265 17.7038C1.48107 18.0828 1.48107 18.0828 1.64041 18.4207C1.87851 18.6356 2.02711 18.662 2.33948 18.6616C2.39764 18.6618 2.39764 18.6618 2.45697 18.662C2.58763 18.6624 2.7183 18.6624 2.84896 18.6625C2.94234 18.6627 3.03573 18.6629 3.12911 18.6632C3.33058 18.6637 3.53206 18.6641 3.73354 18.6644C4.052 18.6649 4.37047 18.6659 4.68893 18.6669C5.59466 18.6698 6.50038 18.6724 7.40611 18.6739C7.90604 18.6748 8.40597 18.6761 8.9059 18.678C9.1706 18.679 9.43529 18.6797 9.69999 18.6798C9.94896 18.6799 10.1979 18.6807 10.4469 18.6819C10.5383 18.6823 10.6298 18.6824 10.7212 18.6822C10.8459 18.682 10.9706 18.6827 11.0954 18.6836C11.1316 18.6833 11.1679 18.6831 11.2053 18.6828C11.4153 18.6854 11.5518 18.712 11.7185 18.8426C11.791 18.9875 11.7792 19.1048 11.7654 19.2645C11.6951 19.3787 11.6951 19.3787 11.5779 19.452C11.4542 19.452 11.3304 19.452 11.2029 19.452C11.2029 20.3492 11.2029 21.2463 11.2029 22.1707C11.4511 22.1685 11.6994 22.1664 11.9551 22.1641C12.1123 22.1632 12.2696 22.1623 12.4268 22.1616C12.6764 22.1604 12.9259 22.1591 13.1755 22.1566C13.3767 22.1545 13.5779 22.1534 13.7791 22.1529C13.8559 22.1526 13.9327 22.1519 14.0094 22.1509C14.117 22.1495 14.2244 22.1493 14.332 22.1494C14.4238 22.1488 14.4238 22.1488 14.5174 22.1482C14.6968 22.1744 14.7515 22.2154 14.8592 22.3582C14.8841 22.452 14.8841 22.452 14.8826 22.5457C14.8833 22.5921 14.8833 22.5921 14.8841 22.6395C14.8467 22.7801 14.7862 22.8315 14.6717 22.9207C14.545 22.9392 14.4374 22.9463 14.3108 22.9448C14.2742 22.9452 14.2377 22.9455 14.2 22.9458C14.0774 22.9467 13.9548 22.9462 13.8322 22.9457C13.7444 22.9461 13.6565 22.9465 13.5687 22.9469C13.3299 22.948 13.0912 22.9479 12.8525 22.9474C12.6533 22.9472 12.4541 22.9475 12.2549 22.9479C11.785 22.9487 11.3151 22.9485 10.8452 22.9477C10.3602 22.9469 9.87525 22.9477 9.39026 22.9492C8.97406 22.9504 8.55785 22.9508 8.14164 22.9504C7.89298 22.9502 7.64433 22.9503 7.39566 22.9512C7.16185 22.9521 6.92806 22.9518 6.69424 22.9507C6.60839 22.9504 6.52254 22.9506 6.4367 22.9512C6.31955 22.9519 6.2025 22.9512 6.08535 22.9502C6.05132 22.9507 6.0173 22.9513 5.98224 22.9518C5.80089 22.9485 5.72388 22.925 5.58025 22.8105C5.48416 22.6863 5.48416 22.6863 5.45486 22.5457C5.49548 22.3508 5.56038 22.2914 5.71853 22.1707C5.87242 22.1373 6.02281 22.1411 6.17974 22.1441C6.22595 22.1441 6.27216 22.144 6.31977 22.144C6.47223 22.1442 6.62462 22.146 6.77707 22.1478C6.88288 22.1483 6.98869 22.1486 7.0945 22.1488C7.37278 22.1497 7.65103 22.152 7.9293 22.1546C8.26329 22.1574 8.59729 22.1585 8.93129 22.1599C9.43852 22.1622 9.94568 22.1666 10.4529 22.1707C10.4529 21.2735 10.4529 20.3763 10.4529 19.452C10.1955 19.4529 9.9381 19.4539 9.6729 19.4549C8.82255 19.458 7.9722 19.4601 7.12185 19.4617C6.60627 19.4626 6.09069 19.464 5.57512 19.4661C5.12564 19.468 4.67617 19.4692 4.22668 19.4696C3.98878 19.4699 3.75088 19.4704 3.51298 19.4718C3.28882 19.4731 3.06468 19.4735 2.84053 19.4732C2.75848 19.4732 2.67644 19.4736 2.5944 19.4743C2.01842 19.4791 1.54947 19.4389 1.11325 19.0264C0.716894 18.5921 0.688401 18.1579 0.688808 17.5905C0.688626 17.5279 0.688422 17.4653 0.6882 17.4026C0.687851 17.2717 0.687862 17.1409 0.68811 17.01C0.688381 16.8433 0.687588 16.6766 0.6865 16.5099C0.685805 16.3807 0.685769 16.2514 0.685915 16.1222C0.685879 16.0312 0.685232 15.9402 0.68457 15.8492C0.68722 15.3395 0.783818 14.9219 1.12478 14.5301C1.54744 14.1812 1.96026 14.101 2.50085 14.1016Z" fill="black"/>
<path d="M2.16127 7.53707C2.22046 7.53686 2.27965 7.53665 2.34064 7.53644C2.40646 7.53644 2.47227 7.53645 2.53809 7.53646C2.60791 7.53631 2.67773 7.53613 2.74755 7.53594C2.93969 7.53547 3.13183 7.5353 3.32398 7.53517C3.5311 7.53499 3.73823 7.53454 3.94536 7.53413C4.4457 7.53321 4.94605 7.53273 5.44639 7.53232C5.68201 7.53211 5.91763 7.53186 6.15325 7.53161C6.93648 7.53082 7.71972 7.53014 8.50296 7.5298C8.70621 7.52971 8.90947 7.52962 9.11272 7.52953C9.1885 7.52949 9.1885 7.52949 9.26581 7.52946C10.0842 7.52907 10.9026 7.52788 11.721 7.52636C12.5612 7.52481 13.4014 7.52396 14.2416 7.52381C14.7134 7.52371 15.1851 7.5233 15.6569 7.52211C16.0586 7.52109 16.4604 7.52071 16.8621 7.52117C17.0671 7.52138 17.272 7.52129 17.4769 7.52038C17.6647 7.51955 17.8525 7.5196 18.0403 7.52033C18.108 7.52044 18.1758 7.52024 18.2435 7.51968C18.8082 7.51533 19.2243 7.60414 19.641 7.99875C20.0195 8.43544 20.0239 8.90734 20.0238 9.45724C20.0239 9.56175 20.0248 9.66624 20.0257 9.77075C20.0258 9.83743 20.0259 9.90411 20.0259 9.97079C20.0261 10.0312 20.0263 10.0915 20.0265 10.1537C20.0159 10.2989 20.0012 10.3771 19.9214 10.4965C19.7959 10.5941 19.7284 10.59 19.5669 10.5844C19.4057 10.5434 19.4057 10.5434 19.3265 10.468C19.2424 10.3143 19.2478 10.1956 19.2477 10.021C19.2469 9.95471 19.2461 9.88846 19.2453 9.8222C19.2448 9.71853 19.2446 9.61486 19.2447 9.51119C19.2445 9.41058 19.2432 9.31003 19.2419 9.20944C19.2418 9.14951 19.2417 9.08958 19.2416 9.02783C19.2087 8.78537 19.1183 8.60731 18.9341 8.43985C18.7616 8.33973 18.6208 8.3343 18.4255 8.33408C18.3381 8.33381 18.3381 8.33381 18.249 8.33353C18.184 8.33357 18.1191 8.33361 18.0541 8.33365C17.9853 8.33353 17.9166 8.33339 17.8478 8.33323C17.6584 8.33285 17.469 8.33277 17.2796 8.33274C17.0755 8.33265 16.8714 8.3323 16.6673 8.33198C16.2209 8.33134 15.7744 8.33106 15.3279 8.33085C15.0493 8.33072 14.7706 8.33053 14.4919 8.33031C13.7207 8.32974 12.9495 8.32926 12.1783 8.3291C12.1289 8.32909 12.0796 8.32908 12.0287 8.32907C11.9544 8.32906 11.9544 8.32906 11.8787 8.32904C11.7784 8.32902 11.6781 8.329 11.5778 8.32898C11.5032 8.32896 11.5032 8.32896 11.427 8.32895C10.6206 8.32876 9.81423 8.32794 9.00783 8.32685C8.18034 8.32574 7.35285 8.32515 6.52535 8.3251C6.06057 8.32506 5.5958 8.32479 5.13102 8.32394C4.73529 8.32322 4.33957 8.32297 3.94384 8.32336C3.74188 8.32355 3.53992 8.3235 3.33796 8.32284C3.1531 8.32225 2.96826 8.3223 2.78341 8.32287C2.7165 8.32296 2.6496 8.32282 2.58269 8.32241C2.49178 8.32189 2.40086 8.32232 2.30995 8.3228C2.25944 8.32278 2.20893 8.32275 2.15689 8.32272C1.93097 8.35064 1.77922 8.43184 1.62547 8.59805C1.50731 8.7731 1.49327 8.90484 1.4912 9.11115C1.4906 9.16342 1.49 9.21569 1.48938 9.26955C1.48903 9.32609 1.48868 9.38263 1.48833 9.44088C1.48795 9.4991 1.48757 9.55732 1.48718 9.6173C1.48653 9.74067 1.48602 9.86404 1.48566 9.98742C1.48525 10.1135 1.48427 10.2396 1.48278 10.3656C1.48077 10.5476 1.48002 10.7296 1.47954 10.9116C1.47872 10.9677 1.4779 11.0237 1.47705 11.0815C1.4779 11.4089 1.50808 11.6255 1.687 11.9027C1.94226 12.1006 2.19879 12.097 2.51098 12.0961C2.55197 12.0961 2.59296 12.0962 2.6352 12.0963C2.77281 12.0964 2.91041 12.0963 3.04802 12.0961C3.14657 12.0962 3.24512 12.0963 3.34368 12.0964C3.55602 12.0966 3.76837 12.0967 3.98071 12.0967C4.3163 12.0968 4.65189 12.0974 4.98748 12.0981C5.04409 12.0982 5.10069 12.0983 5.15901 12.0985C5.27476 12.0987 5.39051 12.099 5.50625 12.0992C6.28766 12.1009 7.06906 12.1021 7.85046 12.102C8.37744 12.1019 8.9044 12.1027 9.43137 12.1044C9.71034 12.1052 9.9893 12.1057 10.2683 12.1051C10.5305 12.1045 10.7928 12.1051 11.055 12.1065C11.1514 12.1068 11.2478 12.1067 11.3441 12.1062C11.4754 12.1055 11.6067 12.1063 11.738 12.1075C11.7764 12.1069 11.8147 12.1064 11.8542 12.1059C12.0376 12.109 12.1215 12.1196 12.2575 12.2472C12.3433 12.3992 12.3569 12.4808 12.3276 12.6527C12.2401 12.7607 12.1703 12.8252 12.0464 12.8871C11.9175 12.8918 11.7899 12.8936 11.661 12.8934C11.6207 12.8935 11.5803 12.8936 11.5388 12.8937C11.4028 12.894 11.2669 12.894 11.1309 12.8939C11.0338 12.8941 10.9366 12.8942 10.8395 12.8944C10.5749 12.8948 10.3102 12.8949 10.0456 12.895C9.82479 12.895 9.60394 12.8952 9.3831 12.8953C8.86183 12.8957 8.34056 12.8958 7.81929 12.8958C7.28181 12.8958 6.74433 12.8963 6.20685 12.897C5.74546 12.8976 5.28407 12.8979 4.82268 12.8978C4.5471 12.8978 4.27153 12.898 3.99595 12.8985C3.73648 12.8989 3.47701 12.8989 3.21754 12.8986C3.12249 12.8985 3.02745 12.8986 2.93241 12.8989C2.80222 12.8993 2.67206 12.8991 2.54188 12.8987C2.50464 12.8989 2.4674 12.8992 2.42904 12.8994C1.95654 12.8966 1.54839 12.8077 1.17137 12.5121C0.849443 12.1719 0.698736 11.8064 0.694324 11.3406C0.693723 11.285 0.693121 11.2295 0.692501 11.1722C0.692155 11.1125 0.691809 11.0528 0.691452 10.9912C0.691261 10.9606 0.69107 10.9299 0.690873 10.8982C0.689897 10.7357 0.689226 10.5731 0.688785 10.4105C0.688269 10.2439 0.686657 10.0773 0.684793 9.91077C0.683558 9.78151 0.683174 9.65226 0.683006 9.52299C0.682672 9.43215 0.681436 9.34131 0.680176 9.25048C0.68154 8.68893 0.808247 8.28335 1.20048 7.87625C1.4867 7.6234 1.78614 7.53769 2.16127 7.53707Z" fill="black"/>
<path d="M20.4109 12.1972C20.6283 12.3248 20.8467 12.4503 21.0661 12.5744C21.1099 12.5993 21.1099 12.5993 21.1545 12.6246C21.3267 12.7222 21.3267 12.7222 21.4992 12.8193C22.1403 13.179 22.7304 13.5219 23.08 14.1876C23.0957 14.2164 23.1114 14.2452 23.1275 14.2748C23.3953 14.8191 23.3579 15.4764 23.3562 16.0686C23.3562 16.1472 23.3563 16.2257 23.3564 16.3042C23.3566 16.4677 23.3564 16.6311 23.3559 16.7945C23.3554 17.0023 23.3557 17.2101 23.3563 17.4179C23.3566 17.5797 23.3565 17.7415 23.3563 17.9033C23.3562 17.9799 23.3563 18.0564 23.3565 18.133C23.3584 18.977 23.3026 19.7974 22.6875 20.4395C22.419 20.7011 22.1281 20.8888 21.8027 21.0724C21.754 21.1003 21.7053 21.1282 21.6551 21.157C21.5519 21.2162 21.4486 21.2751 21.3452 21.334C21.1373 21.4525 20.9302 21.5725 20.7231 21.6924C20.5702 21.7808 20.4171 21.8689 20.2639 21.9569C20.0724 22.067 19.8815 22.178 19.6911 22.2898C19.6474 22.3153 19.6037 22.3408 19.5586 22.3671C19.4781 22.414 19.3978 22.4612 19.3176 22.5088C18.8804 22.7624 18.4352 22.9287 17.9267 22.9356C17.8483 22.9375 17.8483 22.9375 17.7683 22.9393C17.3167 22.9188 16.9216 22.7569 16.5351 22.5343C16.4912 22.5097 16.4474 22.4851 16.4021 22.4597C16.2624 22.3809 16.1233 22.3011 15.9843 22.2208C15.9391 22.1947 15.8938 22.1686 15.8472 22.1417C15.6152 22.0075 15.3838 21.8723 15.1529 21.7363C14.9469 21.6152 14.7399 21.4961 14.5321 21.3781C14.4771 21.3468 14.4222 21.3155 14.3672 21.2842C14.2629 21.2248 14.1584 21.1657 14.0538 21.1069C13.3223 20.6896 12.7686 20.2019 12.5353 19.3626C12.4987 19.1863 12.5018 19.01 12.502 18.8306C12.5017 18.788 12.5013 18.7454 12.501 18.7015C12.5001 18.5615 12.4999 18.4214 12.4998 18.2813C12.4995 18.1833 12.4992 18.0852 12.4989 17.9872C12.4983 17.7819 12.4982 17.5766 12.4982 17.3712C12.4982 17.1093 12.4969 16.8475 12.4953 16.5856C12.4943 16.3831 12.4941 16.1806 12.4942 15.9781C12.494 15.8817 12.4936 15.7852 12.4929 15.6887C12.4873 14.8771 12.5817 14.19 13.1696 13.5793C13.4107 13.3428 13.6768 13.1857 13.9716 13.0245C14.0528 12.9789 14.134 12.9334 14.2152 12.8877C14.2979 12.8413 14.3807 12.7951 14.4636 12.7489C14.7098 12.6107 14.9529 12.4674 15.1963 12.3243C15.5733 12.1041 15.951 11.8848 16.33 11.6681C16.3732 11.6431 16.4164 11.6181 16.4608 11.5924C17.966 10.7364 19.0546 11.3991 20.4109 12.1972ZM16.5439 12.4151C16.4639 12.4621 16.3839 12.509 16.3039 12.5559C16.2212 12.6043 16.1387 12.653 16.0561 12.7017C15.8417 12.8279 15.6261 12.9518 15.4104 13.0757C15.2574 13.1637 15.1047 13.252 14.952 13.3404C14.7784 13.4408 14.6044 13.5403 14.4298 13.6388C13.85 13.9679 13.4827 14.257 13.2656 14.9083C13.2603 15.042 13.2577 15.1746 13.2573 15.3084C13.257 15.3493 13.2567 15.3901 13.2564 15.4322C13.2554 15.5677 13.2549 15.7032 13.2544 15.8387C13.2542 15.885 13.254 15.9313 13.2538 15.9791C13.2529 16.2246 13.2522 16.4701 13.2518 16.7156C13.2512 16.9685 13.2496 17.2213 13.2478 17.4742C13.2465 17.6692 13.2461 17.8642 13.246 18.0592C13.2457 18.1524 13.2452 18.2455 13.2443 18.3387C13.2388 18.9701 13.2492 19.4817 13.7093 19.9618C13.9251 20.1484 14.1679 20.2831 14.4159 20.4216C14.5462 20.4949 14.6756 20.5696 14.805 20.6446C15.0111 20.7642 15.2176 20.8833 15.4242 21.002C15.6441 21.1285 15.8637 21.2555 16.083 21.3829C16.1377 21.4146 16.1924 21.4464 16.2471 21.4781C16.3502 21.5379 16.4531 21.5978 16.5561 21.6578C17.184 22.0409 17.184 22.0409 17.8916 22.1856C17.9275 22.1868 17.9635 22.1881 18.0005 22.1893C18.4609 22.1387 18.8318 21.9224 19.2246 21.6905C19.2824 21.6569 19.3403 21.6233 19.3981 21.5897C19.5449 21.5044 19.6914 21.4186 19.8378 21.3326C19.9671 21.2567 20.0967 21.1814 20.2263 21.1061C20.4127 20.9977 20.5987 20.8889 20.7846 20.7798C20.9565 20.6791 21.1293 20.5803 21.3032 20.4831C21.3436 20.4604 21.384 20.4376 21.4256 20.4142C21.4999 20.3724 21.5744 20.331 21.6493 20.2902C21.9618 20.1137 22.2373 19.8889 22.3974 19.5606C22.4151 19.5261 22.4328 19.4915 22.4511 19.4559C22.6164 18.9778 22.6076 18.4849 22.6062 17.9857C22.6062 17.9077 22.6063 17.8297 22.6064 17.7517C22.6066 17.589 22.6064 17.4264 22.6059 17.2637C22.6054 17.0564 22.6057 16.849 22.6063 16.6417C22.6066 16.4809 22.6065 16.32 22.6063 16.1592C22.6062 16.0828 22.6063 16.0064 22.6065 15.93C22.6132 15.2069 22.6132 15.2069 22.3974 14.5245C22.3718 14.4713 22.3718 14.4713 22.3456 14.417C22.1086 14.0671 21.7942 13.8694 21.4306 13.6661C21.3817 13.6382 21.3328 13.6102 21.2823 13.5814C21.1787 13.5223 21.0749 13.4633 20.971 13.4045C20.7626 13.2863 20.5553 13.1662 20.348 13.0461C20.1952 12.9577 20.0423 12.8696 19.8892 12.7817C19.6966 12.671 19.5045 12.5594 19.3128 12.447C19.2258 12.3963 19.1388 12.3457 19.0517 12.295C19.013 12.2721 18.9743 12.2491 18.9344 12.2255C18.6133 12.0395 18.2898 11.8883 17.9121 11.8878C17.8697 11.8869 17.8272 11.886 17.7835 11.885C17.3256 11.9522 16.9359 12.1816 16.5439 12.4151Z" fill="black"/>
<path d="M18.1879 14.0163C18.2897 14.1062 18.373 14.1896 18.4603 14.2917C18.4844 14.3191 18.5085 14.3464 18.5333 14.3746C18.5824 14.4308 18.6312 14.4872 18.6797 14.5439C18.7453 14.6198 18.8125 14.6939 18.8806 14.7676C19.1975 15.1246 19.1975 15.1246 19.2133 15.3464C19.1369 15.6628 18.8707 15.8065 18.6235 15.9953C18.4736 16.1118 18.3309 16.2353 18.1879 16.3601C18.262 16.5422 18.3861 16.6643 18.5239 16.7997C18.5608 16.8366 18.5608 16.8366 18.5985 16.8742C18.6798 16.9551 18.7613 17.0357 18.8429 17.1163C18.8994 17.1725 18.9559 17.2288 19.0124 17.2851C19.161 17.433 19.3098 17.5807 19.4587 17.7284C19.6973 17.965 19.9356 18.2018 20.1738 18.4389C20.2571 18.5217 20.3406 18.6044 20.4241 18.6871C20.4749 18.7376 20.5258 18.7882 20.5767 18.8388C20.6 18.8618 20.6234 18.8849 20.6475 18.9086C20.8548 19.1152 20.8548 19.1152 20.8715 19.3073C20.8582 19.4736 20.8446 19.532 20.7191 19.6413C20.5472 19.6891 20.4424 19.7133 20.2794 19.6336C20.138 19.5345 20.0184 19.4217 19.8977 19.2992C19.8729 19.2745 19.8482 19.2498 19.8228 19.2244C19.7416 19.1432 19.6608 19.0617 19.58 18.9801C19.5236 18.9236 19.4672 18.867 19.4108 18.8105C19.2627 18.662 19.1149 18.5133 18.9672 18.3645C18.8162 18.2126 18.6649 18.0609 18.5137 17.9092C18.2173 17.6119 17.9213 17.3142 17.6254 17.0163C17.4641 17.0701 17.4242 17.1219 17.3178 17.2507C17.1291 17.4779 17.1291 17.4779 16.9281 17.4997C16.7816 17.4851 16.7816 17.4851 16.6732 17.4089C16.5741 17.2694 16.5473 17.188 16.5473 17.0163C16.6036 16.9036 16.6544 16.83 16.7348 16.7351C16.7753 16.6869 16.7753 16.6869 16.8166 16.6378C17.0401 16.3822 17.2776 16.1407 17.517 15.9001C17.5465 15.8704 17.576 15.8407 17.6064 15.81C18.0893 15.3288 18.0893 15.3288 18.2348 15.3288C18.1072 15.131 18.1072 15.131 17.9535 14.9538C17.6218 14.9803 17.3259 15.3327 17.1153 15.5702C16.3516 16.4776 16.0298 17.5711 16.0785 18.7507C16.0885 18.8465 16.0992 18.9422 16.1107 19.0378C16.1282 19.2006 16.1291 19.2575 16.0639 19.4128C15.9508 19.5385 15.9045 19.5463 15.7328 19.5622C15.5629 19.5476 15.5629 19.5476 15.4622 19.4681C15.1599 19.0919 15.2486 18.3527 15.2921 17.8893C15.3764 17.157 15.572 16.5099 15.9486 15.8741C16.0556 15.7006 16.0556 15.7006 16.0554 15.5055C15.9724 15.4081 15.887 15.3177 15.7943 15.2292C15.5711 15.0152 15.5711 15.0152 15.5453 14.822C15.5629 14.6726 15.5629 14.6726 15.6625 14.5378C15.7973 14.4382 15.7973 14.4382 15.9291 14.403C16.1233 14.4487 16.221 14.5447 16.3631 14.6808C16.4512 14.7642 16.5427 14.836 16.641 14.9069C16.6712 14.878 16.7013 14.8491 16.7324 14.8192C17.7316 13.8827 17.7316 13.8827 18.1879 14.0163Z" fill="black"/>
<path d="M3.49242 9.81837C3.54487 9.81784 3.59731 9.81731 3.65134 9.81677C3.73733 9.81734 3.73733 9.81734 3.82506 9.81792C3.91586 9.81743 3.91586 9.81743 4.0085 9.81692C4.1744 9.81607 4.34029 9.8164 4.50619 9.817C4.67984 9.81747 4.85348 9.81703 5.02712 9.81674C5.31872 9.81639 5.61031 9.81684 5.90191 9.81774C6.23902 9.81876 6.5761 9.81843 6.9132 9.81739C7.20265 9.81654 7.49211 9.81642 7.78156 9.81691C7.95443 9.81721 8.12729 9.81725 8.30016 9.81663C8.49286 9.81598 8.68552 9.81687 8.87822 9.81792C8.93555 9.81754 8.99288 9.81716 9.05194 9.81677C9.13061 9.81756 9.13061 9.81756 9.21086 9.81837C9.25642 9.81844 9.30198 9.81851 9.34892 9.81859C9.50306 9.84892 9.55913 9.90894 9.65633 10.0297C9.68956 10.166 9.67226 10.2614 9.65633 10.4047C9.57141 10.53 9.52144 10.5434 9.37508 10.5922C9.29354 10.5967 9.21185 10.5985 9.13018 10.5988C9.07945 10.599 9.02872 10.5993 8.97645 10.5996C8.92078 10.5996 8.86511 10.5997 8.80775 10.5997C8.71982 10.6001 8.71982 10.6001 8.63011 10.6004C8.46924 10.601 8.30837 10.6014 8.1475 10.6016C8.04698 10.6017 7.94647 10.6019 7.84595 10.6021C7.53142 10.6027 7.21689 10.6032 6.90236 10.6034C6.53934 10.6036 6.17633 10.6044 5.81332 10.6058C5.53266 10.6068 5.25201 10.6073 4.97135 10.6073C4.80374 10.6074 4.63615 10.6076 4.46854 10.6085C4.28158 10.6094 4.09463 10.6092 3.90767 10.6089C3.82445 10.6095 3.82445 10.6095 3.73955 10.6102C3.68855 10.6099 3.63755 10.6097 3.58501 10.6094C3.51872 10.6095 3.51872 10.6095 3.45109 10.6096C3.30303 10.5886 3.21444 10.5386 3.09383 10.4516C3.02137 10.3066 3.03319 10.1893 3.04696 10.0297C3.18166 9.85324 3.27375 9.81871 3.49242 9.81837Z" fill="black"/>
<path d="M3.86807 3.24922C3.92762 3.24888 3.98717 3.24855 4.04852 3.2482C4.21153 3.24733 4.3745 3.24794 4.53751 3.24886C4.70825 3.24963 4.87899 3.24922 5.04973 3.24898C5.33645 3.24877 5.62314 3.24951 5.90985 3.25082C6.24113 3.25232 6.57237 3.25232 6.90365 3.25151C7.22258 3.25077 7.54151 3.25108 7.86045 3.25188C7.99606 3.25221 8.13167 3.25216 8.26728 3.25181C8.45671 3.25139 8.64611 3.25251 8.83554 3.2538C8.89175 3.25349 8.94795 3.25318 9.00587 3.25287C9.3855 3.25725 9.3855 3.25725 9.57412 3.36825C9.66312 3.47419 9.68739 3.51718 9.68286 3.6538C9.68292 3.68474 9.68298 3.71568 9.68304 3.74755C9.64456 3.88341 9.5771 3.93951 9.46899 4.0288C9.34908 4.0524 9.34908 4.0524 9.21102 4.05261C9.13236 4.0534 9.13236 4.0534 9.0521 4.05421C8.96611 4.05364 8.96611 4.05364 8.87838 4.05306C8.78758 4.05355 8.78758 4.05355 8.69495 4.05406C8.52904 4.05491 8.36316 4.05458 8.19725 4.05399C8.02361 4.05351 7.84997 4.05395 7.67632 4.05425C7.38472 4.05459 7.09313 4.05414 6.80153 4.05324C6.46443 4.05222 6.12735 4.05256 5.79025 4.05359C5.50079 4.05444 5.21134 4.05456 4.92188 4.05407C4.74901 4.05378 4.57616 4.05374 4.40329 4.05436C4.21059 4.055 4.01792 4.05411 3.82522 4.05306C3.76789 4.05344 3.71057 4.05382 3.6515 4.05421C3.59906 4.05368 3.54661 4.05315 3.49258 4.05261C3.44702 4.05254 3.40147 4.05247 3.35453 4.0524C3.19891 4.02177 3.14322 3.96536 3.04711 3.8413C3.01536 3.64726 3.02115 3.55291 3.12929 3.3874C3.36383 3.22005 3.58665 3.24647 3.86807 3.24922Z" fill="black"/>
<path d="M3.57291 16.4021C3.62364 16.4018 3.67437 16.4015 3.72665 16.4012C3.78231 16.4012 3.83798 16.4011 3.89534 16.4011C3.95396 16.4009 4.01258 16.4006 4.07298 16.4004C4.23385 16.3998 4.39472 16.3995 4.55559 16.3993C4.65611 16.3991 4.75662 16.3989 4.85714 16.3987C5.17167 16.3981 5.4862 16.3976 5.80073 16.3974C6.16375 16.3972 6.52676 16.3964 6.88977 16.3951C7.17043 16.394 7.45109 16.3936 7.73174 16.3935C7.89935 16.3935 8.06694 16.3932 8.23455 16.3923C8.42151 16.3914 8.60846 16.3916 8.79542 16.3919C8.87864 16.3913 8.87864 16.3913 8.96354 16.3906C9.01454 16.3909 9.06554 16.3911 9.11808 16.3914C9.18437 16.3913 9.18437 16.3913 9.252 16.3912C9.40006 16.4122 9.48866 16.4622 9.60926 16.5493C9.68172 16.6942 9.6699 16.8115 9.65613 16.9711C9.5607 17.0961 9.50457 17.1516 9.34872 17.1822C9.30316 17.1823 9.25761 17.1824 9.21067 17.1825C9.132 17.1832 9.132 17.1832 9.05175 17.1841C8.96576 17.1835 8.96576 17.1835 8.87803 17.1829C8.78723 17.1834 8.78723 17.1834 8.69459 17.1839C8.52869 17.1848 8.3628 17.1844 8.1969 17.1838C8.02325 17.1834 7.84961 17.1838 7.67597 17.1841C7.38437 17.1844 7.09278 17.184 6.80118 17.1831C6.46408 17.1821 6.12699 17.1824 5.78989 17.1834C5.50044 17.1843 5.21099 17.1844 4.92153 17.1839C4.74866 17.1836 4.5758 17.1836 4.40293 17.1842C4.21023 17.1848 4.01757 17.1839 3.82487 17.1829C3.76754 17.1833 3.71021 17.1837 3.65115 17.1841C3.5987 17.1835 3.54626 17.183 3.49223 17.1825C3.44667 17.1824 3.40111 17.1823 3.35417 17.1822C3.19848 17.1516 3.14255 17.0956 3.04676 16.9711C3.02477 16.7952 3.02185 16.6881 3.10828 16.5317C3.24828 16.3969 3.38826 16.4026 3.57291 16.4021Z" fill="black"/>
<path d="M16.0809 3.3549C16.1913 3.4974 16.2042 3.58096 16.1904 3.75773C16.1717 3.84709 16.1717 3.84709 16.1102 3.96427C15.9037 4.0795 15.6986 4.07299 15.4686 4.03459C15.3162 3.94084 15.3162 3.94084 15.2342 3.80021C15.2177 3.66318 15.2314 3.55399 15.2811 3.42521C15.4953 3.21094 15.8238 3.22897 16.0809 3.3549Z" fill="black"/>
<path d="M17.2032 9.81787C17.2515 9.81739 17.2999 9.8169 17.3497 9.81641C17.5156 9.84706 17.5712 9.89546 17.672 10.0288C17.6939 10.2048 17.6969 10.3119 17.6104 10.4683C17.4652 10.6082 17.304 10.6041 17.1096 10.6019C16.9741 10.5866 16.8873 10.5342 16.7813 10.4507C16.7089 10.3058 16.7207 10.1885 16.7345 10.0288C16.873 9.84381 16.9761 9.8156 17.2032 9.81787Z" fill="black"/>
<path d="M15.7005 9.82697C15.7492 9.82606 15.798 9.82515 15.8482 9.82422C16.0167 9.85294 16.0709 9.89918 16.1721 10.035C16.2089 10.1647 16.2022 10.2789 16.1721 10.41C16.071 10.5405 15.9993 10.5889 15.8349 10.6118C15.6388 10.6176 15.4993 10.6062 15.3284 10.5037C15.2301 10.3774 15.2349 10.3119 15.2434 10.1492C15.3102 9.86689 15.4185 9.82731 15.7005 9.82697Z" fill="black"/>
<path d="M17.3256 3.25713C17.4373 3.27965 17.4373 3.27965 17.5838 3.37633C17.6941 3.54913 17.7046 3.64065 17.6717 3.84215C17.6101 3.95641 17.6101 3.95641 17.4842 4.02965C17.2303 4.07105 17.0363 4.07485 16.8191 3.93004C16.7179 3.7695 16.6954 3.69994 16.7342 3.51402C16.8919 3.27221 17.0528 3.24206 17.3256 3.25713Z" fill="black"/>
<path d="M14.2234 3.27026C14.2591 3.27002 14.2948 3.26978 14.3316 3.26953C14.4489 3.28335 14.5242 3.31473 14.6247 3.37573C14.7223 3.50119 14.7183 3.56874 14.7126 3.73022C14.6716 3.89136 14.6716 3.89136 14.5914 3.97046C14.3966 4.08213 14.1859 4.06172 13.9685 4.03198C13.8281 3.94175 13.796 3.88343 13.737 3.73022C13.7332 3.57173 13.7801 3.50085 13.8747 3.37573C14.0205 3.27855 14.0571 3.26914 14.2234 3.27026Z" fill="black"/>
<path d="M14.2207 9.83179C14.2655 9.83058 14.3104 9.82937 14.3566 9.82812C14.5051 9.846 14.5663 9.87952 14.6719 9.98413C14.7188 10.1423 14.7188 10.1423 14.7188 10.3123C14.6359 10.4436 14.5767 10.5239 14.4375 10.5935C14.225 10.619 14.0639 10.6206 13.875 10.5144C13.7678 10.3905 13.7344 10.3353 13.7344 10.1716C13.85 9.8853 13.92 9.83662 14.2207 9.83179Z" fill="black"/>
</svg>
