<svg width="25" height="25" viewBox="0 0 25 25" fill="none" xmlns="http://www.w3.org/2000/svg">
<g clip-path="url(#clip0_19780_8161)">
<path d="M6.99455 0.207477C7.04541 0.217145 7.09626 0.226813 7.14866 0.236774C7.29511 0.264948 7.44125 0.294321 7.58736 0.324207C7.63176 0.332814 7.67617 0.341421 7.72193 0.350289C7.95117 0.399134 8.10739 0.435588 8.25188 0.634723C8.29019 0.770023 8.28264 0.88861 8.25188 1.02535C8.16338 1.15047 8.16338 1.15047 8.00774 1.22066C7.61845 1.22932 7.22901 1.12616 6.85039 1.0459C5.72946 0.808401 4.7048 0.618599 3.66814 1.23287C3.31721 1.47429 3.04271 1.74118 2.82534 2.1078C2.7991 2.15193 2.77287 2.19606 2.74584 2.24153C2.72592 2.27525 2.70599 2.30897 2.68547 2.34371C5.05647 2.61089 7.42842 2.86913 9.80083 3.12343C9.83547 3.12714 9.87011 3.13086 9.90579 3.13468C10.797 3.23022 11.6882 3.32562 12.5793 3.42097C13.0954 3.47619 13.6115 3.53142 14.1276 3.58668C14.1644 3.59062 14.2012 3.59456 14.2391 3.59862C14.6413 3.64168 15.0435 3.68475 15.4457 3.72783C15.481 3.73162 15.5163 3.7354 15.5527 3.73929C15.6937 3.7544 15.8347 3.76951 15.9757 3.78461C16.3852 3.82848 16.7947 3.87232 17.2041 3.91612C17.4884 3.94652 17.7726 3.97695 18.0569 4.00739C18.173 4.01983 18.2891 4.03225 18.4053 4.04466C18.5637 4.06158 18.7221 4.07855 18.8805 4.09553C18.9263 4.10041 18.972 4.10529 19.0192 4.11031C19.2716 4.13742 19.5235 4.16691 19.7753 4.19918C19.7592 3.9897 19.7431 3.78023 19.7265 3.56441C19.1036 3.44179 18.4808 3.31925 17.8579 3.19679C17.5514 3.13652 17.2449 3.07622 16.9384 3.01584C15.6136 2.75484 14.2887 2.49505 12.9623 2.2424C12.7853 2.20865 12.6083 2.17482 12.4313 2.14095C12.3455 2.12452 12.3455 2.12452 12.2579 2.10776C12.1442 2.08599 12.0305 2.06422 11.9168 2.04245C11.5851 1.979 11.2533 1.9162 10.9214 1.85384C10.7157 1.81504 10.5101 1.77566 10.3045 1.73612C10.2095 1.71797 10.1143 1.70007 10.0192 1.68243C9.88966 1.65841 9.76035 1.63351 9.63104 1.6084C9.59347 1.60166 9.5559 1.59491 9.5172 1.58796C9.29261 1.54316 9.14761 1.48003 8.9843 1.31832C8.91286 1.14866 8.92997 1.08781 8.99956 0.915485C9.08195 0.781207 9.08195 0.781207 9.17961 0.732379C9.55791 0.705201 9.91755 0.789956 10.287 0.863581C10.3594 0.877733 10.4318 0.891853 10.5042 0.905943C10.7009 0.944286 10.8974 0.983081 11.0939 1.02195C11.3025 1.06312 11.5111 1.10385 11.7197 1.14463C12.1174 1.22244 12.515 1.30062 12.9126 1.37893C13.3984 1.4746 13.8842 1.56985 14.3701 1.66507C14.4999 1.69053 14.6298 1.71599 14.7597 1.74145C14.8456 1.7583 14.9316 1.77515 15.0175 1.792C15.2727 1.84201 15.5278 1.89204 15.7829 1.94209C16.2999 2.04349 16.8169 2.14483 17.3339 2.24605C17.3695 2.25302 17.4051 2.25998 17.4417 2.26716C17.8526 2.34762 18.2636 2.42783 18.6747 2.50748C18.783 2.5285 18.8913 2.54959 18.9995 2.57076C19.1446 2.59913 19.2897 2.62721 19.4349 2.6552C19.4764 2.66338 19.5179 2.67156 19.5607 2.67998C19.8885 2.75844 19.8885 2.75844 20.2012 2.68536C20.2263 2.6625 20.2513 2.63963 20.2771 2.61608C20.3059 2.59045 20.3346 2.56483 20.3642 2.53842C20.3945 2.51042 20.4247 2.48242 20.4559 2.45357C20.5213 2.39493 20.5867 2.33631 20.6521 2.27771C20.6851 2.24786 20.718 2.21801 20.752 2.18726C20.8983 2.05574 21.0477 1.92805 21.1974 1.80049C21.2538 1.7523 21.3101 1.70411 21.3664 1.65592C21.422 1.60848 21.4776 1.56105 21.5331 1.51363C21.5745 1.47829 21.5745 1.47829 21.6167 1.44225C22.6851 0.530742 22.6851 0.530742 22.9827 0.515705C23.0434 0.511267 23.0434 0.511267 23.1054 0.50674C23.3161 0.553483 23.4482 0.664189 23.5839 0.830036C23.6461 0.966249 23.6671 1.10044 23.6877 1.24813C23.6948 1.29162 23.7019 1.33511 23.7092 1.37992C23.7343 1.53821 23.7567 1.69676 23.7792 1.85543C23.7889 1.92059 23.7987 1.98575 23.8086 2.05091C24.2663 5.09434 24.7948 9.06327 23.4863 11.9628C23.3051 12.0836 23.2123 12.0793 22.998 12.0605C22.882 12.0086 22.882 12.0086 22.8027 11.914C22.72 11.5981 22.7981 11.3498 22.8851 11.0412C22.9955 10.6245 23.0886 10.2097 23.1567 9.78389C23.164 9.73927 23.1714 9.69466 23.1789 9.64869C23.3213 8.72116 23.3582 7.79433 23.355 6.85726C23.3549 6.80088 23.3548 6.74451 23.3547 6.68642C23.35 5.10911 23.1912 3.57626 22.964 2.0166C22.9583 1.97692 22.9526 1.93724 22.9468 1.89636C22.92 1.69897 22.92 1.69897 22.8515 1.51363C22.5854 1.72762 22.3226 1.94275 22.0702 2.17281C21.9071 2.32134 21.7411 2.46409 21.5697 2.60311C21.528 2.63818 21.4863 2.67325 21.4434 2.70939C21.3381 2.79599 21.2303 2.87037 21.1148 2.94267C20.883 3.09762 20.6593 3.2597 20.5665 3.53228C20.5042 3.86904 20.5197 4.21038 20.5278 4.55123C20.528 4.6658 20.5279 4.78038 20.5275 4.89496C20.5273 5.20471 20.5313 5.51427 20.5361 5.82397C20.5399 6.11522 20.5406 6.40647 20.5413 6.69774C20.5428 7.27426 20.5473 7.85071 20.5538 8.4272C20.5601 8.98684 20.5649 9.54647 20.5678 10.1061C20.5681 10.158 20.5681 10.158 20.5684 10.2109C20.5693 10.3842 20.5701 10.5576 20.571 10.731C20.5781 12.1671 20.5901 13.603 20.6054 15.039C20.684 14.9688 20.7625 14.8986 20.841 14.8283C20.8847 14.7891 20.9284 14.75 20.9735 14.7097C21.5273 14.2023 21.922 13.5312 22.2686 12.8711C22.3144 12.7929 22.3144 12.7929 22.412 12.6953C22.7484 12.6627 22.7484 12.6627 22.9247 12.7685C23.0261 12.9374 23.0234 13.0909 22.998 13.2812C22.95 13.4152 22.8826 13.5322 22.8088 13.6535C22.789 13.6871 22.7692 13.7207 22.7488 13.7553C22.1726 14.7177 21.3942 15.7191 20.3613 16.2109C20.205 16.2483 20.1316 16.2437 19.9706 16.2109C19.84 16.1224 19.8261 16.0704 19.7753 15.9179C19.7707 15.7733 19.769 15.6297 19.7694 15.4851C19.7694 15.4179 19.7694 15.4179 19.7693 15.3494C19.7692 15.1987 19.7695 15.048 19.7698 14.8973C19.7698 14.7895 19.7698 14.6817 19.7697 14.5739C19.7697 14.2808 19.77 13.9876 19.7704 13.6945C19.7707 13.3883 19.7707 13.0822 19.7708 12.776C19.7709 12.262 19.7712 11.7479 19.7716 11.2339C19.7721 10.7044 19.7724 10.1749 19.7726 9.64538C19.7727 9.59644 19.7727 9.59644 19.7727 9.5465C19.7727 9.3828 19.7728 9.2191 19.7729 9.05539C19.7734 7.69707 19.7742 6.33875 19.7753 4.98043C19.7456 4.98057 19.7159 4.98072 19.6852 4.98087C19.6264 4.98104 19.6264 4.98104 19.5663 4.98122C19.5275 4.98136 19.4887 4.98151 19.4488 4.98166C19.2974 4.98001 19.1489 4.96613 18.9985 4.94983C18.9358 4.94314 18.8731 4.93645 18.8084 4.92957C18.7414 4.92218 18.6743 4.91478 18.6073 4.90737C18.5373 4.89981 18.4674 4.89227 18.3974 4.88474C18.2516 4.86899 18.1059 4.8531 17.9601 4.83708C17.7737 4.81659 17.5872 4.79641 17.4008 4.77633C17.2567 4.7608 17.1126 4.74515 16.9685 4.72946C16.8997 4.72198 16.831 4.71452 16.7622 4.70709C16.6662 4.69669 16.5701 4.68612 16.4741 4.67555C16.4196 4.66958 16.3651 4.66362 16.3089 4.65748C16.1768 4.64052 16.0481 4.61786 15.9179 4.5898C15.9189 4.6383 15.9199 4.6868 15.921 4.73677C15.9245 4.91795 15.9268 5.09912 15.9286 5.28032C15.9296 5.35851 15.9309 5.4367 15.9326 5.51488C15.935 5.62773 15.9361 5.74054 15.937 5.85342C15.938 5.88797 15.939 5.92252 15.94 5.95812C15.9402 6.25952 15.842 6.45096 15.649 6.67854C15.3031 6.92668 14.8578 6.85535 14.453 6.8359C14.4593 6.86844 14.4655 6.90099 14.4718 6.93452C14.5324 7.25863 14.5818 7.58263 14.6236 7.90963C14.6303 7.96087 14.6369 8.0121 14.6438 8.06489C14.6659 8.23505 14.6878 8.40523 14.7097 8.57541C14.7256 8.698 14.7415 8.82059 14.7574 8.94318C14.7959 9.24056 14.8343 9.53795 14.8727 9.83535C14.9174 10.1818 14.9622 10.5282 15.007 10.8745C15.087 11.4923 15.1668 12.1101 15.2465 12.7279C15.3239 13.3275 15.4014 13.927 15.479 14.5266C15.4861 14.5821 15.4861 14.5821 15.4935 14.6387C15.5006 14.6941 15.5006 14.6941 15.508 14.7506C15.5963 15.4336 15.6846 16.1166 15.7729 16.7996C15.8041 17.0412 15.8354 17.2828 15.8666 17.5244C15.9086 17.8489 15.9505 18.1735 15.9924 18.4981C16.0078 18.6175 16.0232 18.7369 16.0387 18.8563C16.0597 19.0187 16.0806 19.181 16.1015 19.3434C16.1077 19.3911 16.1139 19.4389 16.1203 19.4882C16.1259 19.5314 16.1314 19.5747 16.1371 19.6192C16.1444 19.6754 16.1444 19.6754 16.1518 19.7328C16.162 19.8242 16.162 19.8242 16.162 19.9218C16.2151 19.9193 16.2151 19.9193 16.2692 19.9167C16.7659 19.9028 16.7659 19.9028 16.9921 20.0683C17.1795 20.2967 17.2146 20.4765 17.2065 20.7637C17.2062 20.8013 17.2059 20.8388 17.2057 20.8774C17.2046 20.9963 17.2021 21.1152 17.1996 21.2341C17.1987 21.3151 17.1978 21.3961 17.197 21.4771C17.1948 21.6748 17.1915 21.8725 17.1874 22.0703C17.2363 22.0691 17.2852 22.068 17.3356 22.0668C17.4012 22.0659 17.4667 22.065 17.5323 22.0642C17.5963 22.063 17.6603 22.0619 17.7262 22.0607C17.9488 22.0717 18.17 22.0923 18.3467 22.2381C18.5312 22.4925 18.5615 22.6328 18.5594 22.9419C18.5593 22.9986 18.5593 22.9986 18.5592 23.0565C18.5589 23.1774 18.5583 23.2983 18.5577 23.4191C18.5574 23.501 18.5572 23.5829 18.557 23.6648C18.5565 23.8657 18.5556 24.0666 18.5546 24.2675C18.6031 24.2673 18.6031 24.2673 18.6526 24.2671C19.4387 24.2639 20.2247 24.2615 21.0108 24.2599C21.391 24.2592 21.7711 24.2582 22.1512 24.2565C22.4825 24.255 22.8138 24.2541 23.1451 24.2538C23.3205 24.2536 23.496 24.2531 23.6714 24.252C23.8672 24.2509 24.0629 24.2508 24.2586 24.2509C24.317 24.2504 24.3753 24.2499 24.4355 24.2493C24.5153 24.2496 24.5153 24.2496 24.5967 24.2499C24.6662 24.2497 24.6662 24.2497 24.737 24.2495C24.8746 24.2708 24.9179 24.3035 24.9999 24.414C25.0194 24.5193 25.0194 24.5193 25.0182 24.6337C25.0186 24.6715 25.019 24.7093 25.0194 24.7482C24.9938 24.8867 24.9696 24.9189 24.8534 25C24.7154 25.0143 24.5881 25.0196 24.45 25.0184C24.3872 25.0187 24.3872 25.0187 24.3232 25.019C24.1817 25.0196 24.0403 25.0191 23.8988 25.0186C23.7969 25.0187 23.695 25.019 23.593 25.0193C23.3119 25.0199 23.0309 25.0196 22.7498 25.0191C22.447 25.0188 22.1443 25.0193 21.8415 25.0197C21.2824 25.0203 20.7232 25.0202 20.1641 25.0198C19.6476 25.0195 19.1311 25.0194 18.6146 25.0196C18.5804 25.0196 18.5461 25.0196 18.5109 25.0196C18.372 25.0196 18.2331 25.0197 18.0942 25.0197C16.7903 25.0202 15.4865 25.0198 14.1827 25.019C13.0236 25.0183 11.8645 25.0184 10.7054 25.0191C9.40401 25.0198 8.10262 25.0201 6.80124 25.0197C6.66258 25.0196 6.52393 25.0196 6.38527 25.0196C6.35113 25.0195 6.31699 25.0195 6.28181 25.0195C5.76556 25.0194 5.24931 25.0196 4.73306 25.0199C4.14623 25.0203 3.55941 25.0202 2.97258 25.0194C2.67292 25.0191 2.37327 25.0189 2.07362 25.0194C1.79966 25.0198 1.52572 25.0196 1.25176 25.0188C1.1523 25.0186 1.05284 25.0187 0.953379 25.0191C0.818869 25.0195 0.684391 25.0191 0.549882 25.0184C0.51067 25.0187 0.471458 25.0191 0.431058 25.0194C0.170494 25.0168 0.170494 25.0168 0.0491646 24.9321C-0.0159611 24.8281 -0.0196091 24.756 -0.0183868 24.6337C-0.0187645 24.596 -0.0191422 24.5582 -0.0195312 24.5193C-7.62939e-05 24.414 -7.62939e-05 24.414 0.049324 24.3276C0.204817 24.2314 0.369417 24.2524 0.546188 24.2584C0.582789 24.259 0.61939 24.2597 0.657101 24.2604C0.747302 24.2621 0.837484 24.2647 0.927658 24.2675C0.933842 24.2385 0.940026 24.2095 0.946398 24.1796C1.02801 23.8264 1.13567 23.4852 1.25038 23.1416C1.26661 23.0929 1.28284 23.0442 1.29956 22.994C1.36777 22.7896 1.43623 22.5854 1.50537 22.3814C1.55619 22.2311 1.60628 22.0806 1.65627 21.9301C1.67208 21.884 1.68789 21.838 1.70418 21.7906C1.71838 21.7475 1.73257 21.7045 1.7472 21.6601C1.75988 21.6225 1.77255 21.5849 1.78562 21.5462C1.81087 21.4128 1.79546 21.3212 1.75774 21.1914C1.67656 21.087 1.67656 21.087 1.57463 20.9899C1.1633 20.5483 1.05505 20.0592 1.0606 19.4713C1.09515 19.0013 1.24662 18.6098 1.56242 18.2617C1.58559 18.2324 1.60875 18.2031 1.63261 18.173C1.73094 18.0578 1.80546 17.9822 1.95381 17.9422C2.13447 17.9298 2.23065 17.9563 2.37114 18.0694C2.46731 18.2659 2.45878 18.3453 2.3925 18.5546C2.31148 18.6691 2.22387 18.776 2.13482 18.8842C1.90762 19.181 1.85596 19.5063 1.90422 19.873C1.99421 20.2516 2.17112 20.4847 2.49016 20.7031C2.78845 20.8844 3.12667 20.9061 3.46672 20.8496C3.97979 20.6856 4.33109 20.2648 4.69906 19.8938C4.76999 19.823 4.84096 19.7523 4.91197 19.6816C5.06014 19.5338 5.20787 19.3855 5.35529 19.237C5.54348 19.0474 5.73275 18.8589 5.92236 18.6708C6.06896 18.5251 6.21497 18.3788 6.36081 18.2323C6.43034 18.1626 6.50005 18.0931 6.56995 18.0238C7.15276 17.4613 7.15276 17.4613 7.45422 16.7251C7.4489 16.3124 7.37499 15.9975 7.09908 15.6814C6.79226 15.3943 6.47077 15.3183 6.05957 15.303C5.57831 15.3951 5.25686 15.7059 4.92699 16.0469C4.85886 16.1157 4.79074 16.1845 4.72261 16.2533C4.62847 16.3488 4.53492 16.4447 4.44135 16.5407C4.27621 16.7098 4.11007 16.8779 3.94405 17.0461C3.85593 17.1356 3.768 17.2252 3.68028 17.315C3.6408 17.3552 3.60133 17.3955 3.56066 17.437C3.52592 17.4726 3.49117 17.5082 3.45538 17.5448C3.30736 17.6856 3.18081 17.6957 2.97749 17.6923C2.88078 17.6757 2.88078 17.6757 2.75566 17.575C2.6619 17.3834 2.67777 17.2946 2.7343 17.0898C2.83071 16.9794 2.94605 16.8996 3.06461 16.8142C3.67976 16.3296 4.26802 15.8308 4.38498 15.0195C4.4507 14.4237 4.43087 13.8218 4.41131 13.2239C4.4031 12.9228 4.40369 12.6217 4.40327 12.3205C4.40117 11.7527 4.3914 11.1852 4.37873 10.6175C4.36467 9.97014 4.35938 9.32287 4.35475 8.6754C4.34505 7.34588 4.32458 6.01671 4.2968 4.68746C4.25328 4.68834 4.20976 4.68923 4.16492 4.69014C4.10779 4.69083 4.05067 4.69152 3.99181 4.69223C3.9352 4.69311 3.87859 4.694 3.82026 4.69491C3.59038 4.68408 3.49727 4.63905 3.32024 4.49215C3.11992 4.21207 3.09932 4.00399 3.11272 3.66512C3.1136 3.62241 3.11448 3.57971 3.11539 3.53571C3.11767 3.43132 3.12117 3.32696 3.12492 3.22261C3.07841 3.21894 3.07841 3.21894 3.03096 3.2152C2.88932 3.20381 2.74772 3.19185 2.60612 3.17989C2.55734 3.17605 2.50856 3.17221 2.45831 3.16825C1.90509 3.12063 1.90509 3.12063 1.66618 2.96932C1.57524 2.8228 1.59591 2.7091 1.61125 2.53902C1.67129 2.386 1.75077 2.24714 1.83403 2.10567C1.85644 2.06671 1.87885 2.02775 1.90193 1.98761C2.06181 1.71398 2.22741 1.45561 2.44133 1.22066C2.49609 1.16005 2.49609 1.16005 2.55196 1.09821C3.79851 -0.214988 5.3636 -0.108835 6.99455 0.207477ZM3.90617 3.32027C3.90486 3.41691 3.90391 3.51355 3.90312 3.61019C3.90256 3.664 3.90199 3.71782 3.90141 3.77327C3.89091 3.90203 3.89091 3.90203 3.955 3.95504C4.06217 3.95993 4.16949 3.96142 4.27677 3.96152C4.32509 3.96159 4.32509 3.96159 4.37439 3.96166C4.44265 3.9617 4.51091 3.9616 4.57917 3.9614C4.68376 3.96114 4.78835 3.9614 4.89294 3.96171C4.95916 3.96168 5.02537 3.96162 5.09159 3.96152C5.15214 3.96147 5.21268 3.96141 5.27507 3.96135C5.41642 3.96504 5.41642 3.96504 5.5175 3.90621C5.5175 3.76119 5.5175 3.61617 5.5175 3.46675C5.3314 3.44188 5.14523 3.41764 4.95903 3.39351C4.90682 3.38653 4.85461 3.37954 4.80082 3.37234C4.49966 3.33366 4.20978 3.31261 3.90617 3.32027ZM6.29875 3.56441C6.29397 3.60683 6.28918 3.64926 6.28426 3.69297C6.20922 4.27127 6.20922 4.27127 6.00578 4.49215C5.76164 4.63863 5.76164 4.63863 5.07805 4.68746C5.07805 8.02291 5.07805 11.3584 5.07805 14.7949C5.25177 14.7254 5.25177 14.7254 5.42538 14.6556C5.94944 14.4713 6.53339 14.4844 7.05025 14.6848C7.24803 14.7799 7.40786 14.8896 7.56828 15.039C7.60196 15.0701 7.63563 15.1012 7.67033 15.1332C8.0683 15.5379 8.22481 15.9991 8.23051 16.5588C8.21514 17.4921 7.66212 18.0433 7.03461 18.6632C6.96821 18.7293 6.90185 18.7954 6.83553 18.8616C6.66198 19.0346 6.488 19.2072 6.31392 19.3796C6.13592 19.5561 5.95834 19.733 5.78072 19.9099C5.43297 20.2561 5.08476 20.6018 4.73625 20.9472C4.82184 21.218 4.90749 21.4887 4.9932 21.7595C5.02224 21.8512 5.05125 21.9429 5.08025 22.0347C5.31633 22.7816 5.56021 23.5252 5.81047 24.2675C6.22942 24.2675 6.64836 24.2675 7.08 24.2675C7.08126 24.1476 7.08252 24.0276 7.08382 23.904C7.08569 23.7871 7.0879 23.6703 7.09013 23.5535C7.09151 23.4726 7.09255 23.3917 7.09323 23.3108C7.09429 23.1942 7.09657 23.0776 7.09908 22.961C7.09914 22.9251 7.0992 22.8893 7.09926 22.8523C7.1063 22.6022 7.16574 22.4579 7.32414 22.2656C7.56389 22.1058 7.81435 22.1081 8.09624 22.0916C8.13007 22.0895 8.1639 22.0874 8.19876 22.0852C8.28156 22.0801 8.36437 22.0752 8.44719 22.0703C8.44765 22.02 8.4481 21.9698 8.44857 21.918C8.45053 21.7307 8.45374 21.5435 8.45732 21.3562C8.4587 21.2753 8.45973 21.1944 8.46042 21.1135C8.46147 20.9969 8.46375 20.8803 8.46626 20.7637C8.46632 20.7279 8.46638 20.692 8.46644 20.655C8.47348 20.4054 8.53333 20.2605 8.69133 20.0683C8.86284 19.9723 9.02488 19.9542 9.21928 19.9401C9.26693 19.9365 9.31458 19.9328 9.36367 19.9291C9.39961 19.9267 9.43555 19.9243 9.47258 19.9218C9.54469 19.5836 9.59941 19.2461 9.64315 18.9031C9.64982 18.852 9.65648 18.8008 9.66334 18.7481C9.68547 18.5779 9.70735 18.4077 9.72924 18.2375C9.74511 18.115 9.761 17.9925 9.77691 17.87C9.81547 17.5726 9.85388 17.2752 9.89221 16.9778C9.93687 16.6314 9.9817 16.285 10.0265 15.9386C10.1065 15.3208 10.1863 14.7029 10.266 14.085C10.3434 13.4855 10.4209 12.8859 10.4985 12.2863C10.5966 11.5287 10.6945 10.7711 10.7924 10.0134C10.8236 9.7719 10.8549 9.53037 10.8861 9.28885C10.9282 8.96419 10.9701 8.63952 11.0119 8.31484C11.0273 8.19545 11.0427 8.07607 11.0582 7.95668C11.0792 7.79427 11.1002 7.63184 11.121 7.4694C11.1304 7.39787 11.1304 7.39787 11.1398 7.3249C11.1482 7.25985 11.1482 7.25985 11.1567 7.19349C11.1615 7.15599 11.1664 7.11849 11.1713 7.07985C11.1841 6.97443 11.1841 6.97443 11.1816 6.8359C11.1227 6.8352 11.0637 6.83451 11.003 6.8338C10.2528 6.8154 10.2528 6.8154 9.98089 6.62323C9.74029 6.34264 9.74277 6.05993 9.74056 5.70865C9.73969 5.65704 9.73881 5.60544 9.73791 5.55227C9.73527 5.3881 9.73361 5.22395 9.73198 5.05977C9.73036 4.94819 9.72867 4.83661 9.72692 4.72503C9.72278 4.4521 9.71944 4.17916 9.71672 3.90621C9.31435 3.86145 8.91196 3.81687 8.50955 3.77251C8.32268 3.75191 8.13582 3.73124 7.94897 3.71044C7.76852 3.69036 7.58806 3.67043 7.40759 3.65061C7.33886 3.64303 7.27014 3.6354 7.20143 3.62771C7.10492 3.61692 7.00838 3.60635 6.91185 3.59579C6.85698 3.58971 6.80212 3.58364 6.74559 3.57739C6.59579 3.56475 6.449 3.56208 6.29875 3.56441ZM10.498 4.00386C10.498 4.68062 10.498 5.35738 10.498 6.05465C12.0287 6.05465 13.5595 6.05465 15.1366 6.05465C15.1366 5.53902 15.1366 5.0234 15.1366 4.49215C14.5392 4.42497 14.5392 4.42497 13.9418 4.35806C13.6971 4.33071 13.4524 4.30334 13.2078 4.27578C12.3052 4.17415 11.4034 4.07722 10.498 4.00386ZM11.9628 6.88472C11.9246 7.0375 11.9084 7.1357 11.9109 7.28756C11.9119 7.34798 11.9129 7.4084 11.914 7.47066C12.1624 7.31539 12.3867 7.13743 12.5976 6.93355C12.5976 6.91744 12.5976 6.90132 12.5976 6.88472C12.3881 6.88472 12.1786 6.88472 11.9628 6.88472ZM13.623 7.03121C13.5834 7.06841 13.5438 7.10561 13.503 7.14393C13.1623 7.46229 12.8148 7.76459 12.4511 8.0566C12.3338 8.15175 12.221 8.24779 12.1093 8.34957C12.1093 8.38179 12.1093 8.41402 12.1093 8.44722C12.1887 8.51259 12.1887 8.51259 12.2937 8.57673C12.3336 8.60234 12.3734 8.62794 12.4145 8.65433C12.4578 8.68165 12.5011 8.70898 12.5457 8.73714C12.635 8.79423 12.7244 8.85132 12.8137 8.90842C12.859 8.93726 12.9044 8.96611 12.9511 8.99582C13.0787 9.07743 13.2056 9.1601 13.3321 9.24335C13.3699 9.26815 13.4077 9.29296 13.4466 9.31851C13.5184 9.36564 13.5901 9.4129 13.6617 9.4603C13.8241 9.57821 13.8241 9.57821 14.0136 9.6191C13.9848 9.10745 13.9288 8.60176 13.8621 8.09387C13.8455 7.96614 13.8295 7.83833 13.8136 7.71051C13.8031 7.62922 13.7925 7.54793 13.7819 7.46666C13.7772 7.42847 13.7725 7.39028 13.7677 7.35093C13.7554 7.26011 13.7385 7.16993 13.7206 7.08004C13.6884 7.06392 13.6562 7.04781 13.623 7.03121ZM11.6698 9.08199C11.6367 9.31621 11.6037 9.55046 11.5709 9.78473C11.5598 9.86398 11.5486 9.94323 11.5374 10.0225C11.4575 10.5869 11.388 11.1518 11.328 11.7187C11.8517 11.4665 12.356 11.1858 12.8606 10.8976C13.1291 10.7445 13.4 10.5962 13.6718 10.4492C13.6718 10.4169 13.6718 10.3847 13.6718 10.3515C13.6003 10.2933 13.6003 10.2933 13.5049 10.2378C13.4683 10.2152 13.4316 10.1926 13.3939 10.1692C13.3537 10.1448 13.3134 10.1203 13.272 10.0952C12.8552 9.83759 12.4466 9.56969 12.0406 9.29537C11.9785 9.25357 11.9785 9.25357 11.9151 9.21093C11.8783 9.18602 11.8415 9.16111 11.8036 9.13544C11.7285 9.07765 11.7285 9.07765 11.6698 9.08199ZM14.1601 11.0351C14.1034 11.0664 14.1034 11.0664 14.0456 11.0983C13.2865 11.5173 12.5273 11.936 11.7675 12.3535C11.876 12.4735 11.978 12.5395 12.1242 12.6077C12.1672 12.628 12.2101 12.6483 12.2544 12.6692C12.3012 12.6909 12.348 12.7126 12.3962 12.7349C12.497 12.7823 12.5977 12.8298 12.6985 12.8772C12.7526 12.9027 12.8068 12.9281 12.8625 12.9543C13.0499 13.0432 13.2365 13.1335 13.4229 13.2244C13.4551 13.24 13.4872 13.2557 13.5204 13.2718C13.6485 13.3341 13.7766 13.3965 13.9045 13.4591C13.994 13.5029 14.0836 13.5465 14.1732 13.59C14.2249 13.6152 14.2766 13.6404 14.3298 13.6664C14.4455 13.7272 14.4455 13.7272 14.5507 13.7207C14.5204 13.2296 14.4634 12.7436 14.3993 12.256C14.3827 12.1294 14.3667 12.0028 14.3507 11.8762C14.3402 11.7951 14.3296 11.7141 14.319 11.6331C14.3143 11.5955 14.3096 11.5579 14.3048 11.5192C14.2808 11.3411 14.2557 11.1892 14.1601 11.0351ZM11.1816 12.9882C11.0848 13.4248 11.0285 13.865 10.9722 14.3082C10.9557 14.4381 10.9388 14.5679 10.9218 14.6977C10.9111 14.7811 10.9004 14.8646 10.8897 14.948C10.8847 14.9864 10.8797 15.0248 10.8745 15.0643C10.8468 15.2857 10.8349 15.4994 10.8398 15.7226C11.1803 15.6147 11.5058 15.4846 11.8335 15.3427C11.911 15.3094 11.911 15.3094 11.9901 15.2754C12.154 15.2049 12.3178 15.1342 12.4816 15.0634C12.592 15.0159 12.7023 14.9684 12.8127 14.921C13.0153 14.8338 13.2178 14.7465 13.4203 14.6592C13.618 14.5739 13.8157 14.4889 14.0136 14.4043C13.8902 14.2618 13.7551 14.1949 13.586 14.1145C13.5287 14.0871 13.4715 14.0597 13.4125 14.0315C13.3504 14.0021 13.2883 13.9728 13.2262 13.9434C13.1629 13.9132 13.0995 13.883 13.0361 13.8527C12.9059 13.7906 12.7756 13.7286 12.6453 13.6667C12.4591 13.5781 12.2732 13.4886 12.0876 13.3989C12.0315 13.3718 11.9754 13.3448 11.9176 13.3169C11.8107 13.2652 11.7038 13.2136 11.597 13.1619C11.5493 13.139 11.5016 13.116 11.4524 13.0924C11.4105 13.0722 11.3687 13.052 11.3255 13.0312C11.2404 12.9849 11.2404 12.9849 11.1816 12.9882ZM14.5423 14.9765C14.4763 15.0055 14.4763 15.0055 14.409 15.035C14.3591 15.0567 14.3092 15.0784 14.2578 15.1008C14.2035 15.1248 14.1492 15.1489 14.0933 15.1737C14.0374 15.1981 13.9815 15.2225 13.9239 15.2477C13.7745 15.313 13.6253 15.3786 13.4762 15.4444C13.268 15.5361 13.0596 15.6272 12.8512 15.7183C12.7404 15.7669 12.6296 15.8155 12.5189 15.8643C12.1725 16.0166 11.8244 16.1643 11.4745 16.3086C11.5395 16.4385 11.5956 16.4438 11.7299 16.4955C11.7961 16.5212 11.7961 16.5212 11.8636 16.5474C11.912 16.5659 11.9604 16.5843 12.0103 16.6032C12.0857 16.6324 12.0857 16.6324 12.1626 16.6621C12.3248 16.7246 12.4871 16.7867 12.6495 16.8487C12.7546 16.8892 12.8597 16.9297 12.9648 16.9703C13.6709 17.2423 14.3789 17.5089 15.0878 17.7734C15.0401 17.3501 14.9914 16.9269 14.9413 16.5039C14.9373 16.4699 14.9333 16.4359 14.9292 16.4009C14.9044 16.1914 14.8792 15.9821 14.8532 15.7728C14.8448 15.7047 14.8366 15.6366 14.8285 15.5685C14.8171 15.4727 14.8052 15.3771 14.7931 15.2814C14.7864 15.2264 14.7797 15.1713 14.7727 15.1145C14.7595 15.053 14.7595 15.053 14.746 14.9902C14.649 14.9273 14.649 14.9273 14.5423 14.9765ZM10.6445 16.8945C10.5954 17.2628 10.5468 17.6312 10.4984 17.9996C10.4819 18.1248 10.4654 18.25 10.4487 18.3752C10.4247 18.5555 10.401 18.7359 10.3774 18.9163C10.3699 18.9719 10.3625 19.0276 10.3548 19.0849C10.3182 19.3666 10.2942 19.6378 10.3027 19.9218C11.3097 20.0061 11.9775 19.9446 12.8436 19.3786C13.0964 19.2186 13.3618 19.0821 13.626 18.9422C13.92 18.7839 14.2128 18.6242 14.5019 18.457C14.5019 18.4248 14.5019 18.3925 14.5019 18.3593C14.4528 18.3404 14.4528 18.3404 14.4028 18.3212C14.0898 18.2006 13.7768 18.08 13.4638 17.9594C13.303 17.8974 13.1423 17.8354 12.9815 17.7735C12.7952 17.7018 12.609 17.6301 12.4229 17.5582C12.3773 17.5407 12.3773 17.5407 12.3309 17.5228C11.8936 17.3541 11.4576 17.1826 11.024 17.0048C10.8402 16.9237 10.8402 16.9237 10.6445 16.8945ZM14.8689 19.1093C14.837 19.1262 14.8051 19.1431 14.7723 19.1604C14.7046 19.1964 14.637 19.2323 14.5693 19.2683C14.4665 19.323 14.3635 19.3773 14.2604 19.4316C14.1947 19.4666 14.1289 19.5016 14.0632 19.5365C14.0326 19.5526 14.0019 19.5687 13.9704 19.5853C13.7848 19.6847 13.6442 19.7877 13.4765 19.9218C14.1049 19.9218 14.7333 19.9218 15.3808 19.9218C15.3324 19.5996 15.2841 19.2773 15.2343 18.9453C15.1131 18.9453 14.9763 19.0523 14.8689 19.1093ZM9.22844 20.7031C9.22844 21.1543 9.22844 21.6054 9.22844 22.0703C11.5971 22.0703 13.9657 22.0703 16.4062 22.0703C16.4062 21.6191 16.4062 21.1679 16.4062 20.7031C14.0375 20.7031 11.6689 20.7031 9.22844 20.7031ZM3.81023 21.557C3.55299 21.6447 3.31806 21.6477 3.04863 21.64C3.00403 21.6393 2.95944 21.6387 2.91349 21.638C2.8049 21.6363 2.69637 21.6339 2.58781 21.6308C2.50874 21.8668 2.42977 22.1029 2.35089 22.3389C2.32416 22.4188 2.29741 22.4988 2.27063 22.5787C2.13105 22.9952 1.99274 23.4122 1.86054 23.8311C1.85009 23.864 1.83963 23.8969 1.82886 23.9307C1.77542 24.096 1.77542 24.096 1.75774 24.2675C2.82121 24.2675 3.88469 24.2675 4.98039 24.2675C4.88709 23.8943 4.79176 23.5324 4.67178 23.1685C4.65693 23.123 4.64208 23.0774 4.62678 23.0305C4.59578 22.9355 4.56467 22.8406 4.53348 22.7457C4.48558 22.6 4.43799 22.4542 4.39045 22.3083C4.36014 22.2156 4.32981 22.1229 4.29947 22.0302C4.28523 21.9866 4.27099 21.943 4.25631 21.8981C4.2431 21.858 4.22989 21.8179 4.21628 21.7765C4.20469 21.7412 4.1931 21.7059 4.18115 21.6695C4.15118 21.5787 4.15118 21.5787 4.10149 21.4843C3.98735 21.4843 3.91665 21.5159 3.81023 21.557ZM7.86125 22.8515C7.86125 23.3188 7.86125 23.7861 7.86125 24.2675C11.1322 24.2675 14.4032 24.2675 17.7734 24.2675C17.7734 23.8003 17.7734 23.333 17.7734 22.8515C14.5024 22.8515 11.2314 22.8515 7.86125 22.8515Z" fill="black"/>
<path d="M3.75965 18.6997C3.99285 18.8966 4.17697 19.1302 4.21074 19.4419C4.2208 19.7792 4.16884 20.0357 3.93417 20.2883C3.66504 20.5269 3.41465 20.5785 3.06537 20.5701C2.80819 20.5419 2.62882 20.4556 2.45159 20.2668C2.2184 19.9706 2.15386 19.7098 2.19715 19.3345C2.28847 19.0314 2.47323 18.8241 2.73426 18.6509C3.08459 18.4903 3.4246 18.5227 3.75965 18.6997ZM3.03943 19.3925C2.96452 19.4808 2.96452 19.4808 2.99061 19.6091C3.01636 19.7217 3.01636 19.7217 3.07606 19.7739C3.19608 19.7861 3.19608 19.7861 3.3202 19.7739C3.35242 19.7417 3.38465 19.7095 3.41785 19.6763C3.40175 19.5153 3.38745 19.4506 3.27137 19.3345C3.12787 19.3208 3.12787 19.3208 3.03943 19.3925Z" fill="black"/>
<path d="M6.76228 15.9263C6.989 16.1507 7.08187 16.3851 7.09797 16.7015C7.08553 16.9553 7.02875 17.1831 6.85421 17.3736C6.54586 17.6463 6.32659 17.6982 5.91408 17.6899C5.63383 17.6682 5.49173 17.5662 5.30964 17.3637C5.09097 17.101 5.05299 16.8972 5.05921 16.5571C5.09527 16.2675 5.25178 16.0736 5.45918 15.8775C5.87263 15.6019 6.3694 15.6107 6.76228 15.9263ZM6.05427 16.4574C5.98982 16.5057 5.92537 16.554 5.85896 16.6038C5.87747 16.7645 5.87747 16.7645 5.95662 16.8968C6.07663 16.9131 6.07663 16.9131 6.20076 16.8968C6.30952 16.7656 6.30952 16.7656 6.29231 16.6496C6.23695 16.527 6.17702 16.5049 6.05427 16.4574Z" fill="black"/>
<path d="M12.2698 4.89603C12.3133 4.8958 12.3569 4.89556 12.4017 4.89532C12.4935 4.89516 12.5852 4.8956 12.677 4.89662C12.8172 4.89793 12.9572 4.89664 13.0974 4.89508C13.1868 4.89524 13.2761 4.89555 13.3654 4.89603C13.4072 4.89553 13.4489 4.89504 13.492 4.89453C13.7054 4.89871 13.793 4.90866 13.9671 5.0434C14.0627 5.17259 14.0627 5.17259 14.0933 5.31908C14.0512 5.52114 13.9815 5.58364 13.8186 5.7097C13.6674 5.74518 13.5202 5.74396 13.3654 5.74213C13.3219 5.74236 13.2784 5.7426 13.2336 5.74284C13.1418 5.743 13.05 5.74255 12.9583 5.74153C12.8181 5.74023 12.678 5.74152 12.5378 5.74308C12.4485 5.74292 12.3592 5.74261 12.2698 5.74213C12.2281 5.74262 12.1863 5.74312 12.1433 5.74363C11.9298 5.73944 11.8422 5.7295 11.6682 5.59476C11.5725 5.46556 11.5725 5.46556 11.542 5.31908C11.6257 4.91729 11.9224 4.89192 12.2698 4.89603Z" fill="black"/>
<path d="M22.5586 3.07892C22.6776 3.15216 22.6776 3.15216 22.7539 3.27423C22.7888 3.4677 22.8075 3.58547 22.6959 3.75069C22.6062 3.84347 22.5119 3.92469 22.4121 4.00665C22.3674 4.0448 22.3227 4.08294 22.2767 4.12224C21.7721 4.54569 21.7721 4.54569 21.5332 4.54071C21.3444 4.48172 21.2856 4.42412 21.1914 4.25079C21.195 4.0343 21.2181 3.93514 21.3594 3.76842C21.4094 3.72383 21.4603 3.68017 21.5118 3.63739C21.5384 3.61446 21.5649 3.59153 21.5923 3.5679C21.6453 3.52249 21.6987 3.4775 21.7525 3.43297C21.8158 3.38047 21.878 3.32653 21.9398 3.27232C22.1435 3.10312 22.2843 3.02617 22.5586 3.07892Z" fill="black"/>
<path d="M4.57204 17.489C4.73949 17.549 4.85302 17.6581 4.97754 17.7806C5.00121 17.8038 5.02488 17.8269 5.04927 17.8507C5.20295 18.0131 5.26423 18.1372 5.27356 18.3605C5.20594 18.5355 5.15508 18.5906 4.98669 18.6748C4.80715 18.7071 4.75065 18.6859 4.58997 18.6046C4.47171 18.5024 4.47171 18.5024 4.35803 18.3849C4.32001 18.3461 4.282 18.3073 4.24283 18.2674C4.12113 18.1326 4.10348 18.0869 4.08643 17.9027C4.10168 17.7257 4.10168 17.7257 4.17493 17.6067C4.30762 17.5238 4.41376 17.4821 4.57204 17.489Z" fill="black"/>
<path d="M21.3868 10.9104C21.419 10.9104 21.4512 10.9103 21.4844 10.9103C21.6321 10.9521 21.6873 11.009 21.7774 11.1332C21.7984 11.2707 21.807 11.3839 21.8049 11.5208C21.806 11.5551 21.8072 11.5895 21.8084 11.6248C21.8078 11.8186 21.784 11.9061 21.6628 12.0592C21.5333 12.1586 21.5333 12.1586 21.3868 12.1891C21.1876 12.1476 21.1226 12.0723 20.9961 11.9145C20.9654 11.739 20.9654 11.739 20.9687 11.5483C20.9686 11.4853 20.9686 11.4224 20.9685 11.3575C21.0076 11.1095 21.1099 10.9013 21.3868 10.9104Z" fill="black"/>
</g>
<defs>
<clipPath id="clip0_19780_8161">
<rect width="25" height="25" fill="white"/>
</clipPath>
</defs>
</svg>
