<svg width="50" height="48" viewBox="0 0 50 48" fill="none" xmlns="http://www.w3.org/2000/svg">
<path fill-rule="evenodd" clip-rule="evenodd" d="M17.6084 0.057145C24.3176 -0.416355 29.6222 2.05269 33.5221 7.46427C34.1228 8.43414 34.6629 9.43711 35.1424 10.4734C35.9911 9.54752 36.8399 8.62163 37.6886 7.69574C37.417 7.03501 37.1855 6.34059 36.9942 5.61248C36.7198 2.84061 37.8965 1.00813 40.5242 0.115013C44.5943 -0.135753 46.5039 1.7739 46.2531 5.84396C45.36 8.47163 43.5275 9.64832 40.7556 9.37391C40.2463 9.26848 39.764 9.09487 39.3089 8.8531C38.1107 10.1863 36.934 11.5364 35.779 12.9039C36.7147 17.0204 36.2131 20.9554 34.2744 24.709C39.0952 29.5876 43.9368 34.4485 48.7993 39.2917C50.3189 41.2848 50.3961 43.3295 49.0308 45.4258C47.6458 47.0117 45.9291 47.5325 43.8805 46.9882C43.3853 46.8177 42.9223 46.5862 42.4917 46.2938C37.5327 41.3155 32.5561 36.3582 27.5617 31.4217C23.4562 33.5308 19.174 33.9745 14.715 32.7526C12.5059 32.0817 10.5191 31.0209 8.75457 29.5699C8.4238 29.9408 8.13446 30.3459 7.88655 30.7851C9.13129 32.0118 9.61345 33.4972 9.33325 35.241C8.45342 38.0463 6.54376 39.2615 3.60431 38.8867C0.856323 37.9647 -0.320332 36.0551 0.0743515 33.1577C1.10064 30.2428 3.12603 29.1241 6.1505 29.8014C6.52683 29.2419 6.87404 28.6632 7.19213 28.0653C2.69676 22.6976 1.67442 16.7178 4.12512 10.1262C6.85952 4.40062 11.3539 1.04427 17.6084 0.057145ZM19.3444 1.90893C26.3328 2.26414 31.078 5.69764 33.58 12.2095C32.174 13.8277 30.7467 15.4288 29.2978 17.0125C28.5297 16.7971 27.7389 16.6621 26.9252 16.6074C25.4711 16.5823 24.275 17.1225 23.3373 18.2277C22.2378 17.601 21.1577 16.9451 20.0967 16.2602C20.1063 13.8661 19.0068 12.2266 16.7982 11.3414C13.9746 10.6796 11.9878 11.6634 10.8378 14.2927C10.2591 16.3389 10.7414 18.075 12.2845 19.5008C10.9827 21.7576 9.65176 23.9951 8.29163 26.2135C4.90449 22.0086 3.9786 17.3021 5.51396 12.0937C7.98029 5.78896 12.5904 2.39403 19.3444 1.90893ZM41.5658 1.90893C43.635 2.22286 44.5416 3.4188 44.2856 5.49675C43.5867 7.12886 42.3714 7.72687 40.6399 7.29066C38.8546 6.29276 38.4495 4.88464 39.4247 3.06629C39.9939 2.38667 40.7075 2.00088 41.5658 1.90893ZM14.5993 13.1353C16.9275 12.9755 18.0656 14.0557 18.0135 16.376C17.5276 18.0171 16.4281 18.7307 14.715 18.5171C13.395 18.1223 12.6619 17.235 12.516 15.8551C12.6721 14.5238 13.3665 13.6173 14.5993 13.1353ZM34.0429 14.6399C34.7442 20.9728 32.4295 25.8916 27.0988 29.3963C22.806 31.7438 18.3695 32.0524 13.7891 30.3222C12.2815 29.685 10.9312 28.817 9.73833 27.7181C11.1657 25.3262 12.5932 22.9344 14.0206 20.5425C15.5726 20.7815 17.0001 20.4536 18.3028 19.5587C18.7567 19.1824 19.1231 18.7388 19.4023 18.2277C20.3667 18.8064 21.3313 19.3851 22.2957 19.9638C21.922 24.1423 23.8316 26.1292 28.0247 25.9242C31.1797 24.7253 32.2407 22.507 31.2074 19.2694C31.0774 18.9512 30.9038 18.6619 30.6866 18.4013C31.8723 17.1969 32.9911 15.9431 34.0429 14.6399ZM26.2886 18.5749C28.6201 18.4952 29.7196 19.6139 29.5871 21.9313C28.754 23.9703 27.3459 24.5297 25.3627 23.6095C24.1756 22.6136 23.8863 21.3983 24.4947 19.9638C24.9182 19.2618 25.5162 18.7989 26.2886 18.5749ZM33.0013 26.5607C33.8799 27.246 34.69 28.0176 35.4318 28.8755C34.199 30.1663 32.9451 31.4394 31.6703 32.6948C30.8795 31.9039 30.0886 31.113 29.2978 30.3222C30.7905 29.3117 32.0251 28.0579 33.0013 26.5607ZM36.8206 30.38C40.4373 33.823 44.0059 37.3336 47.5262 40.912C48.4572 42.6866 48.0521 44.0561 46.311 45.0207C45.3027 45.3499 44.3768 45.1957 43.5333 44.5577C40.0612 41.0856 36.5891 37.6136 33.1171 34.1415C34.375 32.9029 35.6094 31.6491 36.8206 30.38ZM4.06725 31.5374C6.39871 31.4577 7.49825 32.5764 7.36574 34.8938C6.53263 36.9328 5.1245 37.4921 3.14136 36.5719C1.95421 35.576 1.66487 34.3608 2.27334 32.9262C2.69685 32.2243 3.29482 31.7614 4.06725 31.5374Z" fill="white"/>
<path fill-rule="evenodd" clip-rule="evenodd" d="M19.2279 3.64502C22.9306 3.66307 26.1134 4.93617 28.7761 7.46432C29.2934 8.53302 28.9656 9.09238 27.7923 9.14249C26.9075 8.48997 26.0202 7.83409 25.1304 7.17497C23.225 6.06504 21.1803 5.5828 18.9964 5.72827C18.0908 5.6161 17.7629 5.11458 18.0126 4.2237C18.3412 3.85108 18.7463 3.65818 19.2279 3.64502Z" fill="white"/>
</svg>
