<svg width="40" height="40" viewBox="0 0 40 40" fill="none" xmlns="http://www.w3.org/2000/svg">
<path fill-rule="evenodd" clip-rule="evenodd" d="M9.49219 1.99219C16.4714 1.97917 23.4506 1.99219 30.4297 2.03125C32.716 2.39052 34.0832 3.70563 34.5313 5.97656C34.6086 13.4799 34.5826 20.9799 34.4531 28.4766C34.338 28.8109 34.1818 29.1234 33.9844 29.4141C31.3412 32.0573 28.6979 34.7005 26.0547 37.3438C25.6295 37.6331 25.1608 37.8154 24.6484 37.8906C19.5963 37.9427 14.5443 37.9427 9.49219 37.8906C7.20653 37.532 5.83934 36.217 5.39063 33.9453C5.33854 24.6224 5.33854 15.2995 5.39063 5.97656C5.85312 3.70402 7.22031 2.37589 9.49219 1.99219ZM13.2422 8.71094C17.7214 8.69789 22.2006 8.71094 26.6797 8.75C27.6969 9.0007 28.0224 9.61266 27.6563 10.5859C27.4108 10.9716 27.0592 11.167 26.6016 11.1719C22.1745 11.224 17.7474 11.224 13.3203 11.1719C12.2479 10.9667 11.8963 10.3548 12.2656 9.33594C12.4088 9.19274 12.5521 9.04945 12.6953 8.90625C12.8909 8.85172 13.0732 8.78664 13.2422 8.71094ZM12.9297 15.4297C17.6173 15.4166 22.3048 15.4297 26.9922 15.4688C27.8491 15.9042 28.0445 16.5423 27.5781 17.3828C27.373 17.5962 27.1255 17.7394 26.8359 17.8125C22.2526 17.8646 17.6693 17.8646 13.0859 17.8125C12.1847 17.4813 11.9113 16.8693 12.2656 15.9766C12.4563 15.7458 12.6777 15.5635 12.9297 15.4297ZM13.0859 22.0703C16.0027 22.0573 18.9194 22.0703 21.8359 22.1094C22.7372 22.4406 23.0106 23.0526 22.6563 23.9453C22.4794 24.1745 22.258 24.3438 21.9922 24.4531C18.9713 24.5052 15.9505 24.5052 12.9297 24.4531C12.0727 24.0177 11.8774 23.3796 12.3438 22.5391C12.5659 22.331 12.8132 22.1748 13.0859 22.0703ZM25.7422 27.4609C27.6695 27.4479 29.5966 27.4609 31.5234 27.5C29.0885 29.9349 26.6537 32.3698 24.2188 34.8047C24.1666 32.7734 24.1666 30.7422 24.2188 28.7109C24.4812 27.9882 24.989 27.5716 25.7422 27.4609ZM13.2422 28.7109C15.2216 28.6979 17.2007 28.7109 19.1797 28.75C20.1969 29.0007 20.5224 29.6127 20.1563 30.5859C19.9108 30.9716 19.5592 31.167 19.1016 31.1719C17.0411 31.2464 14.9838 31.2204 12.9297 31.0938C11.8888 30.4725 11.8106 29.7433 12.6953 28.9062C12.8909 28.8517 13.0732 28.7866 13.2422 28.7109Z" fill="#1868D0"/>
</svg>
