<svg width="411" height="248" viewBox="0 0 411 248" fill="none" xmlns="http://www.w3.org/2000/svg">
<g clip-path="url(#clip0_16205_12183)">
<path d="M65.4395 67.8953L65.5206 68.035L65.6813 68.0185C67.58 67.823 69.5029 67.7308 71.46 67.7308C73.4171 67.7308 75.3516 67.8231 77.2387 68.0068L77.3988 68.0224L77.4794 67.8831L84.7544 55.2993L102.185 60.9628L100.703 75.4188L100.686 75.5789L100.825 75.6601C104.175 77.6192 107.308 79.9021 110.186 82.4611L110.306 82.5681L110.453 82.5028L123.725 76.6119L134.506 91.4379L124.824 102.263L124.717 102.383L124.781 102.53C126.324 106.046 127.521 109.723 128.35 113.549L128.384 113.707L128.542 113.741L142.75 116.766V135.117L128.565 138.177L128.407 138.211L128.373 138.369C127.545 142.195 126.348 145.884 124.805 149.387L124.74 149.535L124.848 149.655L134.553 160.468L123.794 175.319L110.5 169.438L110.352 169.373L110.232 169.48C107.365 172.039 104.245 174.321 100.895 176.292L100.756 176.374L100.773 176.534L102.279 190.99L84.8584 196.676L77.5724 184.104L77.4919 183.965L77.3321 183.981C75.4194 184.165 73.4973 184.269 71.54 184.269C69.5954 184.269 67.6602 184.177 65.7499 183.993L65.5898 183.977L65.5094 184.116L58.2454 196.699L40.8139 191.035L42.2958 176.569L42.3122 176.41L42.1738 176.328C38.8349 174.367 35.7048 172.097 32.8272 169.527L32.7067 169.419L32.559 169.485L19.2865 175.388L8.49482 160.549L18.1867 149.724L18.2941 149.604L18.2293 149.457C16.6874 145.952 15.4793 142.274 14.6494 138.449L14.6152 138.291L14.4574 138.257L0.261677 135.22L0.250127 116.871L14.4471 113.821L14.6048 113.787L14.6389 113.63C15.467 109.803 16.6647 106.114 18.2076 102.611L18.2727 102.463L18.1647 102.343L8.44828 91.5292L19.2179 76.679L32.4896 82.5718L32.6376 82.6374L32.758 82.5294C35.6357 79.9479 38.7677 77.6664 42.1055 75.7059L42.2442 75.6244L42.2276 75.4644L40.7223 61.0084L58.1424 55.3237L65.4395 67.8953ZM71.5356 172.884C97.3892 172.863 118.338 151.854 118.317 125.969C118.305 100.072 97.3265 79.0932 71.4631 79.1163C45.6108 79.1361 24.6624 100.134 24.6729 126.031C24.6934 151.928 45.6735 172.905 71.5356 172.884Z" fill="url(#paint0_linear_16205_12183)" fill-opacity="0.4" stroke="url(#paint1_linear_16205_12183)" stroke-width="0.5"/>
<path d="M100.75 128.499C100.75 144.653 87.6543 157.749 71.5 157.749C55.3457 157.749 42.25 144.653 42.25 128.499C42.25 112.345 55.3457 99.249 71.5 99.249C87.6543 99.249 100.75 112.345 100.75 128.499Z" fill="url(#paint2_linear_16205_12183)" fill-opacity="0.4" stroke="url(#paint3_linear_16205_12183)" stroke-width="0.5"/>
<path d="M223.75 55.5C223.75 65.0203 215.81 72.75 206 72.75C196.19 72.75 188.25 65.0203 188.25 55.5C188.25 45.9797 196.19 38.25 206 38.25C215.81 38.25 223.75 45.9797 223.75 55.5Z" fill="url(#paint4_linear_16205_12183)" fill-opacity="0.4" stroke="url(#paint5_linear_16205_12183)" stroke-width="0.5"/>
<path d="M258.75 165C258.75 173.698 251.698 180.75 243 180.75C234.302 180.75 227.25 173.698 227.25 165C227.25 156.302 234.302 149.25 243 149.25C251.698 149.25 258.75 156.302 258.75 165Z" fill="url(#paint6_linear_16205_12183)" fill-opacity="0.4" stroke="url(#paint7_linear_16205_12183)" stroke-width="0.5"/>
<path d="M123.75 249C123.75 253.82 119.622 257.75 114.5 257.75C109.378 257.75 105.25 253.82 105.25 249C105.25 244.18 109.378 240.25 114.5 240.25C119.622 240.25 123.75 244.18 123.75 249Z" fill="url(#paint8_linear_16205_12183)" fill-opacity="0.4" stroke="url(#paint9_linear_16205_12183)" stroke-width="0.5"/>
<path d="M372.75 96.5C372.75 107.678 363.466 116.75 352 116.75C340.534 116.75 331.25 107.678 331.25 96.5C331.25 85.3219 340.534 76.25 352 76.25C363.466 76.25 372.75 85.3219 372.75 96.5Z" fill="url(#paint10_linear_16205_12183)" fill-opacity="0.4" stroke="url(#paint11_linear_16205_12183)" stroke-width="0.5"/>
<path d="M396.75 18.5C396.75 21.9347 393.746 24.75 390 24.75C386.254 24.75 383.25 21.9347 383.25 18.5C383.25 15.0653 386.254 12.25 390 12.25C393.746 12.25 396.75 15.0653 396.75 18.5Z" fill="url(#paint12_linear_16205_12183)" fill-opacity="0.4" stroke="url(#paint13_linear_16205_12183)" stroke-width="0.5"/>
<path d="M238.239 124.939L238.321 125.078L238.481 125.062C239.792 124.928 241.12 124.864 242.474 124.864C243.826 124.864 245.163 124.928 246.464 125.055L246.624 125.07L246.705 124.931L251.71 116.3L263.66 120.17L262.64 130.084L262.623 130.245L262.763 130.326C265.077 131.676 267.243 133.248 269.231 135.01L269.351 135.117L269.498 135.052L278.63 131.011L286.02 141.143L279.359 148.566L279.251 148.687L279.316 148.834C280.383 151.256 281.21 153.788 281.783 156.424L281.817 156.582L281.975 156.616L291.75 158.691V171.23L281.99 173.329L281.832 173.363L281.798 173.52C281.226 176.156 280.398 178.697 279.332 181.109L279.267 181.257L279.375 181.378L286.052 188.793L278.677 198.941L269.529 194.907L269.382 194.843L269.262 194.949C267.281 196.712 265.126 198.284 262.81 199.642L262.671 199.723L262.688 199.884L263.724 209.798L251.782 213.684L246.769 205.061L246.688 204.923L246.529 204.938C245.207 205.065 243.879 205.137 242.527 205.137C241.183 205.137 239.846 205.073 238.526 204.947L238.366 204.932L238.286 205.07L233.288 213.7L221.338 209.829L222.358 199.908L222.374 199.748L222.235 199.666C219.929 198.316 217.765 196.752 215.777 194.982L215.657 194.875L215.509 194.94L206.377 198.989L198.98 188.849L205.647 181.425L205.755 181.305L205.69 181.158C204.624 178.743 203.791 176.21 203.217 173.575L203.182 173.417L203.025 173.384L193.258 171.3L193.25 158.762L203.018 156.671L203.176 156.637L203.21 156.48C203.783 153.844 204.609 151.303 205.675 148.891L205.741 148.743L205.632 148.622L198.949 141.206L206.331 131.058L215.463 135.1L215.61 135.165L215.731 135.058C217.719 133.28 219.883 131.708 222.189 130.357L222.329 130.276L222.312 130.116L221.276 120.202L233.218 116.317L238.239 124.939ZM211.427 165.021V165.021C211.441 182.153 225.364 196.03 242.525 196.017C259.681 196.003 273.583 182.105 273.569 164.98C273.561 147.847 259.64 133.97 242.477 133.985C225.322 133.998 211.419 147.888 211.427 165.021Z" fill="url(#paint14_linear_16205_12183)" fill-opacity="0.4" stroke="url(#paint15_linear_16205_12183)" stroke-width="0.5"/>
<path d="M111.874 225.342L111.955 225.481L112.115 225.465C112.893 225.386 113.681 225.348 114.484 225.348C115.287 225.348 116.081 225.386 116.853 225.46L117.012 225.476L117.093 225.338L120.035 220.299L127.002 222.54L126.402 228.325L126.385 228.486L126.526 228.567C127.899 229.363 129.184 230.29 130.364 231.328L130.484 231.433L130.63 231.369L135.999 229.01L140.306 234.874L136.392 239.205L136.283 239.326L136.349 239.474C136.982 240.901 137.472 242.393 137.812 243.947L137.847 244.104L138.005 244.138L143.75 245.349V252.604L138.013 253.83L137.856 253.863L137.821 254.021C137.482 255.574 136.991 257.071 136.358 258.492L136.292 258.641L136.402 258.762L140.325 263.089L136.026 268.962L130.649 266.607L130.502 266.543L130.383 266.648C129.207 267.687 127.928 268.614 126.554 269.414L126.414 269.495L126.431 269.656L127.039 275.441L120.077 277.691L117.131 272.658L117.05 272.52L116.891 272.535C116.107 272.61 115.318 272.653 114.516 272.653C113.719 272.653 112.924 272.615 112.141 272.54L111.982 272.525L111.901 272.663L108.964 277.7L101.997 275.459L102.597 269.67L102.613 269.51L102.473 269.428C101.105 268.633 99.8205 267.711 98.6407 266.668L98.5208 266.562L98.3743 266.626L93.0053 268.99L88.6945 263.121L92.6119 258.79L92.721 258.669L92.6549 258.521C92.0226 257.098 91.5279 255.605 91.1873 254.053L91.1527 253.895L90.9949 253.862L85.2547 252.646L85.2501 245.391L90.9911 244.171L91.1489 244.137L91.1834 243.979C91.5232 242.426 92.0136 240.929 92.646 239.508L92.7123 239.359L92.6028 239.238L88.676 234.911L92.9783 229.038L98.3467 231.398L98.4934 231.462L98.6132 231.356C99.7931 230.308 101.077 229.382 102.446 228.586L102.586 228.504L102.569 228.343L101.961 222.559L108.923 220.31L111.874 225.342ZM95.8807 249.013V249.013L132.867 248.988L133.117 248.988C133.117 248.988 133.117 248.988 133.117 248.988C133.112 238.79 124.768 230.533 114.486 230.542C104.208 230.55 95.8762 238.815 95.8807 249.013Z" fill="url(#paint16_linear_16205_12183)" fill-opacity="0.4" stroke="url(#paint17_linear_16205_12183)" stroke-width="0.5"/>
<path d="M297.384 233.421L297.465 233.56L297.625 233.544C298.563 233.448 299.513 233.403 300.481 233.403C301.449 233.403 302.405 233.448 303.336 233.539L303.496 233.554L303.576 233.416L307.138 227.3L315.599 230.029L314.874 237.053L314.857 237.213L314.997 237.295C316.653 238.257 318.202 239.377 319.624 240.633L319.744 240.738L319.89 240.674L326.388 237.811L331.62 244.955L326.882 250.214L326.774 250.334L326.839 250.482C327.602 252.208 328.194 254.012 328.603 255.89L328.638 256.048L328.796 256.081L335.75 257.552V266.392L328.806 267.879L328.649 267.913L328.614 268.071C328.205 269.948 327.613 271.759 326.85 273.477L326.785 273.626L326.894 273.746L331.643 279L326.421 286.156L319.913 283.297L319.766 283.233L319.647 283.339C318.229 284.595 316.687 285.715 315.031 286.682L314.891 286.764L314.908 286.924L315.645 293.948L307.189 296.689L303.622 290.579L303.542 290.441L303.383 290.456C302.437 290.547 301.486 290.598 300.519 290.598C299.558 290.598 298.601 290.552 297.657 290.462L297.497 290.447L297.417 290.586L293.861 296.7L285.399 293.97L286.125 286.941L286.141 286.781L286.002 286.7C284.352 285.738 282.804 284.623 281.382 283.362L281.262 283.256L281.115 283.32L274.617 286.19L269.38 279.04L274.123 273.781L274.231 273.66L274.166 273.512C273.403 271.791 272.807 269.987 272.396 268.109L272.362 267.952L272.204 267.918L265.256 266.442L265.25 257.602L272.199 256.121L272.357 256.087L272.391 255.929C272.801 254.051 273.392 252.241 274.155 250.523L274.221 250.374L274.112 250.253L269.358 244.999L274.584 237.844L281.081 240.708L281.229 240.773L281.349 240.666C282.771 239.4 284.319 238.279 285.969 237.317L286.109 237.236L286.092 237.075L285.355 230.052L293.811 227.312L297.384 233.421ZM278.145 262.015V262.015L322.603 261.986L322.853 261.986C322.853 261.986 322.853 261.986 322.853 261.986C322.847 249.708 312.83 239.764 300.484 239.775C288.142 239.784 278.139 249.737 278.145 262.015Z" fill="url(#paint18_linear_16205_12183)" fill-opacity="0.4" stroke="url(#paint19_linear_16205_12183)" stroke-width="0.5"/>
<path d="M211.089 253.005V253.005C211.087 249.043 214.411 245.847 218.495 245.844L211.089 253.005ZM211.089 253.005C211.092 256.966 214.422 260.16 218.506 260.157C222.589 260.154 225.913 256.955 225.91 252.995M211.089 253.005L225.91 252.995M225.91 252.995C225.91 252.995 225.91 252.995 225.91 252.995L225.66 252.996L225.91 252.995ZM217.346 244.108L217.428 244.243L217.585 244.227C217.883 244.198 218.185 244.184 218.494 244.184C218.802 244.184 219.107 244.198 219.403 244.226L219.56 244.241L219.641 244.105L220.726 242.297L223.208 243.074L222.988 245.141L222.971 245.305L223.114 245.385C223.641 245.682 224.134 246.028 224.586 246.416L224.704 246.517L224.847 246.455L226.832 245.607L228.36 247.631L226.923 249.178L226.81 249.3L226.879 249.452C227.121 249.984 227.309 250.539 227.439 251.118L227.475 251.275L227.633 251.308L229.75 251.742V254.24L227.636 254.68L227.478 254.713L227.443 254.87C227.313 255.448 227.125 256.006 226.883 256.535L226.813 256.687L226.927 256.809L228.367 258.355L226.842 260.382L224.854 259.535L224.711 259.474L224.593 259.576C224.142 259.963 223.652 260.309 223.125 260.608L222.982 260.689L222.999 260.852L223.223 262.919L220.742 263.699L219.656 261.893L219.575 261.758L219.418 261.773C219.116 261.801 218.814 261.816 218.506 261.816C218.2 261.816 217.895 261.802 217.594 261.775L217.438 261.76L217.357 261.895L216.273 263.703L213.791 262.926L214.011 260.857L214.029 260.694L213.886 260.613C213.36 260.316 212.868 259.972 212.416 259.583L212.298 259.481L212.155 259.543L210.17 260.393L208.64 258.367L210.078 256.82L210.192 256.698L210.122 256.546C209.88 256.016 209.691 255.46 209.561 254.882L209.525 254.725L209.367 254.692L207.252 254.256L207.25 251.758L209.366 251.32L209.524 251.288L209.559 251.13C209.689 250.551 209.877 249.994 210.119 249.465L210.189 249.313L210.074 249.19L208.633 247.645L210.16 245.618L212.144 246.466L212.287 246.528L212.406 246.426C212.858 246.035 213.35 245.689 213.875 245.392L214.018 245.311L214.001 245.148L213.777 243.081L216.258 242.301L217.346 244.108Z" fill="url(#paint20_linear_16205_12183)" fill-opacity="0.4" stroke="url(#paint21_linear_16205_12183)" stroke-width="0.5"/>
<path d="M346.962 47.6453L347.043 47.7848L347.204 47.7683C348.769 47.6076 350.353 47.5319 351.968 47.5319C353.581 47.5319 355.177 47.6076 356.73 47.7617L356.89 47.7776L356.971 47.6382L362.956 37.3002L377.273 41.9444L376.053 53.8203L376.036 53.9805L376.175 54.0617C378.937 55.6751 381.52 57.5537 383.893 59.6594L384.013 59.7661L384.16 59.7009L395.08 54.8617L403.933 67.0201L395.969 75.9118L395.861 76.0317L395.926 76.1792C397.198 79.0734 398.184 82.1008 398.868 85.2509L398.902 85.4088L399.06 85.4424L410.75 87.9277V102.976L399.079 105.491L398.921 105.525L398.887 105.683C398.204 108.832 397.217 111.869 395.945 114.753L395.88 114.901L395.988 115.021L403.974 123.903L395.137 136.082L384.199 131.25L384.051 131.185L383.931 131.292C381.568 133.398 378.996 135.277 376.234 136.9L376.095 136.982L376.112 137.142L377.351 149.017L363.042 153.68L357.048 143.353L356.968 143.214L356.808 143.23C355.231 143.382 353.646 143.467 352.034 143.467C350.43 143.467 348.836 143.391 347.26 143.239L347.1 143.224L347.02 143.363L341.043 153.7L326.726 149.056L327.946 137.171L327.963 137.011L327.824 136.93C325.072 135.315 322.491 133.447 320.118 131.331L319.998 131.224L319.85 131.29L308.93 136.139L300.067 123.969L308.04 115.078L308.148 114.958L308.082 114.81C306.811 111.925 305.815 108.898 305.13 105.748L305.096 105.59L304.938 105.557L293.259 103.062L293.25 88.0139L304.931 85.5087L305.089 85.4749L305.123 85.3172C305.805 82.167 306.792 79.1292 308.064 76.2469L308.129 76.099L308.021 75.9788L300.028 67.0956L308.873 54.9167L319.792 59.7577L319.94 59.8232L320.061 59.7154C322.432 57.591 325.014 55.7115 327.766 54.0981L327.905 54.0167L327.888 53.8565L326.649 41.9806L340.958 37.3186L346.962 47.6453ZM315.087 95.5242V95.5243C315.103 115.909 331.642 132.421 352.029 132.404C372.409 132.388 388.923 115.851 388.906 95.4757C388.898 75.0905 372.359 58.5765 351.972 58.5949C331.593 58.6113 315.078 75.1399 315.087 95.5242Z" fill="url(#paint22_linear_16205_12183)" fill-opacity="0.4" stroke="url(#paint23_linear_16205_12183)" stroke-width="0.5"/>
<path d="M388.232 3.45409L388.314 3.59149L388.472 3.57546C388.97 3.52523 389.475 3.50155 389.99 3.50155C390.504 3.50155 391.013 3.52524 391.507 3.57342L391.665 3.58888L391.746 3.45156L393.605 0.298723L397.956 1.68456L397.577 5.30131L397.56 5.46319L397.702 5.54418C398.581 6.04883 399.404 6.63647 400.16 7.29514L400.279 7.39893L400.424 7.33588L403.818 5.85896L406.504 9.48225L404.035 12.1897L403.924 12.3108L403.991 12.4603C404.396 13.365 404.71 14.3113 404.928 15.296L404.962 15.4538L405.121 15.4868L408.75 16.2445V20.7253L405.126 21.4924L404.968 21.5257L404.934 21.683C404.716 22.6676 404.402 23.6168 403.998 24.5181L403.93 24.6681L404.041 24.7893L406.517 27.494L403.835 31.1231L400.436 29.6485L400.291 29.5855L400.172 29.6897C399.419 30.3486 398.6 30.9362 397.72 31.444L397.579 31.5252L397.596 31.6869L397.98 35.3036L393.633 36.695L391.771 33.5455L391.691 33.4088L391.533 33.4238C391.029 33.4715 390.524 33.4981 390.011 33.4981C389.5 33.4981 388.991 33.4742 388.489 33.4268L388.331 33.4119L388.25 33.5489L386.394 36.7012L382.044 35.3154L382.422 31.6959L382.439 31.5344L382.299 31.4533C381.422 30.948 380.599 30.3637 379.844 29.7022L379.725 29.5978L379.579 29.6611L376.186 31.1412L373.496 27.5145L375.968 24.807L376.079 24.6858L376.011 24.5361C375.607 23.6342 375.29 22.688 375.072 21.7036L375.037 21.5461L374.879 21.513L371.253 20.7523L371.25 16.2715L374.877 15.5077L375.035 15.4745L375.069 15.3169C375.287 14.332 375.601 13.3826 376.006 12.482L376.073 12.3319L375.962 12.2106L373.483 9.50572L376.167 5.87643L379.561 7.35383L379.707 7.41723L379.826 7.31233C380.581 6.64807 381.403 6.06025 382.28 5.55556L382.421 5.47435L382.404 5.31248L382.02 1.69576L386.367 0.304615L388.232 3.45409ZM377.943 18.5077V18.5078L401.805 18.4924L402.055 18.4923C402.055 18.4923 402.055 18.4922 402.055 18.4922C402.052 11.9469 396.645 6.6523 389.991 6.65821C383.339 6.66349 377.94 11.9627 377.943 18.5077Z" fill="url(#paint24_linear_16205_12183)" fill-opacity="0.4" stroke="url(#paint25_linear_16205_12183)" stroke-width="0.5"/>
<path d="M201.892 21.4999L201.973 21.639L202.134 21.6226C203.232 21.5101 204.344 21.4569 205.477 21.4569C206.61 21.4569 207.729 21.5102 208.82 21.6161L208.979 21.6316L209.06 21.4929L213.24 14.2999L223.197 17.5174L222.345 25.7804L222.328 25.9409L222.468 26.022C224.406 27.1506 226.219 28.4647 227.884 29.9376L228.004 30.0438L228.151 29.979L235.778 26.6109L241.934 35.0349L236.372 41.2217L236.264 41.3418L236.329 41.4897C237.222 43.5138 237.914 45.6306 238.394 47.8333L238.428 47.9912L238.586 48.0247L246.75 49.7539V60.1793L238.599 61.929L238.441 61.9628L238.407 62.1203C237.928 64.3231 237.236 66.4464 236.343 68.463L236.278 68.6112L236.386 68.7316L241.962 74.912L235.817 83.3493L228.177 79.9871L228.031 79.9225L227.911 80.029C226.252 81.5024 224.447 82.8165 222.508 83.9512L222.369 84.0326L222.386 84.1929L223.251 92.4555L213.3 95.6867L209.114 88.4998L209.034 88.3614L208.874 88.3767C207.767 88.4833 206.655 88.5431 205.523 88.5431C204.398 88.5431 203.278 88.4899 202.172 88.3839L202.013 88.3686L201.932 88.5073L197.759 95.7001L187.802 92.4811L188.654 84.213L188.671 84.0528L188.532 83.9715C186.599 82.8422 184.788 81.5357 183.123 80.0561L183.003 79.9493L182.856 80.0144L175.229 83.3895L169.066 74.958L174.634 68.7707L174.742 68.6504L174.676 68.5024C173.784 66.4853 173.086 64.3685 172.606 62.1661L172.571 62.0085L172.413 61.9749L164.257 60.2386L164.25 49.8137L172.407 48.0705L172.565 48.0368L172.599 47.8792C173.079 45.6764 173.771 43.5525 174.664 41.5371L174.73 41.3887L174.621 41.2683L169.039 35.0875L175.19 26.6498L182.816 30.0189L182.964 30.084L183.084 29.9767C184.748 28.4905 186.56 27.177 188.492 26.0484L188.631 25.967L188.614 25.8065L187.749 17.544L197.7 14.3133L201.892 21.4999ZM177.021 55.0187V55.0188C177.033 70.6911 189.794 83.3843 205.523 83.3715C221.246 83.3586 233.987 70.6468 233.975 54.9817C233.968 39.3095 221.207 26.6156 205.479 26.629C189.756 26.6414 177.014 39.347 177.021 55.0187Z" fill="url(#paint26_linear_16205_12183)" fill-opacity="0.4" stroke="url(#paint27_linear_16205_12183)" stroke-width="0.5"/>
<path d="M56.6118 48.1329C56.4378 48.3473 56.4705 48.6622 56.6849 48.8362C56.8993 49.0102 57.2142 48.9775 57.3882 48.7631L56.6118 48.1329ZM172.333 14.6165C172.558 14.4566 172.611 14.1445 172.451 13.9193L169.847 10.2499C169.687 10.0248 169.375 9.97183 169.149 10.1317C168.924 10.2915 168.871 10.6037 169.031 10.8288L171.347 14.0905L168.085 16.406C167.86 16.5659 167.807 16.878 167.967 17.1031C168.127 17.3283 168.439 17.3813 168.664 17.2214L172.333 14.6165ZM57.3882 48.7631C70.0692 33.1383 110.799 4.32621 171.96 14.7017L172.127 13.7158C110.575 3.27383 69.4961 32.2576 56.6118 48.1329L57.3882 48.7631Z" fill="white"/>
<path d="M200.571 209.654C200.815 209.525 200.91 209.223 200.782 208.979C200.653 208.734 200.351 208.64 200.107 208.768L200.571 209.654ZM110.556 198.17C110.286 198.228 110.114 198.494 110.172 198.764L111.114 203.164C111.172 203.434 111.438 203.606 111.708 203.548C111.978 203.49 112.15 203.225 112.092 202.954L111.254 199.043L115.166 198.206C115.436 198.148 115.608 197.882 115.55 197.612C115.492 197.342 115.226 197.17 114.956 197.228L110.556 198.17ZM200.107 208.768C186.733 215.775 150.068 223.57 110.932 198.239L110.389 199.079C149.858 224.625 186.911 216.811 200.571 209.654L200.107 208.768Z" fill="white"/>
<path d="M293.211 186.467C292.961 186.352 292.664 186.461 292.548 186.712C292.432 186.962 292.541 187.259 292.792 187.375L293.211 186.467ZM312.7 220.851C312.91 221.03 313.226 221.005 313.405 220.794L316.32 217.366C316.499 217.155 316.473 216.84 316.263 216.661C316.052 216.482 315.737 216.508 315.558 216.718L312.967 219.765L309.92 217.174C309.709 216.996 309.394 217.021 309.215 217.231C309.036 217.442 309.061 217.757 309.272 217.936L312.7 220.851ZM292.792 187.375C298.639 190.078 310.908 200.518 312.526 220.511L313.522 220.43C311.872 200.041 299.351 189.305 293.211 186.467L292.792 187.375Z" fill="white"/>
<path d="M258.785 43.9352C258.536 44.0554 258.432 44.3544 258.552 44.603C258.673 44.8516 258.972 44.9557 259.22 44.8355L258.785 43.9352ZM300.046 51.0411C300.317 50.9921 300.498 50.732 300.449 50.4602L299.649 46.0319C299.6 45.7601 299.34 45.5796 299.068 45.6287C298.796 45.6778 298.616 45.9379 298.665 46.2096L299.376 50.1459L295.439 50.857C295.168 50.906 294.987 51.1661 295.036 51.4379C295.085 51.7096 295.345 51.8901 295.617 51.841L300.046 51.0411ZM259.22 44.8355C265.376 41.8591 282.194 38.8302 299.672 50.9599L300.242 50.1383C282.438 37.7821 265.231 40.8184 258.785 43.9352L259.22 44.8355Z" fill="white"/>
<path d="M335.795 159.204C335.908 158.952 335.795 158.656 335.543 158.543C335.291 158.431 334.995 158.544 334.882 158.796L335.795 159.204ZM299.669 180.366C299.493 180.579 299.523 180.894 299.735 181.07L303.201 183.94C303.414 184.116 303.729 184.087 303.905 183.874C304.081 183.661 304.052 183.346 303.839 183.17L300.758 180.619L303.31 177.538C303.486 177.325 303.456 177.01 303.243 176.834C303.031 176.658 302.715 176.688 302.539 176.9L299.669 180.366ZM334.882 158.796C332.094 165.04 321.188 178.196 300.008 180.187L300.101 181.183C321.678 179.154 332.876 165.742 335.795 159.204L334.882 158.796Z" fill="white"/>
</g>
<defs>
<linearGradient id="paint0_linear_16205_12183" x1="71.5" y1="54.999" x2="71.5" y2="196.999" gradientUnits="userSpaceOnUse">
<stop stop-color="white" stop-opacity="0"/>
<stop offset="1" stop-color="white"/>
</linearGradient>
<linearGradient id="paint1_linear_16205_12183" x1="71.5" y1="54.999" x2="71.5" y2="196.999" gradientUnits="userSpaceOnUse">
<stop stop-color="white"/>
<stop offset="1" stop-color="#373737"/>
</linearGradient>
<linearGradient id="paint2_linear_16205_12183" x1="71.5" y1="98.999" x2="71.5" y2="157.999" gradientUnits="userSpaceOnUse">
<stop stop-color="white" stop-opacity="0"/>
<stop offset="1" stop-color="white"/>
</linearGradient>
<linearGradient id="paint3_linear_16205_12183" x1="56.7173" y1="102.035" x2="92.6187" y2="150.845" gradientUnits="userSpaceOnUse">
<stop stop-color="white"/>
<stop offset="1"/>
</linearGradient>
<linearGradient id="paint4_linear_16205_12183" x1="206" y1="38" x2="206" y2="73" gradientUnits="userSpaceOnUse">
<stop stop-color="white" stop-opacity="0"/>
<stop offset="1" stop-color="white"/>
</linearGradient>
<linearGradient id="paint5_linear_16205_12183" x1="196.98" y1="39.8013" x2="218.092" y2="69.3241" gradientUnits="userSpaceOnUse">
<stop stop-color="white"/>
<stop offset="1"/>
</linearGradient>
<linearGradient id="paint6_linear_16205_12183" x1="243" y1="149" x2="243" y2="181" gradientUnits="userSpaceOnUse">
<stop stop-color="white" stop-opacity="0"/>
<stop offset="1" stop-color="white"/>
</linearGradient>
<linearGradient id="paint7_linear_16205_12183" x1="234.982" y1="150.647" x2="254.454" y2="177.12" gradientUnits="userSpaceOnUse">
<stop stop-color="white"/>
<stop offset="1"/>
</linearGradient>
<linearGradient id="paint8_linear_16205_12183" x1="114.5" y1="240" x2="114.5" y2="258" gradientUnits="userSpaceOnUse">
<stop stop-color="white" stop-opacity="0"/>
<stop offset="1" stop-color="white"/>
</linearGradient>
<linearGradient id="paint9_linear_16205_12183" x1="109.739" y1="240.926" x2="120.503" y2="256.373" gradientUnits="userSpaceOnUse">
<stop stop-color="white"/>
<stop offset="1"/>
</linearGradient>
<linearGradient id="paint10_linear_16205_12183" x1="352" y1="76" x2="352" y2="117" gradientUnits="userSpaceOnUse">
<stop stop-color="white" stop-opacity="0"/>
<stop offset="1" stop-color="white"/>
</linearGradient>
<linearGradient id="paint11_linear_16205_12183" x1="341.477" y1="78.1101" x2="366.24" y2="112.598" gradientUnits="userSpaceOnUse">
<stop stop-color="white"/>
<stop offset="1"/>
</linearGradient>
<linearGradient id="paint12_linear_16205_12183" x1="390" y1="12" x2="390" y2="25" gradientUnits="userSpaceOnUse">
<stop stop-color="white" stop-opacity="0"/>
<stop offset="1" stop-color="white"/>
</linearGradient>
<linearGradient id="paint13_linear_16205_12183" x1="386.492" y1="12.669" x2="394.211" y2="23.9703" gradientUnits="userSpaceOnUse">
<stop stop-color="white"/>
<stop offset="1"/>
</linearGradient>
<linearGradient id="paint14_linear_16205_12183" x1="242.5" y1="116" x2="242.5" y2="214" gradientUnits="userSpaceOnUse">
<stop stop-color="white" stop-opacity="0"/>
<stop offset="1" stop-color="white"/>
</linearGradient>
<linearGradient id="paint15_linear_16205_12183" x1="242.5" y1="116" x2="242.5" y2="214" gradientUnits="userSpaceOnUse">
<stop stop-color="white"/>
<stop offset="1" stop-color="#373737"/>
</linearGradient>
<linearGradient id="paint16_linear_16205_12183" x1="114.5" y1="220" x2="114.5" y2="278" gradientUnits="userSpaceOnUse">
<stop stop-color="white" stop-opacity="0"/>
<stop offset="1" stop-color="white"/>
</linearGradient>
<linearGradient id="paint17_linear_16205_12183" x1="114.5" y1="220" x2="114.5" y2="278" gradientUnits="userSpaceOnUse">
<stop stop-color="white"/>
<stop offset="1" stop-color="#373737"/>
</linearGradient>
<linearGradient id="paint18_linear_16205_12183" x1="300.5" y1="227" x2="300.5" y2="297" gradientUnits="userSpaceOnUse">
<stop stop-color="white" stop-opacity="0"/>
<stop offset="1" stop-color="white"/>
</linearGradient>
<linearGradient id="paint19_linear_16205_12183" x1="300.5" y1="227" x2="300.5" y2="297" gradientUnits="userSpaceOnUse">
<stop stop-color="white"/>
<stop offset="1" stop-color="#373737"/>
</linearGradient>
<linearGradient id="paint20_linear_16205_12183" x1="218.5" y1="242" x2="218.5" y2="264" gradientUnits="userSpaceOnUse">
<stop stop-color="white" stop-opacity="0"/>
<stop offset="1" stop-color="white"/>
</linearGradient>
<linearGradient id="paint21_linear_16205_12183" x1="218.5" y1="242" x2="218.5" y2="264" gradientUnits="userSpaceOnUse">
<stop stop-color="white"/>
<stop offset="1" stop-color="#373737"/>
</linearGradient>
<linearGradient id="paint22_linear_16205_12183" x1="352" y1="37" x2="352" y2="154" gradientUnits="userSpaceOnUse">
<stop stop-color="white" stop-opacity="0"/>
<stop offset="1" stop-color="white"/>
</linearGradient>
<linearGradient id="paint23_linear_16205_12183" x1="352" y1="37" x2="352" y2="154" gradientUnits="userSpaceOnUse">
<stop stop-color="white"/>
<stop offset="1" stop-color="#373737"/>
</linearGradient>
<linearGradient id="paint24_linear_16205_12183" x1="390" y1="0" x2="390" y2="37" gradientUnits="userSpaceOnUse">
<stop stop-color="white" stop-opacity="0"/>
<stop offset="1" stop-color="white"/>
</linearGradient>
<linearGradient id="paint25_linear_16205_12183" x1="390" y1="0" x2="390" y2="37" gradientUnits="userSpaceOnUse">
<stop stop-color="white"/>
<stop offset="1" stop-color="#373737"/>
</linearGradient>
<linearGradient id="paint26_linear_16205_12183" x1="205.5" y1="14" x2="205.5" y2="96" gradientUnits="userSpaceOnUse">
<stop stop-color="white" stop-opacity="0"/>
<stop offset="1" stop-color="white"/>
</linearGradient>
<linearGradient id="paint27_linear_16205_12183" x1="205.5" y1="14" x2="205.5" y2="96" gradientUnits="userSpaceOnUse">
<stop stop-color="white"/>
<stop offset="1" stop-color="#373737"/>
</linearGradient>
<clipPath id="clip0_16205_12183">
<rect width="411" height="248" fill="white"/>
</clipPath>
</defs>
</svg>
