<svg width="41" height="31" viewBox="0 0 41 31" fill="none" xmlns="http://www.w3.org/2000/svg">
<path d="M0.66895 28.1603H9.13221C9.22006 28.1603 9.30705 28.143 9.38822 28.1093C9.46938 28.0757 9.54313 28.0265 9.60525 27.9643C9.66736 27.9022 9.71664 27.8285 9.75025 27.7473C9.78387 27.6661 9.80117 27.5792 9.80116 27.4913V26.6214H12.663L22.3617 30.3474C22.6696 30.4654 22.9989 30.5174 23.3282 30.5002C23.6575 30.4829 23.9795 30.3968 24.2735 30.2473L38.9538 22.77C39.5106 22.4863 39.9406 22.0038 40.1585 21.4182C40.3765 20.8325 40.3666 20.1863 40.1308 19.6076C39.8949 19.0289 39.4503 18.5599 38.8851 18.2935C38.3198 18.027 37.6751 17.9825 37.0786 18.1689L28.7499 20.7705C28.7656 20.6738 28.7754 20.5764 28.7795 20.4786C28.7786 19.8146 28.5145 19.1781 28.045 18.7087C27.5755 18.2393 26.939 17.9752 26.2751 17.9744H21.4853L14.8314 16.0609C14.7712 16.0436 14.7089 16.0348 14.6463 16.0348H9.80116V14.7964C9.80117 14.7085 9.78387 14.6215 9.75025 14.5404C9.71664 14.4592 9.66736 14.3855 9.60525 14.3234C9.54313 14.2612 9.46938 14.212 9.38822 14.1783C9.30705 14.1447 9.22006 14.1274 9.13221 14.1274H0.66895C0.5811 14.1274 0.49411 14.1447 0.412946 14.1783C0.331782 14.212 0.258036 14.2612 0.195917 14.3234C0.133798 14.3855 0.0845233 14.4592 0.0509077 14.5404C0.0172921 14.6215 -6.32411e-06 14.7085 1.73435e-09 14.7964V27.4913C-6.32411e-06 27.5792 0.0172921 27.6661 0.0509077 27.7473C0.0845233 27.8285 0.133798 27.9022 0.195917 27.9643C0.258036 28.0265 0.331782 28.0757 0.412946 28.1093C0.49411 28.143 0.5811 28.1603 0.66895 28.1603ZM14.5523 17.3727L21.2062 19.2862C21.2664 19.3035 21.3287 19.3123 21.3912 19.3123H26.2751C26.514 19.3112 26.7475 19.3839 26.9436 19.5203C27.1397 19.6568 27.289 19.8504 27.371 20.0748C27.453 20.2992 27.4639 20.5434 27.402 20.7742C27.3401 21.0049 27.2086 21.211 27.0253 21.3643L27.0247 21.3648C26.8162 21.5445 26.5504 21.6439 26.2751 21.645H19.3828C18.8336 21.6456 18.307 21.864 17.9187 22.2523C17.5303 22.6407 17.3118 23.1672 17.3112 23.7164V24.029C17.3112 24.2064 17.3817 24.3765 17.5071 24.502C17.6326 24.6274 17.8027 24.6979 17.9801 24.6979C18.1575 24.6979 18.3277 24.6274 18.4531 24.502C18.5786 24.3765 18.6491 24.2064 18.6491 24.029V23.7164C18.6493 23.5219 18.7267 23.3355 18.8643 23.198C19.0018 23.0604 19.1883 22.9831 19.3828 22.9829H26.2751C26.8129 22.9812 27.3355 22.8048 27.7644 22.4803L37.4779 19.4461C37.7221 19.37 37.9846 19.377 38.2244 19.4661C38.4641 19.5552 38.6676 19.7213 38.8027 19.9384C38.8873 20.0743 38.9427 20.2262 38.9654 20.3845C38.9882 20.5429 38.9777 20.7043 38.9349 20.8584C38.892 21.0125 38.8175 21.1561 38.7162 21.2799C38.615 21.4038 38.4891 21.5052 38.3465 21.5779L23.6662 29.0552C23.5394 29.1199 23.4005 29.1571 23.2584 29.1645C23.1164 29.172 22.9743 29.1494 22.8415 29.0984L13.0268 25.3279C12.9502 25.2986 12.8689 25.2835 12.7869 25.2835H9.80116V17.3727H14.5523ZM1.3379 15.4654H8.46326V26.8224H1.3379V15.4654Z" fill="white"/>
<path d="M19.036 7.28005C19.1239 7.28018 19.2109 7.26293 19.2921 7.2293C19.3733 7.19566 19.447 7.14631 19.509 7.08407L19.7782 6.81492V13.9215C19.7781 14.0093 19.7954 14.0963 19.8291 14.1775C19.8627 14.2586 19.912 14.3324 19.9741 14.3945C20.0362 14.4566 20.1099 14.5059 20.1911 14.5395C20.2723 14.5731 20.3593 14.5904 20.4471 14.5904H29.5098C29.5977 14.5904 29.6846 14.5731 29.7658 14.5395C29.847 14.5059 29.9207 14.4566 29.9828 14.3945C30.045 14.3324 30.0942 14.2586 30.1278 14.1775C30.1615 14.0963 30.1788 14.0093 30.1788 13.9215V6.81496L30.4479 7.08407C30.51 7.14637 30.5837 7.19582 30.6649 7.22959C30.7461 7.26336 30.8332 7.28079 30.9211 7.28087C31.0091 7.28095 31.0962 7.26369 31.1774 7.23007C31.2587 7.19646 31.3325 7.14714 31.3947 7.08496C31.4569 7.02277 31.5062 6.94893 31.5398 6.86767C31.5735 6.7864 31.5907 6.69931 31.5906 6.61136C31.5906 6.52342 31.5731 6.43635 31.5394 6.35515C31.5056 6.27395 31.4561 6.2002 31.3938 6.13813L25.4512 0.195982C25.3891 0.13385 25.3153 0.0845632 25.2342 0.0509358C25.153 0.0173083 25.066 0 24.9782 0C24.8903 0 24.8034 0.0173083 24.7222 0.0509358C24.6411 0.0845632 24.5673 0.13385 24.5052 0.195982L18.5631 6.13813C18.4695 6.23169 18.4058 6.35087 18.38 6.48062C18.3542 6.61037 18.3675 6.74486 18.4181 6.86708C18.4687 6.98931 18.5545 7.09377 18.6644 7.16728C18.7744 7.24079 18.9037 7.28003 19.036 7.28005ZM26.1044 13.2525H23.8519V9.84584H26.1044V13.2525ZM24.9782 1.61489L28.8409 5.47719V13.2525H27.4423V9.17689C27.4423 9.08904 27.425 9.00205 27.3914 8.92089C27.3578 8.83973 27.3085 8.76598 27.2464 8.70386C27.1843 8.64174 27.1105 8.59247 27.0294 8.55885C26.9482 8.52524 26.8612 8.50794 26.7734 8.50795H23.183C23.0951 8.50794 23.0082 8.52524 22.927 8.55885C22.8458 8.59247 22.7721 8.64174 22.71 8.70386C22.6478 8.76598 22.5986 8.83973 22.565 8.92089C22.5313 9.00205 22.514 9.08904 22.514 9.17689V13.2525H21.116V5.47702L24.9782 1.61489Z" fill="white"/>
</svg>
