<svg width="40" height="40" viewBox="0 0 40 40" fill="none" xmlns="http://www.w3.org/2000/svg">
<g clip-path="url(#clip0_661_8193)">
<path fill-rule="evenodd" clip-rule="evenodd" d="M18.1641 -0.0390625C19.3359 -0.0390625 20.5078 -0.0390625 21.6797 -0.0390625C25.4828 0.37361 28.9334 1.70173 32.0312 3.94531C31.8531 2.97304 32.2437 2.37408 33.2031 2.14844C33.7695 2.1938 34.1601 2.48027 34.375 3.00781C34.9219 4.64844 35.4687 6.28906 36.0156 7.92969C36.1854 9.06172 35.7037 9.59555 34.5703 9.53125C32.7357 8.93711 30.9128 8.31211 29.1016 7.65625C28.5572 6.98095 28.5832 6.32991 29.1797 5.70312C29.4034 5.59384 29.6377 5.51571 29.8828 5.46875C24.3656 1.893 18.5844 1.39821 12.5391 3.98438C6.64066 6.96154 3.26826 11.7402 2.42187 18.3203C2.18076 21.2159 2.62347 24.0023 3.75 26.6797C3.8143 27.813 3.28044 28.2948 2.14844 28.125C1.90925 28.0421 1.71394 27.8989 1.5625 27.6953C0.733169 25.7317 0.199316 23.7005 -0.0390625 21.6016C-0.0390625 20.4557 -0.0390625 19.3099 -0.0390625 18.1641C0.889109 10.9016 4.56098 5.52392 10.9766 2.03125C13.2599 0.91818 15.6558 0.228073 18.1641 -0.0390625Z" fill="#1868D0"/>
<path fill-rule="evenodd" clip-rule="evenodd" d="M17.1476 7.07031C19.0228 7.05729 20.8978 7.07031 22.7726 7.10937C23.0982 7.22656 23.3195 7.44791 23.4367 7.77344C23.4758 8.5282 23.4887 9.28344 23.4758 10.0391C24.7181 10.4321 25.8248 11.0571 26.7961 11.9141C27.3368 11.559 27.8967 11.2334 28.4758 10.9375C29.107 10.7659 29.6148 10.9352 29.9992 11.4453C30.7232 12.7677 31.4784 14.0697 32.2648 15.3516C32.6129 16.0595 32.4958 16.6715 31.9133 17.1875C31.4445 17.4479 30.9758 17.7084 30.507 17.9687C30.4231 18.0265 30.371 18.1046 30.3508 18.2031C30.4678 18.782 30.5199 19.368 30.507 19.9609C30.5043 20.5934 30.4652 21.2184 30.3898 21.8359C30.8783 22.1649 31.3862 22.4645 31.9133 22.7344C32.4604 23.1833 32.6036 23.7432 32.3429 24.4141C31.5617 25.7682 30.7804 27.1224 29.9992 28.4766C29.6114 28.9865 29.1036 29.1557 28.4758 28.9844C27.8967 28.6884 27.3368 28.3629 26.7961 28.0078C25.8248 28.8648 24.7181 29.4898 23.4758 29.8828C23.4887 30.6384 23.4758 31.3937 23.4367 32.1484C23.3195 32.474 23.0982 32.6953 22.7726 32.8125C20.8976 32.8646 19.0226 32.8646 17.1476 32.8125C16.8221 32.6953 16.6008 32.474 16.4836 32.1484C16.4445 31.3937 16.4315 30.6384 16.4445 29.8828C15.2022 29.4898 14.0954 28.8648 13.1242 28.0078C12.5835 28.3629 12.0236 28.6884 11.4445 28.9844C10.8167 29.1557 10.3089 28.9865 9.92107 28.4766C9.13982 27.1224 8.35857 25.7682 7.57732 24.4141C7.31669 23.7432 7.45992 23.1833 8.00701 22.7344C8.47576 22.474 8.94451 22.2135 9.41326 21.9531C9.49717 21.8954 9.54928 21.8173 9.56951 21.7187C9.45248 21.1398 9.40037 20.5539 9.41326 19.9609C9.41599 19.3285 9.45506 18.7035 9.53045 18.0859C9.04193 17.757 8.53412 17.4574 8.00701 17.1875C7.45992 16.7386 7.31669 16.1787 7.57732 15.5078C8.35857 14.1537 9.13982 12.7995 9.92107 11.4453C10.3054 10.9352 10.8133 10.7659 11.4445 10.9375C12.0236 11.2334 12.5835 11.559 13.1242 11.9141C14.0954 11.0571 15.2022 10.4321 16.4445 10.0391C16.4315 9.28344 16.4445 8.5282 16.4836 7.77344C16.6154 7.44647 16.8368 7.21209 17.1476 7.07031ZM19.257 16.5234C21.3697 16.3334 22.7369 17.2448 23.3586 19.2578C23.5867 21.3722 22.6883 22.7394 20.6633 23.3594C18.5489 23.5875 17.1817 22.6891 16.5617 20.6641C16.3497 18.5477 17.2482 17.1675 19.257 16.5234Z" fill="#1868D0"/>
<path fill-rule="evenodd" clip-rule="evenodd" d="M39.9609 18.3203C39.9609 19.4661 39.9609 20.6119 39.9609 21.7578C39.0198 29.0901 35.2958 34.4937 28.789 37.9687C26.5515 39.0405 24.2077 39.7046 21.7578 39.9609C20.5859 39.9609 19.414 39.9609 18.2422 39.9609C14.439 39.5483 10.9885 38.2201 7.8906 35.9765C8.01982 37.3846 7.40787 37.9184 6.05467 37.5781C5.82549 37.4012 5.65622 37.1798 5.54685 36.914C4.99998 35.2734 4.4531 33.6328 3.90623 31.9922C3.73645 30.8601 4.21822 30.3263 5.35154 30.3906C7.18612 30.9847 9.00904 31.6097 10.8203 32.2656C11.3647 32.9409 11.3387 33.5919 10.7422 34.2187C10.5185 34.328 10.2841 34.4061 10.039 34.4531C15.5558 38.0288 21.337 38.5236 27.3828 35.9375C33.2811 32.9607 36.6534 28.1821 37.5 21.6015C37.7411 18.706 37.2984 15.9195 36.1719 13.2422C36.1076 12.1088 36.6414 11.6271 37.7734 11.7969C38.0126 11.8797 38.2079 12.0229 38.3594 12.2265C39.1886 14.19 39.7225 16.2212 39.9609 18.3203Z" fill="#1868D0"/>
</g>
<defs>
<clipPath id="clip0_661_8193">
<rect width="40" height="40" fill="white"/>
</clipPath>
</defs>
</svg>
