<svg width="41" height="41" viewBox="0 0 41 41" fill="none" xmlns="http://www.w3.org/2000/svg">
<path fill-rule="evenodd" clip-rule="evenodd" d="M9.87506 18.6645C9.52072 18.6645 9.23314 18.3739 9.23314 18.0157C9.23314 17.6576 9.52255 17.3669 9.87506 17.3669C10.2331 17.3669 10.517 17.6576 10.517 18.0157C10.517 18.372 10.2331 18.6645 9.87506 18.6645ZM7.1794 10.6952H17.1773L16.1403 12.8009C15.8471 13.3916 15.3091 13.731 14.6505 13.731L8.31484 13.7291L7.1794 10.6952ZM14.4778 18.6645C14.1234 18.6645 13.8359 18.3739 13.8359 18.0157C13.8359 17.6576 14.1253 17.3669 14.4778 17.3669C14.8321 17.3669 15.1197 17.6576 15.1197 18.0157C15.1197 18.372 14.8322 18.6645 14.4778 18.6645ZM11.6486 17.3651H12.7042C12.2701 18.627 13.181 19.9189 14.4778 19.9189C16.0622 19.9189 16.9101 18.0664 15.9676 16.8457C16.0251 16.4313 15.7283 16.1088 15.3553 16.1088H9.97903C9.50595 16.1088 9.10709 15.8313 8.93825 15.3831L8.78797 14.9856H14.6525C15.7786 14.9856 16.7489 14.3781 17.2536 13.36L18.7378 10.3467C18.9418 9.93047 18.6376 9.43922 18.1793 9.43922H6.70099C6.32809 8.5748 5.49508 8.02355 4.55451 8.02355H3.12969C2.78647 8.02355 2.51189 8.30481 2.51189 8.6517C2.51189 8.99859 2.78646 9.27985 3.12969 9.27985H4.55451C5.02759 9.27985 5.42645 9.55736 5.59158 10.0055L7.77892 15.8276C7.92362 16.2083 8.15182 16.5327 8.43566 16.7858C7.40414 18.0346 8.2891 19.919 9.8753 19.919C11.1999 19.919 12.0957 18.5782 11.6486 17.3651ZM37.6235 39.744H35.0985L35.0967 31.745C35.0967 30.048 33.7312 28.668 32.0522 28.668L18.9819 28.6661C17.3029 28.6661 15.9374 30.048 15.9374 31.7431V39.7441H13.4125C12.8243 39.7441 12.3513 39.2603 12.3513 38.6678L12.3494 30.0294C13.8391 29.2306 15.6629 27.5093 17.531 25.1241C17.9744 24.5578 18.4029 23.9671 18.8259 23.3634C20.8277 25.1972 24.0056 24.7884 25.5159 22.5027C27.2877 25.184 31.1891 25.1765 32.9445 22.5027C34.2004 24.4059 36.6772 25.0621 38.6827 24.0234V38.6659C38.6845 39.2621 38.206 39.744 37.6235 39.744ZM33.8573 39.744V31.745C33.8573 30.7399 33.0448 29.9224 32.0541 29.9224H18.9823C17.9916 29.9224 17.179 30.7399 17.179 31.745V39.746L33.8573 39.744ZM2.39264 16.9168C4.62447 21.9066 8.98812 27.5016 11.728 28.9417C14.548 27.4698 18.9614 21.7865 21.158 16.7406C22.7776 13.0223 22.5438 8.94989 20.5402 5.8485C18.6571 2.9309 15.4441 1.25645 11.7277 1.25645C7.98196 1.25645 4.76315 2.93464 2.89474 5.85973C0.887365 9.00236 0.698149 13.1368 2.39197 16.917L2.39264 16.9168ZM23.3251 9.79329C23.6943 12.2159 23.3548 14.8037 22.2936 17.2465C21.5867 18.8722 20.6294 20.6236 19.533 22.3131C20.1304 22.9188 20.9374 23.2619 21.8001 23.2619C23.2397 23.2619 24.4994 22.2982 24.8946 20.9069V9.79348L23.3251 9.79329ZM32.3176 20.9388L30.9967 9.79329H26.1395V20.9014C26.5272 22.2927 27.7944 23.2603 29.234 23.2603C30.6588 23.2603 31.9131 22.3114 32.3176 20.9388ZM37.0893 9.79329H32.2473L33.5571 20.8712C33.9411 22.2812 35.212 23.2619 36.6609 23.2619C38.0765 23.2619 39.3213 22.33 39.7351 20.9762L37.0893 9.79329ZM40.9816 20.8433L38.182 9.01902C38.1171 8.73588 37.8685 8.53713 37.5791 8.53713H23.0621C21.7041 3.37309 17.2626 0 11.7287 0C7.55437 0 3.95153 1.88633 1.84945 5.177C-0.387942 8.68152 -0.606889 13.2624 1.25577 17.4343C2.39116 19.9731 4.12954 22.81 6.02369 25.2178C7.86223 27.5597 9.65065 29.2473 11.1051 30.029V38.6674C11.1051 39.9537 12.1421 41 13.4111 41H37.6221C38.8929 41 39.9282 39.9537 39.9282 38.6674L39.93 23.0798C40.4179 22.5472 40.7871 21.8891 40.9819 21.1466C41.006 21.0472 41.006 20.9422 40.9819 20.8428L40.9816 20.8433Z" fill="white"/>
</svg>
