<svg width="41" height="41" viewBox="0 0 41 41" fill="none" xmlns="http://www.w3.org/2000/svg">
<path fill-rule="evenodd" clip-rule="evenodd" d="M8.56529 24.7137C9.10626 24.1726 9.92662 24.995 9.38743 25.5361L6.72888 28.1954C6.18791 28.7365 5.36755 27.9141 5.90674 27.373L8.56529 24.7137ZM12.2204 25.2727L6.46538 31.0293C5.92442 31.5704 6.74655 32.391 7.28752 31.8516L13.0425 26.095C13.5835 25.5539 12.7613 24.7333 12.2204 25.2727ZM13.2952 28.4126L9.6045 32.1043C9.06353 32.6454 9.88566 33.466 10.4266 32.9267L14.1173 29.2349C14.6583 28.6938 13.8362 27.8732 13.2952 28.4126ZM36.2381 0C38.8682 0 41 2.13245 41 4.76322C41 6.75505 39.3237 8.8483 38.2115 10.7741C40.8612 12.3227 39.5462 15.8116 36.2381 15.8116C33.4265 15.8116 31.9441 13.2093 33.43 11.4756C33.6631 11.1943 33.9496 10.9594 34.2646 10.7742C33.1524 8.84826 31.4761 6.755 31.4761 4.76336C31.4761 2.13254 33.6081 0 36.2381 0ZM38.7828 2.21611C36.5211 -0.0462513 32.6383 1.56285 32.6383 4.76149C32.6383 6.36703 34.0743 8.12569 34.9285 9.60491L36.2382 11.8727L38.2241 8.51201C38.9929 7.3123 39.8364 5.99511 39.8364 4.76154C39.8364 3.76651 39.4341 2.86759 38.7828 2.21611ZM37.6315 11.7781L36.74 13.3231C36.5175 13.7094 35.957 13.7094 35.7328 13.3178L34.843 11.7781C34.6473 11.8938 34.4658 12.038 34.3217 12.2124C32.9888 13.8322 36.0442 15.5535 37.8664 14.1295C38.7882 13.4086 38.596 12.3459 37.6315 11.7781ZM36.2381 2.39929C34.9337 2.39929 33.8767 3.45838 33.8767 4.76136C33.8767 6.85821 36.4232 7.9173 37.9091 6.43279C39.395 4.9465 38.3362 2.39929 36.2381 2.39929ZM37.087 3.91229C35.9694 2.79446 34.2718 4.49255 35.3893 5.61042C36.5068 6.7283 38.2045 5.03016 37.087 3.91229ZM21.1568 39.1418C21.7636 41.632 25.3155 41.6018 25.915 39.14H28.8903C29.2658 39.1489 29.5238 38.8962 29.5238 38.5616V36.365H37.6791C39.5084 36.365 40.9996 34.8734 40.9996 33.0435V29.1703C40.9996 27.3404 39.5084 25.8488 37.6791 25.8488H33.2944C32.1057 25.8488 31.1359 24.8787 31.1359 23.6896V21.8402C31.1359 20.0104 29.6447 18.5187 27.8153 18.5187L8.12865 18.5223C5.22628 18.5223 5.22628 13.6146 8.12865 13.6146H29.0252L28.4184 14.2215C27.8775 14.7627 28.6996 15.5833 29.2406 15.0439L30.8315 13.4526C31.0681 13.2194 31.0681 12.8492 30.8315 12.616L29.2406 11.0247C29.0146 10.7986 28.6462 10.7986 28.4184 11.0247C27.906 11.5373 28.6178 12.0464 29.0252 12.4522H8.12865C3.68702 12.4522 3.68702 19.6843 8.12865 19.6843H27.8171C29.0058 19.6843 29.9757 20.6544 29.9757 21.8435V23.6929C29.9757 25.5227 31.4669 27.0144 33.2962 27.0144H37.6809C38.8696 27.0144 39.8394 27.9845 39.8394 29.1735V33.0468C39.8394 34.2341 38.8696 35.206 37.6809 35.206H29.5256V33.0095C29.5256 32.511 29.3939 32.075 29.1163 31.6585L25.7816 26.6442C25.4043 26.0763 24.7939 25.747 24.1124 25.747H20.0213V22.6303C20.0213 22.3099 19.7615 22.0482 19.4394 22.0482L0.581876 22.0447C0.261568 22.0447 0 22.3045 0 22.6267V38.5632C0 38.8836 0.259805 39.1452 0.581876 39.1452L2.84897 39.1435C3.45221 41.6177 7.00055 41.6194 7.60721 39.1452H21.158L21.1568 39.1418ZM20.0624 37.9795L20.0215 26.9042H24.1126C24.4133 26.9042 24.6482 27.0288 24.8155 27.278C25.2799 27.9757 28.1948 32.2426 28.3122 32.6322C28.4225 32.9971 28.3638 37.2551 28.3638 37.981H25.917C25.3137 35.5068 21.7636 35.5068 21.1588 37.9792L20.0624 37.9795ZM18.9039 37.9795H7.60581C7.00435 35.5035 3.44713 35.5053 2.84758 37.9813H1.1624V35.5925H18.8665L18.9039 37.9795ZM21.6284 27.8834C22.253 27.8834 23.9115 27.7891 24.2745 27.9991C24.399 28.0703 24.504 28.1718 24.5806 28.2982L26.191 30.9148C26.5576 31.5093 26.1341 32.28 25.4579 32.28H21.6284C21.1479 32.28 20.7618 31.8689 20.7618 31.39V28.7734C20.7618 28.348 20.9895 27.8834 21.6284 27.8834ZM23.6766 29.0458L24.9525 31.1177H21.9238V29.0458H23.6766ZM18.8596 23.2058L1.16231 23.2076V34.4323H18.8596V23.2058ZM6.13602 37.6504C7.3354 38.8501 5.51141 40.6675 4.31737 39.4731C3.11977 38.2752 4.93664 36.4507 6.13602 37.6504ZM21.6407 34.3591C20.8755 34.3591 20.8755 33.1968 21.6407 33.1968C22.349 33.1968 23.2921 33.0277 23.2921 33.7788C23.2921 34.5282 22.349 34.3609 21.6407 34.3609V34.3591ZM24.4452 37.6468C25.6428 38.8447 23.8259 40.6692 22.6265 39.4695C21.4254 38.268 23.2511 36.4506 24.4452 37.6468ZM5.2159 39.1402C4.46141 39.1402 4.42579 37.9778 5.23903 37.9778C5.99352 37.9778 6.02914 39.1402 5.2159 39.1402ZM23.525 39.1402C22.7705 39.1402 22.7349 37.9778 23.5481 37.9778C24.3026 37.9778 24.3382 39.1402 23.525 39.1402Z" fill="white"/>
</svg>
