<svg width="53" height="53" viewBox="0 0 53 53" fill="none" xmlns="http://www.w3.org/2000/svg">
<path d="M35.6 41.6667L42.8 34.3333M42.8 34.3333L50 41.6667M42.8 34.3333V49M26 35.5555H15.2C11.8507 35.5555 10.176 35.5555 8.81326 35.9766C5.74509 36.9245 3.3441 39.37 2.41338 42.495C2 43.8829 2 45.5886 2 49M32 16C32 22.0751 27.1647 27 21.2 27C15.2353 27 10.4 22.0751 10.4 16C10.4 9.92487 15.2353 5 21.2 5C27.1647 5 32 9.92487 32 16Z" stroke="#193370" stroke-width="2" stroke-linecap="round" stroke-linejoin="round"/>
</svg>
