<svg width="53" height="53" viewBox="0 0 53 53" fill="none" xmlns="http://www.w3.org/2000/svg">
<path d="M29.8237 17.8796C28.3927 18.8999 26.6414 19.5 24.75 19.5C19.9175 19.5 16 15.5825 16 10.75C16 5.91751 19.9175 2 24.75 2C27.8825 2 30.6305 3.64604 32.1763 6.12036M11 47.2179H17.5257C18.3766 47.2179 19.2222 47.3191 20.047 47.5216L26.9422 49.1972C28.4384 49.5617 29.9969 49.5971 31.5087 49.3035L39.1324 47.8203C41.1464 47.428 42.999 46.4636 44.4509 45.0513L49.8447 39.8043C51.3851 38.3084 51.3851 35.8811 49.8447 34.3827C48.4579 33.0336 46.2618 32.8817 44.6928 34.0258L38.4065 38.6121C37.5062 39.2702 36.4108 39.6246 35.2841 39.6246H29.2137L33.0777 39.6244C35.2555 39.6244 37.0196 37.9083 37.0196 35.7898V35.0229C37.0196 33.2637 35.7889 31.7299 34.0352 31.3047L28.0715 29.8544C27.101 29.619 26.107 29.5 25.1078 29.5C22.6958 29.5 18.3297 31.497 18.3297 31.497L11 34.5622M46 13.25C46 18.0825 42.0825 22 37.25 22C32.4175 22 28.5 18.0825 28.5 13.25C28.5 8.41751 32.4175 4.5 37.25 4.5C42.0825 4.5 46 8.41751 46 13.25ZM1 33.5L1 48C1 49.4001 1 50.1002 1.27248 50.635C1.51217 51.1054 1.89462 51.4878 2.36502 51.7275C2.8998 52 3.59987 52 5 52H7C8.40013 52 9.1002 52 9.63498 51.7275C10.1054 51.4878 10.4878 51.1054 10.7275 50.635C11 50.1002 11 49.4001 11 48V33.5C11 32.0999 11 31.3998 10.7275 30.865C10.4878 30.3946 10.1054 30.0122 9.63498 29.7725C9.1002 29.5 8.40013 29.5 7 29.5L5 29.5C3.59987 29.5 2.8998 29.5 2.36502 29.7725C1.89462 30.0122 1.51217 30.3946 1.27248 30.865C1 31.3998 1 32.0999 1 33.5Z" stroke="#193370" stroke-width="2" stroke-linecap="round" stroke-linejoin="round"/>
</svg>
