<svg width="53" height="53" viewBox="0 0 53 53" fill="none" xmlns="http://www.w3.org/2000/svg">
<g clip-path="url(#clip0_5612_4025)">
<path d="M28.8562 53.0001C28.6103 52.6114 28.5588 52.183 28.5588 51.7311C28.5662 49.0325 28.4572 46.3295 28.5853 43.6368C28.8341 38.4207 30.5537 33.8465 34.8629 30.562C36.8371 29.0574 39.1279 28.2697 41.5423 27.8251C42.3903 27.6691 42.7157 27.9709 42.7245 28.8601C42.7378 30.1041 42.7275 31.3496 42.7275 32.5789C43.0175 32.6511 43.0999 32.4611 43.2104 32.3507C45.0889 30.4825 46.9616 28.6083 48.8342 26.7342C49.0904 26.478 49.4231 26.2542 49.0021 25.8376C46.9689 23.8177 44.949 21.7846 42.7275 19.7912C42.7275 20.5023 42.7186 21.2134 42.7289 21.923C42.7628 24.1711 42.6553 23.8324 40.8386 24.1769C32.6589 25.7272 27.646 30.6429 25.5393 38.6239C25.0873 40.3375 24.8635 42.0821 24.8812 43.862C24.9062 46.462 24.8841 49.0634 24.89 51.6633C24.89 52.1359 24.8709 52.5967 24.5853 53.0016H23.7019C23.3663 52.6792 23.3663 52.264 23.3663 51.84C23.3707 49.0678 23.3147 46.2956 23.378 43.5249C23.59 34.1527 28.9637 24.9307 40.1364 22.7798C41.2067 22.5737 41.2037 22.556 41.2037 21.4769C41.2037 20.3727 41.2008 19.27 41.2067 18.1659C41.2081 17.7419 41.2199 17.3002 41.6969 17.1088C42.1665 16.9204 42.4846 17.2133 42.7878 17.5166C45.32 20.0488 47.8523 22.5796 50.3874 25.1089C50.6127 25.3341 50.8512 25.5461 51.0838 25.764V26.6473C48.372 29.3415 45.6601 32.0357 42.9483 34.7298C42.8438 34.8329 42.7407 34.9374 42.6362 35.0405C42.3756 35.2981 42.0753 35.4483 41.7072 35.3084C41.3303 35.1656 41.2199 34.8373 41.217 34.4781C41.2037 33.2768 41.2067 32.0769 41.2037 30.8756C41.1993 29.2178 41.2891 29.3754 39.7977 29.8185C35.0616 31.2259 32.229 34.4943 30.829 39.1259C30.3004 40.8749 30.0811 42.6681 30.0811 44.4921C30.0811 46.9669 30.0767 49.4432 30.0825 51.918C30.0825 52.3214 30.0531 52.7027 29.7366 52.9986H28.8532L28.8562 53.0001Z" fill="#193370"/>
<path d="M27.2381 0C29.9043 2.67503 32.572 5.34858 35.2396 8.02361C35.3265 8.11047 35.4133 8.19586 35.5002 8.28272C35.7991 8.58011 36.1377 8.87897 35.9419 9.35892C35.7372 9.86095 35.2676 9.86831 34.8186 9.87125C33.6172 9.87714 32.4144 9.87125 31.2131 9.8742C30.2105 9.87567 30.2076 9.87861 30.2061 10.9092C30.2061 15.5938 30.2076 20.2784 30.2032 24.963C30.2032 25.5416 30.3092 26.2232 29.4759 26.341C28.9297 26.4176 28.6823 25.9582 28.6823 24.9571C28.6823 19.8794 28.6823 14.8032 28.6823 9.7255C28.6823 8.52122 28.8472 8.35781 30.0309 8.35486C31.0806 8.35339 32.1318 8.35486 33.1638 8.35486C33.2683 8.0722 33.074 7.98681 32.965 7.87639C31.0777 5.98311 29.1829 4.09719 27.2985 2.20097C27.0055 1.90653 26.7758 1.73575 26.396 2.12147C24.4497 4.09425 22.4799 6.04495 20.5218 8.00595C20.4585 8.06925 20.4217 8.15906 20.2966 8.35339C21.4891 8.35339 22.5815 8.35045 23.6724 8.35339C24.7427 8.35633 24.9297 8.533 24.9297 9.58122C24.9326 15.0019 24.9311 20.4227 24.9297 25.8434C24.9297 26.0392 24.9341 26.2409 24.8884 26.4279C24.806 26.7665 24.5955 27.002 24.2245 27.0079C23.8697 27.0138 23.587 26.843 23.506 26.4941C23.4309 26.1643 23.4118 25.8154 23.4118 25.4753C23.4059 20.6185 23.4088 15.7631 23.4074 10.9062C23.4074 9.88008 23.403 9.87714 22.3871 9.8742C21.2344 9.87125 20.0816 9.87714 18.9289 9.87272C18.4637 9.87125 17.9587 9.91542 17.7202 9.38542C17.4728 8.83481 17.8836 8.52122 18.2104 8.19292C20.6043 5.79908 22.9996 3.40967 25.3919 1.01436C25.7232 0.684583 26.0353 0.338611 26.3548 0C26.6492 0 26.9437 0 27.2381 0Z" fill="#193370"/>
<path d="M0 25.7646C2.67944 23.1013 5.35889 20.4381 8.03686 17.7748C8.17672 17.6365 8.31364 17.4966 8.45497 17.3597C8.7185 17.102 9.02178 16.9607 9.38836 17.1079C9.76231 17.2581 9.86094 17.5938 9.86536 17.95C9.87861 19.1028 9.91394 20.2585 9.86242 21.4083C9.82856 22.168 10.0479 22.4491 10.8562 22.5522C14.681 23.038 18.2762 24.1893 21.3914 26.5596C22.4882 27.3929 23.4937 28.3248 24.355 29.4069C24.6759 29.8088 24.8879 30.2357 24.4168 30.6288C23.956 31.0131 23.5408 30.7672 23.2111 30.3726C19.6512 26.1253 14.8783 24.4308 9.56061 23.889C8.51828 23.783 8.36222 23.6284 8.35633 22.5566C8.35192 21.6512 8.35633 20.7458 8.35633 19.8477C8.05894 19.7417 7.96914 19.9699 7.84694 20.0906C5.96839 21.9589 4.09719 23.836 2.22011 25.7057C1.93892 25.9854 1.70631 26.2107 2.10675 26.6052C4.09867 28.5692 6.06997 30.5523 8.05158 32.525C8.09869 32.5721 8.17378 32.5928 8.35633 32.6899C8.35633 31.4282 8.35633 30.2401 8.35633 29.0521C8.35633 27.7006 8.56392 27.49 9.91394 27.6623C13.2559 28.0892 16.3844 29.0712 18.9784 31.3414C20.4256 32.6075 21.4694 34.168 22.2306 35.9229C22.4367 36.3999 22.3321 36.8254 21.8345 37.0197C21.3649 37.2038 21.0278 36.9388 20.8393 36.5089C18.8886 32.0451 15.2095 30.0502 10.6294 29.3053C10.0126 29.2052 9.85505 29.3863 9.86831 29.9722C9.89775 31.3693 9.88008 32.7694 9.87567 34.1666C9.87567 34.6112 9.8948 35.0867 9.38689 35.2987C8.87897 35.5092 8.56244 35.1633 8.24297 34.8453C5.49728 32.1143 2.74864 29.3804 0 26.6479C0 26.3535 0 26.059 0 25.7646Z" fill="#193370"/>
</g>
<defs>
<clipPath id="clip0_5612_4025">
<rect width="53" height="53" fill="white"/>
</clipPath>
</defs>
</svg>
