<svg width="29" height="28" viewBox="0 0 29 28" fill="none" xmlns="http://www.w3.org/2000/svg">
<g clip-path="url(#clip0_4336_23718)">
<path d="M2.13672 14.5186V5.70382C2.13672 5.5663 2.19135 5.43441 2.28859 5.33717C2.38583 5.23993 2.51772 5.1853 2.65524 5.1853C2.79276 5.1853 2.92464 5.23993 3.02188 5.33717C3.11913 5.43441 3.17376 5.5663 3.17376 5.70382V14.5186C3.17376 14.6562 3.11913 14.788 3.02188 14.8853C2.92464 14.9825 2.79276 15.0372 2.65524 15.0372C2.51772 15.0372 2.38583 14.9825 2.28859 14.8853C2.19135 14.788 2.13672 14.6562 2.13672 14.5186Z" fill="#007bff"/>
<path d="M25.9883 16.5925V12.9629C25.9883 12.8253 26.0429 12.6934 26.1402 12.5962C26.2374 12.499 26.3693 12.4443 26.5068 12.4443C26.6443 12.4443 26.7762 12.499 26.8734 12.5962C26.9707 12.6934 27.0253 12.8253 27.0253 12.9629V16.5925C27.0253 16.73 26.9707 16.8619 26.8734 16.9591C26.7762 17.0564 26.6443 17.111 26.5068 17.111C26.3693 17.111 26.2374 17.0564 26.1402 16.9591C26.0429 16.8619 25.9883 16.73 25.9883 16.5925Z" fill="#007bff"/>
<path d="M23.3945 12.4445V5.18527C23.3945 5.04775 23.4492 4.91586 23.5464 4.81862C23.6436 4.72138 23.7755 4.66675 23.913 4.66675C24.0506 4.66675 24.1825 4.72138 24.2797 4.81862C24.3769 4.91586 24.4316 5.04775 24.4316 5.18527V12.4445C24.4316 12.582 24.3769 12.7139 24.2797 12.8112C24.1825 12.9084 24.0506 12.963 23.913 12.963C23.7755 12.963 23.6436 12.9084 23.5464 12.8112C23.4492 12.7139 23.3945 12.582 23.3945 12.4445Z" fill="#007bff"/>
<path d="M23.4477 18.1482H21.5811V4.14816C21.5807 4.01076 21.5259 3.87911 21.4287 3.78196C21.3316 3.68481 21.1999 3.63005 21.0625 3.62964H18.9885V6.74075C18.9885 8.79531 15.8774 8.79592 15.8774 6.74075V3.62964H13.2848V5.70371C13.2848 7.75827 10.1737 7.75888 10.1737 5.70371V3.62964H8.09959C7.9622 3.63005 7.83055 3.68481 7.7334 3.78196C7.63624 3.87911 7.58148 4.01076 7.58107 4.14816V18.1482H5.71441C5.35663 18.1482 5.22585 18.4737 5.40213 18.6603C10.8521 24.3716 8.73685 22.1606 14.1818 27.86C14.2951 27.9506 14.4359 28 14.5811 28C14.7262 28 14.867 27.9506 14.9803 27.86C20.4261 22.1598 18.3087 24.373 23.7592 18.6611C23.9355 18.4745 23.8055 18.1482 23.4477 18.1482ZM15.0996 18.3867V19.0815C15.0996 19.219 15.045 19.3509 14.9477 19.4481C14.8505 19.5454 14.7186 19.6 14.5811 19.6C14.4435 19.6 14.3117 19.5454 14.2144 19.4481C14.1172 19.3509 14.0626 19.219 14.0626 19.0815V18.3815C13.6743 18.3306 13.3014 18.1974 12.9688 17.9909C12.6361 17.7843 12.3514 17.5091 12.1337 17.1837C12.0623 17.0669 12.0399 16.9265 12.0714 16.7933C12.103 16.66 12.1859 16.5446 12.3021 16.4721C12.4183 16.3997 12.5584 16.3761 12.6919 16.4064C12.8255 16.4367 12.9416 16.5185 13.0151 16.6341C13.1936 16.8795 13.4299 17.0771 13.7031 17.2092C13.9763 17.3412 14.2779 17.4037 14.5811 17.3911C16.2611 17.3911 17.0388 15.7111 15.4211 14.9489C14.9959 14.7467 13.8707 14.7933 13.1914 14.4563C10.967 13.3519 11.5737 10.5363 14.0626 10.1319V9.43705C14.0626 9.29953 14.1172 9.16764 14.2144 9.0704C14.3117 8.97316 14.4435 8.91853 14.5811 8.91853C14.7186 8.91853 14.8505 8.97316 14.9477 9.0704C15.045 9.16764 15.0996 9.29953 15.0996 9.43705V10.137C15.4786 10.1884 15.8429 10.3176 16.1695 10.5166C16.4961 10.7156 16.778 10.9801 16.9974 11.2933C17.0723 11.4082 17.0986 11.5481 17.0704 11.6823C17.0422 11.8165 16.9618 11.9339 16.847 12.0089C16.7322 12.0838 16.5923 12.1101 16.4581 12.0819C16.3239 12.0537 16.2064 11.9734 16.1314 11.8585C15.9517 11.62 15.7167 11.4288 15.4466 11.3014C15.1765 11.1741 14.8794 11.1143 14.5811 11.1274C12.9011 11.1274 12.17 12.7919 13.6529 13.5282C14.0677 13.7304 15.2033 13.6993 15.8618 14.0104C18.2366 15.1304 17.5988 17.9822 15.0996 18.3867Z" fill="#007bff"/>
<path d="M12.248 0.518518V5.7037C12.248 5.84122 12.1933 5.97311 12.0961 6.07035C11.9989 6.16759 11.867 6.22222 11.7295 6.22222C11.5919 6.22222 11.46 6.16759 11.3628 6.07035C11.2656 5.97311 11.2109 5.84122 11.2109 5.7037V0.518518C11.2109 0.380999 11.2656 0.249112 11.3628 0.151871C11.46 0.0546296 11.5919 0 11.7295 0C11.867 0 11.9989 0.0546296 12.0961 0.151871C12.1933 0.249112 12.248 0.380999 12.248 0.518518Z" fill="#007bff"/>
<path d="M17.9511 2.59249V6.74064C17.9511 6.87816 17.8965 7.01005 17.7992 7.10729C17.702 7.20453 17.5701 7.25916 17.4326 7.25916C17.2951 7.25916 17.1632 7.20453 17.0659 7.10729C16.9687 7.01005 16.9141 6.87816 16.9141 6.74064V2.59249C16.9141 2.45497 16.9687 2.32309 17.0659 2.22585C17.1632 2.1286 17.2951 2.07397 17.4326 2.07397C17.5701 2.07397 17.702 2.1286 17.7992 2.22585C17.8965 2.32309 17.9511 2.45497 17.9511 2.59249Z" fill="#007bff"/>
</g>
<defs>
<clipPath id="clip0_4336_23718">
<rect width="28" height="28" fill="white" transform="translate(0.136719)"/>
</clipPath>
</defs>
</svg>
