<svg width="28" height="28" viewBox="0 0 28 28" fill="none" xmlns="http://www.w3.org/2000/svg">
<g clip-path="url(#clip0_4336_23700)">
<path d="M23.1607 3.36492C22.8862 3.08984 22.5635 2.95422 22.19 2.95422C21.817 2.95422 21.49 3.08984 21.2193 3.36492L19.74 4.83984C19.3435 4.58281 18.9235 4.35859 18.4849 4.15789C18.0463 3.95719 17.5979 3.78492 17.1451 3.63563V1.36719C17.1451 0.984375 17.0149 0.662266 16.7486 0.396484C16.4828 0.130703 16.1607 0 15.7779 0H12.9314C12.5672 0 12.2505 0.130703 11.9749 0.396484C11.7042 0.662266 11.5686 0.984375 11.5686 1.36719V3.44422C11.0928 3.55578 10.6307 3.69578 10.1872 3.86859C9.7393 4.04141 9.31492 4.23719 8.91352 4.45648L7.27508 2.84156C7.01859 2.57141 6.70633 2.43141 6.32789 2.43141C5.95437 2.43141 5.63281 2.57141 5.35719 2.84156L3.36492 4.83984C3.08984 5.11492 2.95422 5.43703 2.95422 5.80945C2.95422 6.18297 3.08984 6.51 3.36492 6.78016L4.83984 8.26C4.58281 8.65703 4.35914 9.07648 4.15844 9.51508C3.95719 9.95367 3.78492 10.4021 3.63563 10.8544H1.36773C0.984375 10.8544 0.662266 10.9851 0.396484 11.2514C0.130703 11.5172 0 11.8393 0 12.2221V15.0686C0 15.4323 0.130703 15.75 0.396484 16.0256C0.662266 16.2958 0.984375 16.4314 1.36773 16.4314H3.44422C3.55578 16.9072 3.69578 17.3693 3.86859 17.8123C4.04195 18.2607 4.23773 18.6944 4.45648 19.1144L2.84211 20.7244C2.57141 20.9814 2.43141 21.2937 2.43141 21.6721C2.43141 22.0451 2.57141 22.3672 2.84211 22.6428L4.83984 24.6635C5.11492 24.92 5.43703 25.0463 5.81055 25.0463C6.18352 25.0463 6.51 24.92 6.78125 24.6635L8.26 23.1607C8.65703 23.4172 9.07703 23.6409 9.51562 23.8421C9.95422 24.0423 10.4021 24.2156 10.8549 24.3644V26.6328C10.8549 27.0156 10.9856 27.3372 11.2514 27.603C11.5172 27.8693 11.8398 28 12.2221 28H15.0686C15.4328 28 15.75 27.8693 16.0256 27.603C16.2958 27.3372 16.4314 27.0156 16.4314 26.6328V24.5558C16.9072 24.4442 17.3693 24.3042 17.8123 24.1314C18.2607 23.9586 18.6949 23.7628 19.1144 23.5435L20.7244 25.1584C20.9814 25.4291 21.298 25.5686 21.682 25.5686C22.0686 25.5686 22.3858 25.4291 22.6428 25.1584L24.6635 23.1607C24.92 22.8851 25.0463 22.5635 25.0463 22.19C25.0463 21.817 24.92 21.49 24.6635 21.2193L23.1607 19.74C23.4177 19.343 23.6414 18.9235 23.8421 18.4844C24.0423 18.0463 24.2156 17.5979 24.3649 17.1451H26.6328C27.0156 17.1451 27.3372 17.0138 27.603 16.7486C27.8693 16.4823 28 16.1607 28 15.7779V12.9314C28 12.5672 27.8693 12.2505 27.603 11.9744C27.3372 11.7037 27.0156 11.5686 26.6328 11.5686H24.5558C24.4442 11.1114 24.3042 10.6537 24.1314 10.2014C23.9586 9.74367 23.7628 9.31492 23.5435 8.91297L25.1584 7.27508C25.4291 7.01859 25.5686 6.70578 25.5686 6.32789C25.5686 5.95437 25.4291 5.63281 25.1584 5.35719L23.1607 3.36492ZM20.5133 17.4732C19.2708 19.7985 16.8197 21.3801 14 21.3801C11.1792 21.3801 8.72977 19.7985 7.48727 17.4743C7.63273 16.8394 7.87281 16.2854 8.57555 15.8971C9.5468 15.3562 11.2191 15.3967 12.0148 14.6809L13.1141 17.5673L13.6664 15.9939L13.3957 15.6975C13.1923 15.4 13.2623 15.062 13.6396 15.0008C13.767 14.9805 13.9103 14.9931 14.0481 14.9931C14.1952 14.9931 14.3588 14.9795 14.4977 15.0106C14.8482 15.0877 14.8843 15.4273 14.7098 15.6975L14.4391 15.9939L14.992 17.5673L15.9862 14.6809C16.7038 15.3262 18.6348 15.4563 19.425 15.8971C20.1299 16.292 20.3689 16.8399 20.5133 17.4732ZM11.812 12.7455C11.7124 12.7471 11.6309 12.7345 11.5423 12.6853C11.4248 12.6202 11.3416 12.5081 11.2853 12.3818C11.1666 12.116 11.0726 11.4177 11.3712 11.2175L11.3154 11.1814L11.3094 11.1043C11.2979 10.9637 11.2952 10.7937 11.2919 10.6148C11.2809 9.95859 11.2673 9.16234 10.7248 9.0032L10.4923 8.9343L10.646 8.74945C11.0841 8.22227 11.5418 7.76125 12.0034 7.40742C12.5256 7.00656 13.0566 6.74023 13.5756 6.66313C14.1099 6.58437 14.6273 6.70414 15.1052 7.07984C15.2458 7.19086 15.383 7.32484 15.5154 7.4807C16.0245 7.52883 16.4418 7.79625 16.7393 8.17797C16.9165 8.40547 17.0516 8.67508 17.138 8.96164C17.2233 9.24711 17.2605 9.55063 17.2446 9.84922C17.2156 10.3852 17.0149 10.9074 16.6097 11.2891C16.6808 11.2913 16.748 11.3072 16.8071 11.3389C17.0335 11.4565 17.0406 11.7119 16.9816 11.9268C16.9225 12.1062 16.8481 12.314 16.7776 12.489C16.6923 12.7247 16.567 12.769 16.3253 12.7433C15.7823 15.1195 12.4983 15.2004 11.812 12.7455ZM14 5.32492C18.7928 5.32492 22.6751 9.20992 22.6751 14C22.6751 18.7928 18.7901 22.6751 14 22.6751C9.20773 22.6751 5.32492 18.7901 5.32492 14C5.32492 9.20719 9.20992 5.32492 14 5.32492Z" fill="#007bff"/>
</g>
<defs>
<clipPath id="clip0_4336_23700">
<rect width="28" height="28" fill="white"/>
</clipPath>
</defs>
</svg>
