<svg width="29" height="29" viewBox="0 0 29 29" fill="none" xmlns="http://www.w3.org/2000/svg">
<g clip-path="url(#clip0_4336_23800)">
<g clip-path="url(#clip1_4336_23800)">
<path d="M14.0163 19.2546C11.7658 18.7807 10.6397 16.794 10.9439 14.9633C11.2322 13.2361 12.8236 11.9002 14.6097 11.9102C16.4085 11.9202 17.9813 13.2636 18.2536 14.9883C18.5486 16.859 17.3576 18.8107 15.2823 19.2012C15.762 19.2905 16.352 19.3422 16.9049 19.5124C19.1319 20.1967 20.6314 22.2267 20.6541 24.5314C20.6609 25.1972 20.66 25.8639 20.6541 26.5306C20.6449 27.7146 19.7758 28.574 18.5747 28.5765C15.9246 28.5807 13.2754 28.5807 10.6253 28.5765C9.40902 28.5749 8.5383 27.7129 8.54083 26.5064C8.54252 25.6428 8.49447 24.7708 8.59899 23.9189C8.92519 21.248 11.1142 19.3255 13.8267 19.2554C13.8899 19.2538 13.9522 19.2554 14.0155 19.2554L14.0163 19.2546Z" fill="#007bff"/>
<path d="M21.9934 26.5724C21.9934 25.9675 21.9858 25.3968 21.9951 24.826C22.0288 22.6508 21.2179 20.8551 19.5456 19.4416C19.5153 19.4158 19.4908 19.3841 19.4453 19.3357C20.268 18.7925 21.1674 18.5755 22.1797 18.5739C20.3422 17.9472 19.4226 16.6823 19.6729 15.177C19.9266 13.6492 21.164 12.5804 22.6753 12.582C24.1782 12.5829 25.4063 13.6392 25.6651 15.1528C25.9255 16.6773 25.0144 17.9447 23.176 18.5739C24.3426 18.5689 25.3726 18.8759 26.2576 19.581C27.3762 20.4705 27.9847 21.6303 28.0429 23.0546C28.0648 23.5953 28.0623 24.1377 28.0429 24.6783C28.0075 25.6805 27.2126 26.5324 26.2054 26.5616C24.8188 26.6016 23.4305 26.5716 21.9934 26.5716V26.5724Z" fill="#007bff"/>
<path d="M7.06668 18.5606C8.02337 18.5756 8.91432 18.7967 9.74879 19.3332C9.67461 19.4033 9.61983 19.4592 9.56082 19.5101C8.07057 20.8059 7.26055 22.4272 7.20323 24.398C7.18216 25.1131 7.19986 25.829 7.19986 26.5783H6.76155C5.59498 26.5783 4.4284 26.5808 3.26099 26.5783C1.99073 26.575 1.13519 25.7456 1.14193 24.4898C1.14615 23.743 1.10906 22.9779 1.25488 22.2528C1.68308 20.1234 3.55937 18.6332 5.75513 18.5823C5.82762 18.5806 5.90095 18.5823 6.02148 18.5823C4.04151 17.8305 3.20957 16.5847 3.55516 14.9426C3.85439 13.5208 5.19544 12.5153 6.69496 12.5879C8.15908 12.6588 9.37791 13.8137 9.53048 15.2922C9.6586 16.5388 8.95815 18.1008 7.06499 18.5606H7.06668Z" fill="#007bff"/>
<path d="M11.5677 7.09088C11.8088 6.3808 11.5079 5.7792 10.9845 5.23433C10.7754 5.01656 10.6043 4.7629 10.4231 4.52009C10.005 3.96104 10.2115 3.35359 10.8884 3.15417C11.411 2.99981 11.9412 2.8663 12.457 2.69275C12.6298 2.63434 12.8077 2.50835 12.9172 2.36399C13.2519 1.92343 13.5503 1.457 13.8697 1.00559C14.2735 0.434859 14.9166 0.437362 15.3229 1.0106C15.655 1.47953 15.9702 1.95931 16.3091 2.4224C16.3875 2.52921 16.5215 2.62182 16.6488 2.66271C17.1975 2.83877 17.7555 2.98729 18.3067 3.15668C18.9844 3.36528 19.1842 3.96604 18.7619 4.52676C18.4163 4.98568 18.0505 5.42958 17.7116 5.89268C17.6274 6.00699 17.5751 6.1722 17.5751 6.31405C17.5759 6.8756 17.6113 7.43799 17.6198 7.99954C17.6307 8.71963 17.114 9.08092 16.4186 8.84395C15.9028 8.6679 15.3937 8.46931 14.8719 8.31244C14.6991 8.26071 14.4825 8.26321 14.3097 8.31578C13.7879 8.47348 13.2788 8.67123 12.763 8.84729C12.071 9.08259 11.5635 8.71796 11.5669 7.99286C11.5686 7.71167 11.5669 7.43048 11.5669 7.09088H11.5677Z" fill="#007bff"/>
<path d="M2.28731 8.75963C2.52248 8.13216 2.17183 7.60649 1.71835 7.11086C1.58517 6.96484 1.47138 6.80046 1.35084 6.64276C0.95721 6.12376 1.11736 5.62729 1.74026 5.44122C2.18194 5.30939 2.62868 5.1909 3.06615 5.04488C3.19342 5.00233 3.3266 4.90971 3.40583 4.80207C3.69242 4.41741 3.95203 4.01273 4.23272 3.62306C4.56651 3.1583 5.09922 3.15413 5.43554 3.61555C5.71791 4.00355 5.97584 4.40907 6.26158 4.79456C6.34081 4.90053 6.47231 4.99398 6.59874 5.03654C7.02609 5.17838 7.46271 5.29186 7.89428 5.42203C8.56354 5.62312 8.72622 6.11375 8.3073 6.65945C8.04684 6.99905 7.76784 7.32613 7.52846 7.67992C7.42647 7.83011 7.35988 8.03204 7.35482 8.2131C7.34302 8.64949 7.38432 9.08672 7.39022 9.52311C7.39865 10.1247 6.95697 10.4443 6.38464 10.2515C5.93791 10.1014 5.49876 9.9278 5.04949 9.78511C4.92221 9.74506 4.76038 9.74256 4.6331 9.78261C4.18383 9.92446 3.74384 10.0963 3.2971 10.2474C2.7155 10.4443 2.28731 10.1381 2.28731 9.53396C2.28731 9.30533 2.28731 9.07587 2.28731 8.7588V8.75963Z" fill="#007bff"/>
<path d="M21.7981 8.81703C21.9894 8.18706 21.7627 7.66389 21.3092 7.19996C21.1204 7.00638 20.9645 6.78026 20.8077 6.55914C20.4983 6.12525 20.6661 5.62461 21.1769 5.46357C21.6068 5.32756 22.0392 5.1974 22.4758 5.08809C22.7169 5.02801 22.8787 4.90702 23.0093 4.69842C23.2369 4.33713 23.4881 3.99002 23.7376 3.64207C24.0916 3.14811 24.6227 3.14978 24.9775 3.64791C25.2498 4.03007 25.5043 4.42558 25.785 4.80189C25.8642 4.90786 25.9983 4.99881 26.1255 5.04136C26.5832 5.19239 27.0511 5.31171 27.5104 5.45773C28.0558 5.63129 28.2176 6.1361 27.8763 6.59335C27.5956 6.96966 27.2904 7.32929 27.019 7.71145C26.9314 7.83577 26.8774 8.01016 26.8749 8.16286C26.8665 8.62011 26.8976 9.0782 26.9019 9.53628C26.9078 10.1396 26.4745 10.4441 25.8921 10.2489C25.5246 10.1254 25.152 10.0111 24.798 9.85502C24.4861 9.71735 24.2071 9.73237 23.8994 9.86086C23.5328 10.0144 23.1526 10.1387 22.7742 10.2614C22.2347 10.4358 21.804 10.1195 21.7981 9.55464C21.7956 9.31517 21.7981 9.07653 21.7981 8.81786V8.81703Z" fill="#007bff"/>
</g>
</g>
<defs>
<clipPath id="clip0_4336_23800">
<rect width="28" height="28" fill="white" transform="translate(0.136719 0.579102)"/>
</clipPath>
<clipPath id="clip1_4336_23800">
<rect width="26.9231" height="28" fill="white" transform="translate(1.13672 0.579102)"/>
</clipPath>
</defs>
</svg>
