<svg width="28" height="27" viewBox="0 0 28 27" fill="none" xmlns="http://www.w3.org/2000/svg">
<path d="M27.7181 10.8893C27.5347 10.699 27.2835 10.589 27.0193 10.5834C26.7551 10.5778 26.4994 10.677 26.3081 10.8593L25.8471 11.2993C25.5488 8.36289 24.1722 5.64142 21.9835 3.66127C19.7948 1.68112 16.9496 0.582988 13.9981 0.579284C11.462 0.565162 8.98889 1.36914 6.94589 2.87188C4.9029 4.37463 3.39889 6.49605 2.65707 8.92128C2.61479 9.04776 2.59823 9.18141 2.60836 9.31438C2.6185 9.44735 2.65513 9.57695 2.71609 9.69555C2.77706 9.81416 2.86113 9.91937 2.96337 10.005C3.0656 10.0906 3.18392 10.1549 3.31138 10.1942C3.43884 10.2334 3.57286 10.2467 3.70554 10.2334C3.83823 10.22 3.9669 10.1803 4.084 10.1164C4.2011 10.0526 4.30424 9.96604 4.38738 9.86177C4.47051 9.7575 4.53195 9.63765 4.56807 9.50928C5.18543 7.49354 6.43634 5.7306 8.13511 4.4822C9.83389 3.23379 11.8899 2.56646 13.9981 2.57928C16.357 2.5833 18.6372 3.42823 20.4292 4.96233C22.2212 6.49642 23.4075 8.61916 23.7751 10.9493L23.7181 10.8893C23.5304 10.7205 23.2859 10.629 23.0335 10.633C22.7812 10.637 22.5397 10.7362 22.3575 10.9108C22.1753 11.0855 22.0658 11.3225 22.0511 11.5745C22.0364 11.8264 22.1174 12.0746 22.2781 12.2693L24.1881 14.2693C24.2799 14.3682 24.3914 14.4469 24.5154 14.5003C24.6393 14.5536 24.7731 14.5806 24.9081 14.5793C24.9384 14.5809 24.9688 14.5775 24.9981 14.5693C25.225 14.5582 25.4393 14.4618 25.5981 14.2993L27.6881 12.2993C27.8784 12.1159 27.9883 11.8647 27.994 11.6005C27.9996 11.3363 27.9004 11.0806 27.7181 10.8893Z" fill="#007bff"/>
<path d="M24.679 16.9872C24.4256 16.9095 24.1517 16.9356 23.9175 17.0597C23.6833 17.1838 23.508 17.3959 23.43 17.6492C22.8127 19.665 21.5618 21.4279 19.863 22.6763C18.1642 23.9247 16.1081 24.592 14 24.5792C11.6411 24.5752 9.36085 23.7303 7.56888 22.1962C5.77691 20.6621 4.5906 18.5393 4.22302 16.2092L4.28002 16.2692C4.37019 16.3645 4.47839 16.4409 4.59833 16.4941C4.71828 16.5472 4.84758 16.5761 4.97875 16.5788C5.10991 16.5816 5.24033 16.5584 5.36243 16.5104C5.48452 16.4623 5.59587 16.3906 5.69002 16.2992C5.88031 16.1158 5.99028 15.8646 5.9959 15.6004C6.00153 15.3362 5.90234 15.0805 5.72002 14.8892L3.81002 12.8892C3.70754 12.7798 3.58101 12.6957 3.44042 12.6436C3.29983 12.5916 3.14905 12.5729 3.00002 12.5892C2.77311 12.6003 2.55877 12.6967 2.40002 12.8592L0.310018 14.8592C0.119727 15.0426 0.00975415 15.2938 0.00413279 15.558C-0.00148856 15.8222 0.0976983 16.0779 0.280018 16.2692C0.370192 16.3645 0.478389 16.4409 0.598334 16.4941C0.718279 16.5472 0.847585 16.5761 0.97875 16.5788C1.10991 16.5816 1.24033 16.5584 1.36243 16.5104C1.48452 16.4623 1.59587 16.3906 1.69002 16.2992L2.15102 15.8592C2.44948 18.7955 3.82614 21.5169 6.01479 23.497C8.20344 25.4771 11.0486 26.5753 14 26.5792C16.5361 26.5933 19.0092 25.7894 21.0522 24.2866C23.0952 22.7839 24.5992 20.6624 25.341 18.2372C25.3797 18.1117 25.3932 17.9797 25.3808 17.849C25.3685 17.7182 25.3304 17.5911 25.269 17.4751C25.2075 17.359 25.1238 17.2562 25.0225 17.1724C24.9213 17.0887 24.8046 17.0258 24.679 16.9872Z" fill="#007bff"/>
<path d="M14 13.5791C15.6569 13.5791 17 12.236 17 10.5791C17 8.92225 15.6569 7.5791 14 7.5791C12.3431 7.5791 11 8.92225 11 10.5791C11 12.236 12.3431 13.5791 14 13.5791Z" fill="#007bff"/>
<path d="M10.2607 13.8994C9.99733 14.0925 9.7559 14.3138 9.54069 14.5594C9.16069 14.969 8.90968 15.4814 8.81899 16.0326C8.72829 16.5839 8.80192 17.1497 9.03069 17.6594C9.32908 18.2635 9.79763 18.7671 10.3786 19.1083C10.9597 19.4494 11.6278 19.6132 12.3007 19.5794H16.2307C16.8116 19.5782 17.3798 19.4089 17.8665 19.0918C18.3533 18.7747 18.7378 18.3235 18.9736 17.7926C19.2095 17.2617 19.2865 16.6739 19.1955 16.1001C19.1045 15.5264 18.8493 14.9913 18.4607 14.5594C18.2455 14.3138 18.004 14.0925 17.7407 13.8994C17.2716 14.4281 16.6957 14.8514 16.051 15.1412C15.4063 15.4311 14.7075 15.5809 14.0007 15.5809C13.2939 15.5809 12.5951 15.4311 11.9504 15.1412C11.3057 14.8514 10.7298 14.4281 10.2607 13.8994Z" fill="#007bff"/>
</svg>
