<svg width="77" height="77" viewBox="0 0 77 77" fill="none" xmlns="http://www.w3.org/2000/svg">
<g clip-path="url(#clip0_5612_1586)">
<path d="M13.9813 44.0834C14.6788 40.8325 16.7542 38.7411 19.6363 38.2763C22.4553 37.8213 25.1723 39.0776 26.6158 41.5006C28.3121 44.3497 27.8576 46.7558 24.8952 50.4883C25.4517 50.6215 25.9912 50.7425 26.5259 50.8805C30.0278 51.7979 32.4968 54.7147 32.5673 58.3287C32.6645 63.1772 32.6232 68.0281 32.5867 72.879C32.5721 74.8809 31.0557 76.2993 29.0265 76.3066C23.6243 76.3211 18.2196 76.3187 12.8173 76.309C10.584 76.3042 9.12099 74.8712 9.138 72.6418C9.17931 67.1809 8.51831 61.7636 7.58269 56.4213C6.99945 53.0905 5.69688 49.8372 4.36757 46.6952C1.95684 41.0141 0.586225 35.1465 0.333487 28.9981C0.282453 27.7588 0.0758884 26.5267 0.00784361 25.2873C-0.118525 22.9878 1.29583 21.1045 3.25455 20.8963C5.73576 20.6301 7.73822 22.1212 8.059 24.5612C8.53289 28.1654 8.94359 31.777 9.39317 35.3837C9.43205 35.6984 9.50496 36.0324 9.65563 36.3084C10.9922 38.7774 12.3507 41.2368 13.7043 43.6985C13.7578 43.7953 13.8331 43.8801 13.9813 44.0834ZM24.4578 69.1973C24.4578 67.6699 24.4457 66.278 24.4627 64.8886C24.4724 63.9421 24.9171 63.4386 25.668 63.458C26.3849 63.4774 26.781 63.9518 26.7883 64.8644C26.8005 66.5806 26.8005 68.2968 26.7883 70.013C26.781 71.1483 26.4238 71.5041 25.2986 71.5089C23.1309 71.5162 20.9632 71.5089 18.7955 71.5138C17.7651 71.5162 17.1721 71.9761 17.1624 72.7459C17.1551 73.5181 17.753 73.9925 18.7712 73.9949C22.0981 73.9998 25.4226 74.0022 28.7495 73.9949C29.8552 73.9949 30.2659 73.5955 30.2683 72.5038C30.2756 67.9192 30.2951 63.3321 30.2635 58.7475C30.244 55.8524 28.4384 53.6811 25.6048 53.0421C24.4772 52.7879 23.3399 52.5749 22.2099 52.3232C20.7639 52.0012 19.2718 51.8027 17.8939 51.2944C15.3908 50.3697 13.6849 48.472 12.4114 46.1966C10.7492 43.2289 9.12828 40.2395 7.51465 37.2452C7.31051 36.8675 7.17685 36.4246 7.12339 35.9961C6.68596 32.4766 6.27526 28.9521 5.85484 25.4277C5.82082 25.1348 5.7795 24.8395 5.71146 24.5515C5.50246 23.6922 4.6276 23.116 3.67497 23.2008C2.89975 23.2685 2.29221 23.9681 2.33838 24.9049C2.40885 26.3209 2.59355 27.7322 2.68103 29.1482C2.99452 34.1904 3.7819 39.1211 5.76249 43.8268C6.96543 46.6831 8.0347 49.6 9.07725 52.5192C10.5499 56.6415 10.4916 61.0156 11.0262 65.288C11.3276 67.6868 11.3373 70.1219 11.4564 72.5425C11.4928 73.3075 11.7116 73.915 12.5718 73.9731C13.3592 74.0264 14.1539 73.9852 14.9631 73.9852C14.2875 70.7029 16.6861 68.9407 19.2086 69.1682C20.9098 69.3207 22.6376 69.1973 24.4578 69.1973ZM20.7785 49.4039C23.2379 49.3918 25.2549 47.3682 25.2403 44.9306C25.2257 42.4882 23.1844 40.4694 20.7421 40.4839C18.2949 40.4985 16.2633 42.5366 16.2754 44.9669C16.2876 47.4117 18.324 49.4184 20.7761 49.4039H20.7785Z" fill="white"/>
<path d="M52.1739 50.4862C49.3719 47.5742 48.7279 44.7276 50.1592 41.9076C51.4278 39.4071 54.2492 37.8579 56.9103 38.1992C60.1108 38.6107 62.2907 40.6634 63.0173 44.0571C63.1923 43.8174 63.3332 43.6601 63.4328 43.4785C64.7135 41.1451 66.072 38.8479 67.2191 36.4491C67.6832 35.476 67.7367 34.2899 67.8801 33.1861C68.2616 30.2838 68.5678 27.3718 68.9469 24.4695C69.2531 22.1481 71.2167 20.6836 73.6542 20.8869C75.6031 21.0491 77.0953 22.8839 76.9932 25.1158C76.6311 32.9876 75.5132 40.6924 72.1329 47.947C70.648 51.1349 69.4256 54.4657 69.0903 58.0046C68.6261 62.887 68.2349 67.7791 67.8971 72.6711C67.7488 74.8352 66.4074 76.2996 64.2397 76.3045C58.835 76.3166 53.4278 76.3166 48.0231 76.3045C45.9016 76.2996 44.4216 74.8594 44.4119 72.7413C44.3876 68.0357 44.3682 63.3324 44.4168 58.6267C44.4581 54.6787 47.0729 51.5876 50.9636 50.7428C51.3355 50.6629 51.7073 50.5806 52.1714 50.4814L52.1739 50.4862ZM62.0306 73.9976C62.6187 73.9976 63.1485 73.9976 63.6783 73.9976C65.2603 73.9976 65.445 73.695 65.5665 72.1483C65.9772 66.9343 66.3636 61.7154 66.9736 56.5232C67.4135 52.7688 68.8764 49.2541 70.4512 45.8531C73.5059 39.2546 74.1864 32.2227 74.6748 25.1303C74.7283 24.3678 74.5314 23.5714 73.7854 23.3705C73.2119 23.2156 72.4561 23.4116 71.8923 23.6852C71.5642 23.8449 71.326 24.4404 71.2677 24.8689C70.8862 27.6816 70.5751 30.5016 70.2155 33.3168C70.0575 34.544 70.1231 35.902 69.5982 36.9574C67.9092 40.3414 66.0769 43.6625 64.1352 46.9085C62.6649 49.3655 60.5677 51.164 57.6247 51.7522C55.5907 52.1588 53.5615 52.597 51.5299 53.0206C48.5942 53.6354 46.7667 55.797 46.7473 58.7938C46.7181 63.3493 46.7351 67.9049 46.7424 72.4605C46.7424 73.6127 47.1361 73.9904 48.3075 73.9928C51.039 74 53.7705 73.9952 56.5044 73.9928C57.2165 73.9928 57.9309 74.0194 58.643 73.9758C59.372 73.9323 59.8095 73.482 59.8265 72.7752C59.8435 72.0636 59.4061 71.6303 58.6916 71.5262C58.4583 71.4923 58.2177 71.5092 57.9795 71.5092C55.841 71.5092 53.7024 71.5068 51.5639 71.5092C50.8032 71.5092 50.254 71.2018 50.2394 70.4006C50.203 68.4496 50.2127 66.4961 50.237 64.5451C50.2443 63.8891 50.6501 63.5043 51.3063 63.4655C52.0159 63.4244 52.446 63.8214 52.5238 64.4919C52.5967 65.1043 52.5554 65.7312 52.5578 66.3533C52.5603 67.2853 52.5578 68.2172 52.5578 69.1951H55.4473C56.3683 69.1951 57.2894 69.1951 58.208 69.1951C61.0124 69.2024 62.4389 70.9307 62.0355 73.9952L62.0306 73.9976ZM56.2517 49.4042C58.7062 49.3945 60.7305 47.3733 60.7208 44.9382C60.7111 42.5054 58.6649 40.477 56.2298 40.4842C53.7826 40.4915 51.768 42.5151 51.7729 44.9599C51.7777 47.4144 53.7948 49.4139 56.2517 49.4042Z" fill="white"/>
<path d="M32.7335 40.5471C32.9765 37.41 31.5938 34.7546 30.2596 32.0702C29.2632 30.0683 28.0481 28.1004 27.4819 25.9726C25.7541 19.4902 30.9765 12.6883 37.7032 12.3833C44.1189 12.0928 49.2004 16.4548 49.8371 22.8258C50.0436 24.8858 49.5284 26.8199 48.6122 28.6474C47.9901 29.8892 47.2951 31.0947 46.6268 32.3122C45.0666 35.154 43.9609 38.1096 44.2817 41.4355C44.3279 41.9027 44.3692 42.4207 44.2088 42.8395C44.0217 43.3284 43.6887 44.0135 43.2853 44.12C42.3351 44.3717 42.2817 44.9212 42.2476 45.7152C42.1626 47.6976 40.4736 49.1936 38.4517 49.1742C36.4784 49.1549 34.821 47.6565 34.7457 45.7152C34.7141 44.9188 34.6485 44.3959 33.7129 44.1127C33.2803 43.982 32.9012 43.2122 32.77 42.6652C32.6096 41.9947 32.7311 41.2564 32.7311 40.5471H32.7335ZM38.5052 37.122C39.2464 37.122 39.9876 37.122 40.7312 37.122C42.1577 37.122 42.0484 37.0736 42.6024 35.8148C43.6936 33.3337 44.8746 30.8889 46.1019 28.4731C47.1007 26.5052 47.7423 24.5203 47.419 22.2667C46.758 17.6506 42.1407 14.1213 37.4699 14.7337C32.5464 15.38 28.9813 19.771 29.5232 24.4912C29.7347 26.3357 30.5828 27.9164 31.4698 29.4898C32.7481 31.7579 33.9729 34.0454 34.6704 36.5773C34.7335 36.8073 35.1345 37.0833 35.3921 37.1002C36.4274 37.1607 37.4675 37.1244 38.5052 37.1268V37.122ZM35.1054 42.0237H41.8855V39.5232H35.1054V42.0237ZM37.1078 44.4516C37.0082 45.3012 36.8745 46.1751 37.7397 46.5938C38.1649 46.7996 38.8721 46.7899 39.2901 46.5721C40.1309 46.1339 40.0022 45.277 39.8734 44.4516H37.1054H37.1078Z" fill="white"/>
<path d="M18.6369 24.9075C17.8349 24.9075 17.0329 24.9341 16.2358 24.9002C15.4217 24.8663 14.9381 24.3967 14.9746 23.7141C15.0159 22.954 15.5019 22.5958 16.2042 22.5837C17.8932 22.5546 19.5846 22.5474 21.276 22.5837C22.0901 22.6006 22.5883 23.0993 22.5397 23.7722C22.4838 24.571 21.9662 24.8954 21.2177 24.9075C20.3574 24.9196 19.4971 24.9099 18.6369 24.9075Z" fill="white"/>
<path d="M58.1279 24.9052C57.3283 24.9052 56.5264 24.9318 55.7293 24.8979C54.9103 24.8641 54.4364 24.4041 54.4705 23.7143C54.5093 22.9566 54.9857 22.5911 55.6928 22.579C57.411 22.5524 59.1291 22.5475 60.8472 22.5863C61.5544 22.6032 62.0307 23.0123 62.0137 23.7651C61.9967 24.5203 61.5058 24.8737 60.7962 24.8955C59.9092 24.9246 59.0198 24.9028 58.1303 24.9028L58.1279 24.9052Z" fill="white"/>
<path d="M39.669 4.06839C39.669 4.89382 39.6836 5.72167 39.6642 6.5471C39.6472 7.29265 39.3142 7.82518 38.5026 7.82518C37.6957 7.82518 37.3434 7.30233 37.3361 6.55436C37.3215 4.90108 37.3191 3.25022 37.3361 1.59694C37.3458 0.856235 37.686 0.32128 38.4953 0.316439C39.3094 0.311597 39.6399 0.851394 39.6618 1.58968C39.6861 2.41511 39.6666 3.24296 39.6666 4.06839H39.669Z" fill="white"/>
<path d="M26.4782 13.0101C26.0359 12.7341 25.6714 12.5865 25.409 12.3347C24.2595 11.2261 23.1319 10.0957 22.0116 8.95797C21.4089 8.34555 21.3749 7.65083 21.8755 7.16187C22.347 6.69953 23.0468 6.7189 23.6155 7.2708C24.8039 8.42543 26.0019 9.57038 27.1125 10.7952C27.3871 11.0978 27.4965 11.7223 27.4017 12.1338C27.3264 12.463 26.8282 12.6978 26.4782 13.0101Z" fill="white"/>
<path d="M55.642 7.95322C55.3601 8.38167 55.2022 8.73265 54.9494 8.99408C53.8559 10.1172 52.7428 11.221 51.6201 12.3176C50.9542 12.9687 50.2568 13.0147 49.7513 12.4749C49.2701 11.9593 49.3309 11.3179 49.9652 10.6788C51.1098 9.52178 52.2374 8.34536 53.4476 7.26092C53.7538 6.98739 54.3856 6.88573 54.7988 6.98497C55.1196 7.06243 55.3358 7.57802 55.642 7.95322Z" fill="white"/>
</g>
<defs>
<clipPath id="clip0_5612_1586">
<rect width="77" height="76" fill="white" transform="translate(0 0.316406)"/>
</clipPath>
</defs>
</svg>
