<svg width="69" height="76" viewBox="0 0 69 76" fill="none" xmlns="http://www.w3.org/2000/svg">
<path d="M26.8599 75.9961C26.2434 75.566 26.1582 74.9475 26.1602 74.2459C26.1721 56.9617 26.1681 39.6795 26.1681 22.3954C26.1681 22.0525 26.1681 21.7095 26.1681 21.2655C25.8371 21.2655 25.5735 21.2655 25.3099 21.2655C23.2821 21.2655 21.2544 21.2596 19.2267 21.2695C18.6677 21.2715 18.192 21.1585 17.9482 20.5916C17.7024 20.0228 17.9522 19.5966 18.3466 19.2022C24.5745 12.9802 30.7984 6.75438 37.0282 0.534462C37.7457 -0.183068 38.2631 -0.179104 38.9965 0.552301C45.2065 6.75636 51.4125 12.9644 57.6205 19.1724C58.0071 19.5589 58.2925 19.9692 58.0606 20.552C57.8168 21.1625 57.3212 21.2735 56.7345 21.2695C54.7306 21.2576 52.7286 21.2655 50.7247 21.2655C50.4571 21.2655 50.1915 21.2655 49.8288 21.2655C49.8288 21.6283 49.8288 21.9157 49.8288 22.2031C49.8288 26.1099 49.8288 30.0166 49.8248 33.9234C49.8248 34.2168 49.8129 34.524 49.7257 34.7995C49.5533 35.3406 49.135 35.5785 48.5761 35.5151C48.0132 35.4516 47.6881 35.1186 47.6207 34.5537C47.5969 34.3575 47.6029 34.1593 47.6029 33.9611C47.6029 29.5112 47.6029 25.0593 47.6029 20.6095C47.6029 19.3627 47.9319 19.0416 49.1925 19.0396C50.8238 19.0376 52.4551 19.0396 53.906 19.0396C48.5999 13.7335 43.2204 8.35594 37.8944 3.02996C32.6834 8.239 27.3059 13.6145 21.9224 18.996C22.0651 19.0079 22.2732 19.0376 22.4794 19.0376C23.9382 19.0416 25.3971 19.0376 26.8559 19.0416C28.0472 19.0456 28.3822 19.3885 28.3901 20.5976C28.3901 20.6709 28.3901 20.7462 28.3901 20.8196C28.3901 38.6231 28.3881 56.4245 28.4 74.228C28.4 74.9257 28.3128 75.5362 27.7459 75.9961H26.8559H26.8599Z" fill="white"/>
<path d="M48.2311 75.9958C46.7446 75.6549 45.2203 75.4309 43.7813 74.9512C36.1144 72.4022 30.1938 64.7076 31.0223 55.2964C31.724 47.3144 37.5633 40.2798 45.9834 38.49C57.0001 36.1471 67.6402 43.9527 68.7462 55.1319C69.7709 65.4985 62.3717 74.6559 51.9932 75.867C51.8247 75.8868 51.6622 75.9502 51.4977 75.9938H48.2331L48.2311 75.9958ZM33.165 57.0031C33.1234 66.1823 40.6237 73.7302 49.8248 73.7679C59.0278 73.8056 66.5797 66.3349 66.6312 57.1478C66.6828 47.8714 59.1864 40.3314 49.8961 40.3175C40.6951 40.3036 33.2086 47.7723 33.167 57.0031H33.165Z" fill="white"/>
<path d="M9.0486 75.9963C8.47577 75.6236 8.30927 75.0964 8.30927 74.4205C8.32513 66.5574 8.31918 58.6963 8.31918 50.8332C8.31918 50.5398 8.31918 50.2465 8.31918 49.8421C8.00997 49.8421 7.75031 49.8421 7.49065 49.8421C5.48672 49.8421 3.48477 49.8401 1.48084 49.8421C0.878268 49.8421 0.339129 49.737 0.0834346 49.0988C-0.164332 48.4804 0.180559 48.0701 0.582931 47.6697C6.75726 41.5013 12.9296 35.329 19.1039 29.1586C19.8849 28.3776 20.4082 28.3737 21.1772 29.1348C21.8452 29.7948 22.5132 30.4569 23.1693 31.1308C23.7243 31.6997 23.7758 32.3716 23.3199 32.8354C22.8601 33.3012 22.1802 33.2636 21.6173 32.7066C21.1455 32.2408 20.7015 31.7453 20.3249 31.3469C14.8543 36.8155 9.46485 42.201 4.04967 47.6162C5.55609 47.6162 7.10215 47.6162 8.64821 47.6162C8.94553 47.6162 9.24285 47.6023 9.53819 47.632C10.1388 47.6895 10.4678 48.0423 10.5372 48.635C10.557 48.8054 10.5491 48.9799 10.5491 49.1543C10.5491 57.5843 10.5431 66.0163 10.561 74.4463C10.561 75.1281 10.4044 75.6554 9.79388 75.9963H9.05257H9.0486Z" fill="white"/>
<path d="M40.4714 50.9879C40.4595 49.648 40.8718 48.4567 41.7737 47.4577C43.5596 45.4796 46.4436 45.5708 48.1185 47.648C49.6408 49.537 49.6527 52.3397 48.1443 54.2485C46.4377 56.411 43.4228 56.4566 41.6568 54.3397C40.85 53.3724 40.4675 52.2466 40.4734 50.9859L40.4714 50.9879ZM42.6974 50.9959C42.7093 52.4983 43.6983 53.7074 44.8916 53.6816C46.0551 53.6559 47.0244 52.4547 47.0422 51.0117C47.06 49.5033 46.0472 48.2347 44.8341 48.2546C43.6428 48.2724 42.6835 49.5013 42.6974 50.9959Z" fill="white"/>
<path d="M54.7486 58.1826C57.5275 58.1886 59.6226 60.7654 59.3233 63.5681C59.0201 66.3986 56.923 68.2856 54.3977 68.0001C52.3006 67.7643 50.6654 65.7841 50.5306 63.3183C50.4018 60.9477 51.9122 58.7832 54.0608 58.2778C54.3462 58.2104 54.6455 58.1945 54.7486 58.1807V58.1826ZM57.1172 63.0765C57.0994 61.6316 56.1361 60.4324 54.9726 60.4086C53.809 60.3848 52.8656 61.4551 52.7585 62.9199C52.7506 63.019 52.7486 63.1181 52.7546 63.2153C52.818 64.7078 53.7754 65.8297 54.9646 65.8079C56.1599 65.7861 57.137 64.5473 57.1192 63.0765H57.1172Z" fill="white"/>
<path d="M46.3203 66.8204C45.5274 66.8402 45.0021 66.1504 45.2618 65.3556C45.46 64.7471 45.7415 64.1663 45.9892 63.5756C48.1736 58.3646 50.3579 53.1556 52.5441 47.9465C52.6294 47.7424 52.7106 47.5303 52.8375 47.3499C53.1864 46.8524 53.6839 46.7473 54.2111 46.9812C54.7166 47.2072 54.9584 47.6571 54.8018 48.2002C54.6452 48.7414 54.4034 49.2607 54.1853 49.784C51.9535 55.108 49.7176 60.43 47.4897 65.756C47.2618 66.2991 47.0239 66.8085 46.3222 66.8224L46.3203 66.8204Z" fill="white"/>
</svg>
